<?xml version="1.0" encoding="utf-8"?>
<!-- Generator: Adobe Illustrator 12.0.0, SVG Export Plug-In . SVG Version: 6.00 Build 51448)  -->
<!DOCTYPE svg PUBLIC "-//W3C//DTD SVG 1.1//EN" "http://www.w3.org/Graphics/SVG/1.1/DTD/svg11.dtd" [
	<!ENTITY ns_svg "http://www.w3.org/2000/svg">
	<!ENTITY ns_xlink "http://www.w3.org/1999/xlink">
]>
<svg  version="1.1" id="Layer_1" xmlns="&ns_svg;" xmlns:xlink="&ns_xlink;" width="46.734" height="20.482"
	 viewBox="0 0 46.734 20.482" overflow="visible" enable-background="new 0 0 46.734 20.482" xml:space="preserve">
<polygon fill="none" stroke="#CECBBD" stroke-width="3.2" stroke-linecap="round" stroke-linejoin="round" points="38.932,11.868 
	38.852,6.792 18.553,1.6 13.619,4.946 12.986,4.777 12.446,5.131 11.292,4.833 11.29,4.389 10.319,4.128 8.833,5.1 8.843,7.963 
	9.08,8.029 8.635,8.329 8.602,8.32 8.607,13.402 28.85,18.883 35.281,14.406 35.875,14.559 35.875,14.952 36.846,15.215 
	38.332,14.229 38.326,12.288 "/>
<polygon fill="#C7CACC" points="8.44,5.905 7.14,2.98 5.658,4.065 1.739,3.014 0,4.294 3.913,5.344 2.555,6.339 "/>
<polygon fill="#777A7F" points="46.734,17.034 45.434,14.11 43.953,15.195 40.033,14.144 38.295,15.424 42.209,16.473 40.85,17.467 
	"/>
<polygon fill="#797C7F" points="9.804,5.359 9.813,8.225 8.843,7.964 8.833,5.1 "/>
<polygon fill="#4E5154" points="9.804,5.359 11.29,4.388 11.299,7.242 9.813,8.225 "/>
<polygon fill="#84868A" points="8.833,5.1 10.319,4.127 11.29,4.389 9.804,5.359 "/>
<polygon fill="#616468" points="12.538,5.912 12.546,8.486 10.215,7.887 10.207,5.315 "/>
<polygon fill="#8879B1" points="12.538,5.912 13.375,5.368 13.383,7.932 12.546,8.486 "/>
<polygon fill="#797C7F" points="10.207,5.315 11.045,4.771 13.375,5.369 12.538,5.912 "/>
<polygon fill="#797C7F" points="12.471,6.008 12.479,8.874 11.509,8.613 11.5,5.749 "/>
<polygon fill="#4E5154" points="12.471,6.008 13.956,5.037 13.965,7.891 12.479,8.874 "/>
<polygon fill="#84868A" points="11.5,5.749 12.986,4.776 13.956,5.038 12.471,6.008 "/>
<polygon fill="#B9BDBE" points="8.607,13.402 28.85,18.883 28.828,13.726 8.602,8.32 "/>
<polygon fill="#A4A9AD" points="28.85,18.883 38.934,11.868 38.852,6.792 28.828,13.726 "/>
<polygon fill="#D5D8DA" points="28.828,13.726 8.61,8.345 18.553,1.6 38.852,6.792 "/>
<polygon fill="#797C7F" points="34.17,11.7 34.178,14.563 33.209,14.303 33.199,11.439 "/>
<polygon fill="#4E5154" points="34.17,11.7 35.656,10.728 35.664,13.581 34.178,14.563 "/>
<polygon fill="#84868A" points="33.199,11.439 34.686,10.468 35.656,10.728 34.17,11.7 "/>
<polygon fill="#616468" points="36.904,12.251 36.912,14.825 34.58,14.228 34.572,11.653 "/>
<polygon fill="#8879B1" points="36.904,12.251 37.742,11.709 37.75,14.271 36.912,14.825 "/>
<polygon fill="#797C7F" points="34.572,11.653 35.412,11.112 37.742,11.709 36.904,12.251 "/>
<polygon fill="#797C7F" points="36.836,12.349 36.846,15.215 35.875,14.952 35.865,12.088 "/>
<polygon fill="#4E5154" points="36.836,12.349 38.322,11.378 38.332,14.229 36.846,15.215 "/>
<polygon fill="#84868A" points="35.865,12.088 37.352,11.117 38.322,11.378 36.836,12.349 "/>
<polyline fill="none" stroke="#EEEDED" stroke-width="0.8" stroke-linecap="round" points="9.087,8.486 28.828,13.726 38.408,7.13 
	"/>
</svg>
