<?xml version="1.0" encoding="UTF-8" standalone="no"?>
<svg
   xmlns:dc="http://purl.org/dc/elements/1.1/"
   xmlns:cc="http://creativecommons.org/ns#"
   xmlns:rdf="http://www.w3.org/1999/02/22-rdf-syntax-ns#"
   xmlns:svg="http://www.w3.org/2000/svg"
   xmlns="http://www.w3.org/2000/svg"
   xmlns:sodipodi="http://sodipodi.sourceforge.net/DTD/sodipodi-0.dtd"
   xmlns:inkscape="http://www.inkscape.org/namespaces/inkscape"
   version="1.1"
   x="0px"
   y="0px"
   width="45.733711"
   height="36.99007"
   viewBox="0 0 45.733711 36.99007"
   enable-background="new 0 0 50 50"
   xml:space="preserve"
   id="svg2"
   inkscape:version="0.48.0 r9654"
   sodipodi:docname="grayCloud2.svg"><metadata
     id="metadata40"><rdf:RDF><cc:Work
         rdf:about=""><dc:format>image/svg+xml</dc:format><dc:type
           rdf:resource="http://purl.org/dc/dcmitype/StillImage" /><dc:title></dc:title></cc:Work></rdf:RDF></metadata><defs
     id="defs38" /><sodipodi:namedview
     pagecolor="#ffffff"
     bordercolor="#666666"
     borderopacity="1"
     objecttolerance="10"
     gridtolerance="10"
     guidetolerance="10"
     inkscape:pageopacity="0"
     inkscape:pageshadow="2"
     inkscape:window-width="1235"
     inkscape:window-height="947"
     id="namedview36"
     showgrid="false"
     fit-margin-top="0"
     fit-margin-left="0"
     fit-margin-right="0"
     fit-margin-bottom="0"
     inkscape:zoom="7.7274867"
     inkscape:cx="-14.984928"
     inkscape:cy="13.095459"
     inkscape:window-x="0"
     inkscape:window-y="0"
     inkscape:window-maximized="0"
     inkscape:current-layer="svg2" /><rect
     style="fill:#0070c0;fill-opacity:1;stroke:none"
     id="rect5008"
     width="40.634171"
     height="32.999084"
     x="2.4587555"
     y="2.0498614"
     ry="16.499542" /><g
     id="Layer_6"
     transform="matrix(1.2684774,0,0,1.2684774,-8.5076638,-11.450545)"><g
       id="g5"><linearGradient
   id="SVGID_14_"
   gradientUnits="userSpaceOnUse"
   x1="92.325203"
   y1="288.1572"
   x2="92.325203"
   y2="293.6358"
   gradientTransform="matrix(-1,0,0,-1,116.6973,324.4141)"><stop
     offset="0"
     style="stop-color:#B8B8B8"
     id="stop8" /><stop
     offset="1"
     style="stop-color:#FFFFFF"
     id="stop10" /></linearGradient><path
   d="m 8.715,22.033 c -0.497,0 -0.746,0.256 -0.842,0.395 -0.39,0.565 -0.618,1.248 -0.618,1.985 0,1.938 1.572,3.511 3.511,3.511 0.636,0 1.23,-0.171 1.745,-0.467 -0.018,0.109 -0.028,0.222 -0.028,0.338 0,1.157 0.938,2.096 2.095,2.096 0.26,0 0.507,-0.051 0.737,-0.137 0.618,3.217 3.444,5.646 6.84,5.646 0.456,0 0.899,-0.045 1.33,-0.127 1.039,1.434 2.726,2.367 4.632,2.367 3.159,0 5.722,-2.562 5.722,-5.721 0,-0.035 -0.003,-0.07 -0.004,-0.104 0.729,0.387 1.561,0.607 2.443,0.607 2.877,0 5.211,-2.333 5.211,-5.212 0,-2.682 -2.027,-4.889 -4.633,-5.178 H 8.715 z"
   id="path12"
   style="fill:url(#SVGID_14_)"
   inkscape:connector-curvature="0" /><path
   d="m 36.884,21.487 0.034,0.003 c 2.879,0.318 5.116,2.758 5.117,5.723 l 0,0 c -10e-4,3.18 -2.578,5.756 -5.758,5.758 l 0,0 c -0.678,0 -1.329,-0.118 -1.934,-0.334 l 0,0 c -0.356,3.124 -3.009,5.551 -6.229,5.551 l 0,0 c -1.961,0 -3.717,-0.904 -4.865,-2.319 l 0,0 c -0.356,0.053 -0.723,0.081 -1.095,0.081 l 0,0 c -3.465,-0.002 -6.378,-2.344 -7.249,-5.533 l 0,0 c -0.107,0.014 -0.217,0.021 -0.329,0.021 l 0,0 c -1.292,0 -2.367,-0.928 -2.597,-2.152 l 0,0 c -0.383,0.121 -0.792,0.188 -1.214,0.188 l 0,0 C 8.525,28.472 6.707,26.656 6.707,24.414 l 0,0 C 6.705,23.563 6.973,22.771 7.421,22.12 l 0,0 c 0.154,-0.238 0.586,-0.632 1.272,-0.632 l 0,0 c 0.007,0 0.013,0 0.02,0 l 0,0 v 0.548 0.545 c -0.295,0.007 -0.354,0.123 -0.392,0.158 l 0,0 C 7.992,23.218 7.8,23.792 7.8,24.414 l 0,0 c 0.004,1.638 1.328,2.964 2.965,2.965 l 0,0 c 0.536,0 1.036,-0.144 1.474,-0.394 l 0,0 0.995,-0.572 -0.185,1.133 c -0.013,0.09 -0.021,0.172 -0.021,0.25 l 0,0 c 0.003,0.855 0.693,1.548 1.548,1.55 l 0,0 c 0.19,-0.002 0.372,-0.037 0.546,-0.104 l 0,0 0.606,-0.228 0.122,0.637 c 0.569,2.964 3.173,5.207 6.303,5.205 l 0,0 c 0.418,0 0.827,-0.041 1.225,-0.118 l 0,0 0.341,-0.065 0.204,0.28 c 0.942,1.3 2.467,2.142 4.189,2.142 l 0,0 c 2.859,-0.004 5.17,-2.317 5.176,-5.174 l 0,0 c 0,-0.008 -10e-4,-0.037 -0.003,-0.09 l 0,0 -0.024,-0.938 0.827,0.441 c 0.653,0.345 1.395,0.543 2.187,0.543 l 0,0 c 2.574,-0.004 4.66,-2.09 4.664,-4.664 l 0,0 C 40.941,24.817 39.132,22.846 36.81,22.58 l 0,0 H 8.715 v -0.545 -0.548"
   id="path14"
   inkscape:connector-curvature="0"
   style="fill:#d8d6c5" />	<linearGradient
   id="SVGID_15_"
   gradientUnits="userSpaceOnUse"
   x1="-211.3472"
   y1="162.24409"
   x2="-223.3638"
   y2="162.24409"
   gradientTransform="translate(250.5264,-144.8652)"><stop
     offset="0"
     style="stop-color:#B8B8B8"
     id="stop17" /><stop
     offset="1"
     style="stop-color:#FFFFFF"
     id="stop19" /></linearGradient><path
   d="m 40.754,25.182 c 0.497,0 0.746,-0.256 0.842,-0.395 0.391,-0.565 0.618,-1.248 0.618,-1.985 0,-1.938 -1.571,-3.512 -3.512,-3.512 -0.636,0 -1.229,0.172 -1.744,0.468 0.018,-0.109 0.028,-0.223 0.028,-0.338 0,-1.158 -0.938,-2.096 -2.095,-2.096 -0.26,0 -0.507,0.05 -0.737,0.137 -0.617,-3.217 -3.443,-5.647 -6.84,-5.647 -0.455,0 -0.898,0.046 -1.329,0.128 -1.039,-1.434 -2.726,-2.367 -4.632,-2.367 -3.159,0 -5.721,2.562 -5.721,5.721 0,0.035 0.003,0.07 0.003,0.104 -0.729,-0.388 -1.56,-0.608 -2.443,-0.608 -2.878,0 -5.211,2.334 -5.211,5.212 0,2.683 2.027,4.89 4.632,5.179 h 28.141 z"
   id="path21"
   style="fill:url(#SVGID_15_)"
   inkscape:connector-curvature="0" /><path
   d="M 12.585,25.728 12.551,25.725 C 9.672,25.407 7.435,22.967 7.433,20.002 l 0,0 c 0.002,-3.18 2.579,-5.756 5.759,-5.758 l 0,0 c 0.678,0 1.329,0.118 1.934,0.334 l 0,0 c 0.356,-3.124 3.008,-5.551 6.228,-5.551 l 0,0 c 1.962,0 3.717,0.904 4.865,2.318 l 0,0 c 0.356,-0.052 0.723,-0.08 1.096,-0.08 l 0,0 c 3.464,0.002 6.378,2.344 7.248,5.533 l 0,0 c 0.107,-0.014 0.217,-0.021 0.329,-0.021 l 0,0 c 1.292,0 2.367,0.928 2.597,2.152 l 0,0 c 0.383,-0.121 0.791,-0.188 1.214,-0.188 l 0,0 c 2.241,0.002 4.058,1.818 4.058,4.06 l 0,0 c 0.002,0.851 -0.265,1.643 -0.713,2.294 l 0,0 c -0.154,0.238 -0.586,0.632 -1.272,0.632 l 0,0 c -0.008,0 -0.014,0 -0.021,0 l 0,0 V 25.18 24.635 c 0.296,-0.007 0.355,-0.123 0.393,-0.158 l 0,0 c 0.328,-0.479 0.521,-1.053 0.521,-1.675 l 0,0 c -0.004,-1.638 -1.328,-2.964 -2.966,-2.965 l 0,0 c -0.536,0 -1.036,0.144 -1.474,0.394 l 0,0 -0.995,0.572 0.185,-1.133 c 0.014,-0.09 0.021,-0.172 0.021,-0.25 l 0,0 c -0.003,-0.855 -0.693,-1.549 -1.548,-1.551 l 0,0 c -0.19,0.002 -0.372,0.038 -0.546,0.104 l 0,0 -0.606,0.229 -0.122,-0.638 c -0.569,-2.963 -3.174,-5.206 -6.303,-5.203 l 0,0 c -0.419,0 -0.827,0.04 -1.226,0.117 l 0,0 -0.341,0.065 -0.204,-0.28 c -0.943,-1.3 -2.467,-2.142 -4.19,-2.142 l 0,0 c -2.858,0.004 -5.17,2.316 -5.176,5.174 l 0,0 c 0,0.008 0.002,0.037 0.004,0.09 l 0,0 0.024,0.938 -0.827,-0.441 c -0.654,-0.345 -1.396,-0.543 -2.187,-0.543 l 0,0 c -2.575,0.004 -4.661,2.09 -4.665,4.664 l 0,0 c -0.002,2.396 1.807,4.367 4.129,4.633 l 0,0 h 28.097 v 0.545 0.548"
   id="path23"
   inkscape:connector-curvature="0"
   style="fill:#d8d6c5" /><g
   id="g25"><g
     id="g27"><linearGradient
       id="SVGID_16_"
       gradientUnits="userSpaceOnUse"
       x1="7.0209999"
       y1="23.165501"
       x2="30.290501"
       y2="23.165501"><stop
         offset="0"
         style="stop-color:#CCCCCC"
         id="stop30" /><stop
         offset="1"
         style="stop-color:#FFFFFF"
         id="stop32" /></linearGradient><path
       d="m 40.798,25.285 c 0,-1.706 -1.384,-3.09 -3.091,-3.09 -0.077,0 -0.149,0.017 -0.225,0.022 -0.203,-2.026 -1.895,-3.615 -3.975,-3.615 -0.562,0 -1.097,0.118 -1.583,0.326 -0.374,-2.641 -2.638,-4.673 -5.381,-4.673 -0.35,0 -0.69,0.036 -1.021,0.099 -0.447,-1.588 -1.89,-2.759 -3.621,-2.759 -1.821,0 -3.339,1.289 -3.696,3.003 -1.496,0.246 -2.787,1.097 -3.607,2.299 -0.583,-0.367 -1.267,-0.587 -2.006,-0.587 -2.086,0 -3.777,1.69 -3.777,3.777 0,0.566 0.133,1.099 0.357,1.581 -0.712,0.575 -1.176,1.444 -1.176,2.431 0,1.732 1.404,3.137 3.137,3.137 1.107,0 2.075,-0.576 2.633,-1.442 0.427,2.579 2.662,4.548 5.362,4.548 0.201,0 0.399,-0.013 0.595,-0.034 0.475,2.521 2.686,4.429 5.344,4.429 2.323,0 4.303,-1.459 5.083,-3.509 0.076,0.004 0.148,0.022 0.227,0.022 1.132,0 2.149,-0.472 2.88,-1.224 0.479,0.306 1.044,0.488 1.655,0.488 1.377,0 2.531,-0.907 2.931,-2.151 1.641,-0.071 2.955,-1.417 2.955,-3.078 z"
       id="path34"
       style="fill:url(#SVGID_16_);stroke:#ffffff;stroke-width:0.9303"
       inkscape:connector-curvature="0" /></g></g></g></g></svg>