<?xml version="1.0" encoding="utf-8"?>
<!-- Generator: Adobe Illustrator 12.0.0, SVG Export Plug-In . SVG Version: 6.00 Build 51448)  -->
<!DOCTYPE svg PUBLIC "-//W3C//DTD SVG 1.1//EN" "http://www.w3.org/Graphics/SVG/1.1/DTD/svg11.dtd" [
	<!ENTITY ns_svg "http://www.w3.org/2000/svg">
	<!ENTITY ns_xlink "http://www.w3.org/1999/xlink">
]>
<svg  version="1.1" id="Layer_1" xmlns="&ns_svg;" xmlns:xlink="&ns_xlink;" width="27.223" height="34.366"
	 viewBox="0 0 27.223 34.366" overflow="visible" enable-background="new 0 0 27.223 34.366" xml:space="preserve">
<path fill="#FFFFFF" d="M8.08,7.625l0.001,4.949L6.564,13.68l0.019,0.059l0.001,10.633l-3.047,2.244L3.53,26.615l-0.238,0.171
	l0.011,0.002l-2.017,1.487c-0.366,0.269-0.467,0.568-0.323,0.804c-0.074,0.285,0.123,0.545,0.579,0.67L14.8,33.392
	c0.706,0.192,1.766-0.004,2.354-0.438l8.791-6.498c0.375-0.278,0.467-0.58,0.299-0.805c0.149-0.314-0.041-0.605-0.557-0.725
	l-5.576-1.297V12.435l-0.041-0.043l-1.295-0.346V6.594L18.745,6.56l-1.397-0.373V2.256l-0.024-0.025L12.344,0.9L9.493,2.977
	l0.011,0.035l0.002,3.516l-1.441,1.05L8.08,7.625z"/>
<path fill="#D9D7C5" d="M14.561,34.258L1.302,30.616c-0.299-0.085-0.582-0.215-0.829-0.448c-0.242-0.224-0.426-0.588-0.426-0.96
	c-0.031-0.113-0.048-0.23-0.047-0.35c0.013-0.612,0.37-1.023,0.751-1.308l1.909-1.405c0.033-0.033,0.068-0.063,0.107-0.09
	l0.237-0.172c0.026-0.019,0.053-0.035,0.081-0.053l2.599-1.916L5.683,13.861c-0.072-0.342,0.062-0.699,0.35-0.909l1.148-0.837
	L7.179,7.742c-0.061-0.337,0.074-0.686,0.356-0.89l1.07-0.781L8.604,3.115C8.554,2.787,8.689,2.45,8.963,2.25l2.849-2.077
	c0.218-0.159,0.502-0.212,0.763-0.143l4.98,1.331c0.156,0.042,0.301,0.127,0.413,0.243l0.024,0.025
	c0.162,0.167,0.254,0.393,0.254,0.627v3.24l0.729,0.194c0.161,0.043,0.303,0.127,0.418,0.247l0.032,0.034
	c0.161,0.169,0.25,0.39,0.25,0.623v4.761l0.627,0.167c0.159,0.044,0.305,0.129,0.42,0.25l0.041,0.043
	c0.157,0.167,0.247,0.39,0.247,0.62l-0.001,10.479l4.881,1.136c0.302,0.07,0.589,0.186,0.847,0.41
	c0.258,0.217,0.463,0.598,0.456,0.987c0,0.044-0.003,0.088-0.007,0.131c0.025,0.1,0.039,0.204,0.037,0.31
	c-0.016,0.614-0.373,1.01-0.744,1.293l-8.792,6.497c-0.665,0.474-1.476,0.677-2.276,0.688
	C15.127,34.365,14.844,34.334,14.561,34.258 M16.62,32.229l8.731-6.455V25.77l-5.444-1.265c-0.408-0.095-0.697-0.459-0.697-0.876
	V13.094l-0.666-0.178c-0.395-0.106-0.67-0.462-0.67-0.87V7.259l-0.758-0.203c-0.396-0.106-0.668-0.462-0.668-0.87V2.929L12.526,1.88
	l-2.123,1.547l0.002,3.1c0,0.289-0.137,0.557-0.37,0.727l-1.056,0.77l0.001,4.548c0,0.289-0.135,0.558-0.369,0.728l-1.129,0.823
	L7.483,24.37c0,0.286-0.135,0.555-0.365,0.724l-3.047,2.246c-0.03,0.022-0.061,0.041-0.093,0.06l-0.053,0.039
	c-0.028,0.026-0.057,0.052-0.088,0.074l-1.91,1.408l13.11,3.602c0.086,0.025,0.22,0.043,0.373,0.041
	C15.84,32.575,16.415,32.395,16.62,32.229 M8.08,7.625L8.095,7.62L8.08,7.625z"/>
<path fill="#969688" d="M10.026,22.173l-7.949,5.873c-0.981,0.726-0.822,1.583,0.355,1.905l11.547,3.173
	c1.175,0.323,2.943-0.007,3.923-0.731l7.361-5.441c0.982-0.725,0.813-1.545-0.377-1.82l-5.941-1.381"/>
<path fill="#F4F6EB" d="M9.976,21.865l-7.942,5.854c-0.982,0.724-0.822,1.576,0.356,1.896l11.558,3.131
	c1.178,0.319,2.943-0.017,3.922-0.744l7.369-5.481c0.979-0.728,0.808-1.549-0.381-1.825l-5.942-1.382"/>
<polygon fill="#878686" points="5.47,30.384 8.023,28.481 8.307,28.555 5.754,30.46 "/>
<polygon fill="#878686" points="11.116,31.928 13.669,30.024 13.953,30.1 11.4,32.006 "/>
<polygon fill="#878686" points="19.144,25.866 21.697,23.961 21.98,24.038 19.427,25.943 "/>
<polygon fill="#878686" points="19.433,27.483 19.67,27.312 22.999,28.208 22.761,28.379 "/>
<polygon fill="#878686" points="15.896,30.154 16.133,29.983 19.461,30.879 19.224,31.049 "/>
<polygon fill="#878686" points="3.326,26.754 3.563,26.583 6.891,27.48 6.654,27.65 "/>
<polygon fill="#8092AD" points="15.097,31.09 20.069,27.356 20.069,12.782 15.073,16.458 "/>
<polygon fill="#788CA7" points="15.071,16.417 6.523,14.026 11.438,10.443 20.028,12.739 "/>
<polygon fill="#8496B1" points="6.543,28.665 15.073,31.075 15.062,16.458 6.541,14.085 "/>
<polygon fill="#8092AD" points="18.735,12.56 18.735,6.94 14.783,9.847 14.803,15.513 "/>
<polygon fill="#788CA7" points="14.783,9.815 8.024,7.925 11.91,5.092 18.702,6.908 "/>
<polygon fill="#8496B1" points="14.783,15.499 14.776,9.847 8.038,7.972 8.04,13.595 "/>
<polygon fill="#8092AD" points="17.305,6.723 17.305,2.603 14.409,4.734 14.423,8.888 "/>
<polygon fill="#788CA7" points="14.409,4.71 9.452,3.325 12.302,1.248 17.282,2.579 "/>
<polygon fill="#8496B1" points="14.409,8.879 14.403,4.734 9.463,3.359 9.464,7.482 "/>
<polygon fill="#97AAC5" points="9.12,18.766 7.178,18.25 7.178,15.058 9.12,15.574 "/>
<polygon fill="#97AAC5" points="11.69,19.435 9.749,18.926 9.749,15.735 11.69,16.244 "/>
<polygon fill="#97AAC5" points="14.379,20.176 12.438,19.654 12.438,16.462 14.379,16.986 "/>
<polygon fill="#97AAC5" points="9.12,22.324 7.178,21.807 7.178,18.617 9.12,19.133 "/>
<polygon fill="#97AAC5" points="11.69,22.994 9.749,22.486 9.749,19.293 11.69,19.801 "/>
<polygon fill="#97AAC5" points="14.379,23.735 12.438,23.212 12.438,20.02 14.379,20.543 "/>
<polygon fill="#97AAC5" points="9.12,25.815 7.178,25.299 7.178,22.108 9.12,22.624 "/>
<polygon fill="#97AAC5" points="11.69,26.485 9.749,25.977 9.749,22.785 11.69,23.293 "/>
<polygon fill="#97AAC5" points="14.379,27.226 12.438,26.704 12.438,23.511 14.379,24.036 "/>
<polygon fill="#97AAC5" points="10.04,11.484 8.437,11.059 8.437,8.425 10.04,8.851 "/>
<polygon fill="#97AAC5" points="12.216,12.072 10.612,11.653 10.612,9.02 12.216,9.439 "/>
<polygon fill="#97AAC5" points="14.378,12.649 12.776,12.216 12.776,9.583 14.378,10.016 "/>
<polygon fill="#97AAC5" points="10.04,13.79 8.437,13.365 8.437,11.452 10.04,11.877 "/>
<polygon fill="#97AAC5" points="12.216,14.378 10.612,13.959 10.612,12.046 12.216,12.465 "/>
<polygon fill="#97AAC5" points="14.378,14.955 12.776,14.522 12.776,12.61 14.378,13.042 "/>
<polygon fill="#97AAC5" points="11.661,7.311 10.058,6.891 10.058,4.258 11.661,4.678 "/>
<polygon fill="#97AAC5" points="13.826,7.886 12.222,7.455 12.222,4.822 13.826,5.253 "/>
<polygon fill="#6F829D" points="15.803,7.253 14.797,7.998 14.797,5.364 15.803,4.621 "/>
<polygon fill="#6F829D" points="17.063,6.348 16.057,7.092 16.057,4.458 17.063,3.714 "/>
<polygon fill="#6F829D" points="16.108,11.952 15.102,12.695 15.102,10.062 16.108,9.319 "/>
<polygon fill="#6F829D" points="17.368,11.067 16.362,11.812 16.362,9.177 17.368,8.435 "/>
<polygon fill="#6F829D" points="18.583,10.193 17.577,10.937 17.577,8.303 18.583,7.56 "/>
<polygon fill="#6F829D" points="16.698,19.341 15.446,20.267 15.446,16.991 16.698,16.066 "/>
<polygon fill="#6F829D" points="18.265,18.243 17.013,19.167 17.013,15.892 18.265,14.966 "/>
<polygon fill="#6F829D" points="19.777,17.155 18.525,18.079 18.525,14.804 19.777,13.878 "/>
<polygon fill="#6F829D" points="16.698,22.899 15.446,23.823 15.446,20.548 16.698,19.624 "/>
<polygon fill="#6F829D" points="18.265,21.799 17.013,22.725 17.013,19.449 18.265,18.524 "/>
<polygon fill="#6F829D" points="19.777,20.711 18.525,21.637 18.525,18.362 19.777,17.436 "/>
<polygon fill="#6F829D" points="16.698,26.43 15.446,27.356 15.446,24.081 16.698,23.155 "/>
<polygon fill="#6F829D" points="18.265,25.332 17.013,26.256 17.013,22.981 18.265,22.055 "/>
<polygon fill="#6F829D" points="19.777,24.243 18.525,25.169 18.525,21.893 19.777,20.968 "/>
<polygon fill="#6F829D" points="16.108,14.156 15.102,14.9 15.102,13.086 16.108,12.342 "/>
<polygon fill="#6F829D" points="17.368,13.272 16.362,14.016 16.362,12.202 17.368,11.458 "/>
<polygon fill="#6F829D" points="18.583,12.398 17.577,13.142 17.577,11.328 18.583,10.584 "/>
<path fill="#97AAC5" d="M9.125,27.377c0-0.602-0.436-1.152-0.972-1.232c-0.513-0.076-0.93,0.311-0.966,0.871l-0.009-0.004v1.835
	l1.942,0.546v-1.865l-0.009-0.002C9.117,27.477,9.125,27.429,9.125,27.377"/>
<path fill="#97AAC5" d="M11.683,28.196c0.002-0.027,0.007-0.055,0.007-0.082c0-0.602-0.435-1.152-0.972-1.23
	c-0.495-0.073-0.899,0.282-0.959,0.809L9.748,27.69v0.109c0,0.01-0.003,0.019-0.003,0.027c0,0.01,0.003,0.018,0.003,0.028v1.714
	l1.943,0.55v-1.921L11.683,28.196z"/>
<path fill="#97AAC5" d="M14.355,28.881c0.003-0.034,0.011-0.066,0.011-0.104c0-0.6-0.436-1.151-0.973-1.23
	c-0.497-0.073-0.903,0.285-0.96,0.816l-0.009-0.002v0.1c-0.001,0.01-0.003,0.02-0.003,0.029c0,0.012,0.002,0.021,0.003,0.033v1.746
	l1.942,0.553v-1.938L14.355,28.881z"/>
<path fill="#6F829D" d="M16.698,28.078v-0.006v-0.152l-0.01,0.007c-0.045-0.471-0.303-0.688-0.616-0.482
	c-0.336,0.219-0.606,0.837-0.623,1.398l-0.003,0.004v0.043v0.006v0.007v1.913l1.252-0.924v-1.808V28.078z"/>
<path fill="#6F829D" d="M18.273,26.918c0-0.045-0.004-0.086-0.008-0.128v-0.078l-0.005,0.004c-0.059-0.437-0.311-0.629-0.614-0.432
	c-0.323,0.212-0.587,0.797-0.619,1.343l-0.015,0.011v1.998l1.253-0.925v-1.654C18.269,27.011,18.273,26.964,18.273,26.918"/>
<path fill="#6F829D" d="M19.77,25.843c-0.023-0.522-0.291-0.774-0.622-0.56c-0.346,0.226-0.626,0.875-0.626,1.453
	c0,0.011,0.002,0.021,0.003,0.031v1.748l1.252-0.934v-1.743L19.77,25.843z"/>
</svg>
