<?xml version="1.0" encoding="utf-8"?>
<!-- Generator: Adobe Illustrator 12.0.0, SVG Export Plug-In . SVG Version: 6.00 Build 51448)  -->
<!DOCTYPE svg PUBLIC "-//W3C//DTD SVG 1.1//EN" "http://www.w3.org/Graphics/SVG/1.1/DTD/svg11.dtd" [
	<!ENTITY ns_svg "http://www.w3.org/2000/svg">
	<!ENTITY ns_xlink "http://www.w3.org/1999/xlink">
]>
<svg  version="1.1" id="Layer_1" xmlns="&ns_svg;" xmlns:xlink="&ns_xlink;" width="27.225" height="34.365"
	 viewBox="0 0 27.225 34.365" overflow="visible" enable-background="new 0 0 27.225 34.365" xml:space="preserve">
<path fill="#FFFFFF" d="M8.08,7.625l0.002,4.949L6.563,13.68l0.019,0.059l0.002,10.633l-3.047,2.244L3.53,26.614l-0.238,0.171
	l0.012,0.004l-2.018,1.486c-0.366,0.268-0.466,0.568-0.323,0.803c-0.073,0.285,0.124,0.545,0.58,0.67l13.258,3.644
	c0.706,0.192,1.766-0.004,2.354-0.438l8.789-6.498c0.377-0.278,0.469-0.58,0.301-0.804c0.149-0.315-0.041-0.606-0.557-0.726
	l-5.577-1.297V12.435l-0.041-0.043l-1.294-0.346V6.594L18.743,6.56l-1.395-0.373V2.255L17.323,2.23l-4.979-1.331l-2.85,2.078
	l0.01,0.034l0.002,3.516l-1.441,1.05L8.08,7.625z"/>
<path fill="#D9D7C5" d="M14.562,34.259L1.302,30.615C1.003,30.53,0.72,30.4,0.473,30.167c-0.242-0.224-0.426-0.588-0.426-0.96
	C0.016,29.094-0.001,28.977,0,28.859c0.013-0.614,0.371-1.025,0.751-1.31l1.909-1.405c0.033-0.033,0.068-0.063,0.107-0.09
	l0.237-0.172c0.026-0.019,0.053-0.035,0.08-0.052l2.6-1.916L5.683,13.862c-0.072-0.343,0.062-0.7,0.35-0.91l1.148-0.837L7.179,7.741
	c-0.061-0.336,0.074-0.686,0.356-0.89l1.07-0.781L8.604,3.114c-0.05-0.328,0.085-0.665,0.359-0.865l2.849-2.077
	c0.219-0.159,0.502-0.212,0.764-0.142l4.979,1.33c0.156,0.042,0.301,0.127,0.414,0.243l0.023,0.025
	c0.162,0.167,0.255,0.393,0.255,0.627l-0.001,3.24l0.729,0.195c0.162,0.042,0.303,0.126,0.418,0.246l0.033,0.035
	c0.16,0.168,0.25,0.389,0.25,0.622v4.761l0.625,0.167c0.161,0.044,0.305,0.129,0.422,0.25l0.041,0.043
	c0.156,0.167,0.246,0.39,0.246,0.621v10.479l4.881,1.135c0.301,0.071,0.588,0.186,0.846,0.41c0.257,0.217,0.463,0.598,0.455,0.987
	c0,0.044-0.002,0.088-0.006,0.131c0.025,0.1,0.039,0.204,0.037,0.31c-0.015,0.615-0.373,1.01-0.744,1.293l-8.791,6.497
	c-0.666,0.474-1.476,0.677-2.277,0.688C15.128,34.364,14.845,34.335,14.562,34.259 M16.62,32.229l8.732-6.455v-0.002l-5.445-1.267
	c-0.408-0.095-0.696-0.459-0.696-0.876V13.094l-0.667-0.178c-0.395-0.106-0.669-0.462-0.669-0.87V7.259l-0.76-0.203
	c-0.394-0.106-0.668-0.462-0.668-0.87V2.928L12.526,1.88l-2.123,1.548l0.002,3.099c0,0.289-0.137,0.557-0.37,0.727l-1.056,0.77
	l0.001,4.549c0,0.288-0.136,0.557-0.369,0.727l-1.129,0.823l0.002,10.246c0,0.286-0.136,0.555-0.366,0.725l-3.047,2.245
	c-0.03,0.022-0.061,0.042-0.093,0.06l-0.053,0.039c-0.027,0.026-0.057,0.052-0.088,0.074l-1.91,1.408l13.111,3.602
	c0.086,0.025,0.219,0.043,0.373,0.043C15.84,32.575,16.415,32.395,16.62,32.229 M8.08,7.624l0.015-0.005L8.08,7.624z"/>
<path fill="#969688" d="M10.027,22.173l-7.949,5.873c-0.982,0.726-0.822,1.583,0.355,1.905l11.546,3.174
	c1.176,0.322,2.943-0.006,3.924-0.731l7.361-5.442c0.981-0.725,0.813-1.545-0.377-1.82l-5.941-1.381"/>
<path fill="#F4F6EB" d="M9.975,21.864l-7.941,5.854c-0.983,0.724-0.823,1.576,0.355,1.896l11.559,3.131
	c1.177,0.319,2.943-0.017,3.922-0.744l7.369-5.481c0.979-0.728,0.808-1.549-0.381-1.825l-5.942-1.382"/>
<polygon fill="#878686" points="5.47,30.384 8.023,28.48 8.307,28.555 5.754,30.461 "/>
<polygon fill="#878686" points="11.117,31.928 13.668,30.022 13.953,30.099 11.401,32.005 "/>
<polygon fill="#878686" points="19.145,25.865 21.696,23.961 21.98,24.037 19.429,25.942 "/>
<polygon fill="#878686" points="19.435,27.482 19.672,27.312 22.999,28.207 22.763,28.379 "/>
<polygon fill="#878686" points="15.896,30.153 16.134,29.982 19.462,30.879 19.224,31.049 "/>
<polygon fill="#878686" points="3.326,26.754 3.564,26.582 6.891,27.479 6.654,27.649 "/>
<polygon fill="#AA9284" points="15.098,31.09 20.069,27.355 20.069,12.782 15.073,16.458 "/>
<polygon fill="#A38C7E" points="15.071,16.417 6.523,14.026 11.438,10.443 20.028,12.739 "/>
<polygon fill="#AD9688" points="6.543,28.664 15.073,31.073 15.063,16.458 6.541,14.085 "/>
<polygon fill="#AA9284" points="18.735,12.56 18.735,6.94 14.782,9.847 14.803,15.512 "/>
<polygon fill="#A38C7E" points="14.783,9.814 8.023,7.925 11.91,5.091 18.702,6.907 "/>
<polygon fill="#AD9688" points="14.783,15.499 14.776,9.847 8.038,7.972 8.04,13.594 "/>
<polygon fill="#AA9284" points="17.306,6.723 17.306,2.603 14.409,4.733 14.424,8.888 "/>
<polygon fill="#A38C7E" points="14.409,4.71 9.452,3.325 12.301,1.247 17.282,2.578 "/>
<polygon fill="#AD9688" points="14.409,8.878 14.403,4.733 9.463,3.358 9.465,7.481 "/>
<polygon fill="#C2AA9C" points="9.12,18.766 7.178,18.25 7.178,15.059 9.12,15.575 "/>
<polygon fill="#C2AA9C" points="11.691,19.435 9.749,18.927 9.749,15.736 11.691,16.244 "/>
<polygon fill="#C2AA9C" points="14.38,20.177 12.438,19.654 12.438,16.462 14.38,16.986 "/>
<polygon fill="#C2AA9C" points="9.12,22.323 7.178,21.807 7.178,18.616 9.12,19.133 "/>
<polygon fill="#C2AA9C" points="11.691,22.993 9.749,22.485 9.749,19.293 11.691,19.803 "/>
<polygon fill="#C2AA9C" points="14.38,23.734 12.438,23.212 12.438,20.02 14.38,20.544 "/>
<polygon fill="#C2AA9C" points="9.12,25.814 7.178,25.299 7.178,22.107 9.12,22.623 "/>
<polygon fill="#C2AA9C" points="11.691,26.484 9.749,25.977 9.749,22.784 11.691,23.293 "/>
<polygon fill="#C2AA9C" points="14.38,27.227 12.438,26.703 12.438,23.512 14.38,24.034 "/>
<polygon fill="#C2AA9C" points="10.04,11.483 8.437,11.059 8.437,8.424 10.04,8.851 "/>
<polygon fill="#C2AA9C" points="12.216,12.072 10.613,11.653 10.613,9.019 12.216,9.439 "/>
<polygon fill="#C2AA9C" points="14.379,12.648 12.776,12.216 12.776,9.583 14.379,10.016 "/>
<polygon fill="#C2AA9C" points="10.04,13.79 8.437,13.364 8.437,11.452 10.04,11.877 "/>
<polygon fill="#C2AA9C" points="12.216,14.378 10.613,13.959 10.613,12.046 12.216,12.465 "/>
<polygon fill="#C2AA9C" points="14.379,14.955 12.776,14.522 12.776,12.61 14.379,13.042 "/>
<polygon fill="#C2AA9C" points="11.662,7.311 10.059,6.891 10.059,4.258 11.662,4.678 "/>
<polygon fill="#C2AA9C" points="13.826,7.886 12.222,7.454 12.222,4.821 13.826,5.253 "/>
<polygon fill="#998275" points="15.804,7.253 14.798,7.998 14.798,5.364 15.804,4.621 "/>
<polygon fill="#998275" points="17.063,6.347 16.058,7.091 16.058,4.458 17.063,3.714 "/>
<polygon fill="#998275" points="16.108,11.951 15.103,12.695 15.103,10.061 16.108,9.318 "/>
<polygon fill="#998275" points="17.368,11.067 16.362,11.811 16.362,9.178 17.368,8.434 "/>
<polygon fill="#998275" points="18.584,10.193 17.577,10.937 17.577,8.304 18.584,7.56 "/>
<polygon fill="#998275" points="16.698,19.341 15.446,20.267 15.446,16.991 16.698,16.066 "/>
<polygon fill="#998275" points="18.266,18.242 17.014,19.166 17.014,15.892 18.266,14.966 "/>
<polygon fill="#998275" points="19.777,17.154 18.525,18.079 18.525,14.803 19.777,13.878 "/>
<polygon fill="#998275" points="16.698,22.898 15.446,23.823 15.446,20.547 16.698,19.623 "/>
<polygon fill="#998275" points="18.266,21.799 17.014,22.725 17.014,19.448 18.266,18.523 "/>
<polygon fill="#998275" points="19.777,20.711 18.525,21.637 18.525,18.361 19.777,17.436 "/>
<polygon fill="#998275" points="16.698,26.43 15.446,27.355 15.446,24.08 16.698,23.154 "/>
<polygon fill="#998275" points="18.266,25.331 17.014,26.256 17.014,22.98 18.266,22.055 "/>
<polygon fill="#998275" points="19.777,24.243 18.525,25.169 18.525,21.893 19.777,20.969 "/>
<polygon fill="#998275" points="16.108,14.155 15.103,14.899 15.103,13.086 16.108,12.342 "/>
<polygon fill="#998275" points="17.368,13.271 16.362,14.016 16.362,12.203 17.368,11.458 "/>
<polygon fill="#998275" points="18.584,12.397 17.577,13.142 17.577,11.327 18.584,10.583 "/>
<path fill="#C2AA9C" d="M9.125,27.377c0-0.602-0.436-1.152-0.972-1.232c-0.513-0.076-0.93,0.312-0.966,0.871l-0.009-0.004v1.835
	l1.942,0.546v-1.865l-0.009-0.002C9.117,27.479,9.125,27.429,9.125,27.377"/>
<path fill="#C2AA9C" d="M11.683,28.195c0.002-0.027,0.007-0.054,0.007-0.082c0-0.601-0.435-1.151-0.971-1.231
	c-0.495-0.072-0.9,0.283-0.96,0.81l-0.01-0.002v0.11c-0.001,0.009-0.003,0.019-0.003,0.026c0,0.01,0.002,0.019,0.003,0.027v1.715
	l1.942,0.551v-1.922L11.683,28.195z"/>
<path fill="#C2AA9C" d="M14.355,28.881c0.003-0.033,0.01-0.066,0.01-0.103c0-0.601-0.436-1.151-0.972-1.231
	c-0.498-0.074-0.903,0.285-0.961,0.816l-0.009-0.003v0.101c0,0.01-0.003,0.02-0.003,0.03s0.003,0.021,0.003,0.031v1.748l1.943,0.553
	v-1.938L14.355,28.881z"/>
<path fill="#998275" d="M16.698,28.077v-0.006v-0.152l-0.009,0.007c-0.046-0.471-0.304-0.688-0.617-0.482
	c-0.336,0.219-0.606,0.837-0.623,1.4l-0.003,0.002v0.045v0.004v0.007v1.913l1.252-0.924v-1.808V28.077z"/>
<path fill="#998275" d="M18.273,26.918c0-0.045-0.004-0.086-0.008-0.127v-0.078l-0.005,0.004c-0.059-0.438-0.312-0.631-0.613-0.433
	c-0.325,0.212-0.588,0.798-0.62,1.343l-0.014,0.01v2l1.252-0.926v-1.653C18.27,27.01,18.273,26.963,18.273,26.918"/>
<path fill="#998275" d="M19.771,25.844c-0.022-0.523-0.291-0.776-0.623-0.561c-0.345,0.227-0.625,0.876-0.625,1.452
	c0,0.012,0.002,0.022,0.002,0.032v1.748l1.252-0.935V25.84L19.771,25.844z"/>
</svg>
