<?xml version="1.0" encoding="utf-8"?>
<!-- Generator: Adobe Illustrator 12.0.0, SVG Export Plug-In  -->
<!DOCTYPE svg PUBLIC "-//W3C//DTD SVG 1.1//EN" "http://www.w3.org/Graphics/SVG/1.1/DTD/svg11.dtd" [
	<!ENTITY ns_flows "http://ns.adobe.com/Flows/1.0/">
	<!ENTITY ns_svg "http://www.w3.org/2000/svg">
	<!ENTITY ns_xlink "http://www.w3.org/1999/xlink">
]>
<svg  version="1.1" xmlns="&ns_svg;" xmlns:xlink="&ns_xlink;" xmlns:a="http://ns.adobe.com/AdobeSVGViewerExtensions/3.0/"
	 width="44" height="36" viewBox="-0.664 -0.324 44 36" enable-background="new -0.664 -0.324 44 36" xml:space="preserve">
<defs>
</defs>
<path fill="#77A7B2" d="M33.895,22.457l-2.104-3.969c0.146-0.37,0.28-0.749,0.394-1.141c1.614-5.602-0.86-11.232-5.533-12.581
	c-0.065-0.019-0.131-0.026-0.194-0.043c-0.307-0.153-0.622-0.288-0.956-0.386c-4.073-1.174-8.698,2.455-10.326,8.105
	c-1.629,5.65,0.354,11.185,4.426,12.357c0.324,0.093,0.651,0.145,0.981,0.179l-4.16,2.947v1.999l14.788,3.968l10.288-7.585v-2
	L33.895,22.457z"/>
<path fill="none" stroke="#D9D7C5" stroke-width="3" stroke-linecap="round" stroke-linejoin="round" d="M33.895,22.457
	l-2.104-3.969c0.146-0.37,0.28-0.749,0.394-1.141c1.614-5.602-0.86-11.232-5.533-12.581c-0.065-0.019-0.131-0.026-0.194-0.043
	c-0.307-0.153-0.622-0.288-0.956-0.386c-4.073-1.174-8.698,2.455-10.326,8.105c-1.629,5.65,0.354,11.185,4.426,12.357
	c0.324,0.093,0.651,0.145,0.981,0.179l-4.16,2.947v1.999l14.788,3.968l10.288-7.585v-2L33.895,22.457z"/>
<polygon fill="#F2F2F2" points="16.639,27.692 31.045,31.573 40.982,24.281 26.518,20.4 "/>
<polygon fill="#E5E5E5" points="30.869,33.805 16.346,29.925 16.346,27.926 30.869,31.806 "/>
<polygon fill="#CCCCCC" points="41.423,26.308 31.134,33.893 31.134,31.894 41.423,24.308 "/>
<polygon fill="#F3FAFE" points="30.28,28.486 29.074,13.454 35.01,24.659 "/>
<polygon fill="none" stroke="#77A7B2" stroke-width="0.751" points="30.28,28.486 29.074,13.454 35.01,24.659 "/>
<polygon fill="#77A7B2" points="30.068,28.875 22.746,26.923 24.861,20.25 29.581,20.25 "/>
<path fill="#F3FAFE" d="M32.152,17.382c-1.613,5.599-6.709,9.047-11.381,7.702c-4.67-1.347-7.146-6.979-5.53-12.577
	c1.614-5.6,6.706-9.053,11.378-7.705C31.292,6.152,33.768,11.781,32.152,17.382"/>
<path fill="none" stroke="#77A7B2" stroke-width="0.751" d="M32.152,17.382c-1.613,5.599-6.709,9.047-11.381,7.702
	c-4.67-1.347-7.146-6.979-5.53-12.577c1.614-5.6,6.706-9.053,11.378-7.705C31.292,6.152,33.768,11.781,32.152,17.382z"/>
<path fill="#FFFFFF" d="M29.897,16.731c-1.63,5.649-6.252,9.281-10.329,8.104c-4.072-1.172-6.055-6.706-4.426-12.354
	c1.628-5.652,6.253-9.281,10.326-8.106C29.546,5.548,31.526,11.082,29.897,16.731"/>
<path fill="none" stroke="#77A7B2" stroke-width="0.751" d="M29.897,16.731c-1.63,5.649-6.252,9.281-10.329,8.104
	c-4.072-1.172-6.055-6.706-4.426-12.354c1.628-5.652,6.253-9.281,10.326-8.106C29.546,5.548,31.526,11.082,29.897,16.731z"/>
<polyline fill="none" stroke="#77A7B2" stroke-width="0.751" points="23.784,20.942 20.805,14.039 27.038,10.671 "/>
<path fill="#CEECF2" d="M29.093,16.462c-0.458,1.593-1.813,2.599-3.027,2.249c-1.217-0.352-1.827-1.923-1.368-3.513
	c0.459-1.593,1.814-2.604,3.029-2.25C28.94,13.297,29.553,14.873,29.093,16.462"/>
<line fill="none" stroke="#77A7B2" stroke-width="0.751" x1="20.896" y1="14.059" x2="28.727" y2="16.318"/>
<path fill="#77A7B2" d="M21.61,14.25c-0.164,0.563-0.754,0.891-1.316,0.728c-0.564-0.164-0.89-0.752-0.728-1.317
	c0.163-0.563,0.753-0.89,1.317-0.724C21.446,13.097,21.772,13.687,21.61,14.25"/>
<path fill="none" stroke="#77A7B2" stroke-width="2.253" stroke-linecap="round" d="M14.627,7.471
	c-2.046,0.626-3.684,2.34-4.094,4.59s0.519,4.433,2.212,5.736"/>
<path fill="none" stroke="#77A7B2" stroke-width="2.253" stroke-linecap="round" d="M11.942,4.606
	c-2.959,0.904-5.324,3.38-5.916,6.635c-0.595,3.255,0.747,6.405,3.197,8.296"/>
<path fill="none" stroke="#77A7B2" stroke-width="2.253" stroke-linecap="round" d="M9.575,1.126
	c-4.126,1.262-7.427,4.716-8.254,9.257c-0.827,4.538,1.043,8.937,4.46,11.569"/>
</svg>
