<?xml version="1.0" encoding="UTF-8" standalone="no"?>
<!-- Created with Inkscape (http://www.inkscape.org/) -->

<svg
   xmlns:dc="http://purl.org/dc/elements/1.1/"
   xmlns:cc="http://creativecommons.org/ns#"
   xmlns:rdf="http://www.w3.org/1999/02/22-rdf-syntax-ns#"
   xmlns:svg="http://www.w3.org/2000/svg"
   xmlns="http://www.w3.org/2000/svg"
   xmlns:sodipodi="http://sodipodi.sourceforge.net/DTD/sodipodi-0.dtd"
   xmlns:inkscape="http://www.inkscape.org/namespaces/inkscape"
   width="64"
   height="82.213608"
   id="svg5686"
   version="1.1"
   inkscape:version="0.48.4 r9939"
   sodipodi:docname="New document 7">
  <defs
     id="defs5688">
    <clipPath
       clipPathUnits="userSpaceOnUse"
       id="clipPath3027">
      <path
         d="m 185.129,219.73 225.612,0 0,290.372 -225.612,0 0,-290.372 z"
         id="path3029"
         inkscape:connector-curvature="0" />
    </clipPath>
    <clipPath
       clipPathUnits="userSpaceOnUse"
       id="clipPath3039">
      <path
         d="m 185.129,442.43 112.415,0 0,-222.615 -112.415,0 0,222.615 z"
         id="path3041"
         inkscape:connector-curvature="0" />
    </clipPath>
    <clipPath
       clipPathUnits="userSpaceOnUse"
       id="clipPath3043">
      <path
         d="m 185.129,219.815 112.415,0 0,222.615 -112.415,0 0,-222.615 z"
         id="path3045"
         inkscape:connector-curvature="0" />
    </clipPath>
    <clipPath
       clipPathUnits="userSpaceOnUse"
       id="clipPath3067">
      <path
         d="m 321.742,382.06 8.064,0 0,-18.574 -8.064,0 0,18.574 z"
         id="path3069"
         inkscape:connector-curvature="0" />
    </clipPath>
    <clipPath
       clipPathUnits="userSpaceOnUse"
       id="clipPath3071">
      <path
         d="m 321.742,363.486 8.064,0 0,18.574 -8.064,0 0,-18.574 z"
         id="path3073"
         inkscape:connector-curvature="0" />
    </clipPath>
    <clipPath
       clipPathUnits="userSpaceOnUse"
       id="clipPath3095">
      <path
         d="m 386.594,420.493 8.067,0 0,-18.574 -8.067,0 0,18.574 z"
         id="path3097"
         inkscape:connector-curvature="0" />
    </clipPath>
    <clipPath
       clipPathUnits="userSpaceOnUse"
       id="clipPath3099">
      <path
         d="m 386.594,401.919 8.067,0 0,18.574 -8.067,0 0,-18.574 z"
         id="path3101"
         inkscape:connector-curvature="0" />
    </clipPath>
    <clipPath
       clipPathUnits="userSpaceOnUse"
       id="clipPath3123">
      <path
         d="m 321.742,344.832 8.064,0 0,-18.574 -8.064,0 0,18.574 z"
         id="path3125"
         inkscape:connector-curvature="0" />
    </clipPath>
    <clipPath
       clipPathUnits="userSpaceOnUse"
       id="clipPath3127">
      <path
         d="m 321.742,326.258 8.064,0 0,18.574 -8.064,0 0,-18.574 z"
         id="path3129"
         inkscape:connector-curvature="0" />
    </clipPath>
    <clipPath
       clipPathUnits="userSpaceOnUse"
       id="clipPath3151">
      <path
         d="m 386.594,383.265 8.067,0 0,-18.574 -8.067,0 0,18.574 z"
         id="path3153"
         inkscape:connector-curvature="0" />
    </clipPath>
    <clipPath
       clipPathUnits="userSpaceOnUse"
       id="clipPath3155">
      <path
         d="m 386.594,364.691 8.067,0 0,18.574 -8.067,0 0,-18.574 z"
         id="path3157"
         inkscape:connector-curvature="0" />
    </clipPath>
    <clipPath
       clipPathUnits="userSpaceOnUse"
       id="clipPath3179">
      <path
         d="m 321.742,307.563 8.064,0 0,-18.574 -8.064,0 0,18.574 z"
         id="path3181"
         inkscape:connector-curvature="0" />
    </clipPath>
    <clipPath
       clipPathUnits="userSpaceOnUse"
       id="clipPath3183">
      <path
         d="m 321.742,288.989 8.064,0 0,18.574 -8.064,0 0,-18.574 z"
         id="path3185"
         inkscape:connector-curvature="0" />
    </clipPath>
    <clipPath
       clipPathUnits="userSpaceOnUse"
       id="clipPath3207">
      <path
         d="m 354.126,401.057 8.065,0 0,-18.574 -8.065,0 0,18.574 z"
         id="path3209"
         inkscape:connector-curvature="0" />
    </clipPath>
    <clipPath
       clipPathUnits="userSpaceOnUse"
       id="clipPath3211">
      <path
         d="m 354.126,382.483 8.065,0 0,18.574 -8.065,0 0,-18.574 z"
         id="path3213"
         inkscape:connector-curvature="0" />
    </clipPath>
    <clipPath
       clipPathUnits="userSpaceOnUse"
       id="clipPath3235">
      <path
         d="m 354.126,363.829 8.065,0 0,-18.573 -8.065,0 0,18.573 z"
         id="path3237"
         inkscape:connector-curvature="0" />
    </clipPath>
    <clipPath
       clipPathUnits="userSpaceOnUse"
       id="clipPath3239">
      <path
         d="m 354.126,345.256 8.065,0 0,18.573 -8.065,0 0,-18.573 z"
         id="path3241"
         inkscape:connector-curvature="0" />
    </clipPath>
    <clipPath
       clipPathUnits="userSpaceOnUse"
       id="clipPath3263">
      <path
         d="m 354.126,326.56 8.065,0 0,-18.573 -8.065,0 0,18.573 z"
         id="path3265"
         inkscape:connector-curvature="0" />
    </clipPath>
    <clipPath
       clipPathUnits="userSpaceOnUse"
       id="clipPath3267">
      <path
         d="m 354.126,307.987 8.065,0 0,18.573 -8.065,0 0,-18.573 z"
         id="path3269"
         inkscape:connector-curvature="0" />
    </clipPath>
    <clipPath
       clipPathUnits="userSpaceOnUse"
       id="clipPath3291">
      <path
         d="m 386.594,345.996 8.067,0 0,-18.574 -8.067,0 0,18.574 z"
         id="path3293"
         inkscape:connector-curvature="0" />
    </clipPath>
    <clipPath
       clipPathUnits="userSpaceOnUse"
       id="clipPath3295">
      <path
         d="m 386.594,327.422 8.067,0 0,18.574 -8.067,0 0,-18.574 z"
         id="path3297"
         inkscape:connector-curvature="0" />
    </clipPath>
    <clipPath
       clipPathUnits="userSpaceOnUse"
       id="clipPath3319">
      <path
         d="m 355.248,290.238 8.066,0 0,-31.757 -8.066,0 0,31.757 z"
         id="path3321"
         inkscape:connector-curvature="0" />
    </clipPath>
    <clipPath
       clipPathUnits="userSpaceOnUse"
       id="clipPath3323">
      <path
         d="m 355.248,258.481 8.066,0 0,31.757 -8.066,0 0,-31.757 z"
         id="path3325"
         inkscape:connector-curvature="0" />
    </clipPath>
  </defs>
  <sodipodi:namedview
     id="base"
     pagecolor="#ffffff"
     bordercolor="#666666"
     borderopacity="1.0"
     inkscape:pageopacity="0.0"
     inkscape:pageshadow="2"
     inkscape:zoom="0.35"
     inkscape:cx="177.43601"
     inkscape:cy="361.13641"
     inkscape:document-units="px"
     inkscape:current-layer="layer1"
     showgrid="false"
     fit-margin-top="0"
     fit-margin-left="0"
     fit-margin-right="0"
     fit-margin-bottom="0"
     inkscape:window-width="884"
     inkscape:window-height="634"
     inkscape:window-x="75"
     inkscape:window-y="75"
     inkscape:window-maximized="0" />
  <metadata
     id="metadata5691">
    <rdf:RDF>
      <cc:Work
         rdf:about="">
        <dc:format>image/svg+xml</dc:format>
        <dc:type
           rdf:resource="http://purl.org/dc/dcmitype/StillImage" />
        <dc:title></dc:title>
      </cc:Work>
    </rdf:RDF>
  </metadata>
  <g
     inkscape:label="Layer 1"
     inkscape:groupmode="layer"
     id="layer1"
     transform="translate(-147.56399,-811.28499)">
    <g
       transform="matrix(0.28367298,0,0,-0.28367298,95.047868,955.83006)"
       id="g3023">
      <g
         id="g3025"
         clip-path="url(#clipPath3027)">
        <g
           id="g3031"
           transform="translate(403.7591,452.5815)">
          <path
             d="m 0,0 -98.402,55.304 c -3.84,2.217 -10.129,2.217 -13.971,0 l -99.273,-58.337 c -3.841,-2.217 -6.984,-7.662 -6.984,-12.098 l 0,-153.909 112.624,-63.812 112.988,67.031 0,153.723 C 6.982,-7.662 3.843,-2.217 0,0"
             style="fill:#2056ae;fill-opacity:1;fill-rule:nonzero;stroke:none"
             id="path3033"
             inkscape:connector-curvature="0" />
        </g>
        <g
           id="g3035">
          <g
             id="g3037" />
          <g
             id="g3047">
            <g
               clip-path="url(#clipPath3039)"
               id="g3049">
              <g
                 id="g3051">
                <g
                   clip-path="url(#clipPath3043)"
                   id="g3053">
                  <g
                     transform="translate(297.4603,219.8144)"
                     id="g3055">
                    <path
                       d="M 0,0 0.084,0.05 0.041,154.206 c 0.023,4.436 -2.618,9.641 -6.459,11.858 l -98.929,55.605 c -3.841,2.218 -6.984,0.403 -6.984,-4.033 l 0,-153.867 L 0,0 z"
                       style="fill:#a7a5a6;fill-opacity:1;fill-rule:nonzero;stroke:none"
                       id="path3057"
                       inkscape:connector-curvature="0" />
                  </g>
                </g>
              </g>
            </g>
          </g>
        </g>
        <g
           id="g3059"
           transform="translate(403.7552,444.519)">
          <path
             d="m 0,0 -99.173,-58.249 c -3.843,-2.216 -6.991,-7.66 -6.997,-12.096 l -0.074,-154.329 113.23,66.82 0,153.819 C 6.986,0.4 3.847,2.217 0,0"
             style="fill:#325fb5;fill-opacity:1;fill-rule:nonzero;stroke:none"
             id="path3061"
             inkscape:connector-curvature="0" />
        </g>
        <g
           id="g3063">
          <g
             id="g3065" />
          <g
             id="g3075">
            <g
               clip-path="url(#clipPath3067)"
               id="g3077">
              <g
                 id="g3079">
                <g
                   clip-path="url(#clipPath3071)"
                   id="g3081">
                  <g
                     transform="translate(321.7416,368.143)"
                     id="g3083">
                    <path
                       d="m 0,0 8.064,-4.657 0,18.574 L 0,9.206 0,0 z"
                       style="fill:#a7a5a6;fill-opacity:1;fill-rule:nonzero;stroke:none"
                       id="path3085"
                       inkscape:connector-curvature="0" />
                  </g>
                </g>
              </g>
            </g>
          </g>
        </g>
        <g
           id="g3087"
           transform="translate(313.6761,363.6381)">
          <path
             d="M 0,0 0,-9.459 16.13,-0.151 8.065,4.506 0,0 z"
             style="fill:#2056ae;fill-opacity:1;fill-rule:nonzero;stroke:none"
             id="path3089"
             inkscape:connector-curvature="0" />
        </g>
        <g
           id="g3091">
          <g
             id="g3093" />
          <g
             id="g3103">
            <g
               clip-path="url(#clipPath3095)"
               id="g3105">
              <g
                 id="g3107">
                <g
                   clip-path="url(#clipPath3099)"
                   id="g3109">
                  <g
                     transform="translate(386.5941,406.5761)"
                     id="g3111">
                    <path
                       d="m 0,0 8.066,-4.657 0,18.574 L 0,9.206 0,0 z"
                       style="fill:#a7a5a6;fill-opacity:1;fill-rule:nonzero;stroke:none"
                       id="path3113"
                       inkscape:connector-curvature="0" />
                  </g>
                </g>
              </g>
            </g>
          </g>
        </g>
        <g
           id="g3115"
           transform="translate(378.5296,402.0712)">
          <path
             d="M 0,0 0,-9.459 16.131,-0.151 8.064,4.506 0,0 z"
             style="fill:#2056ae;fill-opacity:1;fill-rule:nonzero;stroke:none"
             id="path3117"
             inkscape:connector-curvature="0" />
        </g>
        <g
           id="g3119">
          <g
             id="g3121" />
          <g
             id="g3131">
            <g
               clip-path="url(#clipPath3123)"
               id="g3133">
              <g
                 id="g3135">
                <g
                   clip-path="url(#clipPath3127)"
                   id="g3137">
                  <g
                     transform="translate(321.7416,330.9155)"
                     id="g3139">
                    <path
                       d="m 0,0 8.064,-4.657 0,18.573 L 0,9.206 0,0 z"
                       style="fill:#a7a5a6;fill-opacity:1;fill-rule:nonzero;stroke:none"
                       id="path3141"
                       inkscape:connector-curvature="0" />
                  </g>
                </g>
              </g>
            </g>
          </g>
        </g>
        <g
           id="g3143"
           transform="translate(313.6761,326.4106)">
          <path
             d="M 0,0 0,-9.46 16.13,-0.151 8.065,4.506 0,0 z"
             style="fill:#2056ae;fill-opacity:1;fill-rule:nonzero;stroke:none"
             id="path3145"
             inkscape:connector-curvature="0" />
        </g>
        <g
           id="g3147">
          <g
             id="g3149" />
          <g
             id="g3159">
            <g
               clip-path="url(#clipPath3151)"
               id="g3161">
              <g
                 id="g3163">
                <g
                   clip-path="url(#clipPath3155)"
                   id="g3165">
                  <g
                     transform="translate(386.5941,369.3481)"
                     id="g3167">
                    <path
                       d="m 0,0 8.066,-4.657 0,18.574 L 0,9.206 0,0 z"
                       style="fill:#a7a5a6;fill-opacity:1;fill-rule:nonzero;stroke:none"
                       id="path3169"
                       inkscape:connector-curvature="0" />
                  </g>
                </g>
              </g>
            </g>
          </g>
        </g>
        <g
           id="g3171"
           transform="translate(378.5296,364.8432)">
          <path
             d="M 0,0 0,-9.459 16.131,-0.151 8.064,4.506 0,0 z"
             style="fill:#2056ae;fill-opacity:1;fill-rule:nonzero;stroke:none"
             id="path3173"
             inkscape:connector-curvature="0" />
        </g>
        <g
           id="g3175">
          <g
             id="g3177" />
          <g
             id="g3187">
            <g
               clip-path="url(#clipPath3179)"
               id="g3189">
              <g
                 id="g3191">
                <g
                   clip-path="url(#clipPath3183)"
                   id="g3193">
                  <g
                     transform="translate(321.7416,293.646)"
                     id="g3195">
                    <path
                       d="m 0,0 8.064,-4.657 0,18.574 L 0,9.206 0,0 z"
                       style="fill:#a7a5a6;fill-opacity:1;fill-rule:nonzero;stroke:none"
                       id="path3197"
                       inkscape:connector-curvature="0" />
                  </g>
                </g>
              </g>
            </g>
          </g>
        </g>
        <g
           id="g3199"
           transform="translate(313.6761,289.1411)">
          <path
             d="M 0,0 0,-9.459 16.13,-0.151 8.065,4.506 0,0 z"
             style="fill:#2056ae;fill-opacity:1;fill-rule:nonzero;stroke:none"
             id="path3201"
             inkscape:connector-curvature="0" />
        </g>
        <g
           id="g3203">
          <g
             id="g3205" />
          <g
             id="g3215">
            <g
               clip-path="url(#clipPath3207)"
               id="g3217">
              <g
                 id="g3219">
                <g
                   clip-path="url(#clipPath3211)"
                   id="g3221">
                  <g
                     transform="translate(354.1263,387.1406)"
                     id="g3223">
                    <path
                       d="m 0,0 8.064,-4.657 0,18.574 L 0,9.206 0,0 z"
                       style="fill:#a7a5a6;fill-opacity:1;fill-rule:nonzero;stroke:none"
                       id="path3225"
                       inkscape:connector-curvature="0" />
                  </g>
                </g>
              </g>
            </g>
          </g>
        </g>
        <g
           id="g3227"
           transform="translate(346.0609,382.6357)">
          <path
             d="M 0,0 0,-9.459 16.13,-0.151 8.065,4.506 0,0 z"
             style="fill:#2056ae;fill-opacity:1;fill-rule:nonzero;stroke:none"
             id="path3229"
             inkscape:connector-curvature="0" />
        </g>
        <g
           id="g3231">
          <g
             id="g3233" />
          <g
             id="g3243">
            <g
               clip-path="url(#clipPath3235)"
               id="g3245">
              <g
                 id="g3247">
                <g
                   clip-path="url(#clipPath3239)"
                   id="g3249">
                  <g
                     transform="translate(354.1263,349.913)"
                     id="g3251">
                    <path
                       d="m 0,0 8.064,-4.657 0,18.573 L 0,9.206 0,0 z"
                       style="fill:#a7a5a6;fill-opacity:1;fill-rule:nonzero;stroke:none"
                       id="path3253"
                       inkscape:connector-curvature="0" />
                  </g>
                </g>
              </g>
            </g>
          </g>
        </g>
        <g
           id="g3255"
           transform="translate(346.0609,345.4082)">
          <path
             d="M 0,0 0,-9.46 16.13,-0.151 8.065,4.506 0,0 z"
             style="fill:#2056ae;fill-opacity:1;fill-rule:nonzero;stroke:none"
             id="path3257"
             inkscape:connector-curvature="0" />
        </g>
        <g
           id="g3259">
          <g
             id="g3261" />
          <g
             id="g3271">
            <g
               clip-path="url(#clipPath3263)"
               id="g3273">
              <g
                 id="g3275">
                <g
                   clip-path="url(#clipPath3267)"
                   id="g3277">
                  <g
                     transform="translate(354.1263,312.6435)"
                     id="g3279">
                    <path
                       d="m 0,0 8.064,-4.657 0,18.574 L 0,9.206 0,0 z"
                       style="fill:#a7a5a6;fill-opacity:1;fill-rule:nonzero;stroke:none"
                       id="path3281"
                       inkscape:connector-curvature="0" />
                  </g>
                </g>
              </g>
            </g>
          </g>
        </g>
        <g
           id="g3283"
           transform="translate(346.0609,308.1386)">
          <path
             d="M 0,0 0,-9.459 16.13,-0.151 8.065,4.506 0,0 z"
             style="fill:#2056ae;fill-opacity:1;fill-rule:nonzero;stroke:none"
             id="path3285"
             inkscape:connector-curvature="0" />
        </g>
        <g
           id="g3287">
          <g
             id="g3289" />
          <g
             id="g3299">
            <g
               clip-path="url(#clipPath3291)"
               id="g3301">
              <g
                 id="g3303">
                <g
                   clip-path="url(#clipPath3295)"
                   id="g3305">
                  <g
                     transform="translate(386.5941,332.0791)"
                     id="g3307">
                    <path
                       d="m 0,0 8.066,-4.657 0,18.574 L 0,9.206 0,0 z"
                       style="fill:#a7a5a6;fill-opacity:1;fill-rule:nonzero;stroke:none"
                       id="path3309"
                       inkscape:connector-curvature="0" />
                  </g>
                </g>
              </g>
            </g>
          </g>
        </g>
        <g
           id="g3311"
           transform="translate(378.5296,327.5742)">
          <path
             d="M 0,0 0,-9.459 16.131,-0.151 8.064,4.506 0,0 z"
             style="fill:#2056ae;fill-opacity:1;fill-rule:nonzero;stroke:none"
             id="path3313"
             inkscape:connector-curvature="0" />
        </g>
        <g
           id="g3315">
          <g
             id="g3317" />
          <g
             id="g3327">
            <g
               clip-path="url(#clipPath3319)"
               id="g3329">
              <g
                 id="g3331">
                <g
                   clip-path="url(#clipPath3323)"
                   id="g3333">
                  <g
                     transform="translate(355.2484,263.1381)"
                     id="g3335">
                    <path
                       d="M 0,0 8.065,-4.657 8.065,27.1 0,22.389 0,0 z"
                       style="fill:#a7a5a6;fill-opacity:1;fill-rule:nonzero;stroke:none"
                       id="path3337"
                       inkscape:connector-curvature="0" />
                  </g>
                </g>
              </g>
            </g>
          </g>
        </g>
        <g
           id="g3339"
           transform="translate(347.1849,258.6333)">
          <path
             d="M 0,0 0,-9.46 16.129,-0.151 8.063,4.506 0,0 z"
             style="fill:#ffffff;fill-opacity:1;fill-rule:nonzero;stroke:none"
             id="path3341"
             inkscape:connector-curvature="0" />
        </g>
        <g
           id="g3343"
           transform="translate(273.7064,345.7749)">
          <path
             d="m 0,0 c 1.451,-0.836 2.631,-2.695 2.631,-4.146 0,-1.453 -1.18,-1.953 -2.631,-1.117 -1.451,0.836 -2.629,2.697 -2.629,4.151 0,1.45 1.178,1.95 2.629,1.112 m 0,-26.144 c 1.451,-0.836 2.631,-2.69 2.631,-4.146 0,-1.455 -1.18,-1.948 -2.631,-1.11 -1.451,0.838 -2.629,2.689 -2.629,4.142 0,1.457 1.178,1.95 2.629,1.114 M -46.322,-4.691 -68.17,7.905 c -1.457,0.84 -2.635,2.691 -2.635,4.146 0,1.455 1.178,1.95 2.635,1.11 L -46.322,0.565 c 1.453,-0.838 2.629,-2.689 2.629,-4.146 0,-1.455 -1.176,-1.948 -2.629,-1.11 m 0,26.138 -21.848,12.595 c -1.457,0.841 -2.635,2.7 -2.635,4.153 0,1.451 1.178,1.951 2.635,1.112 l 21.848,-12.596 c 1.453,-0.838 2.629,-2.697 2.629,-4.148 0,-1.453 -1.176,-1.955 -2.629,-1.116 m 0,26.144 -21.848,12.596 c -1.457,0.839 -2.635,2.697 -2.635,4.15 0,1.451 1.178,1.951 2.635,1.112 l 21.848,-12.596 c 1.453,-0.838 2.629,-2.695 2.629,-4.147 0,-1.453 -1.176,-1.954 -2.629,-1.115 M 0,26.143 c 1.451,-0.837 2.631,-2.696 2.631,-4.146 0,-1.454 -1.18,-1.954 -2.631,-1.116 -1.451,0.839 -2.629,2.696 -2.629,4.149 0,1.45 1.178,1.95 2.629,1.113 M 6.238,10.308 c 2.469,-1.424 4.481,-0.577 4.481,1.896 l 0,10.189 c 0,2.476 -2.012,5.639 -4.481,7.063 l -80.892,46.642 c -2.471,1.423 -4.475,0.574 -4.475,-1.901 l 0,-10.19 c 0,-2.471 2.004,-5.634 4.475,-7.058 l 36.966,-21.314 0,-6.997 -36.966,21.313 c -2.471,1.426 -4.475,0.58 -4.475,-1.896 l 0,-10.189 c 0,-2.476 2.004,-5.636 4.475,-7.059 l 36.966,-21.314 0,-6.994 -36.966,21.313 c -2.471,1.424 -4.475,0.575 -4.475,-1.896 l 0,-10.194 c 0,-2.471 2.004,-5.634 4.475,-7.058 l 36.966,-21.314 0,-11.731 -0.009,0.003 c 0,-0.054 0.008,-0.111 0.008,-0.164 -0.088,-7.916 -6.586,-10.628 -14.571,-6.024 l -25.025,14.431 0,-6.642 25.025,-14.429 c 7.518,-4.334 14.119,-4.198 17.893,-0.46 3.771,-8.088 10.373,-15.837 17.892,-20.173 l 26.014,-15 0,6.641 -26.014,14.999 c -7.984,4.604 -14.482,14.806 -14.574,22.827 0,0.054 0.014,0.099 0.014,0.154 l -0.014,0.007 0,11.733 37.287,-21.498 c 2.469,-1.423 4.481,-0.578 4.481,1.895 l 0,10.192 c 0,2.472 -2.012,5.638 -4.481,7.061 l -37.287,21.498 0,6.995 37.287,-21.498 c 2.469,-1.424 4.481,-0.582 4.481,1.896 l 0,10.188 c 0,2.477 -2.012,5.637 -4.481,7.061 l -37.287,21.5 0,6.994 37.287,-21.498 z"
             style="fill:#ffffff;fill-opacity:1;fill-rule:nonzero;stroke:none"
             id="path3345"
             inkscape:connector-curvature="0" />
        </g>
      </g>
    </g>
  </g>
</svg>
