<?xml version="1.0" encoding="utf-8"?>
<!-- Generator: Adobe Illustrator 12.0.0, SVG Export Plug-In . SVG Version: 6.00 Build 51448)  -->
<!DOCTYPE svg PUBLIC "-//W3C//DTD SVG 1.1//EN" "http://www.w3.org/Graphics/SVG/1.1/DTD/svg11.dtd" [
	<!ENTITY ns_svg "http://www.w3.org/2000/svg">
	<!ENTITY ns_xlink "http://www.w3.org/1999/xlink">
]>
<svg  version="1.1" id="Layer_1" xmlns="&ns_svg;" xmlns:xlink="&ns_xlink;" width="27.768" height="31.316"
	 viewBox="0 0 27.768 31.316" overflow="visible" enable-background="new 0 0 27.768 31.316" xml:space="preserve">
<polygon fill="none" stroke="#E0DED6" stroke-width="3.2" stroke-linecap="round" stroke-linejoin="round" points="22.083,27.86 
	27.941,6.623 25.512,3.375 5.635,3.375 -0.175,24.692 -0.175,24.694 2.255,27.941 "/>
<polygon fill="#D5AC9D" points="25.512,3.375 27.942,6.623 22.083,27.86 19.652,24.612 "/>
<polygon fill="#B68F7F" points="19.652,24.612 -0.175,24.692 5.635,3.375 25.511,3.375 "/>
<polygon fill="#99786B" points="19.652,24.612 22.083,27.86 2.255,27.941 -0.175,24.694 "/>
<line fill="none" stroke="#FDDDCF" stroke-width="0.4" stroke-linecap="round" x1="15.812" y1="24.612" x2="18.243" y2="27.86"/>
<line fill="none" stroke="#FDDDCF" stroke-width="0.4" stroke-linecap="round" x1="7.493" y1="24.612" x2="9.923" y2="27.86"/>
<line fill="none" stroke="#FDDDCF" stroke-width="0.4" stroke-linecap="round" x1="11.652" y1="24.612" x2="14.083" y2="27.86"/>
<line fill="none" stroke="#FDDDCF" stroke-width="0.4" stroke-linecap="round" x1="3.333" y1="24.612" x2="5.762" y2="27.86"/>
<line fill="none" stroke="#FDDDCF" stroke-width="0.4" stroke-linecap="round" x1="21.673" y1="3.375" x2="15.812" y2="24.612"/>
<line fill="none" stroke="#FDDDCF" stroke-width="0.4" stroke-linecap="round" x1="17.512" y1="3.375" x2="11.652" y2="24.612"/>
<line fill="none" stroke="#FDDDCF" stroke-width="0.4" stroke-linecap="round" x1="13.352" y1="3.375" x2="7.493" y2="24.612"/>
<line fill="none" stroke="#FDDDCF" stroke-width="0.4" stroke-linecap="round" x1="9.191" y1="3.375" x2="3.333" y2="24.612"/>
<line fill="none" stroke="#FDDDCF" stroke-width="0.4" stroke-linecap="round" x1="15.839" y1="9.441" x2="11.678" y2="9.441"/>
<line fill="none" stroke="#FDDDCF" stroke-width="0.4" stroke-linecap="round" x1="4.152" y1="9.441" x2="7.518" y2="9.441"/>
<line fill="none" stroke="#FDDDCF" stroke-width="0.4" stroke-linecap="round" x1="23.853" y1="9.441" x2="20" y2="9.441"/>
<line fill="none" stroke="#FDDDCF" stroke-width="0.4" stroke-linecap="round" x1="19.161" y1="12.476" x2="15.001" y2="12.476"/>
<line fill="none" stroke="#FDDDCF" stroke-width="0.4" stroke-linecap="round" x1="6.68" y1="12.476" x2="10.841" y2="12.476"/>
<line fill="none" stroke="#FDDDCF" stroke-width="0.4" stroke-linecap="round" x1="2.473" y1="15.51" x2="5.844" y2="15.51"/>
<line fill="none" stroke="#FDDDCF" stroke-width="0.4" stroke-linecap="round" x1="14.163" y1="15.51" x2="10.005" y2="15.51"/>
<line fill="none" stroke="#FDDDCF" stroke-width="0.4" stroke-linecap="round" x1="22.175" y1="15.51" x2="18.323" y2="15.51"/>
<line fill="none" stroke="#FDDDCF" stroke-width="0.4" stroke-linecap="round" x1="5.007" y1="18.545" x2="9.167" y2="18.545"/>
<line fill="none" stroke="#FDDDCF" stroke-width="0.4" stroke-linecap="round" x1="17.486" y1="18.545" x2="13.327" y2="18.545"/>
<line fill="none" stroke="#FDDDCF" stroke-width="0.4" stroke-linecap="round" x1="20.473" y1="21.578" x2="16.65" y2="21.578"/>
<line fill="none" stroke="#FDDDCF" stroke-width="0.4" stroke-linecap="round" x1="0.613" y1="21.578" x2="4.171" y2="21.578"/>
<line fill="none" stroke="#FDDDCF" stroke-width="0.4" stroke-linecap="round" x1="8.331" y1="21.578" x2="12.491" y2="21.578"/>
<line fill="none" stroke="#FDDDCF" stroke-width="0.4" stroke-linecap="round" x1="8.355" y1="6.408" x2="12.516" y2="6.408"/>
<line fill="none" stroke="#FDDDCF" stroke-width="0.4" stroke-linecap="round" x1="20.835" y1="6.408" x2="16.677" y2="6.408"/>
<polyline fill="none" stroke="#FFF3EF" stroke-width="0.8" stroke-linecap="round" points="21.766,27.545 19.652,24.612 
	25.375,4.012 "/>
<line fill="none" stroke="#FFF3EF" stroke-width="0.8" stroke-linecap="round" x1="19.652" y1="24.612" x2="0.634" y2="24.621"/>
</svg>
