<?xml version="1.0" encoding="utf-8"?>
<!-- Generator: Adobe Illustrator 12.0.0, SVG Export Plug-In . SVG Version: 6.00 Build 51448)  -->
<!DOCTYPE svg PUBLIC "-//W3C//DTD SVG 1.1//EN" "http://www.w3.org/Graphics/SVG/1.1/DTD/svg11.dtd" [
	<!ENTITY ns_svg "http://www.w3.org/2000/svg">
	<!ENTITY ns_xlink "http://www.w3.org/1999/xlink">
]>
<svg  version="1.1" id="Layer_1" xmlns="&ns_svg;" xmlns:xlink="&ns_xlink;" width="27.767" height="31.316"
	 viewBox="0 0 27.767 31.316" overflow="visible" enable-background="new 0 0 27.767 31.316" xml:space="preserve">
<polygon fill="none" stroke="#E0DED6" stroke-width="3.2" stroke-linecap="round" stroke-linejoin="round" points="26.086,7.459 
	4.848,1.6 1.6,4.029 1.6,23.906 22.918,29.717 22.92,29.717 26.167,27.287 "/>
<polygon fill="#D5AC9D" points="1.6,4.029 4.848,1.599 26.086,7.459 22.838,9.889 "/>
<polygon fill="#B68F7F" points="22.838,9.889 22.918,29.717 1.6,23.906 1.6,4.03 "/>
<polygon fill="#99786B" points="22.838,9.889 26.086,7.459 26.167,27.287 22.92,29.717 "/>
<line fill="none" stroke="#FDDDCF" stroke-width="0.4" stroke-linecap="round" x1="22.838" y1="13.729" x2="26.086" y2="11.299"/>
<line fill="none" stroke="#FDDDCF" stroke-width="0.4" stroke-linecap="round" x1="22.838" y1="22.049" x2="26.086" y2="19.619"/>
<line fill="none" stroke="#FDDDCF" stroke-width="0.4" stroke-linecap="round" x1="22.838" y1="17.889" x2="26.086" y2="15.459"/>
<line fill="none" stroke="#FDDDCF" stroke-width="0.4" stroke-linecap="round" x1="22.838" y1="26.209" x2="26.086" y2="23.779"/>
<line fill="none" stroke="#FDDDCF" stroke-width="0.4" stroke-linecap="round" x1="1.6" y1="7.869" x2="22.838" y2="13.729"/>
<line fill="none" stroke="#FDDDCF" stroke-width="0.4" stroke-linecap="round" x1="1.6" y1="12.029" x2="22.838" y2="17.889"/>
<line fill="none" stroke="#FDDDCF" stroke-width="0.4" stroke-linecap="round" x1="1.6" y1="16.189" x2="22.838" y2="22.049"/>
<line fill="none" stroke="#FDDDCF" stroke-width="0.4" stroke-linecap="round" x1="1.6" y1="20.35" x2="22.838" y2="26.209"/>
<line fill="none" stroke="#FDDDCF" stroke-width="0.4" stroke-linecap="round" x1="7.667" y1="13.703" x2="7.667" y2="17.863"/>
<line fill="none" stroke="#FDDDCF" stroke-width="0.4" stroke-linecap="round" x1="7.667" y1="25.389" x2="7.667" y2="22.023"/>
<line fill="none" stroke="#FDDDCF" stroke-width="0.4" stroke-linecap="round" x1="7.667" y1="5.688" x2="7.667" y2="9.542"/>
<line fill="none" stroke="#FDDDCF" stroke-width="0.4" stroke-linecap="round" x1="10.702" y1="10.381" x2="10.702" y2="14.541"/>
<line fill="none" stroke="#FDDDCF" stroke-width="0.4" stroke-linecap="round" x1="10.702" y1="22.861" x2="10.702" y2="18.701"/>
<line fill="none" stroke="#FDDDCF" stroke-width="0.4" stroke-linecap="round" x1="13.736" y1="27.068" x2="13.736" y2="23.697"/>
<line fill="none" stroke="#FDDDCF" stroke-width="0.4" stroke-linecap="round" x1="13.736" y1="15.379" x2="13.736" y2="19.537"/>
<line fill="none" stroke="#FDDDCF" stroke-width="0.4" stroke-linecap="round" x1="13.736" y1="7.367" x2="13.736" y2="11.219"/>
<line fill="none" stroke="#FDDDCF" stroke-width="0.4" stroke-linecap="round" x1="16.77" y1="24.535" x2="16.77" y2="20.375"/>
<line fill="none" stroke="#FDDDCF" stroke-width="0.4" stroke-linecap="round" x1="16.77" y1="12.055" x2="16.77" y2="16.215"/>
<line fill="none" stroke="#FDDDCF" stroke-width="0.4" stroke-linecap="round" x1="19.803" y1="9.068" x2="19.803" y2="12.891"/>
<line fill="none" stroke="#FDDDCF" stroke-width="0.4" stroke-linecap="round" x1="19.803" y1="28.928" x2="19.803" y2="25.371"/>
<line fill="none" stroke="#FDDDCF" stroke-width="0.4" stroke-linecap="round" x1="19.803" y1="21.211" x2="19.803" y2="17.051"/>
<line fill="none" stroke="#FDDDCF" stroke-width="0.4" stroke-linecap="round" x1="4.634" y1="21.186" x2="4.634" y2="17.025"/>
<line fill="none" stroke="#FDDDCF" stroke-width="0.4" stroke-linecap="round" x1="4.634" y1="8.707" x2="4.634" y2="12.865"/>
<polyline fill="none" stroke="#FFF3EF" stroke-width="0.8" stroke-linecap="round" points="25.77,7.775 22.838,9.889 2.238,4.167 
	"/>
<line fill="none" stroke="#FFF3EF" stroke-width="0.8" stroke-linecap="round" x1="22.838" y1="9.889" x2="22.846" y2="28.908"/>
</svg>
