<?xml version="1.0"?>
<!DOCTYPE svg PUBLIC "-//W3C//DTD SVG 1.1//EN" "http://www.w3.org/Graphics/SVG/1.1/DTD/svg11.dtd">
<svg xmlns="http://www.w3.org/2000/svg" xmlns:xl="http://www.w3.org/1999/xlink" version="1.1" viewBox="0 0 640 640" width="640pt" height="640pt"><metadata xmlns:dc="http://purl.org/dc/elements/1.1/"><dc:date>2013-01-17 02:27Z</dc:date><!-- Produced by OmniGraffle Professional 5.4.1 --></metadata><defs></defs><g stroke="none" stroke-opacity="1" stroke-dasharray="none" fill="none" fill-opacity="1"><title>svg</title><g><title>gear</title><path d="M 319.37988 440 C 253.12012 440 199.37988 386.24024 199.37988 320 C 199.37988 253.74024 253.12012 200 319.37988 200 C 385.63965 200 439.37988 253.74024 439.37988 320 C 439.37988 386.24024 385.63965 440 319.37988 440 M 640 359.37988 L 640 279.37988 L 544.3799 239.5398 C 541.71997 232.0398 538.91968 224.7998 535.47974 217.65991 L 574.06006 121.56006 L 517.5 65 L 422.26013 104.21997 C 415 100.739744 407.55981 97.77954 399.8999 95 L 359.37988 0 L 279.37988 0 L 239.84009 94.68017 C 231.87988 97.5 224.21997 100.460205 216.61987 104.06006 L 121.56006 65.89966 L 65 122.45972 L 103.759763 216.67969 C 100 224.37988 96.9397 232.2998 94.06006 240.41992 L 0 280.62012 L 0 360.62012 L 94.11987 399.8401 C 97.039795 407.9602 100.15991 415.89966 103.91968 423.59985 L 65.839846 518.43994 L 122.399904 575 L 216.87988 536.09985 C 224.4397 539.68017 232.1997 542.61963 240.15991 545.31983 L 280.62012 640 L 360.63965 640 L 400.21972 544.8401 C 407.81983 542.0398 415.31983 539.06006 422.5 535.6201 L 518.43994 574.06006 L 575 517.5 L 535.63965 422.0398 C 538.95996 414.8401 541.71997 407.61963 544.3799 400.1599 Z" fill="black"/></g></g></svg>
