<svg version="1.1" xmlns="http://www.w3.org/2000/svg" xmlns:xlink="http://www.w3.org/1999/xlink" x="0px" y="0px" width="50px" height="50px" viewBox="0 0 50 50" enable-background="new 0 0 50 50" xml:space="preserve"><g id="Layer_6"><g><linearGradient id="SVGID_14_" gradientUnits="userSpaceOnUse" x1="92.3252" y1="288.1572" x2="92.3252" y2="293.6358" gradientTransform="matrix(-1 0 0 -1 116.6973 324.4141)"><stop  offset="0" style="stop-color:#B8B8B8"/><stop  offset="1" style="stop-color:#FFFFFF"/></linearGradient>
<path fill="url(#SVGID_14_)" d="M8.715,22.033c-0.497,0-0.746,0.256-0.842,0.395c-0.39,0.565-0.618,1.248-0.618,1.985c0,1.938,1.572,3.511,3.511,3.511c0.636,0,1.23-0.171,1.745-0.467c-0.018,0.109-0.028,0.222-0.028,0.338c0,1.157,0.938,2.096,2.095,2.096c0.26,0,0.507-0.051,0.737-0.137c0.618,3.217,3.444,5.646,6.84,5.646c0.456,0,0.899-0.045,1.33-0.127c1.039,1.434,2.726,2.367,4.632,2.367c3.159,0,5.722-2.562,5.722-5.721c0-0.035-0.003-0.07-0.004-0.104c0.729,0.387,1.561,0.607,2.443,0.607c2.877,0,5.211-2.333,5.211-5.212c0-2.682-2.027-4.889-4.633-5.178H8.715z"/>
<path fill="#D8D6C5" d="M36.884,21.487l0.034,0.003c2.879,0.318,5.116,2.758,5.117,5.723l0,0c-0.001,3.18-2.578,5.756-5.758,5.758l0,0c-0.678,0-1.329-0.118-1.934-0.334l0,0c-0.356,3.124-3.009,5.551-6.229,5.551l0,0c-1.961,0-3.717-0.904-4.865-2.319l0,0c-0.356,0.053-0.723,0.081-1.095,0.081l0,0c-3.465-0.002-6.378-2.344-7.249-5.533l0,0c-0.107,0.014-0.217,0.021-0.329,0.021l0,0c-1.292,0-2.367-0.928-2.597-2.152l0,0c-0.383,0.121-0.792,0.188-1.214,0.188l0,0c-2.24-0.002-4.058-1.818-4.058-4.06l0,0c-0.002-0.851,0.266-1.643,0.714-2.294l0,0c0.154-0.238,0.586-0.632,1.272-0.632l0,0c0.007,0,0.013,0,0.02,0l0,0v0.548v0.545c-0.295,0.007-0.354,0.123-0.392,0.158l0,0c-0.329,0.479-0.521,1.053-0.521,1.675l0,0c0.004,1.638,1.328,2.964,2.965,2.965l0,0c0.536,0,1.036-0.144,1.474-0.394l0,0l0.995-0.572l-0.185,1.133c-0.013,0.09-0.021,0.172-0.021,0.25l0,0c0.003,0.855,0.693,1.548,1.548,1.55l0,0c0.19-0.002,0.372-0.037,0.546-0.104l0,0l0.606-0.228l0.122,0.637c0.569,2.964,3.173,5.207,6.303,5.205l0,0c0.418,0,0.827-0.041,1.225-0.118l0,0l0.341-0.065l0.204,0.28c0.942,1.3,2.467,2.142,4.189,2.142l0,0c2.859-0.004,5.17-2.317,5.176-5.174l0,0c0-0.008-0.001-0.037-0.003-0.09l0,0l-0.024-0.938l0.827,0.441c0.653,0.345,1.395,0.543,2.187,0.543l0,0c2.574-0.004,4.66-2.09,4.664-4.664l0,0c0.002-2.396-1.807-4.367-4.129-4.633l0,0H8.715v-0.545v-0.548"/>	
<linearGradient id="SVGID_15_" gradientUnits="userSpaceOnUse" x1="-211.3472" y1="162.2441" x2="-223.3638" y2="162.2441" gradientTransform="matrix(1 0 0 1 250.5264 -144.8652)"><stop  offset="0" style="stop-color:#B8B8B8"/><stop  offset="1" style="stop-color:#FFFFFF"/></linearGradient>
<path fill="url(#SVGID_15_)" d="M40.754,25.182c0.497,0,0.746-0.256,0.842-0.395c0.391-0.565,0.618-1.248,0.618-1.985c0-1.938-1.571-3.512-3.512-3.512c-0.636,0-1.229,0.172-1.744,0.468c0.018-0.109,0.028-0.223,0.028-0.338c0-1.158-0.938-2.096-2.095-2.096c-0.26,0-0.507,0.05-0.737,0.137c-0.617-3.217-3.443-5.647-6.84-5.647c-0.455,0-0.898,0.046-1.329,0.128c-1.039-1.434-2.726-2.367-4.632-2.367c-3.159,0-5.721,2.562-5.721,5.721c0,0.035,0.003,0.07,0.003,0.104c-0.729-0.388-1.56-0.608-2.443-0.608c-2.878,0-5.211,2.334-5.211,5.212c0,2.683,2.027,4.89,4.632,5.179H40.754z"/>
<path fill="#D8D6C5" d="M12.585,25.728l-0.034-0.003c-2.879-0.318-5.116-2.758-5.118-5.723l0,0c0.002-3.18,2.579-5.756,5.759-5.758l0,0c0.678,0,1.329,0.118,1.934,0.334l0,0c0.356-3.124,3.008-5.551,6.228-5.551l0,0c1.962,0,3.717,0.904,4.865,2.318l0,0c0.356-0.052,0.723-0.08,1.096-0.08l0,0c3.464,0.002,6.378,2.344,7.248,5.533l0,0c0.107-0.014,0.217-0.021,0.329-0.021l0,0c1.292,0,2.367,0.928,2.597,2.152l0,0c0.383-0.121,0.791-0.188,1.214-0.188l0,0c2.241,0.002,4.058,1.818,4.058,4.06l0,0c0.002,0.851-0.265,1.643-0.713,2.294l0,0c-0.154,0.238-0.586,0.632-1.272,0.632l0,0c-0.008,0-0.014,0-0.021,0l0,0V25.18v-0.545c0.296-0.007,0.355-0.123,0.393-0.158l0,0c0.328-0.479,0.521-1.053,0.521-1.675l0,0c-0.004-1.638-1.328-2.964-2.966-2.965l0,0c-0.536,0-1.036,0.144-1.474,0.394l0,0l-0.995,0.572l0.185-1.133c0.014-0.09,0.021-0.172,0.021-0.25l0,0c-0.003-0.855-0.693-1.549-1.548-1.551l0,0c-0.19,0.002-0.372,0.038-0.546,0.104l0,0l-0.606,0.229l-0.122-0.638c-0.569-2.963-3.174-5.206-6.303-5.203l0,0c-0.419,0-0.827,0.04-1.226,0.117l0,0l-0.341,0.065l-0.204-0.28c-0.943-1.3-2.467-2.142-4.19-2.142l0,0c-2.858,0.004-5.17,2.316-5.176,5.174l0,0c0,0.008,0.002,0.037,0.004,0.09l0,0l0.024,0.938l-0.827-0.441c-0.654-0.345-1.396-0.543-2.187-0.543l0,0c-2.575,0.004-4.661,2.09-4.665,4.664l0,0c-0.002,2.396,1.807,4.367,4.129,4.633l0,0h28.097v0.545v0.548"/>
<g><g><linearGradient id="SVGID_16_" gradientUnits="userSpaceOnUse" x1="7.021" y1="23.1655" x2="30.2905" y2="23.1655"><stop  offset="0" style="stop-color:#CCCCCC"/><stop  offset="1" style="stop-color:#FFFFFF"/></linearGradient>
<path fill="url(#SVGID_16_)" stroke="#FFFFFF" stroke-width="0.9303" d="M40.798,25.285c0-1.706-1.384-3.09-3.091-3.09c-0.077,0-0.149,0.017-0.225,0.022c-0.203-2.026-1.895-3.615-3.975-3.615c-0.562,0-1.097,0.118-1.583,0.326c-0.374-2.641-2.638-4.673-5.381-4.673c-0.35,0-0.69,0.036-1.021,0.099c-0.447-1.588-1.89-2.759-3.621-2.759c-1.821,0-3.339,1.289-3.696,3.003c-1.496,0.246-2.787,1.097-3.607,2.299c-0.583-0.367-1.267-0.587-2.006-0.587c-2.086,0-3.777,1.69-3.777,3.777c0,0.566,0.133,1.099,0.357,1.581c-0.712,0.575-1.176,1.444-1.176,2.431c0,1.732,1.404,3.137,3.137,3.137c1.107,0,2.075-0.576,2.633-1.442c0.427,2.579,2.662,4.548,5.362,4.548c0.201,0,0.399-0.013,0.595-0.034c0.475,2.521,2.686,4.429,5.344,4.429c2.323,0,4.303-1.459,5.083-3.509c0.076,0.004,0.148,0.022,0.227,0.022c1.132,0,2.149-0.472,2.88-1.224c0.479,0.306,1.044,0.488,1.655,0.488c1.377,0,2.531-0.907,2.931-2.151C39.484,28.292,40.798,26.946,40.798,25.285z"/>
</g></g></g></g></svg>
