<?xml version="1.0" encoding="utf-8"?>
<!-- Generator: Adobe Illustrator 15.0.2, SVG Export Plug-In . SVG Version: 6.00 Build 0)  -->
<!DOCTYPE svg PUBLIC "-//W3C//DTD SVG 1.1//EN" "http://www.w3.org/Graphics/SVG/1.1/DTD/svg11.dtd">
<svg version="1.1" id="Layer_1" xmlns="http://www.w3.org/2000/svg" xmlns:xlink="http://www.w3.org/1999/xlink" x="0px" y="0px"
	 width="333px" height="90px" viewBox="0 0 333 90" enable-background="new 0 0 333 90" xml:space="preserve">
<g>
	<g>
		<path d="M9.043,73.656V14.044h19.525v45.708h26.823v13.904H9.043z"/>
		<path d="M74.086,47.179c0-4.643,2.897-7.544,8.031-7.544c4.056,0,7.616,3.565,7.616,7.544H74.086z M106.953,55.906
			c0.249-15.691-9.438-26.774-25.499-26.774c-13.885,0-24.527,9.097-24.527,23.316c0,14.431,10.724,22.378,24.609,22.378
			c10.101,0,21.028-3.56,24.009-14.322H89.071c-1.242,2.605-3.726,3.834-6.458,3.834c-4.553,0-8.527-3.356-8.527-8.432H106.953z"/>
		<path d="M103.588,30.316h17.221l7.618,27.365l7.534-27.365h16.561l-14.656,43.34h-19.209L103.588,30.316z"/>
		<path d="M167.098,47.179c0-4.643,2.896-7.544,8.029-7.544c4.057,0,7.617,3.565,7.617,7.544H167.098z M199.963,55.906
			c0.248-15.691-9.438-26.774-25.498-26.774c-13.885,0-24.527,9.097-24.527,23.316c0,14.431,10.724,22.378,24.609,22.378
			c10.102,0,21.029-3.56,24.01-14.322h-16.475c-1.242,2.605-3.727,3.834-6.459,3.834c-4.553,0-8.525-3.356-8.525-8.432H199.963z"/>
		<path d="M203.213,73.656V14.044h17.16v59.612H203.213z"/>
		<g>
			<path fill="#ED1C2E" d="M254.961,8.503c-7.465,5.037-13.221,8.995-13.221,36.428c0,24.465,4.496,30.851,13.221,36.157v2.52
				c-20.846-11.244-23.357-30.492-23.357-37.867c0-26.264,18.41-37.417,23.357-39.667V8.503z"/>
			<path fill="#ED1C2E" d="M294.318,6.074c4.947,2.25,23.357,13.402,23.357,39.667c0,7.375-2.512,26.623-23.357,37.867v-2.52
				c8.725-5.307,13.221-11.692,13.221-36.157c0-27.433-5.756-31.391-13.221-36.428V6.074z"/>
		</g>
		<path d="M269.674,39.145h1.904c3.477,0,9.848-0.332,9.848-7.957c0-2.155-0.994-7.543-7.365-7.543
			c-7.943,0-7.943,7.543-7.943,9.615H255.33c0-11.023,6.223-18.891,19.475-18.891c7.861,0,18.191,3.975,18.191,16.404
			c0,5.968-3.719,9.7-7.061,11.194v0.166c2.072,0.581,8.869,3.652,8.869,13.646c0,11.061-8.205,18.929-20.061,18.929
			c-5.553,0-20.467-1.242-20.467-19.589h11.35l-0.084,0.083c0,3.135,0.828,10.23,8.621,10.23c4.643,0,8.705-3.136,8.705-9.653
			c0-8.003-7.793-8.333-13.195-8.333V39.145z"/>
	</g>
	<path d="M322.426,22.844c-2.734,0-4.68-2.048-4.68-4.757c0-2.862,2.162-4.757,4.68-4.757c2.494,0,4.656,1.896,4.656,4.757
		S324.92,22.844,322.426,22.844z M322.426,14.156c-2.061,0-3.662,1.615-3.662,3.93c0,2.163,1.398,3.931,3.662,3.931
		c2.035,0,3.639-1.603,3.639-3.931C326.064,15.771,324.461,14.156,322.426,14.156z M321.484,20.809h-0.865v-5.266h1.998
		c1.271,0,1.92,0.445,1.92,1.514c0,0.954-0.584,1.348-1.373,1.438l1.475,2.315h-0.979l-1.361-2.251h-0.814V20.809z M322.451,17.819
		c0.648,0,1.221-0.063,1.221-0.827c0-0.636-0.623-0.712-1.145-0.712h-1.043v1.539H322.451z"/>
</g>
</svg>
