<?xml version="1.0" encoding="utf-8"?>
<!-- Generator: Adobe Illustrator 12.0.0, SVG Export Plug-In . SVG Version: 6.00 Build 51448)  -->
<!DOCTYPE svg PUBLIC "-//W3C//DTD SVG 1.1//EN" "http://www.w3.org/Graphics/SVG/1.1/DTD/svg11.dtd" [
	<!ENTITY ns_svg "http://www.w3.org/2000/svg">
	<!ENTITY ns_xlink "http://www.w3.org/1999/xlink">
]>
<svg  version="1.1" id="Layer_1" xmlns="&ns_svg;" xmlns:xlink="&ns_xlink;" width="48.395" height="31.397"
	 viewBox="0 0 48.395 31.397" overflow="visible" enable-background="new 0 0 48.395 31.397" xml:space="preserve">
<path fill="#CDCBCB" d="M47.477,19.947c0.14-0.298-0.04-0.57-0.521-0.682l-5.043-1.173V7.834l-8.856,6.516l0.01,2.71l-0.026-0.002
	l-0.003-2.708L6.57,7.247l0.001,9.615l-5.354,3.742C0.869,20.848,0.769,21.12,0.9,21.335C0.83,21.6,1.013,21.84,1.439,21.958
	l30.973,8.526c0.661,0.183,1.652-0.006,2.203-0.414l12.582-9.369C47.549,20.44,47.634,20.157,47.477,19.947 M41.841,7.758
	L15.308,0.844L6.595,7.196l26.459,7.081L41.841,7.758z"/>
<path fill="#D9D7C5" d="M32.188,31.296L1.213,22.77c-0.278-0.078-0.541-0.199-0.771-0.414c-0.227-0.208-0.403-0.551-0.401-0.903
	C0.015,21.352,0,21.245,0,21.142c0.016-0.595,0.371-0.972,0.733-1.23l4.995-3.49L5.726,7.246c0-0.143,0.037-0.282,0.103-0.405
	c0.059-0.127,0.151-0.241,0.27-0.327l8.712-6.353c0.204-0.149,0.464-0.198,0.71-0.134l26.531,6.914L42.038,7l0.015-0.059
	c0.178,0.047,0.33,0.147,0.442,0.283c0.162,0.156,0.261,0.375,0.261,0.609v9.589l4.389,1.021c0.282,0.065,0.553,0.174,0.795,0.387
	c0.24,0.202,0.433,0.56,0.427,0.923c0,0.042-0.003,0.083-0.008,0.123c0.024,0.095,0.037,0.193,0.036,0.29
	c-0.014,0.573-0.347,0.945-0.695,1.211l-12.582,9.369c-0.623,0.447-1.383,0.64-2.137,0.65
	C32.717,31.396,32.452,31.369,32.188,31.296 M34.109,29.394l12.532-9.33c0-0.002-0.001-0.005-0.001-0.007l-4.92-1.143
	c-0.381-0.09-0.652-0.429-0.652-0.82V9.5l-7.169,5.273l0.007,2.283c0.002,0.238-0.097,0.461-0.271,0.622s-0.406,0.242-0.643,0.222
	l-0.022-0.002c-0.437-0.036-0.774-0.402-0.775-0.84l-0.001-2.063L7.411,8.345l0.003,8.516c0,0.277-0.133,0.533-0.36,0.691
	l-5.211,3.643l30.792,8.476c0.081,0.023,0.203,0.04,0.346,0.04C33.384,29.72,33.921,29.549,34.109,29.394 M48.239,20.305
	l-0.763-0.358l-0.293,0.221l0.293-0.221L48.239,20.305z M8.517,6.837l24.361,6.52l7.045-5.227L15.482,1.76L8.517,6.837z"/>
<path fill="#969688" d="M9.467,15.01l-7.516,5.435c-0.926,0.669-0.782,1.465,0.319,1.77l29.367,8.084
	c1.104,0.304,2.755-0.007,3.673-0.69l11.248-8.374c0.917-0.684,0.756-1.454-0.357-1.713l-5.566-1.293"/>
<path fill="#F4F6EB" d="M9.555,14.832L1.927,20.16c-0.938,0.657-0.802,1.438,0.301,1.74l29.382,8.039
	c1.102,0.3,2.754-0.014,3.671-0.697l11.253-8.416c0.915-0.685,0.753-1.456-0.36-1.715l-5.566-1.293"/>
<polygon fill="#878686" points="33.127,27.727 41.941,21.107 41.941,7.869 33.083,14.384 "/>
<polygon fill="#949C9C" points="33.083,14.312 6.624,7.229 15.336,0.879 41.87,7.793 "/>
<polygon fill="#878686" points="7.78,23.419 10.171,21.635 10.437,21.706 8.046,23.491 "/>
<polygon fill="#878686" points="13.059,24.854 15.451,23.069 15.717,23.141 13.325,24.926 "/>
<polygon fill="#878686" points="18.357,26.302 20.748,24.517 21.014,24.587 18.624,26.373 "/>
<polygon fill="#878686" points="23.666,27.73 26.057,25.947 26.324,26.018 23.933,27.804 "/>
<polygon fill="#878686" points="28.957,29.178 31.349,27.394 31.614,27.463 29.223,29.249 "/>
<polygon fill="#878686" points="41.648,21.289 41.872,21.128 44.989,21.968 44.767,22.128 "/>
<polygon fill="#878686" points="38.352,23.748 38.573,23.588 41.69,24.428 41.47,24.587 "/>
<polygon fill="#878686" points="35.037,26.25 35.259,26.091 38.377,26.93 38.155,27.09 "/>
<polygon fill="#878686" points="4.842,18.149 5.065,17.988 8.182,18.828 7.96,18.988 "/>
<polygon fill="#949C9C" points="6.602,20.53 33.084,27.699 33.065,14.384 6.598,7.281 "/>
<polygon fill="#DCE5E5" points="9.695,21.224 7.221,20.568 7.221,12.585 9.695,13.242 "/>
<polygon fill="#DCE5E5" points="12.526,21.946 10.052,21.289 10.052,13.308 12.526,13.963 "/>
<polygon fill="#DCE5E5" points="15.358,22.669 12.883,22.012 12.883,14.03 15.358,14.687 "/>
<polygon fill="#DCE5E5" points="18.188,23.489 15.714,22.832 15.714,14.849 18.188,15.505 "/>
<polygon fill="#DCE5E5" points="21.021,24.246 18.547,23.59 18.547,15.606 21.021,16.264 "/>
<polygon fill="#DCE5E5" points="23.852,24.998 21.378,24.342 21.378,16.359 23.852,17.017 "/>
<polygon fill="#DCE5E5" points="26.683,25.782 24.208,25.126 24.208,17.144 26.683,17.8 "/>
<polygon fill="#DCE5E5" points="29.515,26.566 27.04,25.91 27.04,17.929 29.515,18.585 "/>
<polygon fill="#DCE5E5" points="32.346,27.333 29.871,26.679 29.871,18.694 32.346,19.352 "/>
<polygon fill="#C1CACA" points="38.791,23.305 36.639,24.877 36.639,16.895 38.791,15.322 "/>
<polygon fill="#C1CACA" points="41.487,21.354 39.336,22.925 39.336,14.943 41.487,13.371 "/>
<polygon fill="#C1CACA" points="36.038,25.417 33.887,26.989 33.887,19.008 36.038,17.435 "/>
<line fill="none" stroke="#C1282D" stroke-width="0.6" stroke-linecap="round" x1="7.302" y1="11.558" x2="32.397" y2="18.3"/>
<line fill="none" stroke="#EC2227" stroke-width="0.6" stroke-linecap="round" x1="7.302" y1="11.286" x2="32.397" y2="18.026"/>
<line fill="none" stroke="#C1282D" stroke-width="0.6" stroke-linecap="round" x1="7.302" y1="10.731" x2="32.397" y2="17.473"/>
<line fill="none" stroke="#EC2227" stroke-width="0.6" stroke-linecap="round" x1="7.302" y1="10.458" x2="32.397" y2="17.198"/>
<line fill="none" stroke="#C1282D" stroke-width="0.6" stroke-linecap="round" x1="7.302" y1="9.86" x2="32.397" y2="16.602"/>
<line fill="none" stroke="#EC2227" stroke-width="0.6" stroke-linecap="round" x1="7.302" y1="9.588" x2="32.397" y2="16.328"/>
<polygon fill="#C8D0D0" points="32.688,13.795 8.927,7.479 15.597,2.716 39.424,8.88 "/>
<polygon fill="#99A1A1" points="15.519,2.596 15.519,1.371 7.929,7.05 9.007,7.345 "/>
<polygon fill="#8B989D" points="20.002,9.276 23.043,6.992 23.043,3.436 19.987,5.685 "/>
<polygon fill="#C8D0D0" points="19.986,5.659 14.756,4.197 17.763,2.004 23.02,3.409 "/>
<polygon fill="#DCE5E5" points="14.768,7.792 19.987,9.266 19.979,5.685 14.767,4.233 "/>
<polygon fill="#8B989D" points="31.64,12.404 34.683,10.12 34.683,6.563 31.625,8.812 "/>
<polygon fill="#C8D0D0" points="31.625,8.787 26.396,7.324 29.401,5.133 34.657,6.537 "/>
<polygon fill="#DCE5E5" points="26.406,10.92 31.625,12.395 31.619,8.812 26.406,7.36 "/>
<line fill="none" stroke="#949C9C" stroke-width="0.6" x1="7.213" y1="14.263" x2="32.511" y2="21.003"/>
<line fill="#878686" x1="33.522" y1="20.891" x2="41.841" y2="14.764"/>
<line fill="none" stroke="#878686" stroke-width="0.6" x1="33.522" y1="20.891" x2="41.841" y2="14.764"/>
</svg>
