<?xml version="1.0" encoding="UTF-8" standalone="no"?>
<!-- Generator: Adobe Illustrator 12.0.0, SVG Export Plug-In . SVG Version: 6.00 Build 51448)  -->

<svg
   xmlns:dc="http://purl.org/dc/elements/1.1/"
   xmlns:cc="http://creativecommons.org/ns#"
   xmlns:rdf="http://www.w3.org/1999/02/22-rdf-syntax-ns#"
   xmlns:svg="http://www.w3.org/2000/svg"
   xmlns="http://www.w3.org/2000/svg"
   xmlns:xlink="http://www.w3.org/1999/xlink"
   xmlns:sodipodi="http://sodipodi.sourceforge.net/DTD/sodipodi-0.dtd"
   xmlns:inkscape="http://www.inkscape.org/namespaces/inkscape"
   version="1.1"
   id="Layer_1"
   width="22.469999"
   height="36.876709"
   viewBox="0 0 22.469999 36.87671"
   overflow="visible"
   enable-background="new 0 0 34.167 22.47"
   xml:space="preserve"
   inkscape:version="0.48.0 r9654"
   sodipodi:docname="pe90.svg"
   style="overflow:visible"><metadata
   id="metadata53"><rdf:RDF><cc:Work
       rdf:about=""><dc:format>image/svg+xml</dc:format><dc:type
         rdf:resource="http://purl.org/dc/dcmitype/StillImage" /><dc:title></dc:title></cc:Work></rdf:RDF></metadata><defs
   id="defs51"><linearGradient
   id="linearGradient3808"><stop
     style="stop-color:#6292bb;stop-opacity:1;"
     offset="0"
     id="stop3810" /><stop
     style="stop-color:#ffffff;stop-opacity:1;"
     offset="1"
     id="stop3812" /></linearGradient><linearGradient
   id="linearGradient3781"><stop
     style="stop-color:#121f2a;stop-opacity:1;"
     offset="0"
     id="stop3783" /><stop
     style="stop-color:#121f2a;stop-opacity:0;"
     offset="1"
     id="stop3785" /></linearGradient><linearGradient
   inkscape:collect="always"
   xlink:href="#linearGradient3808"
   id="linearGradient3816"
   x1="1.9724108"
   y1="20.239443"
   x2="35.102242"
   y2="20.239443"
   gradientUnits="userSpaceOnUse" /><linearGradient
   inkscape:collect="always"
   xlink:href="#linearGradient3808"
   id="linearGradient3818"
   gradientUnits="userSpaceOnUse"
   x1="1.9724108"
   y1="20.239443"
   x2="35.102242"
   y2="20.239443" /><linearGradient
   inkscape:collect="always"
   xlink:href="#linearGradient3808"
   id="linearGradient3820"
   gradientUnits="userSpaceOnUse"
   x1="1.9724108"
   y1="20.239443"
   x2="35.102242"
   y2="20.239443" /><linearGradient
   inkscape:collect="always"
   xlink:href="#linearGradient3808"
   id="linearGradient3822"
   gradientUnits="userSpaceOnUse"
   x1="1.9724108"
   y1="20.239443"
   x2="35.102242"
   y2="20.239443" />
	<defs
   style="fill:url(#linearGradient3816);fill-opacity:1"
   id="defs21">
		<path
   style="fill:url(#linearGradient3816);fill-opacity:1"
   inkscape:connector-curvature="0"
   d="m 1.109,8.613 c 0,4.167 7.123,7.546 15.909,7.546 l 0,0 c 8.787,0 15.908,-3.379 15.908,-7.546 l 0,0 c 0,-4.167 -7.121,-7.545 -15.908,-7.545 l 0,0 C 8.232,1.068 1.109,4.446 1.109,8.613"
   id="XMLID_3_" />
	</defs>
	<clipPath
   style="fill:url(#linearGradient3816);fill-opacity:1"
   id="XMLID_8_">
		<use
   style="fill:url(#linearGradient3816);fill-opacity:1"
   height="22.469999"
   width="34.167"
   y="0"
   x="0"
   id="use25"
   xlink:href="#XMLID_3_" />
	</clipPath>
	
<linearGradient
   inkscape:collect="always"
   xlink:href="#linearGradient3808"
   id="linearGradient3831"
   gradientUnits="userSpaceOnUse"
   x1="1.9724108"
   y1="20.239443"
   x2="35.102242"
   y2="20.239443" /></defs><sodipodi:namedview
   pagecolor="#ffffff"
   bordercolor="#666666"
   borderopacity="1"
   objecttolerance="10"
   gridtolerance="10"
   guidetolerance="10"
   inkscape:pageopacity="0"
   inkscape:pageshadow="2"
   inkscape:window-width="1680"
   inkscape:window-height="994"
   id="namedview49"
   showgrid="false"
   fit-margin-top="0"
   fit-margin-left="0"
   fit-margin-right="0"
   fit-margin-bottom="0"
   inkscape:zoom="13.039609"
   inkscape:cx="0.88291978"
   inkscape:cy="18.268711"
   inkscape:window-x="-4"
   inkscape:window-y="-4"
   inkscape:window-maximized="1"
   inkscape:current-layer="Layer_1" />
<path
   transform="matrix(-1,0,0,1,23.77372,-0.613515)"
   d="m 22.853446,19.084764 a 10.659829,16.564915 0 1 1 -21.3196583,0 10.659829,16.564915 0 1 1 21.3196583,0 z"
   sodipodi:ry="16.564915"
   sodipodi:rx="10.659829"
   sodipodi:cy="19.084764"
   sodipodi:cx="12.193617"
   id="path3806"
   style="fill:url(#linearGradient3831);fill-opacity:1;fill-rule:nonzero;stroke:none"
   sodipodi:type="arc" /><path
   d="m 14.136429,2.7290705 c 4.021,0.35 7.23,7.3290005 7.23,15.8920005 0,8.6 -3.237,15.602 -7.282,15.895 -1.585,0.157 -4.8480004,0.013 -5.4360004,0.013 -4.166,0 -7.546,-7.122 -7.546,-15.908 0,-8.7870005 3.38,-15.9100005 7.546,-15.9100005 0.59,0 4.4250004,-0.197 5.4880004,0.018"
   id="path3"
   inkscape:connector-curvature="0"
   style="fill:#ffffff;fill-opacity:0" />
<path
   d="m 4.9769996,34.1015 c 1.044,0.935 2.306,1.532 3.671,1.53 0.321,-0.001 1.8580004,0.06 3.3140004,0.06 0.809,-10e-4 1.598,-0.017 2.231,-0.08 l 0,0 c 1.314,-0.104 2.502,-0.746 3.496,-1.697 1.007,-0.962 1.853,-2.247 2.555,-3.772 1.398,-3.05 2.223,-7.083 2.226,-11.524 -0.027,-6.629 -1.791,-12.351 -4.742,-15.258 -0.982,-0.951 -2.156,-1.604 -3.457,-1.728 -0.549,-0.095 -1.228,-0.103 -2.022,-0.108 -1.495,0 -3.2930004,0.086 -3.6010004,0.084 -1.365,-0.002 -2.627,0.594 -3.671,1.53 -1.052,0.938 -1.931,2.224 -2.661,3.759 C 0.86099957,9.9725 0.00299957,14.0835 -4.3049038e-7,18.6185 0.02899957,25.4235 1.8749996,31.2715 4.9769996,34.1015 m 1.469,-29.318 c 0.761,-0.674 1.485,-0.969 2.202,-0.969 0.457,-0.004 2.1540004,-0.085 3.6010004,-0.085 0.762,-0.004 1.489,0.035 1.669,0.078 l 0.217,-1.081 0.096,-1.099 -0.096,1.099 -0.217,1.081 0.123,0.019 c 0.694,0.061 1.415,0.408 2.154,1.121 0.734,0.707 1.453,1.768 2.061,3.104 1.222,2.672 2.01,6.425 2.008,10.567 0.027,6.241 -1.84,11.603 -4.097,13.7 -0.744,0.705 -1.466,1.045 -2.162,1.096 l -0.031,0.001 c -0.489,0.051 -1.242,0.071 -2.012,0.07 -1.419,0 -2.8730004,-0.059 -3.3140004,-0.06 -0.717,-0.002 -1.441,-0.297 -2.202,-0.971 -0.756,-0.67 -1.501,-1.716 -2.136,-3.06 -1.277,-2.682 -2.107,-6.525 -2.105,-10.776 -0.029,-6.374 1.928,-11.835 4.241,-13.835"
   id="path5"
   inkscape:connector-curvature="0"
   style="fill:#0070c0;fill-opacity:1" />



<path
   d="M 9.2214996,34.3 C 13.7435,34.187 16.9315,26.928 16.9685,18.15 16.9315,9.3710001 13.7435,2.1130001 9.2214996,2.0000001 c -4.521,0.113 -7.711,7.371 -7.749,16.1499999 0.037,8.778 3.228,16.037 7.749,16.15 M 14.1145,29.16 c -1.31,2.808 -3.085,4.43 -4.8930004,4.416 -1.806,0.014 -3.583,-1.608 -4.894,-4.416 -1.308,-2.793 -2.13,-6.697 -2.128,-11.01 -0.002,-4.313 0.82,-8.2169999 2.128,-11.0099999 1.312,-2.808 3.088,-4.431 4.894,-4.416 1.8080004,-0.015 3.5830004,1.608 4.8930004,4.416 1.31,2.793 2.132,6.6969999 2.13,11.0099999 l 0,0.016 c 0,4.306 -0.822,8.205 -2.13,10.994"
   id="path43"
   inkscape:connector-curvature="0"
   style="fill:#0070c0;fill-opacity:1" />
<polygon
   points="16.983,4.777 19.097,5.347 16.72,7.097 12.665,6.009 14.117,4.946 8.029,5.454 8.98,8.708 10.709,7.441 14.772,8.531 11.321,11.073 9.292,10.527 9.33,14.037 17.262,12.673 14.979,12.058 18.433,9.514 22.818,10.689 21.296,11.804 27.888,11.319 26.431,8.043 24.771,9.257 20.382,8.08 22.755,6.332 24.929,6.918 24.617,2.984 "
   id="polygon45"
   transform="matrix(0,-1,-1,0,16.8705,35.842)"
   style="fill:#f3f3f3" />
<path
   d="m 2.6226626,26.688634 c 0.051,0.061 0.129,0.098 0.209,0.098 l 3.51,0.037 c 0.086,0.002 0.168,-0.039 0.221,-0.106 0.051,-0.068 0.072,-0.158 0.049,-0.242 l -0.512,-1.898 2.124,-2.884 0.906,3.383 -1.188,1.622 c -0.053,0.072 -0.068,0.166 -0.039,0.25 0.029,0.085 0.098,0.151 0.184,0.176 l 3.2540004,0.953 c 0.08,0.022 0.164,0.008 0.234,-0.039 0.067,-0.045 0.11,-0.121 0.118,-0.204 l 0.508,-6.088 c 0.01,-0.123 -0.064,-0.237 -0.179,-0.28 -0.116,-0.043 -0.245,-0.004 -0.319,0.096 l -0.724,0.988 -0.904,-3.373 1.332,-1.809 0.421,1.561 c 0.033,0.123 0.146,0.207 0.272,0.205 0.125,-0.002 0.233,-0.09 0.262,-0.213 l 1.794,-7.634 c 0.018,-0.077 0.002,-0.159 -0.045,-0.226 -0.049,-0.065 -0.121,-0.106 -0.202,-0.112 l -3.9340004,-0.312 c -0.088,-0.008 -0.176,0.029 -0.233,0.1 -0.058,0.066 -0.078,0.161 -0.054,0.247 l 0.5510004,2.044 -1.3300004,1.807 -0.994,-3.709 1.137,-1.5530003 c 0.049,-0.068 0.066,-0.154 0.043,-0.234 -0.02,-0.08 -0.078,-0.148 -0.153,-0.182 l -3.277,-1.456 -0.113,0.251 0.113,-0.251 c -0.082,-0.037 -0.178,-0.03 -0.254,0.017 -0.078,0.045 -0.125,0.127 -0.133,0.215 l -0.486,6.5930003 c -0.008,0.123 0.065,0.235 0.181,0.278 0.116,0.043 0.245,0.004 0.317,-0.097 l 0.776,-1.057 0.99,3.7 -2.125,2.889 -0.465,-1.731 c -0.034,-0.126 -0.149,-0.21 -0.28,-0.205 -0.129,0.006 -0.236,0.103 -0.258,0.229 l -1.364,7.933 c -0.003,0.016 -0.005,0.032 -0.005,0.047 0,0.064 0.023,0.125 0.064,0.176 m 0.538,-0.448 1.1,-6.378 0.288,1.072 c 0.026,0.102 0.11,0.18 0.215,0.198 0.104,0.021 0.211,-0.022 0.272,-0.106 l 2.543,-3.455 c 0.05,-0.068 0.066,-0.154 0.045,-0.234 l -1.176,-4.385 c -0.026,-0.102 -0.11,-0.18 -0.215,-0.199 -0.104,-0.02 -0.21,0.021 -0.274,0.107 l -0.546,0.749 0.387,-5.2440003 2.604,1.159 -1.013,1.3830003 c -0.049,0.066 -0.065,0.152 -0.042,0.234 l 1.175,4.391 c 0.029,0.102 0.113,0.18 0.218,0.198 0.104,0.021 0.21,-0.023 0.272,-0.107 l 1.7490004,-2.374 c 0.048,-0.068 0.065,-0.156 0.043,-0.236 l -0.483,-1.795 3.223,0.256 -1.47,6.257 -0.285,-1.06 c -0.028,-0.1 -0.112,-0.18 -0.216,-0.199 -0.103,-0.018 -0.209,0.023 -0.272,0.109 l -1.7510004,2.377 c -0.05,0.067 -0.066,0.153 -0.043,0.235 l 1.0880004,4.054 c 0.026,0.102 0.11,0.18 0.214,0.201 0.105,0.018 0.211,-0.022 0.275,-0.108 l 0.484,-0.663 -0.399,4.776 -2.5520004,-0.747 1.035,-1.413 c 0.049,-0.068 0.065,-0.154 0.043,-0.233 l -1.091,-4.065 c -0.026,-0.102 -0.11,-0.178 -0.215,-0.198 -0.104,-0.021 -0.21,0.022 -0.272,0.108 l -2.542,3.451 c -0.049,0.068 -0.065,0.155 -0.045,0.235 l 0.452,1.678 -2.823,-0.029 z"
   id="path47"
   inkscape:connector-curvature="0"
   style="fill:#0070c0;fill-opacity:1" />
</svg>