<?xml version="1.0" encoding="iso-8859-1"?>
<!-- Generator: Adobe Illustrator 15.0.2, SVG Export Plug-In . SVG Version: 6.00 Build 0)  -->
<!DOCTYPE svg PUBLIC "-//W3C//DTD SVG 1.1//EN" "http://www.w3.org/Graphics/SVG/1.1/DTD/svg11.dtd">
<svg version="1.1" xmlns="http://www.w3.org/2000/svg" xmlns:xlink="http://www.w3.org/1999/xlink" x="0px" y="0px"
	 width="77.958px" height="77.957px" viewBox="0 0 77.958 77.957" style="enable-background:new 0 0 77.958 77.957;"
	 xml:space="preserve">
<g id="amp">
	<g>
		<rect style="fill:none;" width="77.958" height="77.957"/>
		<g>
			<path style="fill:#3EA1DA;" d="M13.99,46.293c-1.092,0-1.852-0.996-2.739-6.249c-0.401-2.379-0.75-3.613-0.982-4.242
				c-0.233,0.632-0.58,1.867-0.981,4.242C8.4,45.297,7.64,46.293,6.549,46.293s-1.851-0.996-2.739-6.249
				c-0.401-2.379-0.749-3.613-0.982-4.242c-0.232,0.632-0.579,1.868-0.98,4.242l-0.09,0.534L0,40.282l0.09-0.534
				c0.888-5.254,1.648-6.25,2.739-6.25c1.091,0,1.851,0.996,2.739,6.25c0.401,2.378,0.749,3.612,0.982,4.24
				c0.232-0.633,0.579-1.867,0.98-4.24c0.888-5.254,1.648-6.25,2.739-6.25c1.092,0,1.852,0.996,2.739,6.25
				c0.402,2.381,0.75,3.614,0.982,4.242c0.233-0.631,0.58-1.867,0.981-4.242l0.09-0.534l1.757,0.297l-0.09,0.533
				C15.841,45.299,15.081,46.293,13.99,46.293z"/>
			<path style="fill:#3EA1DA;" d="M73.992,49.661c-1.4,0-2.539-1.587-3.873-9.491c-0.911-5.406-1.67-7.167-2.002-7.718
				c-0.334,0.551-1.092,2.312-2.004,7.718c-1.334,7.903-2.472,9.491-3.873,9.491s-2.539-1.587-3.875-9.491
				c-0.912-5.404-1.668-7.166-2.002-7.717c-0.33,0.55-1.084,2.302-1.992,7.66l-0.075,0.452h-1.917l0.096-0.624
				c1.35-7.989,2.486-9.576,3.889-9.576c1.401,0,2.539,1.587,3.873,9.491c0.912,5.405,1.67,7.167,2.004,7.717
				c0.332-0.55,1.09-2.312,2.002-7.717c1.336-7.903,2.473-9.491,3.873-9.491c1.401,0,2.539,1.587,3.875,9.491
				c0.912,5.405,1.668,7.167,2.002,7.717c0.332-0.55,1.091-2.312,2.002-7.717l0.091-0.534l1.87,0.315l-0.09,0.535
				C76.533,48.074,75.396,49.661,73.992,49.661z"/>
			<path style="fill:#213164;" d="M52.344,28.296H17.329c-1.384,0.07-2.487,1.204-2.487,2.605v16.04
				c0,1.445,1.172,2.617,2.619,2.617h34.752c1.445,0,2.617-1.172,2.617-2.617v-16.04C54.83,29.5,53.727,28.366,52.344,28.296z"/>
			<path style="fill:#FFFFFF;" d="M42.72,38.366c-0.024,0.007-0.054,0.013-0.089,0.013h-15.59c-0.034,0-0.064-0.007-0.089-0.013
				v-5.148c0.024-0.007,0.054-0.012,0.089-0.012h15.59c0.034,0,0.064,0.006,0.089,0.012V38.366z"/>
			<g>
				<circle style="fill:#FFFFFF;" cx="27.304" cy="44.026" r="2.376"/>
				<circle style="fill:#FFFFFF;" cx="34.836" cy="44.026" r="2.376"/>
				<circle style="fill:#FFFFFF;" cx="42.669" cy="44.026" r="2.376"/>
			</g>
		</g>
	</g>
</g>
<g id="Layer_1">
</g>
</svg>
