<?xml version="1.0" encoding="utf-8"?>
<!-- Generator: Adobe Illustrator 18.0.0, SVG Export Plug-In . SVG Version: 6.00 Build 0)  -->
<!DOCTYPE svg PUBLIC "-//W3C//DTD SVG 1.1//EN" "http://www.w3.org/Graphics/SVG/1.1/DTD/svg11.dtd">
<svg version="1.1" id="Layer_1" xmlns="http://www.w3.org/2000/svg" xmlns:xlink="http://www.w3.org/1999/xlink" x="0px" y="0px"
	 viewBox="0 0 12 7" enable-background="new 0 0 12 7" xml:space="preserve">
<path fill="#9A9A9A" d="M10.7,0.7H1.3C1,0.7,0.7,1,0.7,1.4v4.3C0.7,6,1,6.3,1.4,6.3h9.3c0.4,0,0.7-0.3,0.7-0.7V1.4
	C11.3,1,11,0.7,10.7,0.7z"/>
<path fill="#FFFFFF" d="M8.1,3.3C8.1,3.4,8.1,3.4,8.1,3.3l-4.2,0c0,0,0,0,0,0V2c0,0,0,0,0,0h4.2c0,0,0,0,0,0V3.3z"/>
<g>
	<circle fill="#FFFFFF" cx="4" cy="4.9" r="0.6"/>
	<circle fill="#FFFFFF" cx="6" cy="4.9" r="0.6"/>
	<circle fill="#FFFFFF" cx="8.1" cy="4.9" r="0.6"/>
</g>
</svg>
