<?xml version="1.0" encoding="utf-8"?>
<!-- Generator: Adobe Illustrator 18.0.0, SVG Export Plug-In . SVG Version: 6.00 Build 0)  -->
<!DOCTYPE svg PUBLIC "-//W3C//DTD SVG 1.1//EN" "http://www.w3.org/Graphics/SVG/1.1/DTD/svg11.dtd">
<svg version="1.1" id="Layer_1" xmlns="http://www.w3.org/2000/svg" xmlns:xlink="http://www.w3.org/1999/xlink" x="0px" y="0px"
	 viewBox="0 0 7 12" enable-background="new 0 0 7 12" xml:space="preserve">
<path fill="#9A9A9A" d="M0.7,1.3v9.3c0,0.4,0.3,0.7,0.7,0.7h4.3c0.4,0,0.7-0.3,0.7-0.7V1.4C6.3,1,6,0.7,5.6,0.7H1.4
	C1,0.7,0.7,1,0.7,1.3z"/>
<path fill="#FFFFFF" d="M3.3,3.9C3.4,3.9,3.4,3.9,3.3,3.9l0,4.2c0,0,0,0,0,0H2c0,0,0,0,0,0V3.9c0,0,0,0,0,0H3.3z"/>
<g>
	<circle fill="#FFFFFF" cx="4.9" cy="8" r="0.6"/>
	<circle fill="#FFFFFF" cx="4.9" cy="6" r="0.6"/>
	<circle fill="#FFFFFF" cx="4.9" cy="3.9" r="0.6"/>
</g>
</svg>
