<?xml version="1.0" encoding="iso-8859-1"?>
<!-- Generator: Adobe Illustrator 15.0.2, SVG Export Plug-In . SVG Version: 6.00 Build 0)  -->
<!DOCTYPE svg PUBLIC "-//W3C//DTD SVG 1.1//EN" "http://www.w3.org/Graphics/SVG/1.1/DTD/svg11.dtd">
<svg version="1.1" xmlns="http://www.w3.org/2000/svg" xmlns:xlink="http://www.w3.org/1999/xlink" x="0px" y="0px"
	 width="77.957px" height="77.963px" viewBox="0 0 77.957 77.963" style="enable-background:new 0 0 77.957 77.963;"
	 xml:space="preserve">
<g id="branchOffice">
	<g>
		<rect y="0.006" style="fill:none;" width="77.957" height="77.957"/>
		<g>
			<path style="fill:#3EA1DA;" d="M62.402,33.934V5.543h-6.721V0H42.875v5.543H15.557v28.392c1.874,1.213,3.091,3.415,3.091,6.065
				c0,2.047-0.552,3.834-1.688,5.46l-0.019,0.031l-0.055,0.071c-0.183,0.233-0.336,0.44-0.453,0.606
				c0.55,0.283,1.521,0.641,2.052,0.833c0.084,0.031,0.15,0.066,0.232,0.099c0.206-4.952,3.684-8.644,8.291-8.644
				c4.749,0,8.33,3.909,8.33,9.093c0,2.631-0.709,4.926-2.168,7.015l-0.025,0.04l-0.071,0.091c-0.235,0.302-0.431,0.567-0.582,0.781
				c0.706,0.362,1.954,0.819,2.635,1.068c1.579,0.576,2.84,1.252,3.852,2.002c1.012-0.75,2.273-1.426,3.851-2.002
				c0.682-0.249,1.929-0.706,2.636-1.068c-0.149-0.214-0.347-0.479-0.582-0.781l-0.071-0.091l-0.025-0.04
				c-1.459-2.089-2.168-4.383-2.168-7.015c0-5.184,3.582-9.093,8.33-9.093c4.607,0,8.086,3.69,8.291,8.644
				c0.082-0.031,0.148-0.067,0.232-0.099c0.53-0.192,1.502-0.549,2.053-0.833c-0.117-0.166-0.271-0.373-0.453-0.606l-0.056-0.071
				l-0.019-0.031c-1.137-1.627-1.688-3.413-1.688-5.46C59.309,37.35,60.527,35.147,62.402,33.934z"/>
			<rect x="20" y="24.741" style="fill:#FFFFFF;" width="17.81" height="10.614"/>
			<rect x="20" y="10.258" style="fill:#FFFFFF;" width="17.81" height="10.617"/>
			<rect x="40.146" y="24.741" style="fill:#FFFFFF;" width="17.812" height="10.614"/>
			<rect x="40.146" y="10.258" style="fill:#FFFFFF;" width="17.812" height="10.617"/>
			<path style="fill:#213164;" d="M75.256,50.665c-0.898-1.179-2.531-1.929-3.673-2.312c-1.675-0.584-2.966-1.119-3.138-1.763
				c-0.058-0.215-0.076-0.416,0.028-0.584c1.16-1.864,2.361-2.938,2.361-6.004c0-3.258-2.109-5.634-5.04-5.634
				c-2.807,0-5.04,2.337-5.04,5.634c0,2.077,0.666,3.552,1.45,4.666c0.002,0.002,0.77,0.978,0.906,1.338
				c0.07,0.187,0.088,0.369,0.029,0.584c-0.173,0.647-1.49,1.158-3.171,1.773c-0.131,0.048-0.403,0.146-0.737,0.289
				c-0.226,3.058-1.367,4.764-2.484,6.408c-0.098,0.146-0.198,0.293-0.299,0.441c0.431,0.226,1.193,0.548,2.526,1.015
				c1.435,0.481,4.07,1.594,5.603,3.604c0.808,1.062,1.218,2.232,1.218,3.479v0.073c3.547,0,6.948-0.299,10.112-0.843v-9.334v-1.002
				C75.908,51.798,75.654,51.189,75.256,50.665z"/>
			<path style="fill:#213164;" d="M63.1,61.247c-1.152-1.514-3.251-2.477-4.717-2.971c-2.15-0.75-3.809-1.438-4.029-2.262
				c-0.072-0.275-0.096-0.534,0.038-0.75c1.49-2.397,3.033-3.776,3.033-7.713c0-4.185-2.708-7.234-6.474-7.234
				c-3.604,0-6.473,3.002-6.473,7.234c0,2.67,0.855,4.562,1.864,5.993c0.002,0.003,0.987,1.254,1.163,1.72
				c0.09,0.236,0.111,0.474,0.038,0.75c-0.222,0.829-1.913,1.485-4.073,2.275c-0.412,0.151-1.836,0.667-3.109,1.53
				c0.094,0.111,0.215,0.213,0.297,0.327c0.793,1.081,1.195,2.243,1.195,3.453v1.285v11.987v0.547
				c2.922,0.341,5.961,0.535,9.098,0.535c4.556,0,8.926-0.384,12.988-1.082V64.886v-1.285C63.939,62.702,63.611,61.921,63.1,61.247z
				"/>
			<path style="fill:#213164;" d="M12.163,63.602c0-1.246,0.41-2.416,1.218-3.479c1.532-2.012,4.168-3.123,5.602-3.604
				c1.333-0.467,2.096-0.789,2.527-1.015c-0.101-0.148-0.201-0.297-0.3-0.441c-1.116-1.646-2.259-3.352-2.484-6.408
				c-0.335-0.142-0.606-0.241-0.737-0.289c-1.681-0.615-2.999-1.126-3.171-1.773c-0.058-0.215-0.041-0.397,0.029-0.584
				c0.137-0.36,0.904-1.336,0.906-1.338c0.786-1.114,1.451-2.589,1.451-4.666c0-3.297-2.234-5.634-5.04-5.634
				c-2.932,0-5.04,2.376-5.04,5.634c0,3.064,1.201,4.14,2.361,6.004c0.104,0.168,0.087,0.369,0.029,0.584
				c-0.172,0.645-1.463,1.179-3.138,1.763c-1.142,0.385-2.775,1.135-3.673,2.312C2.304,51.19,2.05,51.799,2.05,52.499v1.002v9.334
				c3.164,0.544,6.566,0.843,10.113,0.843V63.602L12.163,63.602z"/>
			<path style="fill:#213164;" d="M27.007,40.317c-3.765,0-6.473,3.051-6.473,7.234c0,3.937,1.543,5.315,3.033,7.713
				c0.134,0.216,0.111,0.474,0.038,0.75c-0.22,0.823-1.879,1.512-4.029,2.262c-1.467,0.494-3.564,1.457-4.717,2.971
				c-0.512,0.673-0.839,1.455-0.839,2.354v1.285v11.987c4.064,0.699,8.433,1.083,12.988,1.083s8.925-0.384,12.988-1.083V64.887
				v-1.285c0-0.898-0.335-1.674-0.835-2.354c-1.283-1.748-4.069-2.735-4.672-2.956c-2.159-0.79-3.851-1.446-4.073-2.275
				c-0.074-0.276-0.052-0.514,0.038-0.75c0.176-0.467,1.161-1.717,1.163-1.72c1.009-1.431,1.864-3.325,1.864-5.993
				C33.481,43.319,30.612,40.317,27.007,40.317"/>
		</g>
	</g>
</g>
<g id="Layer_1">
</g>
</svg>
