<?xml version="1.0" encoding="iso-8859-1"?>
<!-- Generator: Adobe Illustrator 15.0.2, SVG Export Plug-In . SVG Version: 6.00 Build 0)  -->
<!DOCTYPE svg PUBLIC "-//W3C//DTD SVG 1.1//EN" "http://www.w3.org/Graphics/SVG/1.1/DTD/svg11.dtd">
<svg version="1.1" xmlns="http://www.w3.org/2000/svg" xmlns:xlink="http://www.w3.org/1999/xlink" x="0px" y="0px"
	 width="77.958px" height="77.957px" viewBox="0 0 77.958 77.957" style="enable-background:new 0 0 77.958 77.957;"
	 xml:space="preserve">
<g id="callout">
	<g>
		<rect style="fill:none;" width="77.958" height="77.957"/>
		<g>
			<path style="fill:#6B6B6B;" d="M71.999,66.957L55.797,50.755c-2.448,0-4.889,0-7.295,0l16.201,16.202H71.999L71.999,66.957z"/>
			<path style="fill:#FFFCCF;stroke:#949492;stroke-width:1.9983;stroke-miterlimit:10;" d="M5.356,49.828
				c-1.942,0-3.607-1.608-3.607-3.584c0-12.098,0-2.74,0-14.805c0-1.992,1.665-3.606,3.607-3.606
				c17.544-0.005,50.091-0.005,67.614,0c1.986,0,3.629,1.614,3.629,3.606c0,12.064,0,2.707,0,14.805
				c0,1.976-1.643,3.584-3.629,3.584C55.447,49.822,22.9,49.822,5.356,49.828L5.356,49.828z"/>
		</g>
	</g>
</g>
<g id="Layer_1">
</g>
</svg>
