<?xml version="1.0" encoding="iso-8859-1"?>
<!-- Generator: Adobe Illustrator 15.0.2, SVG Export Plug-In . SVG Version: 6.00 Build 0)  -->
<!DOCTYPE svg PUBLIC "-//W3C//DTD SVG 1.1//EN" "http://www.w3.org/Graphics/SVG/1.1/DTD/svg11.dtd">
<svg version="1.1" xmlns="http://www.w3.org/2000/svg" xmlns:xlink="http://www.w3.org/1999/xlink" x="0px" y="0px"
	 width="77.958px" height="77.957px" viewBox="0 0 77.958 77.957" style="enable-background:new 0 0 77.958 77.957;"
	 xml:space="preserve">
<g id="callCenter">
	<g>
		<rect style="fill:none;" width="77.958" height="77.957"/>
		<g>
			<polygon style="fill:#009995;" points="60.624,72.277 60.624,19.686 18.422,19.686 18.422,72.277 14.545,73.644 14.545,77.957 
				64.499,77.957 64.499,73.644 			"/>
			<polygon style="fill:#FFFFFF;" points="22.424,23.933 25.708,23.933 38.469,23.933 38.469,36.977 25.708,36.977 22.424,36.977 
							"/>
			<polygon style="fill:#FFFFFF;" points="40.573,36.977 40.573,23.933 56.62,23.933 56.62,36.977 			"/>
			<polygon style="fill:#FFFFFF;" points="22.424,39.35 25.708,39.35 38.469,39.35 38.469,52.394 25.708,52.394 22.424,52.394 			
				"/>
			<polygon style="fill:#FFFFFF;" points="40.573,52.394 40.573,39.35 56.62,39.35 56.62,52.394 			"/>
			<polygon style="fill:#FFFFFF;" points="44.099,74.78 34.945,74.78 34.945,67.854 34.945,61.602 44.099,61.602 44.099,67.854 			
				"/>
			<g>
				<circle style="fill:#FFFFFF;" cx="39.521" cy="16.357" r="15.5"/>
				<circle style="fill:#009995;" cx="39.521" cy="16.356" r="13.712"/>
				<path style="fill:#FFFFFF;" d="M34.802,11.956c-0.014-0.146-0.019-0.294-0.019-0.446c0-2.848,2.11-5.156,4.713-5.156
					c2.58,0,4.675,2.268,4.712,5.086v1.123c0,0.271,0.238,0.49,0.535,0.49h0.604c0.297,0,0.535-0.219,0.535-0.49V9.598
					c0-0.271-0.238-0.492-0.535-0.492h-0.377c-0.874-2.373-2.995-4.048-5.475-4.048c-3.259,0-5.898,2.889-5.898,6.454
					c0,0.15,0.005,0.298,0.015,0.445L34.802,11.956L34.802,11.956z"/>
				<path style="fill:#FFFFFF;" d="M46.928,20.717c-0.703-0.921-1.981-1.509-2.875-1.811c-1.311-0.457-2.32-0.877-2.455-1.378
					c-0.045-0.17-0.06-0.326,0.023-0.456c0.537-0.865,1.081-1.521,1.439-2.401l-1.342,0.898c0.002,0.022,0.008,0.048,0.008,0.069
					c0,0.526-0.424,0.95-0.948,0.95h-1.25c-0.524,0-0.95-0.425-0.95-0.95c0-0.522,0.427-0.948,0.95-0.948h1.25
					c0.212,0,0.405,0.072,0.563,0.188l2.031-1.359c0.057-0.345,0.097-0.714,0.097-1.149c0-2.549-1.649-4.41-3.946-4.41
					c-2.195,0-3.943,1.829-3.943,4.41c0,1.627,0.52,2.779,1.135,3.653c0.001,0.002,0.601,0.764,0.709,1.048
					c0.055,0.143,0.067,0.287,0.022,0.456c-0.135,0.505-1.166,0.906-2.482,1.387c-0.366,0.136-2.065,0.737-2.847,1.803
					c-0.305,0.416-0.512,0.887-0.512,1.434v0.785v3.316c2.478,0.427,5.142,0.66,7.917,0.66c2.777,0,5.439-0.234,7.917-0.66v-3.316
					V22.15C47.438,21.604,47.24,21.129,46.928,20.717z"/>
			</g>
		</g>
	</g>
</g>
<g id="Layer_1">
</g>
</svg>
