<?xml version="1.0" encoding="iso-8859-1"?>
<!-- Generator: Adobe Illustrator 15.0.2, SVG Export Plug-In . SVG Version: 6.00 Build 0)  -->
<!DOCTYPE svg PUBLIC "-//W3C//DTD SVG 1.1//EN" "http://www.w3.org/Graphics/SVG/1.1/DTD/svg11.dtd">
<svg version="1.1" xmlns="http://www.w3.org/2000/svg" xmlns:xlink="http://www.w3.org/1999/xlink" x="0px" y="0px"
	 width="77.958px" height="77.957px" viewBox="0 0 77.958 77.957" style="enable-background:new 0 0 77.958 77.957;"
	 xml:space="preserve">
<g id="callCenter">
	<g>
		<rect style="fill:none;" width="77.958" height="77.957"/>
		<g>
			<polygon style="fill:#009995;" points="60.624,72.277 60.624,19.686 18.422,19.686 18.422,72.277 14.545,73.644 14.545,77.957 
				64.499,77.957 64.499,73.644 			"/>
			<polygon style="fill:#FFFFFF;" points="22.424,23.933 25.708,23.933 38.469,23.933 38.469,36.977 25.708,36.977 22.424,36.977 
							"/>
			<polygon style="fill:#FFFFFF;" points="40.573,36.977 40.573,23.933 56.62,23.933 56.62,36.977 			"/>
			<polygon style="fill:#FFFFFF;" points="22.424,39.35 25.708,39.35 38.469,39.35 38.469,52.394 25.708,52.394 22.424,52.394 			
				"/>
			<polygon style="fill:#FFFFFF;" points="40.573,52.394 40.573,39.35 56.62,39.35 56.62,52.394 			"/>
			<polygon style="fill:#FFFFFF;" points="44.099,74.78 34.945,74.78 34.945,67.854 34.945,61.602 44.099,61.602 44.099,67.854 			
				"/>
			<g>
				<circle style="fill:#FFFFFF;" cx="39.521" cy="20.85" r="20"/>
				<path style="fill:#009995;" d="M39.521,3.155c9.77,0,17.693,7.924,17.693,17.693s-7.924,17.693-17.693,17.693
					c-9.769,0-17.692-7.924-17.692-17.693S29.753,3.155,39.521,3.155z"/>
				<path style="fill:#FFFFFF;" d="M33.431,15.174c-0.018-0.19-0.023-0.382-0.023-0.578c0-3.674,2.721-6.65,6.08-6.65
					c3.332,0,6.032,2.918,6.083,6.562v1.448c0,0.351,0.304,0.631,0.688,0.631h0.78c0.38,0,0.688-0.28,0.688-0.631V12.13
					c0-0.351-0.309-0.642-0.688-0.642h-0.487c-1.129-3.059-3.865-5.217-7.065-5.217c-4.204,0-7.607,3.724-7.607,8.326
					c0,0.194,0.005,0.386,0.019,0.577L33.431,15.174L33.431,15.174z"/>
				<path style="fill:#FFFFFF;" d="M49.076,26.475c-0.904-1.185-2.557-1.948-3.71-2.338c-1.688-0.589-2.992-1.132-3.166-1.773
					c-0.059-0.223-0.077-0.423,0.031-0.588c0.691-1.12,1.394-1.969,1.857-3.104l-1.732,1.162c0.002,0.031,0.013,0.065,0.013,0.087
					c0,0.685-0.549,1.231-1.227,1.231h-1.614c-0.674,0-1.223-0.548-1.223-1.231c0-0.672,0.55-1.221,1.223-1.221h1.614
					c0.273,0,0.525,0.09,0.727,0.241l2.62-1.755c0.073-0.441,0.128-0.916,0.128-1.483c0-3.287-2.129-5.685-5.094-5.685
					c-2.832,0-5.086,2.356-5.086,5.685c0,2.102,0.669,3.588,1.465,4.717c0.001,0.002,0.772,0.983,0.911,1.355
					c0.073,0.178,0.089,0.366,0.031,0.588c-0.175,0.646-1.504,1.17-3.203,1.782c-0.472,0.18-2.667,0.957-3.673,2.33
					c-0.393,0.539-0.661,1.142-0.661,1.847v1.014v4.283c3.199,0.55,6.636,0.854,10.215,0.854c3.586,0,7.017-0.305,10.215-0.854
					v-4.283v-1.014C49.736,27.616,49.48,27.01,49.076,26.475z"/>
			</g>
		</g>
	</g>
</g>
<g id="Layer_1">
</g>
</svg>
