<?xml version="1.0" encoding="iso-8859-1"?>
<!-- Generator: Adobe Illustrator 15.0.2, SVG Export Plug-In . SVG Version: 6.00 Build 0)  -->
<!DOCTYPE svg PUBLIC "-//W3C//DTD SVG 1.1//EN" "http://www.w3.org/Graphics/SVG/1.1/DTD/svg11.dtd">
<svg version="1.1" xmlns="http://www.w3.org/2000/svg" xmlns:xlink="http://www.w3.org/1999/xlink" x="0px" y="0px" width="32px"
	 height="32px" viewBox="0 0 32 32" style="enable-background:new 0 0 32 32;" xml:space="preserve">
<g id="callCenterSmall">
	<g>
		<polygon style="fill:#009995;" points="29.559,26.688 29.561,0.062 2.788,0.062 2.791,26.688 0,27.562 0,32 32,32 32,27.562 		"/>
		<rect style="fill:none;" width="32" height="32"/>
		<g>
			<circle style="fill:#FFFFFF;" cx="16.175" cy="16.125" r="12.5"/>
			<circle style="fill:#009995;" cx="16.175" cy="16.125" r="11.058"/>
			<g>
				<path style="fill:#FFFFFF;" d="M12.369,12.574c-0.01-0.118-0.017-0.238-0.017-0.358c0-2.3,1.702-4.162,3.803-4.162
					c2.08,0,3.771,1.831,3.8,4.101v0.906c0,0.218,0.193,0.396,0.43,0.396h0.488c0.239,0,0.433-0.176,0.433-0.396v-2.392
					c0-0.218-0.193-0.396-0.433-0.396H20.57c-0.705-1.915-2.415-3.267-4.415-3.267c-2.631,0-4.76,2.33-4.76,5.208
					c0,0.119,0.007,0.239,0.015,0.358L12.369,12.574L12.369,12.574z"/>
				<path style="fill:#FFFFFF;" d="M22.148,19.641c-0.569-0.744-1.6-1.217-2.318-1.461c-1.059-0.368-1.873-0.704-1.979-1.111
					c-0.038-0.136-0.048-0.261,0.016-0.368c0.434-0.697,0.873-1.224,1.163-1.934l-1.081,0.723c0.002,0.021,0.006,0.038,0.006,0.059
					c0,0.422-0.343,0.764-0.768,0.764h-1.009c-0.42,0-0.765-0.342-0.765-0.764c0-0.423,0.345-0.766,0.765-0.766h1.009
					c0.171,0,0.329,0.059,0.455,0.153l1.639-1.097c0.045-0.279,0.076-0.578,0.076-0.928c0-2.058-1.33-3.558-3.182-3.558
					c-1.771,0-3.182,1.476-3.182,3.558c0,1.311,0.42,2.242,0.915,2.945c0.001,0.001,0.485,0.616,0.573,0.844
					c0.042,0.118,0.054,0.233,0.018,0.369c-0.109,0.409-0.94,0.73-2.004,1.119c-0.295,0.109-1.664,0.595-2.295,1.453
					c-0.246,0.334-0.412,0.717-0.412,1.157v0.634v2.674c1.999,0.343,4.146,0.531,6.386,0.531c2.241,0,4.388-0.188,6.383-0.531
					v-2.674v-0.634C22.558,20.357,22.399,19.972,22.148,19.641z"/>
			</g>
		</g>
	</g>
</g>
<g id="Layer_1">
</g>
</svg>
