<?xml version="1.0" encoding="iso-8859-1"?>
<!-- Generator: Adobe Illustrator 15.0.2, SVG Export Plug-In . SVG Version: 6.00 Build 0)  -->
<!DOCTYPE svg PUBLIC "-//W3C//DTD SVG 1.1//EN" "http://www.w3.org/Graphics/SVG/1.1/DTD/svg11.dtd">
<svg version="1.1" xmlns="http://www.w3.org/2000/svg" xmlns:xlink="http://www.w3.org/1999/xlink" x="0px" y="0px" width="77.96px"
	 height="77.957px" viewBox="0 0 77.96 77.957" style="enable-background:new 0 0 77.96 77.957;" xml:space="preserve">
<g id="circuitSwitch">
	<g>
		<rect x="0.002" style="fill:none;" width="77.958" height="77.957"/>
		<g>
			<path style="fill:#009995;" d="M4.489,77.957c-2.416,0-4.487-2.005-4.487-4.467c0-15.074,0-53.957,0-68.991
				c0-2.482,2.072-4.494,4.487-4.494c21.825-0.007,47.157-0.007,68.955,0c2.47,0,4.515,2.012,4.515,4.494
				c0,15.034,0,53.916,0,68.991c0,2.462-2.045,4.467-4.515,4.467H4.489z"/>
			<path style="fill:#FFFFFF;" d="M61.816,32.225c-3.078,0-5.644,2.063-6.434,4.855H31.755v-9.999h6.738h3.366v-3.333v-8.329h4.994
				c0.662,2.977,3.334,5.208,6.543,5.208c3.699,0,6.705-2.974,6.705-6.636c0-3.668-3.004-6.642-6.705-6.642
				c-3.032,0-5.568,2.008-6.394,4.739h-5.146h-3.365v3.331v8.329h-6.738v-5.183c0-3.315-3.194-6.757-6.549-6.757
				c0,0-25.109,0-25.205,0v4.997h22.183c2.231,0,4.055,1.87,4.055,4.072v40.087c2.858-0.493,5.516-2.961,5.516-5.917v-1.309h6.738
				v8.34v3.33h3.365h4.996c0.66,2.972,3.332,5.201,6.543,5.201c3.699,0,6.703-2.971,6.703-6.631c0-3.668-3.004-6.646-6.703-6.646
				c-3.033,0-5.569,2.005-6.395,4.745h-5.145v-8.34v-3.327h-3.366h-6.738v-9.999h23.552c0.707,2.912,3.346,5.085,6.51,5.085
				c3.701,0,6.71-2.968,6.71-6.633C68.526,35.199,65.519,32.225,61.816,32.225z"/>
			<g>
				<path style="fill:#FFFFFF;" d="M20.169,27.161H0.001v2.484h20.168c0.686,0,1.242-0.556,1.242-1.242S20.855,27.161,20.169,27.161
					z"/>
				<path style="fill:#FFFFFF;" d="M20.169,37.917H0.001V40.4h20.168c0.686,0,1.242-0.555,1.242-1.241S20.855,37.917,20.169,37.917z
					"/>
				<path style="fill:#FFFFFF;" d="M20.169,48.078H0.001v2.484h20.168c0.686,0,1.242-0.557,1.242-1.242
					C21.411,48.634,20.855,48.078,20.169,48.078z"/>
			</g>
		</g>
	</g>
</g>
<g id="Layer_1">
</g>
</svg>
