<?xml version="1.0" encoding="iso-8859-1"?>
<!-- Generator: Adobe Illustrator 15.0.2, SVG Export Plug-In . SVG Version: 6.00 Build 0)  -->
<!DOCTYPE svg PUBLIC "-//W3C//DTD SVG 1.1//EN" "http://www.w3.org/Graphics/SVG/1.1/DTD/svg11.dtd">
<svg version="1.1" xmlns="http://www.w3.org/2000/svg" xmlns:xlink="http://www.w3.org/1999/xlink" x="0px" y="0px" width="78px"
	 height="78px" viewBox="0 0 78 78" style="enable-background:new 0 0 78 78;" xml:space="preserve">
<g id="cloudDarkGray">
	<rect style="fill:none;" width="78" height="78"/>
	<circle style="fill:#6B6B6B;" cx="39" cy="39" r="38.729"/>
	<path style="fill:#E4E4E4;" d="M0.462,41.367c0,0-0.744,9.477,9.391,12.878c0.611,3.812,4.714,6.762,9.683,6.762
		c1.68,0,3.262-0.334,4.642-0.928c3.348,4.573,9.589,7.651,16.739,7.651c7.188,0,13.46-3.111,16.793-7.729
		c0.526,0.081,1.076,0.126,1.633,0.126c4.286,0,7.809-2.576,8.251-5.886c9.185-4.162,10.06-8.479,9.88-12.291
		c-0.244-5.153-6.216-9.903-12.863-10.338c1.084-2.021,1.691-4.243,1.691-6.579c0-9.264-9.47-16.775-21.149-16.775
		c-11.312,0-20.553,7.049-21.117,15.913c-0.208-0.005-0.413-0.016-0.628-0.016c-6.113,0-11.26,3.284-12.799,7.751
		C5.055,33.063,0.462,36.597,0.462,41.367"/>
	<path style="fill:#FFFFFF;" d="M3.623,41.771c0,0-0.96,9.052,8.622,11.51c0.561,3.405,4.327,6.041,8.891,6.041
		c1.54,0,2.99-0.299,4.26-0.828c3.073,4.09,8.806,6.841,15.369,6.841c6.604,0,12.357-2.781,15.419-6.909
		c0.483,0.073,0.989,0.112,1.5,0.112c3.938,0,7.17-2.303,7.574-5.26c8.433-3.72,9.236-7.58,9.07-10.984
		c-0.226-4.606-5.707-8.853-11.812-9.239c0.995-1.806,1.552-3.792,1.552-5.879c0-8.28-8.694-14.995-19.418-14.995
		c-10.389,0-18.869,6.3-19.389,14.223c-0.189-0.005-0.381-0.013-0.576-0.013c-5.616,0-10.338,2.936-11.751,6.927
		C7.84,34.349,3.623,37.506,3.623,41.771"/>
</g>
<g id="Layer_1">
</g>
</svg>
