<?xml version="1.0" encoding="iso-8859-1"?>
<!-- Generator: Adobe Illustrator 15.0.2, SVG Export Plug-In . SVG Version: 6.00 Build 0)  -->
<!DOCTYPE svg PUBLIC "-//W3C//DTD SVG 1.1//EN" "http://www.w3.org/Graphics/SVG/1.1/DTD/svg11.dtd">
<svg version="1.1" xmlns="http://www.w3.org/2000/svg" xmlns:xlink="http://www.w3.org/1999/xlink" x="0px" y="0px" width="78px"
	 height="78px" viewBox="0 0 78 78" style="enable-background:new 0 0 78 78;" xml:space="preserve">
<g id="cloudGreen">
	<rect style="fill:none;" width="78" height="78"/>
	<circle style="fill:#009995;" cx="38.999" cy="39" r="38.729"/>
	<path style="fill:#E4E4E4;" d="M0.463,41.367c0,0-0.744,9.475,9.391,12.878c0.611,3.81,4.714,6.76,9.683,6.76
		c1.68,0,3.261-0.334,4.642-0.927c3.348,4.574,9.589,7.652,16.738,7.652c7.189,0,13.46-3.111,16.793-7.731
		c0.528,0.082,1.077,0.126,1.635,0.126c4.284,0,7.809-2.576,8.251-5.884c9.185-4.162,10.06-8.481,9.88-12.291
		c-0.244-5.155-6.217-9.905-12.863-10.338c1.084-2.021,1.691-4.243,1.691-6.579c0-9.264-9.472-16.777-21.149-16.777
		c-11.314,0-20.553,7.049-21.117,15.913c-0.208-0.005-0.415-0.014-0.628-0.014c-6.115,0-11.259,3.284-12.799,7.751
		C5.056,33.063,0.463,36.595,0.463,41.367"/>
	<path style="fill:#FFFFFF;" d="M3.623,41.771c0,0-0.96,9.052,8.622,11.51c0.562,3.405,4.329,6.041,8.893,6.041
		c1.54,0,2.989-0.299,4.26-0.827c3.073,4.088,8.806,6.839,15.369,6.839c6.602,0,12.355-2.781,15.419-6.909
		c0.482,0.073,0.989,0.113,1.5,0.113c3.936,0,7.17-2.302,7.574-5.259c8.433-3.722,9.234-7.58,9.068-10.986
		c-0.224-4.604-5.707-8.851-11.81-9.239c0.995-1.806,1.552-3.792,1.552-5.879c0-8.278-8.695-14.995-19.418-14.995
		c-10.389,0-18.87,6.302-19.389,14.225c-0.191-0.005-0.381-0.015-0.576-0.015c-5.616,0-10.338,2.937-11.751,6.929
		C7.84,34.348,3.623,37.505,3.623,41.771"/>
</g>
<g id="Layer_1">
</g>
</svg>
