<?xml version="1.0" encoding="iso-8859-1"?>
<!-- Generator: Adobe Illustrator 15.0.2, SVG Export Plug-In . SVG Version: 6.00 Build 0)  -->
<!DOCTYPE svg PUBLIC "-//W3C//DTD SVG 1.1//EN" "http://www.w3.org/Graphics/SVG/1.1/DTD/svg11.dtd">
<svg version="1.1" xmlns="http://www.w3.org/2000/svg" xmlns:xlink="http://www.w3.org/1999/xlink" x="0px" y="0px"
	 width="77.959px" height="77.957px" viewBox="0 0 77.959 77.957" style="enable-background:new 0 0 77.959 77.957;"
	 xml:space="preserve">
<g id="computer">
	<g>
		<rect style="fill:none;" width="77.957" height="77.957"/>
		<g>
			<path style="fill:#213164;" d="M7.737,55.662H70.22c0.901,0,1.642-0.738,1.642-1.639V15.958c0-0.907-0.74-1.641-1.642-1.641
				H7.737c-0.901,0-1.633,0.734-1.633,1.641v38.065C6.104,54.924,6.836,55.662,7.737,55.662z M10.173,18.258h57.612v33.377H10.173
				V18.258z"/>
			<path style="fill:#213164;" d="M77.918,58.523H50.971c-0.057,0.551-0.504,0.984-1.072,0.984H28.063
				c-0.566,0-1.021-0.436-1.07-0.984H0.042c-0.016,0.131-0.041,0.258-0.041,0.389v1.184c0,1.951,1.593,3.543,3.543,3.543h70.87
				c1.959,0,3.545-1.591,3.545-3.543v-1.184C77.957,58.781,77.936,58.654,77.918,58.523z"/>
			<g>
				<rect x="10.173" y="18.258" style="fill:#FFFFFF;" width="57.612" height="33.377"/>
				<path style="fill:#213164;" d="M66.094,49.432H12.286c0,0,10.363-11.826,18.165-16.368
					c18.264-10.631,35.644-12.692,35.644-12.692S66.094,44.368,66.094,49.432z"/>
			</g>
		</g>
	</g>
</g>
<g id="Layer_1">
</g>
</svg>
