<?xml version="1.0" encoding="iso-8859-1"?>
<!-- Generator: Adobe Illustrator 15.0.2, SVG Export Plug-In . SVG Version: 6.00 Build 0)  -->
<!DOCTYPE svg PUBLIC "-//W3C//DTD SVG 1.1//EN" "http://www.w3.org/Graphics/SVG/1.1/DTD/svg11.dtd">
<svg version="1.1" xmlns="http://www.w3.org/2000/svg" xmlns:xlink="http://www.w3.org/1999/xlink" x="0px" y="0px"
	 width="77.957px" height="77.957px" viewBox="0 0 77.957 77.957" style="enable-background:new 0 0 77.957 77.957;"
	 xml:space="preserve">
<g id="customerSite">
	<g>
		<rect style="fill:none;" width="77.957" height="77.957"/>
		<g>
			<polygon style="fill:#473192;" points="73.523,73.021 73.523,28.162 4.436,28.162 4.436,73.021 0,73.021 0,77.956 77.957,77.956 
				77.957,73.021 			"/>
			<g>
				<polygon style="fill:#FFFFFF;" points="50.607,47.944 50.607,33.021 68.966,33.021 68.966,47.944 				"/>
				<polygon style="fill:#FFFFFF;" points="8.99,33.021 12.748,33.021 27.348,33.021 27.348,47.944 12.748,47.944 8.99,47.944 				
					"/>
				<polygon style="fill:#FFFFFF;" points="29.755,47.944 29.755,33.021 48.113,33.021 48.113,47.944 				"/>
			</g>
			<polygon style="fill:#FFFFFF;" points="39.014,59.244 38.943,59.244 28.541,59.244 28.541,66.398 28.541,74.322 38.943,74.322 
				39.014,74.322 49.417,74.322 49.417,66.398 49.417,59.244 			"/>
			<polygon style="fill:#FFFFFF;" points="39.037,54.631 38.921,54.631 21.712,54.631 21.712,56.122 21.712,57.772 38.921,57.772 
				39.037,57.772 56.246,57.772 56.246,56.122 56.246,54.631 			"/>
			<circle style="fill:#FFFFFF;" cx="38.979" cy="22.067" r="16.426"/>
			<circle style="fill:#473192;" cx="38.979" cy="22.067" r="14.53"/>
			<g>
				<path style="fill:#FFFFFF;" d="M43.86,16.312c0,0-0.514,0.483-0.918,0.83c-0.527,0.448-0.62,0.483-1.609,0.354
					c-0.481-0.062-3.433-0.527-4.219-0.692c-0.312-0.063-0.801-0.038-1.249,0.263c-0.438,0.302-4.001,3.783-4.001,3.783
					s0.343,1.125,1.679,1.229c1.404,0.114,2.597-0.139,4.08-1.361l1.509,0.847l-0.067,0.202l6.445,3.627
					c0.289,0.162,0.396,0.545,0.234,0.834l-0.222,0.387c-0.158,0.282-0.54,0.402-0.83,0.234l-6.071-3.409l-0.312,0.938l5.903,3.318
					c0.142,0.08,0.245,0.211,0.289,0.369s0.022,0.322-0.062,0.469l-0.028,0.057c-0.164,0.282-0.553,0.391-0.831,0.232l-4.057-2.275
					l-1.645-0.928l-0.32,0.938l4.982,2.798c0.236,0.134,0.32,0.44,0.185,0.685c-0.124,0.229-0.438,0.318-0.67,0.185l-2.74-1.535
					l-2.089-1.171v0.001l-0.001-0.001l-0.057,0.175l-0.254,0.758l1.995,1.12l0.304,0.17c0.238,0.139,0.324,0.443,0.188,0.686
					c-0.131,0.229-0.445,0.316-0.68,0.187l-2.137-1.194l-0.294,0.851c-0.057-0.06-0.098-0.13-0.164-0.181
					c-0.209-0.158-0.456-0.24-0.704-0.246l0.198-0.266c0.408-0.563,0.291-1.35-0.271-1.765c-0.231-0.171-0.506-0.246-0.772-0.236
					c0.222-0.568,0.047-1.229-0.461-1.605l-0.06-0.036c-0.356-0.27-0.809-0.329-1.209-0.208c-0.003-0.416-0.193-0.827-0.555-1.097
					l-0.359-0.267c-0.609-0.445-1.47-0.312-1.918,0.292l-1.26,1.709c-0.371,0.507,1.024,2.165,3.114,3.705
					c2.088,1.536,4.088,2.372,4.457,1.867l0.065-0.088c0.31-0.419,0.317-0.964,0.069-1.385l1.778,0.997
					c0.221,0.124,0.47,0.188,0.721,0.188c0.531,0,1.023-0.287,1.284-0.75c0.088-0.154,0.132-0.319,0.157-0.484l1.172,0.658
					c0.22,0.124,0.466,0.189,0.718,0.189c0.53,0,1.023-0.289,1.284-0.752c0.116-0.208,0.16-0.433,0.17-0.654
					c0.042,0.004,0.084,0.016,0.126,0.016c0.573,0,1.102-0.312,1.369-0.801l0.044-0.067c0.202-0.359,0.253-0.775,0.148-1.177
					c0.387-0.115,0.724-0.375,0.926-0.734l0.224-0.391c0.234-0.419,0.239-0.895,0.085-1.315c0.413-0.032,0.905-0.167,1.483-0.533
					c0.698-0.445,1.933-1.013,3.648-4.076L43.86,16.312z"/>
				<path style="fill:#FFFFFF;" d="M29.843,24.1l-1.795-1.177c-0.033-0.66-0.102-4.396,2.506-5.933
					c0.173-0.102,0.425-0.151,0.75-0.151c1.072,0,2.513,0.563,2.527,0.569l0.109,0.044l1.061-0.81l-0.334-0.142
					c-0.089-0.036-2.184-0.916-3.604-0.916c-0.369,0-0.669,0.062-0.894,0.182c-4.043,2.159-3.545,7.581-3.538,7.635l0.009,0.1
					l2.378,1.573L29.843,24.1z"/>
			</g>
		</g>
	</g>
</g>
<g id="Layer_1">
</g>
</svg>
