<?xml version="1.0" encoding="iso-8859-1"?>
<!-- Generator: Adobe Illustrator 15.0.2, SVG Export Plug-In . SVG Version: 6.00 Build 0)  -->
<!DOCTYPE svg PUBLIC "-//W3C//DTD SVG 1.1//EN" "http://www.w3.org/Graphics/SVG/1.1/DTD/svg11.dtd">
<svg version="1.1" xmlns="http://www.w3.org/2000/svg" xmlns:xlink="http://www.w3.org/1999/xlink" x="0px" y="0px" width="32px"
	 height="32px" viewBox="0 0 32 32" style="enable-background:new 0 0 32 32;" xml:space="preserve">
<g id="customerSiteSmall">
	<g>
		<g>
			<polygon style="fill:#473192;" points="29.312,26.708 29.315,2.646 2.542,2.646 2.544,26.708 0,26.708 0,32 32,32 32,26.708 			
				"/>
			<g>
				<circle style="fill:#FFFFFF;" cx="15.928" cy="15.709" r="12"/>
				<circle style="fill:#473192;" cx="15.928" cy="15.709" r="10.615"/>
				<g>
					<path style="fill:#FFFFFF;" d="M19.494,11.503c0,0-0.375,0.353-0.668,0.607c-0.389,0.328-0.454,0.352-1.181,0.258
						c-0.35-0.044-2.507-0.384-3.08-0.505c-0.229-0.045-0.586-0.028-0.912,0.192c-0.321,0.221-2.923,2.764-2.923,2.764
						s0.252,0.821,1.228,0.897c1.025,0.083,1.897-0.102,2.98-0.995l1.102,0.618l-0.049,0.147l4.709,2.649
						c0.211,0.118,0.289,0.399,0.172,0.609l-0.163,0.283c-0.115,0.206-0.395,0.294-0.606,0.172l-4.436-2.49l-0.229,0.685
						l4.313,2.426c0.104,0.058,0.178,0.154,0.209,0.27c0.03,0.116,0.018,0.235-0.044,0.342l-0.021,0.04
						c-0.121,0.208-0.404,0.286-0.608,0.172l-2.962-1.663l-1.201-0.678l-0.234,0.686l3.639,2.043c0.173,0.1,0.234,0.322,0.135,0.5
						c-0.09,0.168-0.32,0.234-0.487,0.135l-2.006-1.12l-1.524-0.854v0.001l-0.001-0.001l-0.04,0.128l-0.186,0.554l1.458,0.818
						l0.221,0.124c0.177,0.102,0.239,0.324,0.14,0.501c-0.096,0.166-0.326,0.231-0.496,0.137l-1.558-0.873l-0.217,0.621
						c-0.039-0.045-0.067-0.096-0.12-0.132c-0.151-0.116-0.333-0.175-0.515-0.179l0.147-0.193c0.299-0.413,0.213-0.986-0.198-1.289
						c-0.167-0.125-0.369-0.18-0.563-0.172c0.163-0.417,0.035-0.898-0.336-1.174l-0.044-0.027c-0.261-0.196-0.591-0.239-0.884-0.152
						c-0.002-0.305-0.142-0.604-0.405-0.801l-0.26-0.195c-0.445-0.326-1.075-0.229-1.404,0.213l-0.919,1.249
						c-0.271,0.368,0.749,1.581,2.274,2.706c1.524,1.123,2.985,1.733,3.258,1.363l0.048-0.063c0.224-0.307,0.232-0.705,0.05-1.013
						l1.299,0.729c0.16,0.09,0.343,0.139,0.526,0.139c0.389,0,0.748-0.21,0.938-0.548c0.065-0.113,0.096-0.233,0.116-0.356
						l0.855,0.482c0.161,0.091,0.342,0.139,0.524,0.139c0.389,0,0.749-0.211,0.939-0.551c0.083-0.15,0.116-0.313,0.122-0.478
						c0.03,0.003,0.063,0.012,0.093,0.012c0.419,0,0.805-0.228,1.002-0.584l0.031-0.051c0.148-0.262,0.184-0.565,0.109-0.858
						c0.283-0.086,0.527-0.273,0.675-0.537l0.162-0.285c0.174-0.307,0.177-0.654,0.062-0.962c0.303-0.023,0.664-0.122,1.086-0.389
						c0.512-0.325,1.412-0.741,2.665-2.979L19.494,11.503z"/>
					<path style="fill:#FFFFFF;" d="M9.254,17.193l-1.313-0.86C7.917,15.852,7.869,13.122,9.772,12
						c0.128-0.074,0.312-0.11,0.55-0.11c0.78,0,1.834,0.412,1.846,0.417l0.08,0.031l0.774-0.592l-0.245-0.104
						c-0.064-0.026-1.594-0.669-2.632-0.669c-0.27,0-0.489,0.045-0.654,0.132c-2.954,1.577-2.589,5.539-2.584,5.579l0.006,0.071
						l1.74,1.152L9.254,17.193z"/>
				</g>
			</g>
			<rect x="4" y="1" style="fill:#4D3AAA;" width="24" height="2"/>
		</g>
		<rect style="fill:none;" width="32" height="32"/>
	</g>
</g>
<g id="Layer_1">
</g>
</svg>
