<?xml version="1.0" encoding="iso-8859-1"?>
<!-- Generator: Adobe Illustrator 15.0.2, SVG Export Plug-In . SVG Version: 6.00 Build 0)  -->
<!DOCTYPE svg PUBLIC "-//W3C//DTD SVG 1.1//EN" "http://www.w3.org/Graphics/SVG/1.1/DTD/svg11.dtd">
<svg version="1.1" xmlns="http://www.w3.org/2000/svg" xmlns:xlink="http://www.w3.org/1999/xlink" x="0px" y="0px"
	 width="77.958px" height="77.957px" viewBox="0 0 77.958 77.957" style="enable-background:new 0 0 77.958 77.957;"
	 xml:space="preserve">
<g id="dataCenter">
	<g>
		<rect style="fill:none;" width="77.958" height="77.957"/>
		<g>
			<polygon style="fill:#C7124C;" points="60.08,72.279 60.08,19.687 17.878,19.687 17.878,72.279 14.001,73.646 14.001,77.957 
				63.956,77.957 63.956,73.646 			"/>
			<polygon style="fill:#FFFFFF;" points="21.88,23.934 37.925,23.934 37.925,36.979 21.88,36.979 			"/>
			<polygon style="fill:#FFFFFF;" points="40.03,36.979 40.03,23.934 56.077,23.934 56.077,36.979 			"/>
			<polygon style="fill:#FFFFFF;" points="21.88,39.351 37.925,39.351 37.925,52.396 21.88,52.396 			"/>
			<polygon style="fill:#FFFFFF;" points="40.03,52.396 40.03,39.351 56.077,39.351 56.077,52.396 			"/>
			<polygon style="fill:#FFFFFF;" points="43.557,74.782 34.401,74.782 34.401,67.856 34.401,61.603 43.557,61.603 43.557,67.856 
							"/>
			<g>
				<circle style="fill:#FFFFFF;" cx="38.978" cy="16.358" r="15.5"/>
				<circle style="fill:#C7124C;" cx="38.978" cy="16.358" r="13.712"/>
				<rect x="30.753" y="8.246" style="fill:#FFFFFF;" width="16.45" height="4.718"/>
				<rect x="30.753" y="14.331" style="fill:#FFFFFF;" width="16.45" height="4.718"/>
				<rect x="30.753" y="20.414" style="fill:#FFFFFF;" width="16.45" height="4.718"/>
				<rect x="32.032" y="9.93" style="fill:#C91456;" width="2.892" height="1.354"/>
				<rect x="32.032" y="16.013" style="fill:#C91456;" width="2.892" height="1.354"/>
				<rect x="32.032" y="22.097" style="fill:#C91456;" width="2.892" height="1.354"/>
			</g>
		</g>
	</g>
</g>
<g id="Layer_1">
</g>
</svg>
