<?xml version="1.0" encoding="iso-8859-1"?>
<!-- Generator: Adobe Illustrator 15.0.2, SVG Export Plug-In . SVG Version: 6.00 Build 0)  -->
<!DOCTYPE svg PUBLIC "-//W3C//DTD SVG 1.1//EN" "http://www.w3.org/Graphics/SVG/1.1/DTD/svg11.dtd">
<svg version="1.1" xmlns="http://www.w3.org/2000/svg" xmlns:xlink="http://www.w3.org/1999/xlink" x="0px" y="0px"
	 width="77.957px" height="77.957px" viewBox="0 0 77.957 77.957" style="enable-background:new 0 0 77.957 77.957;"
	 xml:space="preserve">
<g id="dia">
	<g>
		<rect style="fill:none;" width="77.957" height="77.957"/>
		<path style="fill:#C7124C;" d="M11.83,34.276c0.709-11.354,10.104-20.203,21.531-20.203c7.502,0,14.3,3.76,18.261,10.074
			c1.515-0.707,3.196-1.08,4.886-1.08c6.32,0,11.479,5.062,11.633,11.387c5.883,2.225,9.816,7.9,9.816,14.22
			c0,8.387-6.825,15.21-15.215,15.21H14.967c-3.992,0-7.75-1.561-10.58-4.391C1.556,56.663-0.002,52.902,0,48.912
			C0,41.852,4.956,35.748,11.83,34.276z"/>
	</g>
</g>
<g id="Layer_1">
</g>
</svg>
