<?xml version="1.0" encoding="iso-8859-1"?>
<!-- Generator: Adobe Illustrator 15.0.2, SVG Export Plug-In . SVG Version: 6.00 Build 0)  -->
<!DOCTYPE svg PUBLIC "-//W3C//DTD SVG 1.1//EN" "http://www.w3.org/Graphics/SVG/1.1/DTD/svg11.dtd">
<svg version="1.1" xmlns="http://www.w3.org/2000/svg" xmlns:xlink="http://www.w3.org/1999/xlink" x="0px" y="0px"
	 width="77.959px" height="77.957px" viewBox="0 0 77.959 77.957" style="enable-background:new 0 0 77.959 77.957;"
	 xml:space="preserve">
<g id="diaVoice">
	<g>
		<rect x="0.001" style="fill:none;" width="77.958" height="77.957"/>
		<g>
			<path style="fill:#009995;" d="M11.831,34.277c0.708-11.356,10.104-20.204,21.531-20.204c7.502,0,14.3,3.759,18.261,10.075
				c1.517-0.707,3.197-1.08,4.888-1.08c6.318,0,11.479,5.061,11.632,11.385c5.884,2.225,9.815,7.902,9.815,14.22
				c0,8.389-6.823,15.21-15.215,15.21H14.969c-3.992,0-7.75-1.559-10.58-4.39C1.558,56.662-0.002,52.903,0,48.911
				C0.001,41.852,4.957,35.748,11.831,34.277z"/>
			<path style="fill:#FFFFFF;" d="M56.462,52.077c0,0,5.504-6.183,0.288-12.454c-5.553-6.679-12.725-2.458-12.725-2.458
				s7.121,0.1,10.668,4.366C58.238,45.794,56.462,52.077,56.462,52.077z"/>
			<path style="fill:#FFFFFF;" d="M51.201,53.146c0,0,4.142-4.653,0.217-9.372c-4.178-5.026-9.573-1.852-9.573-1.852
				s5.357,0.075,8.025,3.285S51.201,53.146,51.201,53.146z"/>
			<path style="fill:#FFFFFF;" d="M21.659,31.739c3.339,8.826,7.973,17.183,14.284,24.93c1.403,1.725,3.959,2.007,5.713,0.636
				c1.535-1.196,3.068-2.396,4.604-3.596c0.81-0.633,0.956-1.797,0.324-2.604l-3.621-4.654c-0.318-0.411-0.743-0.65-1.266-0.714
				c-0.519-0.063-0.988,0.066-1.399,0.388l-2.917,2.279c-3.045-4.308-5.623-8.873-7.786-13.674l3.426-1.293
				c0.489-0.187,0.844-0.52,1.056-0.992c0.211-0.475,0.221-0.958,0.027-1.44l-2.183-5.462c-0.38-0.948-1.467-1.423-2.429-1.059
				c-1.82,0.687-3.643,1.374-5.463,2.062C21.935,27.335,20.873,29.662,21.659,31.739z"/>
		</g>
	</g>
</g>
<g id="Layer_1">
</g>
</svg>
