<?xml version="1.0" encoding="iso-8859-1"?>
<!-- Generator: Adobe Illustrator 15.0.2, SVG Export Plug-In . SVG Version: 6.00 Build 0)  -->
<!DOCTYPE svg PUBLIC "-//W3C//DTD SVG 1.1//EN" "http://www.w3.org/Graphics/SVG/1.1/DTD/svg11.dtd">
<svg version="1.1" xmlns="http://www.w3.org/2000/svg" xmlns:xlink="http://www.w3.org/1999/xlink" x="0px" y="0px"
	 width="77.958px" height="77.958px" viewBox="0 0 77.958 77.958" style="enable-background:new 0 0 77.958 77.958;"
	 xml:space="preserve">
<g id="dish">
	<g>
		<rect style="fill:none;" width="77.958" height="77.957"/>
		<g>
			<circle style="fill:#213164;" cx="49.762" cy="25.795" r="5.225"/>
			<path style="fill:#213164;" d="M10.282,63.065c-0.921-0.933-1.779-1.894-2.593-2.878c-2.531,1.841-4.023,4.094-4.023,6.531
				c0,6.207,9.658,11.239,21.578,11.239c5.868,0,11.187-1.224,15.075-3.202C30.396,75.951,19.005,71.902,10.282,63.065z"/>
			<path style="fill:#213164;" d="M42.966,29.515c-5.175,3.017-14.147,8.268-14.229,8.406c-2.438,4.172,1.866,8.491,5.876,8.014
				l10.906-13.57C44.345,31.776,43.427,30.758,42.966,29.515z"/>
			<path style="fill:#213164;" d="M57.239,27.594c8.233,11.985,8.995,26.181,0.972,34.103C48.786,71,30.855,68.114,18.158,55.254
				C5.464,42.393,2.809,24.426,12.232,15.123c8.53-8.422,24.022-6.825,36.3,3.087c0.405-0.065,0.812-0.123,1.229-0.123
				c0.005,0,0.007,0.002,0.012,0.002C36.532,7.077,18.849,5.873,8.704,15.889c-10.972,10.83-8.965,30.653,4.481,44.274
				c13.448,13.622,33.241,15.886,44.214,5.056c9.598-9.477,9.261-25.836,0.021-38.904C57.39,26.75,57.34,27.18,57.239,27.594z"/>
			<path style="fill:#213164;" d="M68.72,11.828C62.923,4.831,54.854,0.832,46.477,0c7.479,2.659,14.362,7.3,19.793,13.857
				c5.43,6.555,8.71,14.182,9.93,22.025C76.941,27.494,74.516,18.825,68.72,11.828z"/>
			<path style="fill:#213164;" d="M47.271,9.016c5.087,1.811,9.771,4.965,13.463,9.425c3.697,4.46,5.927,9.647,6.755,14.981
				c0.506-5.704-1.146-11.602-5.091-16.361C58.46,12.303,52.972,9.582,47.271,9.016z"/>
		</g>
	</g>
</g>
<g id="Layer_1">
</g>
</svg>
