<?xml version="1.0" encoding="iso-8859-1"?>
<!-- Generator: Adobe Illustrator 15.0.2, SVG Export Plug-In . SVG Version: 6.00 Build 0)  -->
<!DOCTYPE svg PUBLIC "-//W3C//DTD SVG 1.1//EN" "http://www.w3.org/Graphics/SVG/1.1/DTD/svg11.dtd">
<svg version="1.1" xmlns="http://www.w3.org/2000/svg" xmlns:xlink="http://www.w3.org/1999/xlink" x="0px" y="0px"
	 width="77.958px" height="77.957px" viewBox="0 0 77.958 77.957" style="enable-background:new 0 0 77.958 77.957;"
	 xml:space="preserve">
<g id="dishWireless">
	<g>
		<rect style="fill:none;" width="77.958" height="77.957"/>
		<g>
			<circle style="fill:#213164;" cx="47.478" cy="13.042" r="2.642"/>
			<path style="fill:#213164;" d="M44.041,14.922c-2.614,1.526-7.151,4.18-7.191,4.25c-1.233,2.109,0.942,4.293,2.971,4.052
				l5.514-6.861C44.738,16.065,44.273,15.551,44.041,14.922z"/>
			<path style="fill:#213164;" d="M51.258,13.951c4.161,6.059,4.548,13.237,0.488,17.242c-4.764,4.703-13.83,3.245-20.249-3.258
				c-6.419-6.502-7.761-15.586-2.994-20.289c4.312-4.258,12.145-3.451,18.353,1.561c0.205-0.033,0.409-0.062,0.621-0.062
				c0.002,0,0.004,0.001,0.006,0.001C40.787,3.578,31.848,2.97,26.718,8.034c-5.547,5.476-4.532,15.498,2.266,22.384
				c6.799,6.887,16.806,8.031,22.354,2.556c4.854-4.791,4.684-13.063,0.012-19.669C51.333,13.524,51.309,13.742,51.258,13.951z"/>
			<path style="fill:#213164;" d="M57.062,5.98C54.131,2.443,50.052,0.421,45.815,0c3.781,1.344,7.261,3.691,10.007,7.006
				c2.745,3.314,4.404,7.17,5.021,11.136C61.22,13.901,59.992,9.518,57.062,5.98z"/>
			<path style="fill:#213164;" d="M46.219,4.558c2.57,0.916,4.938,2.511,6.807,4.765c1.869,2.255,2.996,4.877,3.416,7.574
				c0.255-2.884-0.58-5.866-2.574-8.272C51.874,6.22,49.1,4.845,46.219,4.558z"/>
			<g>
				<path style="fill:#213164;" d="M40.894,63.997c-0.252-0.338-0.49-0.685-0.713-1.045l-7.703,3.864l-0.168-7.701l6.695,1.513
					c-0.188-0.472-0.351-0.956-0.488-1.45l-6.234-1.41l-0.096-4.438l6.675-3.343c0.425-1.166,0.982-2.265,1.668-3.271l-3.133-8.035
					c-0.796-0.128-1.595-0.302-2.391-0.548l-3.114,1.56l-0.062-2.85l0.064,0.014c-0.982-0.504-1.942-1.1-2.867-1.786l-0.029,1.356
					l-2.943,0.666l1.213-3.494c-0.255-0.235-0.514-0.46-0.76-0.71c-0.202-0.205-0.384-0.42-0.574-0.63l-14.91,38.263l2.545,2.488
					l3.606-10.373l11.145,5.586l-0.177,8.115l2.267,1.615l2.271-1.615l-0.175-8.143L40.894,63.997z M28.351,66.837l-10.38-5.198
					l10.541-2.382L28.351,66.837z M28.541,57.912l-10.552,2.38l3.671-10.545l6.983,3.505L28.541,57.912z M28.66,52.326l-6.395-3.207
					l6.496-1.466L28.66,52.326z M28.777,46.76l-6.602,1.486l3.416-9.815l3.331,1.674L28.777,46.76z M28.936,39.529l-3.174-1.592
					l0.083-0.241l3.146-0.71L28.936,39.529z M31.905,40.273l3.389-1.7l3.312,9.524l-6.566-1.481L31.905,40.273z M32.062,47.512
					l6.804,1.539l0.062-0.027l0.018,0.048l-0.078-0.021l-6.698,3.362L32.062,47.512z"/>
				<path style="fill:#213164;" d="M45.559,68.086l1.713,4.928l2.54-2.488l-0.39-1C48.053,69.23,46.755,68.743,45.559,68.086z"/>
			</g>
			<path style="fill:#213164;" d="M52.438,41.822c-7.218,0-13.065,5.951-13.065,13.285c0,7.344,5.849,13.291,13.065,13.291
				s13.068-5.946,13.068-13.291C65.507,47.773,59.656,41.822,52.438,41.822z"/>
			<path style="fill:#FFFFFF;" d="M52.438,66.223c-6.002,0-10.889-4.984-10.889-11.115c0-6.125,4.887-11.113,10.889-11.113
				c6.007,0,10.891,4.988,10.891,11.113C63.328,61.238,58.445,66.223,52.438,66.223z"/>
			<path style="fill:#213164;" d="M45.841,50.729c-0.251,0.238-0.279,0.269-0.279,0.269c-0.239,0.267-0.638,0.272-0.886,0.013
				l-0.003-0.003c-0.247-0.259-0.26-0.683-0.023-0.94c0,0,0,0,0.229-0.219c2.495-2.404,6.096-3.584,9.738-2.838
				c2.129,0.438,3.985,1.473,5.432,2.895c0.207,0.203,0.207,0.203,0.207,0.203c0.213,0.236,0.185,0.642-0.063,0.9l-0.004,0.006
				c-0.248,0.26-0.638,0.26-0.868,0c0,0,0,0-0.226-0.22c-1.268-1.229-2.884-2.126-4.737-2.506
				C51.177,47.637,48.035,48.65,45.841,50.729z M53.833,50.844c1.408,0.288,2.631,0.986,3.567,1.942
				c0.188,0.19,0.188,0.19,0.188,0.19c0.186,0.225,0.538,0.195,0.786-0.063l0.01-0.009c0.247-0.26,0.276-0.672,0.065-0.916
				c0,0,0,0-0.209-0.207c-1.102-1.09-2.519-1.883-4.146-2.217c-2.755-0.564-5.478,0.318-7.373,2.125
				c-0.244,0.233-0.26,0.252-0.26,0.252c-0.236,0.27-0.229,0.703,0.021,0.963l0.007,0.008c0.248,0.26,0.636,0.252,0.862-0.018
				c0,0,0,0,0.228-0.222C49.181,51.124,51.491,50.363,53.833,50.844z M53.31,53.398c0.882,0.18,1.646,0.617,2.234,1.217
				c0.204,0.211,0.204,0.211,0.204,0.211c0.189,0.263,0.548,0.266,0.796,0.006l0.019-0.02c0.248-0.26,0.278-0.689,0.068-0.955
				c0,0,0,0-0.222-0.217c-0.754-0.748-1.726-1.291-2.841-1.52c-1.879-0.385-3.734,0.213-5.033,1.439
				c-0.25,0.237-0.275,0.271-0.275,0.271c-0.226,0.28-0.206,0.72,0.042,0.979l0.019,0.021c0.248,0.259,0.609,0.252,0.804-0.015
				c0,0,0,0,0.211-0.213C50.339,53.594,51.814,53.092,53.31,53.398z M51.026,56.623c0.396-0.527,1.072-0.811,1.759-0.67
				c0.397,0.081,0.735,0.292,0.98,0.578c0.193,0.229,0.637,0.494,0.94,0.225c0.441-0.391,0.115-1.019-0.11-1.246
				c-0.409-0.41-0.938-0.709-1.548-0.834c-1.035-0.213-2.054,0.125-2.755,0.812c-0.232,0.229-0.604,0.824-0.135,1.268
				C50.39,56.973,50.876,56.823,51.026,56.623z"/>
			<path style="fill:#213164;" d="M52.435,57.354c-1.124,0-2.042,0.92-2.042,2.05c0,0.862,0.528,1.589,1.271,1.897v3.76
				c0.262,0.021,0.521,0.041,0.786,0.041c0.237,0,0.472-0.02,0.703-0.035v-3.744c0.777-0.291,1.331-1.038,1.331-1.918
				C54.486,58.273,53.571,57.354,52.435,57.354z"/>
		</g>
	</g>
</g>
<g id="Layer_1">
</g>
</svg>
