<?xml version="1.0" encoding="iso-8859-1"?>
<!-- Generator: Adobe Illustrator 15.0.2, SVG Export Plug-In . SVG Version: 6.00 Build 0)  -->
<!DOCTYPE svg PUBLIC "-//W3C//DTD SVG 1.1//EN" "http://www.w3.org/Graphics/SVG/1.1/DTD/svg11.dtd">
<svg version="1.1" xmlns="http://www.w3.org/2000/svg" xmlns:xlink="http://www.w3.org/1999/xlink" x="0px" y="0px"
	 width="77.958px" height="77.957px" viewBox="0 0 77.958 77.957" style="enable-background:new 0 0 77.958 77.957;"
	 xml:space="preserve">
<g id="ethernet">
	<g>
		<rect style="fill:none;" width="77.958" height="77.957"/>
		<g>
			<path style="fill:#213164;" d="M6.269,77.957c-2.416,0-4.487-2.005-4.487-4.467c0-15.074,0-53.957,0-68.991
				c0-2.482,2.072-4.494,4.487-4.494c21.825-0.007,43.596-0.007,65.394,0c2.47,0,4.515,2.012,4.515,4.494
				c0,15.034,0,53.916,0,68.991c0,2.462-2.045,4.467-4.515,4.467C49.864,77.95,28.094,77.95,6.269,77.957L6.269,77.957z"/>
			<path style="fill:#3EA1DA;" d="M17.916,62.98c-2.726,0-4.943-2.217-4.943-4.944V19.921c0-2.727,2.217-4.946,4.943-4.946H60.04
				c2.726,0,4.944,2.219,4.944,4.946v38.115c0,2.728-2.219,4.944-4.944,4.944H17.916z"/>
			<path style="fill:#213164;" d="M31.951,56.93c-0.316,0-0.573-0.26-0.573-0.574v-3.616c0-0.313-0.258-0.573-0.571-0.573h-3.254
				c-0.314,0-0.571-0.257-0.571-0.572v-5.265c0-0.313-0.257-0.573-0.571-0.573h-8.38c-0.315,0-0.572-0.257-0.572-0.572v-24.86
				c0-0.315,0.257-0.573,0.572-0.573h41.895c0.313,0,0.571,0.259,0.571,0.573v24.86c0,0.315-0.258,0.572-0.571,0.572h-8.379
				c-0.314,0-0.57,0.26-0.57,0.573v5.265c0,0.314-0.258,0.572-0.574,0.572H47.15c-0.315,0-0.573,0.26-0.573,0.573v3.616
				c0,0.314-0.255,0.574-0.569,0.574H31.951z"/>
			<g>
				<rect x="54.383" y="19.749" style="fill:#FFFFFF;" width="3.021" height="8.357"/>
				<rect x="49.549" y="19.749" style="fill:#FFFFFF;" width="3.021" height="8.357"/>
				<rect x="44.719" y="19.749" style="fill:#FFFFFF;" width="3.019" height="8.357"/>
				<rect x="39.885" y="19.749" style="fill:#FFFFFF;" width="3.018" height="8.357"/>
				<rect x="35.052" y="19.749" style="fill:#FFFFFF;" width="3.02" height="8.357"/>
				<rect x="30.22" y="19.749" style="fill:#FFFFFF;" width="3.02" height="8.357"/>
				<rect x="25.389" y="19.749" style="fill:#FFFFFF;" width="3.019" height="8.357"/>
				<rect x="20.555" y="19.749" style="fill:#FFFFFF;" width="3.02" height="8.357"/>
			</g>
		</g>
	</g>
</g>
<g id="Layer_1">
</g>
</svg>
