<?xml version="1.0" encoding="iso-8859-1"?>
<!-- Generator: Adobe Illustrator 15.0.2, SVG Export Plug-In . SVG Version: 6.00 Build 0)  -->
<!DOCTYPE svg PUBLIC "-//W3C//DTD SVG 1.1//EN" "http://www.w3.org/Graphics/SVG/1.1/DTD/svg11.dtd">
<svg version="1.1" xmlns="http://www.w3.org/2000/svg" xmlns:xlink="http://www.w3.org/1999/xlink" x="0px" y="0px" width="55px"
	 height="55px" viewBox="0 0 55 55" style="enable-background:new 0 0 55 55;" xml:space="preserve">
<g id="evpl">
	<g>
		<rect style="fill:none;" width="55" height="55"/>
		<g>
			<g>
				<path style="fill:#213164;" d="M48.071,27.443l4.621,4.521c0.669,0.625,0.892,1.406,0.669,2.344
					c-0.268,0.915-0.849,1.484-1.741,1.707l-6.294,1.607l1.774,6.228c0.268,0.916,0.056,1.696-0.637,2.344
					c-0.647,0.692-1.429,0.904-2.344,0.637l-6.228-1.775l-1.606,6.295c-0.224,0.893-0.793,1.474-1.708,1.741
					c-0.268,0.045-0.48,0.067-0.636,0.067c-0.692,0-1.262-0.246-1.708-0.737l-4.521-4.62l-4.52,4.62
					c-0.625,0.67-1.406,0.893-2.344,0.67c-0.916-0.246-1.485-0.826-1.708-1.741l-1.606-6.295l-6.229,1.775
					c-0.915,0.268-1.696,0.056-2.344-0.637c-0.691-0.647-0.903-1.428-0.636-2.344l1.774-6.228l-6.295-1.607
					c-0.893-0.223-1.473-0.792-1.74-1.707c-0.224-0.938,0-1.719,0.669-2.344l4.621-4.521l-4.621-4.52
					c-0.669-0.625-0.893-1.406-0.669-2.344c0.268-0.915,0.848-1.484,1.74-1.708l6.295-1.607l-1.774-6.228
					c-0.268-0.915-0.056-1.696,0.636-2.344c0.647-0.691,1.429-0.904,2.344-0.636l6.229,1.774l1.606-6.295
					c0.223-0.915,0.792-1.484,1.708-1.707c0.915-0.269,1.696-0.056,2.344,0.636l4.52,4.654l4.521-4.654
					c0.647-0.67,1.428-0.882,2.344-0.636c0.915,0.223,1.484,0.792,1.708,1.707l1.606,6.295l6.228-1.774
					c0.915-0.269,1.696-0.056,2.344,0.636c0.692,0.647,0.904,1.429,0.637,2.344l-1.774,6.228l6.294,1.607
					c0.893,0.224,1.474,0.793,1.741,1.708c0.223,0.938,0,1.719-0.669,2.344L48.071,27.443z"/>
			</g>
			<path style="fill:#FFFFFF;" d="M17.736,24.964l4.097-0.004c-0.015-0.125-0.027-0.247-0.027-0.37v-2.188
				c-0.005-2.835,2.015-5.143,4.499-5.145l1.904-0.001c2.479-0.001,4.499,2.303,4.504,5.136v2.186c0,0.125-0.005,0.248-0.015,0.372
				l4.099-0.004c0-0.123,0.003-0.248,0-0.372v-2.187c0-5.42-3.847-9.812-8.593-9.807L26.3,12.583c-4.739,0.005-8.579,4.4-8.574,9.82
				l0.007,2.188C17.731,24.714,17.736,24.84,17.736,24.964z"/>
			<path style="fill:#FFFFFF;" d="M37.337,26.521l-20.16,0.017l0.017,11.991c0,1.806,1.467,3.271,3.27,3.268l13.619-0.013
				c1.808,0,3.272-1.467,3.267-3.271L37.337,26.521z M28.635,34.208v3.709c0,0.625-0.509,1.14-1.137,1.14h-0.472
				c-0.624,0-1.139-0.513-1.139-1.14v-3.709c-0.604-0.432-0.997-1.137-0.997-1.935c0-1.309,1.062-2.37,2.37-2.37
				c1.31,0,2.372,1.062,2.372,2.37C29.634,33.071,29.241,33.777,28.635,34.208z"/>
		</g>
	</g>
</g>
<g id="Layer_1">
</g>
</svg>
