<?xml version="1.0" encoding="utf-8"?>
<!-- Generator: Adobe Illustrator 18.0.0, SVG Export Plug-In . SVG Version: 6.00 Build 0)  -->
<!DOCTYPE svg PUBLIC "-//W3C//DTD SVG 1.1//EN" "http://www.w3.org/Graphics/SVG/1.1/DTD/svg11.dtd">
<svg version="1.1" id="Layer_1" xmlns="http://www.w3.org/2000/svg" xmlns:xlink="http://www.w3.org/1999/xlink" x="0px" y="0px"
	 viewBox="0 0 78 64.2" enable-background="new 0 0 78 64.2" xml:space="preserve">
<g id="firewall">
	<g>
		<rect x="7" y="-6.9" fill="none" width="64" height="78"/>
		<g>
			<rect x="6.9" y="-6.9" fill="#FFFFFF" width="64.2" height="78"/>
			<path fill="#C7124C" d="M36.5,6.8c0,7.8,0,15.5,0,23.3c3.5,0,6.9,0,10.4,0c0-7.8,0-15.5,0-23.3C43.4,6.8,39.9,6.8,36.5,6.8z"/>
			<path fill="#C7124C" d="M51.2,20.5c0,7.8,0,15.5,0,23.3c3.5,0,6.9,0,10.4,0c0-7.8,0-15.5,0-23.3C58.2,20.5,54.7,20.5,51.2,20.5z"
				/>
			<path fill="#C7124C" d="M21.7-6.9c0,7.8,0,15.5,0,23.3c3.5,0,6.9,0,10.4,0c0-7.8,0-15.5,0-23.3C28.6-6.9,25.1-6.9,21.7-6.9z"/>
			<path fill="#C7124C" d="M21.7,20.5c0,7.8,0,15.5,0,23.3c3.5,0,6.9,0,10.4,0c0-7.8,0-15.5,0-23.3C28.6,20.5,25.1,20.5,21.7,20.5z"
				/>
			<path fill="#C7124C" d="M36.5,34.1c0,7.8,0,15.5,0,23.3c3.5,0,6.9,0,10.4,0c0-7.8,0-15.5,0-23.3C43.4,34.1,39.9,34.1,36.5,34.1z"
				/>
			<path fill="#C7124C" d="M46.8,2.7c0-3.2,0-6.4,0-9.6c-3.5,0-6.9,0-10.4,0c0,3.2,0,6.4,0,9.6C39.9,2.7,43.4,2.7,46.8,2.7z"/>
			<path fill="#C7124C" d="M61.6,71.1c0-7.8,0-15.5,0-23.3c-3.5,0-6.9,0-10.4,0c0,7.8,0,15.5,0,23.3C54.7,71.1,58.2,71.1,61.6,71.1z
				"/>
			<path fill="#C7124C" d="M61.6,16.4c0-7.8,0-15.5,0-23.3c-3.5,0-6.9,0-10.4,0c0,7.8,0,15.5,0,23.3C54.7,16.4,58.2,16.4,61.6,16.4z
				"/>
			<path fill="#C7124C" d="M21.7,47.8c0,7.8,0,15.5,0,23.3c3.5,0,6.9,0,10.4,0c0-7.8,0-15.5,0-23.3C28.6,47.8,25.1,47.8,21.7,47.8z"
				/>
			<path fill="#C7124C" d="M36.5,61.5c0,3.2,0,6.4,0,9.6c3.5,0,6.9,0,10.4,0c0-3.2,0-6.4,0-9.6C43.4,61.5,39.9,61.5,36.5,61.5z"/>
			<path fill="#C7124C" d="M6.9-6.9v9.6h10.4v-9.6C13.8-6.9,10.3-6.9,6.9-6.9z"/>
			<path fill="#C7124C" d="M6.9,61.5c0,3.2,0,6.4,0,9.6c3.5,0,6.9,0,10.4,0c0-3.2,0-6.4,0-9.6C13.8,61.5,10.3,61.5,6.9,61.5z"/>
			<path fill="#C7124C" d="M6.9,34.1c0,7.8,0,15.5,0,23.3c3.5,0,6.9,0,10.4,0c0-7.8,0-15.5,0-23.3C13.8,34.1,10.3,34.1,6.9,34.1z"/>
			<path fill="#C7124C" d="M6.9,6.8c0,7.8,0,15.5,0,23.3c3.5,0,6.9,0,10.4,0c0-7.8,0-15.5,0-23.3C13.8,6.8,10.3,6.8,6.9,6.8z"/>
			<rect x="66.3" y="-6.9" fill="#C7124C" width="4.7" height="78"/>
		</g>
	</g>
</g>
<g id="Layer_1_1_">
</g>
</svg>
