<?xml version="1.0" encoding="iso-8859-1"?>
<!-- Generator: Adobe Illustrator 15.0.2, SVG Export Plug-In . SVG Version: 6.00 Build 0)  -->
<!DOCTYPE svg PUBLIC "-//W3C//DTD SVG 1.1//EN" "http://www.w3.org/Graphics/SVG/1.1/DTD/svg11.dtd">
<svg version="1.1" xmlns="http://www.w3.org/2000/svg" xmlns:xlink="http://www.w3.org/1999/xlink" x="0px" y="0px"
	 width="77.958px" height="64.182px" viewBox="0 0 77.958 64.182" style="enable-background:new 0 0 77.958 64.182;"
	 xml:space="preserve">
<g id="firewall">
	<g>
		<rect y="0.091" style="fill:none;" width="77.957" height="64"/>
		<g>
			<rect x="0.001" style="fill:#FFFFFF;" width="77.956" height="64.182"/>
			<path style="fill:#C7124C;" d="M13.685,34.619c7.759,0,15.517,0,23.275,0c0.001-3.459,0.001-6.917,0-10.376
				c-7.757,0-15.515,0-23.275,0C13.686,27.702,13.686,31.161,13.685,34.619z"/>
			<path style="fill:#C7124C;" d="M27.341,19.837c7.758,0,15.517,0,23.275,0c0.001-3.458,0.001-6.917,0-10.375
				c-7.757,0-15.517,0-23.275,0C27.342,12.92,27.342,16.378,27.341,19.837z"/>
			<path style="fill:#C7124C;" d="M0.001,49.398c7.759,0.004,15.517,0.004,23.275,0c0.001-3.455,0.001-6.914,0-10.375
				c-7.757,0-15.515,0-23.275,0C0.002,42.484,0.002,45.943,0.001,49.398z"/>
			<path style="fill:#C7124C;" d="M27.342,49.398c7.759,0.004,15.518,0.004,23.274,0c0.001-3.455,0.001-6.914,0-10.375
				c-7.757,0-15.516,0-23.274,0C27.342,42.484,27.342,45.943,27.342,49.398z"/>
			<path style="fill:#C7124C;" d="M41.025,34.619c7.76,0,15.518,0,23.275,0c0.002-3.459,0.002-6.917,0-10.376
				c-7.758,0-15.516,0-23.275,0C41.025,27.702,41.025,31.161,41.025,34.619z"/>
			<path style="fill:#C7124C;" d="M9.619,24.244c-3.205,0-6.412,0-9.618,0c0,3.459,0,6.917,0,10.376c3.206,0,6.413,0,9.618,0
				C9.619,31.161,9.619,27.702,9.619,24.244z"/>
			<path style="fill:#C7124C;" d="M77.957,9.461c-7.758,0-15.518,0-23.275,0c0.002,3.458,0.002,6.917,0,10.375
				c7.76,0,15.518,0,23.275,0C77.958,16.378,77.958,12.92,77.957,9.461z"/>
			<path style="fill:#C7124C;" d="M23.274,9.461c-7.757,0-15.515,0-23.274,0c0,3.458,0,6.917,0,10.375c7.759,0,15.517,0,23.274,0
				C23.275,16.378,23.275,12.92,23.274,9.461z"/>
			<path style="fill:#C7124C;" d="M54.682,49.398c7.76,0.004,15.518,0.004,23.275,0c0-3.455,0-6.914,0-10.375
				c-7.76,0-15.518,0-23.275,0C54.684,42.484,54.684,45.943,54.682,49.398z"/>
			<path style="fill:#C7124C;" d="M68.366,34.619c3.198,0,6.396,0,9.592,0c0-3.459,0-6.917,0-10.376c-3.196,0-6.394,0-9.592,0
				C68.367,27.702,68.367,31.161,68.366,34.619z"/>
			<path style="fill:#C7124C;" d="M0.001,64.182h9.617V53.807H0.001C0.001,57.265,0.001,60.721,0.001,64.182z"/>
			<path style="fill:#C7124C;" d="M68.365,64.182c3.197,0,6.394,0,9.592,0c0-3.459,0-6.917,0-10.375c-3.198,0-6.395,0-9.592,0
				C68.366,57.265,68.366,60.724,68.365,64.182z"/>
			<path style="fill:#C7124C;" d="M41.023,64.182c7.76,0,15.519,0,23.275,0c0.001-3.459,0.001-6.917,0-10.375
				c-7.757,0-15.517,0-23.275,0C41.025,57.265,41.025,60.724,41.023,64.182z"/>
			<path style="fill:#C7124C;" d="M13.684,64.182c7.759,0,15.517,0,23.275,0c0-3.459,0-6.917,0-10.375c-7.758,0-15.516,0-23.275,0
				C13.684,57.265,13.684,60.724,13.684,64.182z"/>
			<rect x="0.001" style="fill:#C7124C;" width="77.957" height="4.73"/>
		</g>
	</g>
</g>
<g id="Layer_1">
</g>
</svg>
