<?xml version="1.0" encoding="iso-8859-1"?>
<!-- Generator: Adobe Illustrator 15.0.2, SVG Export Plug-In . SVG Version: 6.00 Build 0)  -->
<!DOCTYPE svg PUBLIC "-//W3C//DTD SVG 1.1//EN" "http://www.w3.org/Graphics/SVG/1.1/DTD/svg11.dtd">
<svg version="1.1" xmlns="http://www.w3.org/2000/svg" xmlns:xlink="http://www.w3.org/1999/xlink" x="0px" y="0px"
	 width="77.957px" height="77.957px" viewBox="0 0 77.957 77.957" style="enable-background:new 0 0 77.957 77.957;"
	 xml:space="preserve">
<g id="hq">
	<g>
		<rect style="fill:none;" width="77.957" height="77.957"/>
		<g>
			<path style="fill:#3EA1DA;" d="M54.545,48.7V19.116H51.48v-3.042v-0.095h-0.015c-0.163-0.613-1.888-1.158-4.514-1.523
				c0.879,1.427,1.394,3.101,1.394,4.897c0,1.504-0.363,2.92-0.992,4.18H30.606c-0.63-1.259-0.993-2.676-0.993-4.18
				c0-1.798,0.516-3.472,1.394-4.897c-2.626,0.366-4.351,0.91-4.514,1.523h-0.014v0.095v3.042h-3.064V48.7
				c1.245,0.808,2.054,2.271,2.054,4.032c0,1.36-0.367,2.548-1.122,3.629l-0.013,0.021l-0.037,0.047
				c-0.122,0.156-0.223,0.294-0.301,0.404c0.365,0.188,1.011,0.425,1.363,0.554c0.056,0.02,0.1,0.044,0.154,0.063
				c0.137-3.29,2.448-5.741,5.51-5.741c3.156,0,5.535,2.598,5.535,6.042c0,1.747-0.471,3.271-1.441,4.658l-0.016,0.027L35.054,62.5
				c-0.156,0.198-0.287,0.377-0.387,0.519c0.469,0.242,1.298,0.545,1.751,0.711c0.659,0.241,1.22,0.512,1.731,0.798h1.658
				c0.511-0.286,1.071-0.558,1.731-0.798c0.452-0.166,1.282-0.469,1.751-0.711c-0.1-0.142-0.23-0.319-0.387-0.519l-0.047-0.062
				l-0.017-0.027c-0.969-1.388-1.44-2.911-1.44-4.658c0-3.445,2.379-6.042,5.535-6.042c3.062,0,5.373,2.45,5.51,5.741
				c0.055-0.021,0.1-0.044,0.154-0.063c0.353-0.129,0.998-0.365,1.363-0.554c-0.078-0.11-0.179-0.248-0.301-0.404l-0.037-0.047
				l-0.014-0.021c-0.754-1.081-1.121-2.268-1.121-3.629C52.488,50.971,53.298,49.508,54.545,48.7z"/>
			<g>
				<polygon style="fill:#FFFFFF;" points="26.367,42.887 38.202,42.887 38.202,49.939 26.367,49.939 				"/>
				<polygon style="fill:#FFFFFF;" points="26.367,33.157 38.202,33.157 38.202,40.211 26.367,40.211 				"/>
				<polygon style="fill:#FFFFFF;" points="26.367,23.533 38.202,23.533 38.202,30.589 26.367,30.589 				"/>
				<polygon style="fill:#FFFFFF;" points="51.591,42.887 51.591,49.939 39.755,49.939 39.755,42.887 				"/>
				<polygon style="fill:#FFFFFF;" points="39.755,30.589 39.755,23.533 51.591,23.533 51.591,30.589 				"/>
				<polygon style="fill:#FFFFFF;" points="51.591,33.157 51.591,40.211 39.755,40.211 39.755,33.157 				"/>
			</g>
			<path style="fill:#213164;" d="M63.086,59.819c-0.598-0.781-1.682-1.28-2.441-1.537c-1.112-0.388-1.971-0.741-2.084-1.171
				c-0.039-0.142-0.051-0.274,0.019-0.388c0.771-1.24,1.569-1.954,1.569-3.99c0-2.165-1.401-3.744-3.35-3.744
				c-1.865,0-3.349,1.555-3.349,3.744c0,1.381,0.442,2.36,0.964,3.103c0.001,0.002,0.511,0.647,0.602,0.889
				c0.047,0.123,0.059,0.245,0.021,0.388c-0.115,0.432-0.99,0.771-2.106,1.18c-0.088,0.03-0.269,0.098-0.49,0.19
				c-0.15,2.032-0.91,3.166-1.651,4.258c-0.065,0.099-0.132,0.195-0.199,0.297c0.286,0.147,0.794,0.362,1.679,0.673
				c0.953,0.319,2.705,1.059,3.724,2.396c0.536,0.706,0.809,1.483,0.809,2.312v0.05c2.357,0,4.618-0.199,6.722-0.562v-6.201v-0.666
				C63.52,60.572,63.352,60.168,63.086,59.819z"/>
			<path style="fill:#213164;" d="M55.008,66.852c-0.766-1.006-2.16-1.646-3.135-1.975c-1.43-0.499-2.531-0.955-2.678-1.503
				c-0.049-0.185-0.064-0.355,0.025-0.498c0.989-1.595,2.014-2.511,2.014-5.124c0-2.781-1.799-4.81-4.301-4.81
				c-2.396,0-4.303,1.995-4.303,4.81c0,1.771,0.568,3.029,1.239,3.98c0.001,0.002,0.655,0.833,0.772,1.144
				c0.061,0.156,0.074,0.313,0.025,0.498c-0.146,0.552-1.271,0.986-2.707,1.513c-0.273,0.1-1.22,0.444-2.066,1.017
				c0.062,0.073,0.142,0.144,0.197,0.219c0.527,0.718,0.795,1.488,0.795,2.294v0.854v7.966v0.364
				c1.94,0.229,3.961,0.356,6.045,0.356c3.027,0,5.932-0.257,8.631-0.721v-7.966v-0.854C55.566,67.818,55.35,67.3,55.008,66.852z"/>
			<path style="fill:#213164;" d="M31.024,52.943c-2.502,0-4.302,2.028-4.302,4.81c0,2.613,1.025,3.53,2.015,5.124
				c0.089,0.143,0.074,0.313,0.025,0.498c-0.146,0.549-1.249,1.005-2.678,1.503c-0.975,0.328-2.368,0.968-3.135,1.974
				c-0.34,0.448-0.557,0.967-0.557,1.564v0.854v7.966c2.7,0.464,5.604,0.721,8.631,0.721s5.931-0.257,8.631-0.721V69.27v-0.854
				c0-0.599-0.223-1.111-0.555-1.564c-0.853-1.161-2.704-1.818-3.104-1.964c-1.435-0.525-2.559-0.961-2.707-1.513
				c-0.049-0.185-0.035-0.343,0.025-0.498c0.117-0.311,0.772-1.142,0.773-1.144c0.671-0.951,1.239-2.209,1.239-3.98
				C35.325,54.938,33.419,52.943,31.024,52.943"/>
			<path style="fill:#213164;" d="M71.826,55.112c-0.598-0.781-1.682-1.28-2.441-1.536c-1.113-0.389-1.971-0.742-2.085-1.172
				c-0.038-0.142-0.05-0.274,0.019-0.388c0.771-1.24,1.57-1.954,1.57-3.99c0-2.165-1.402-3.743-3.35-3.743
				c-1.865,0-3.35,1.554-3.35,3.743c0,1.38,0.442,2.36,0.965,3.103c0.002,0.002,0.512,0.647,0.603,0.889
				c0.048,0.123,0.058,0.245,0.021,0.388c-0.115,0.432-0.99,0.771-2.108,1.18c-0.106,0.039-0.351,0.129-0.647,0.261
				c-0.197,1.25-0.713,2.026-1.222,2.773c-0.051,0.073-0.103,0.15-0.155,0.229c0.224,0.116,0.619,0.284,1.308,0.524
				c0.741,0.25,2.106,0.823,2.899,1.864c0.418,0.551,0.629,1.155,0.629,1.802v0.665v2.033c0.353,0.011,0.703,0.022,1.06,0.022
				c2.356,0,4.618-0.199,6.722-0.562v-6.201V56.33C72.26,55.865,72.092,55.462,71.826,55.112z"/>
			<path style="fill:#213164;" d="M13.478,61.704v-0.666c0-0.646,0.212-1.25,0.63-1.802c0.793-1.041,2.157-1.614,2.899-1.864
				c0.69-0.241,1.085-0.408,1.307-0.524c-0.052-0.078-0.104-0.154-0.155-0.229c-0.508-0.748-1.024-1.524-1.222-2.773
				c-0.296-0.132-0.54-0.222-0.647-0.261c-1.117-0.409-1.993-0.748-2.107-1.18c-0.038-0.143-0.027-0.265,0.02-0.388
				c0.091-0.24,0.601-0.888,0.602-0.889c0.522-0.741,0.965-1.721,0.965-3.103c0-2.189-1.484-3.743-3.349-3.743
				c-1.948,0-3.349,1.578-3.349,3.743c0,2.036,0.798,2.75,1.569,3.99c0.069,0.112,0.058,0.245,0.019,0.388
				c-0.114,0.429-0.972,0.782-2.085,1.173c-0.759,0.256-1.844,0.754-2.441,1.535c-0.265,0.35-0.434,0.753-0.434,1.22v0.666v6.201
				c2.103,0.361,4.363,0.562,6.721,0.562c0.357,0,0.707-0.013,1.059-0.022v-2.034H13.478L13.478,61.704z"/>
			<path style="fill:#213164;" d="M21.159,68.416c0-0.828,0.272-1.606,0.809-2.312c1.018-1.337,2.77-2.075,3.723-2.396
				c0.886-0.311,1.393-0.524,1.679-0.675c-0.067-0.1-0.133-0.196-0.199-0.295c-0.742-1.092-1.501-2.226-1.651-4.258
				c-0.222-0.094-0.403-0.16-0.49-0.19c-1.117-0.409-1.993-0.748-2.107-1.18c-0.038-0.143-0.027-0.265,0.02-0.388
				c0.091-0.24,0.601-0.888,0.602-0.889c0.522-0.741,0.965-1.722,0.965-3.103c0-2.189-1.485-3.744-3.35-3.744
				c-1.948,0-3.349,1.579-3.349,3.744c0,2.036,0.798,2.75,1.569,3.99c0.069,0.112,0.058,0.245,0.019,0.388
				c-0.114,0.429-0.972,0.782-2.085,1.171c-0.759,0.257-1.844,0.754-2.441,1.537c-0.265,0.351-0.434,0.753-0.434,1.218v0.666v6.203
				c2.103,0.361,4.364,0.562,6.721,0.562L21.159,68.416L21.159,68.416z"/>
			<path style="fill:#3EA1DA;" d="M38.979,9.986c0.145,0,0.287,0.017,0.43,0.022V6.421c0.565,0.188,1.526,0.598,1.827,1.284
				c0.556,1.271,1.785,1.817,3.3,1.817c1.601,0,2.228,0.849,2.228,0.849s0.12-1.236-0.142-1.963
				c-0.535-1.48,0.782-4.401,0.782-4.401c-1.098,0.578-4.151-0.433-5.264-2.419c-0.527-0.94-1.807-0.975-2.731-1.035v-0.29
				c-0.001,0.008-0.002,0.016-0.003,0.023c0,0.007-0.002,0.01-0.003,0.016c-0.002,0-0.002,0.003-0.002,0.006
				c0,0-0.001,0.003-0.002,0.004c-0.003,0.009-0.007,0.02-0.012,0.027c-0.001,0.001-0.002,0.003-0.003,0.004
				c0.057-0.095,0.015-0.204-0.122-0.275c-0.184-0.097-0.468-0.089-0.635,0.019c-0.081,0.051-0.116,0.114-0.113,0.18
				c0-0.002-0.005-0.004-0.005-0.006v9.752C38.666,10.003,38.82,9.986,38.979,9.986z M39.292,0.433
				c0.041-0.026,0.07-0.055,0.089-0.086c-0.001,0.002-0.003,0.006-0.004,0.008c-0.003,0.003-0.004,0.007-0.008,0.01
				c-0.007,0.012-0.015,0.021-0.025,0.028l-0.002,0.001C39.328,0.407,39.312,0.421,39.292,0.433L39.292,0.433
				c-0.021,0.013-0.042,0.023-0.064,0.034c-0.007,0.002-0.015,0.005-0.022,0.008c-0.012,0.004-0.025,0.009-0.038,0.013
				c-0.004,0.001-0.007,0.001-0.011,0.004c-0.013,0.003-0.025,0.009-0.039,0.011c-0.01,0.001-0.019,0.005-0.029,0.007
				c-0.006,0-0.01,0.001-0.015,0.001c-0.007,0.001-0.012,0.003-0.019,0.003c-0.007,0.001-0.014,0.003-0.023,0.003
				C39.016,0.518,39,0.519,38.983,0.519h-0.001h-0.001C39.096,0.514,39.209,0.485,39.292,0.433z M38.98,0.517
				c-0.001,0-0.002,0-0.003,0c-0.013,0-0.026,0.001-0.039,0c-0.014,0-0.028-0.001-0.043-0.002h-0.001
				c-0.015-0.001-0.03-0.003-0.043-0.005c-0.013-0.002-0.025-0.004-0.038-0.007c-0.001,0-0.002,0-0.002,0
				c-0.002,0-0.003-0.001-0.003-0.001c-0.017-0.003-0.033-0.007-0.048-0.013c-0.007-0.002-0.012-0.005-0.018-0.007
				c-0.007-0.002-0.013-0.004-0.019-0.006c-0.006-0.002-0.012-0.003-0.017-0.006c-0.016-0.006-0.033-0.014-0.049-0.023
				C38.749,0.498,38.866,0.52,38.98,0.517z"/>
			<g>
				<circle style="fill:#FFFFFF;" cx="38.979" cy="19.404" r="11"/>
				<circle style="fill:#213164;" cx="38.979" cy="19.345" r="9.447"/>
				<path style="fill:#FFFFFF;" d="M36.906,23.48v-3.583h-2.764v3.583h-1.595V14.92h1.595v3.498h2.764V14.92h1.598v8.561H36.906z"/>
				<path style="fill:#FFFFFF;" d="M44.574,23.845l-0.725-0.759c-0.457,0.312-1.008,0.467-1.65,0.467
					c-0.93,0-1.641-0.332-2.214-0.934c-0.827-0.871-0.805-1.941-0.805-3.422c0-1.478-0.022-2.547,0.805-3.417
					c0.573-0.596,1.283-0.935,2.214-0.935c0.929,0,1.629,0.34,2.202,0.935c0.827,0.87,0.815,1.939,0.815,3.417
					c0,1.293,0.013,2.242-0.506,3.033l0.701,0.734L44.574,23.845z M43.219,16.796c-0.23-0.277-0.586-0.46-1.021-0.46
					s-0.803,0.182-1.033,0.46c-0.309,0.358-0.389,0.758-0.389,2.401c0,1.649,0.08,2.049,0.389,2.406
					c0.23,0.278,0.598,0.462,1.033,0.462c0.197,0,0.38-0.048,0.529-0.156l-0.711-0.736l0.849-0.876l0.607,0.636
					c0.125-0.371,0.148-0.864,0.148-1.735C43.621,17.554,43.53,17.154,43.219,16.796z"/>
			</g>
		</g>
	</g>
</g>
<g id="Layer_1">
</g>
</svg>
