<?xml version="1.0" encoding="iso-8859-1"?>
<!-- Generator: Adobe Illustrator 15.0.2, SVG Export Plug-In . SVG Version: 6.00 Build 0)  -->
<!DOCTYPE svg PUBLIC "-//W3C//DTD SVG 1.1//EN" "http://www.w3.org/Graphics/SVG/1.1/DTD/svg11.dtd">
<svg version="1.1" xmlns="http://www.w3.org/2000/svg" xmlns:xlink="http://www.w3.org/1999/xlink" x="0px" y="0px"
	 width="32.057px" height="32px" viewBox="0 0 32.057 32" style="enable-background:new 0 0 32.057 32;" xml:space="preserve">
<g id="hqSmall">
	<g>
		<path style="fill:#3EA1DA;" d="M32,32v-4.5l-2.482-0.875V4.472h-2.662V1.83V1.747h-0.012C26.585,0.775,21.831,0,16,0
			C10.17,0,5.414,0.775,5.154,1.747H5.143V1.83v2.642H2.481v22.153L0,27.5V32H32z"/>
		<g>
			<circle style="fill:#FFFFFF;" cx="16.009" cy="16.091" r="12"/>
			<circle style="fill:#213164;" cx="16.009" cy="16.091" r="10.307"/>
			<g>
				<path style="fill:#FFFFFF;" d="M13.748,20.602v-3.908h-3.016v3.908h-1.74v-9.337h1.74v3.817h3.016v-3.817h1.743v9.337H13.748z"
					/>
				<path style="fill:#FFFFFF;" d="M22.112,20.999l-0.789-0.827c-0.501,0.34-1.102,0.512-1.803,0.512
					c-1.012,0-1.788-0.365-2.414-1.021c-0.903-0.948-0.877-2.115-0.877-3.73c0-1.616-0.025-2.781,0.877-3.728
					c0.628-0.652,1.402-1.023,2.414-1.023c1.015,0,1.781,0.37,2.402,1.023c0.902,0.947,0.89,2.112,0.89,3.728
					c0,1.406,0.013,2.444-0.551,3.306l0.768,0.802L22.112,20.999z M20.633,13.31c-0.248-0.302-0.635-0.5-1.113-0.5
					c-0.475,0-0.875,0.199-1.127,0.5c-0.339,0.394-0.423,0.827-0.423,2.623c0,1.798,0.084,2.233,0.423,2.625
					c0.249,0.303,0.652,0.5,1.127,0.5c0.215,0,0.413-0.051,0.578-0.172l-0.776-0.801l0.927-0.958l0.663,0.696
					c0.137-0.406,0.163-0.944,0.163-1.891C21.073,14.136,20.975,13.704,20.633,13.31z"/>
			</g>
		</g>
		<rect x="0.057" style="fill:none;" width="32" height="32"/>
	</g>
</g>
<g id="Layer_1">
</g>
</svg>
