<?xml version="1.0" encoding="iso-8859-1"?>
<!-- Generator: Adobe Illustrator 15.0.2, SVG Export Plug-In . SVG Version: 6.00 Build 0)  -->
<!DOCTYPE svg PUBLIC "-//W3C//DTD SVG 1.1//EN" "http://www.w3.org/Graphics/SVG/1.1/DTD/svg11.dtd">
<svg version="1.1" xmlns="http://www.w3.org/2000/svg" xmlns:xlink="http://www.w3.org/1999/xlink" x="0px" y="0px"
	 width="77.958px" height="77.957px" viewBox="0 0 77.958 77.957" style="enable-background:new 0 0 77.958 77.957;"
	 xml:space="preserve">
<g id="ilec">
	<g>
		<rect style="fill:none;" width="77.958" height="77.957"/>
		<g>
			<polygon style="fill:#9A9A9A;" points="41.926,15.786 41.926,32.714 38.263,32.714 38.263,29.404 17.963,29.404 17.963,32.714 
				11.355,32.714 11.355,77.957 41.926,77.957 55.582,77.957 66.604,77.957 66.604,15.786 			"/>
			<circle style="fill:#FFFFFF;" cx="54.164" cy="12.438" r="12.438"/>
			<circle style="fill:#6B6B6B;" cx="54.164" cy="12.438" r="11.003"/>
			<g>
				<path style="fill:#FFFFFF;" d="M45.213,16.208v-7.54h1.054v7.54H45.213z"/>
				<path style="fill:#FFFFFF;" d="M47.691,16.208v-7.54h1.053v6.513h3.349v1.027H47.691z"/>
				<path style="fill:#FFFFFF;" d="M52.9,16.208v-7.54h4.44v1.027h-3.388v2.203h2.89v1.017h-2.89v2.266h3.388v1.027H52.9z"/>
				<path style="fill:#FFFFFF;" d="M60.638,16.272c-0.722,0-1.347-0.286-1.825-0.805c-0.682-0.741-0.673-1.578-0.673-3.028
					c0-1.451-0.009-2.288,0.673-3.029c0.479-0.519,1.104-0.805,1.825-0.805c1.279,0,2.235,0.815,2.479,2.319h-1.074
					c-0.165-0.763-0.635-1.292-1.405-1.292c-0.409,0-0.78,0.169-1.024,0.455c-0.342,0.402-0.42,0.836-0.42,2.351
					c0,1.514,0.08,1.948,0.42,2.351c0.244,0.286,0.615,0.455,1.024,0.455c0.771,0,1.249-0.529,1.415-1.292h1.064
					C62.883,15.456,61.896,16.272,60.638,16.272z"/>
			</g>
			<rect x="17.855" y="59.637" style="fill:#FFFFFF;" width="8.559" height="7.713"/>
			<rect x="17.855" y="49.29" style="fill:#FFFFFF;" width="8.559" height="7.712"/>
			<rect x="17.855" y="38.944" style="fill:#FFFFFF;" width="8.559" height="7.711"/>
			<rect x="29.141" y="59.637" style="fill:#FFFFFF;" width="8.566" height="7.713"/>
			<rect x="29.141" y="49.29" style="fill:#FFFFFF;" width="8.566" height="7.712"/>
			<rect x="29.141" y="38.944" style="fill:#FFFFFF;" width="8.566" height="7.711"/>
			<polygon style="fill:#FFFFFF;" points="48.992,67.35 41.926,67.35 40.434,67.35 40.434,59.637 41.926,59.637 48.992,59.637 			
				"/>
			<polygon style="fill:#FFFFFF;" points="48.992,57.002 41.926,57.002 40.434,57.002 40.434,49.29 41.926,49.29 48.992,49.29 			
				"/>
			<polygon style="fill:#FFFFFF;" points="48.992,46.654 41.926,46.654 40.434,46.654 40.434,38.944 41.926,38.944 48.992,38.944 
							"/>
			<rect x="56.675" y="66.626" style="fill:#FFFFFF;" width="5.424" height="5.997"/>
			<rect x="56.675" y="57.398" style="fill:#FFFFFF;" width="5.424" height="5.998"/>
			<rect x="56.675" y="48.17" style="fill:#FFFFFF;" width="5.424" height="5.998"/>
			<rect x="56.675" y="38.942" style="fill:#FFFFFF;" width="5.424" height="5.998"/>
			<rect x="56.675" y="29.714" style="fill:#FFFFFF;" width="5.424" height="5.998"/>
		</g>
	</g>
</g>
<g id="Layer_1">
</g>
</svg>
