<?xml version="1.0" encoding="iso-8859-1"?>
<!-- Generator: Adobe Illustrator 15.0.2, SVG Export Plug-In . SVG Version: 6.00 Build 0)  -->
<!DOCTYPE svg PUBLIC "-//W3C//DTD SVG 1.1//EN" "http://www.w3.org/Graphics/SVG/1.1/DTD/svg11.dtd">
<svg version="1.1" xmlns="http://www.w3.org/2000/svg" xmlns:xlink="http://www.w3.org/1999/xlink" x="0px" y="0px"
	 width="77.958px" height="77.957px" viewBox="0 0 77.958 77.957" style="enable-background:new 0 0 77.958 77.957;"
	 xml:space="preserve">
<g id="image">
	<g>
		<rect style="fill:none;" width="77.958" height="77.957"/>
		<g>
			<path style="fill:#3EA1DA;" d="M75.703,4.79H2.259C1.012,4.79,0,5.806,0,7.049v63.863c0,1.242,1.014,2.253,2.259,2.253h73.444
				c1.242,0,2.254-1.01,2.254-2.253V7.05C77.957,5.806,76.945,4.79,75.703,4.79L75.703,4.79z"/>
			<path style="fill:#213164;" d="M4.834,7.555h68.288c1.097,0,1.985,0.89,1.985,1.984v53.723c0,1.094-0.892,1.984-1.985,1.984
				H4.834c-1.096,0-1.983-0.891-1.983-1.984V9.54C2.85,8.445,3.739,7.555,4.834,7.555L4.834,7.555z"/>
			<path style="fill:#FFFFFF;" d="M71.139,49.307V11.525H6.82v27.456l0.59-0.431c1.874-1.375,4.439-1.337,6.26,0.1l26.705,13.417
				c1.738,1.364,4.136,1.474,6.004,0.269l12.906-8.267c1.935-1.233,4.424-1.074,6.156,0.399L71.139,49.307L71.139,49.307z"/>
			<circle style="fill:#2A427C;" cx="53.572" cy="26.972" r="10.176"/>
		</g>
	</g>
</g>
<g id="Layer_1">
</g>
</svg>
