<?xml version="1.0" encoding="iso-8859-1"?>
<!-- Generator: Adobe Illustrator 15.0.2, SVG Export Plug-In . SVG Version: 6.00 Build 0)  -->
<!DOCTYPE svg PUBLIC "-//W3C//DTD SVG 1.1//EN" "http://www.w3.org/Graphics/SVG/1.1/DTD/svg11.dtd">
<svg version="1.1" xmlns="http://www.w3.org/2000/svg" xmlns:xlink="http://www.w3.org/1999/xlink" x="0px" y="0px"
	 width="77.958px" height="77.957px" viewBox="0 0 77.958 77.957" style="enable-background:new 0 0 77.958 77.957;"
	 xml:space="preserve">
<g id="ipPhone">
	<g>
		<rect style="fill:none;" width="77.957" height="77.957"/>
		<g>
			<path style="fill:#213164;" d="M21.147,9.97c-5.59,0-10.118,4.533-10.118,10.122v45.619c0,5.594,4.528,10.118,10.118,10.118
				c5.585,0,10.115-4.524,10.115-10.118V20.092C31.263,14.503,26.732,9.97,21.147,9.97z"/>
			<path style="fill:#FFFFFF;" d="M21.231,72.594c-3.548,0-6.428-2.875-6.428-6.43V19.216c0-2.175,1.088-4.099,2.745-5.26v50.673
				c0,3.613,2.408,6.663,5.707,7.631C22.619,72.473,21.942,72.594,21.231,72.594z"/>
			<path style="fill:#213164;" d="M8.591,16.67H2.132c-1.176,0-2.131,0.958-2.131,2.142v49.694c0,1.176,0.955,2.139,2.131,2.139
				h6.459V16.67z"/>
			<path style="fill:#213164;" d="M75.812,16.67H34.486v53.975h41.326c1.18,0,2.146-0.963,2.146-2.139V18.812
				C77.957,17.628,76.991,16.67,75.812,16.67z"/>
			<rect x="42.57" y="22.604" style="fill:#FFFFFF;" width="27.517" height="7.009"/>
			<g>
				<circle style="fill:#FFFFFF;" cx="66.579" cy="41.199" r="3.506"/>
				<path style="fill:#FFFFFF;" d="M70.086,50.23c0,1.941-1.572,3.509-3.508,3.509s-3.509-1.567-3.509-3.509
					c0-1.936,1.573-3.5,3.509-3.5S70.086,48.295,70.086,50.23z"/>
				<circle style="fill:#FFFFFF;" cx="46.346" cy="59.27" r="3.508"/>
				<path style="fill:#FFFFFF;" d="M46.346,53.739c-1.936,0-3.506-1.567-3.506-3.509c0-1.936,1.57-3.5,3.506-3.5
					c1.935,0,3.507,1.564,3.507,3.5C49.853,52.172,48.28,53.739,46.346,53.739z"/>
				<circle style="fill:#FFFFFF;" cx="46.346" cy="41.199" r="3.506"/>
				<circle style="fill:#FFFFFF;" cx="56.462" cy="59.27" r="3.508"/>
				<path style="fill:#FFFFFF;" d="M56.462,53.739c-1.937,0-3.508-1.567-3.508-3.509c0-1.936,1.571-3.5,3.508-3.5
					c1.935,0,3.505,1.564,3.505,3.5C59.967,52.172,58.396,53.739,56.462,53.739z"/>
				<path style="fill:#FFFFFF;" d="M56.462,44.705c-1.937,0-3.508-1.572-3.508-3.508c0-1.936,1.571-3.504,3.508-3.504
					c1.935,0,3.505,1.568,3.505,3.504C59.967,43.133,58.396,44.705,56.462,44.705z"/>
				<circle style="fill:#FFFFFF;" cx="66.578" cy="59.27" r="3.508"/>
			</g>
			<path style="fill:#213164;" d="M72.884,13.385V3.787c0-0.912-0.745-1.659-1.655-1.659H53.258c-0.916,0-1.657,0.747-1.657,1.659
				v11.257h21.283h1.655C73.629,15.043,72.884,14.296,72.884,13.385z"/>
			<g>
				<path style="fill:#FFFFFF;" d="M58.16,13.257V4.271h1.363v8.986H58.16z"/>
				<path style="fill:#FFFFFF;" d="M64.271,9.723h-2.045v3.534h-1.363V4.271h3.408c1.754,0,2.878,1.161,2.878,2.726
					C67.148,8.561,66.025,9.723,64.271,9.723z M64.195,5.495h-1.969v2.992h1.969c0.946,0,1.592-0.543,1.592-1.489
					C65.785,6.05,65.142,5.495,64.195,5.495z"/>
			</g>
		</g>
	</g>
</g>
<g id="Layer_1">
</g>
</svg>
