<?xml version="1.0" encoding="iso-8859-1"?>
<!-- Generator: Adobe Illustrator 15.0.2, SVG Export Plug-In . SVG Version: 6.00 Build 0)  -->
<!DOCTYPE svg PUBLIC "-//W3C//DTD SVG 1.1//EN" "http://www.w3.org/Graphics/SVG/1.1/DTD/svg11.dtd">
<svg version="1.1" xmlns="http://www.w3.org/2000/svg" xmlns:xlink="http://www.w3.org/1999/xlink" x="0px" y="0px" width="77.96px"
	 height="77.957px" viewBox="0 0 77.96 77.957" style="enable-background:new 0 0 77.96 77.957;" xml:space="preserve">
<g id="lanRouter">
	<g>
		<rect style="fill:none;" width="77.957" height="77.957"/>
		<path style="fill:#213164;" d="M74.061,42.036l-1.077-17.944H71.51V11.087h-3.771v13.005h-1.484l-1.063,17.923H54.865v-0.844
			c0-0.939-0.913-1.675-2.08-1.675H25.174c-1.167,0-2.08,0.735-2.08,1.675v0.844H12.769l-1.076-17.923h-1.472V11.087H6.449v13.005
			H4.966L3.9,42.037c-2.17,0.109-3.897,1.889-3.897,4.083v16.647c0,2.266,1.836,4.104,4.105,4.104h69.751
			c2.265,0,4.101-1.838,4.101-4.104V46.12C77.957,43.923,76.229,42.145,74.061,42.036z"/>
		<path style="fill:#FFFFFF;" d="M12.313,50.199c-0.008,0.004-0.018,0.009-0.029,0.009H7.175c-0.011,0-0.021-0.004-0.029-0.009
			V46.95c0.008-0.004,0.018-0.009,0.029-0.009h5.109c0.011,0,0.021,0.005,0.029,0.009V50.199z"/>
		<path style="fill:#FFFFFF;" d="M20.972,49.864c-0.008,0.004-0.018,0.008-0.029,0.008h-5.109c-0.011,0-0.021-0.004-0.029-0.008
			v-2.915c0.008-0.004,0.018-0.008,0.029-0.008h5.109c0.011,0,0.021,0.004,0.029,0.008V49.864z"/>
		<circle style="fill:#FFFFFF;" cx="50.995" cy="58.957" r="3.075"/>
		<circle style="fill:#FFFFFF;" cx="59.371" cy="58.957" r="3.075"/>
		<circle style="fill:#FFFFFF;" cx="67.746" cy="58.957" r="3.075"/>
	</g>
</g>
<g id="Layer_1">
</g>
</svg>
