<?xml version="1.0" encoding="utf-8"?>
<!-- Generator: Adobe Illustrator 18.0.0, SVG Export Plug-In . SVG Version: 6.00 Build 0)  -->
<!DOCTYPE svg PUBLIC "-//W3C//DTD SVG 1.1//EN" "http://www.w3.org/Graphics/SVG/1.1/DTD/svg11.dtd">
<svg version="1.1" id="Layer_1" xmlns="http://www.w3.org/2000/svg" xmlns:xlink="http://www.w3.org/1999/xlink" x="0px" y="0px"
	 viewBox="0 0 78 78" enable-background="new 0 0 78 78" xml:space="preserve">
<g id="lanRouter">
	<g>
		<rect x="0" y="0" fill="none" width="78" height="78"/>
		<path fill="#213164" d="M35.9,74.1L53.9,73v-1.5h13v-3.8h-13v-1.5l-17.9-1.1V54.9h0.8c0.9,0,1.7-0.9,1.7-2.1V25.2
			c0-1.2-0.7-2.1-1.7-2.1h-0.8V12.8l17.9-1.1v-1.5h13V6.4h-13V5L35.9,3.9C35.8,1.7,34,0,31.8,0H15.2c-2.3,0-4.1,1.8-4.1,4.1v69.8
			c0,2.3,1.8,4.1,4.1,4.1h16.6C34,78,35.8,76.2,35.9,74.1z"/>
		<path fill="#FFFFFF" d="M27.8,12.3C27.8,12.3,27.8,12.3,27.8,12.3l0-5.1c0,0,0,0,0,0H31c0,0,0,0,0,0v5.1c0,0,0,0,0,0
			C31,12.3,27.8,12.3,27.8,12.3z"/>
		<path fill="#FFFFFF" d="M28.1,21C28.1,21,28.1,21,28.1,21l0-5.1c0,0,0,0,0,0H31c0,0,0,0,0,0v5.1c0,0,0,0,0,0H28.1z"/>
		<circle fill="#FFFFFF" cx="19" cy="51" r="3.1"/>
		<circle fill="#FFFFFF" cx="19" cy="59.4" r="3.1"/>
		<circle fill="#FFFFFF" cx="19" cy="67.7" r="3.1"/>
	</g>
</g>
<g id="Layer_1_1_">
</g>
</svg>
