<?xml version="1.0" encoding="iso-8859-1"?>
<!-- Generator: Adobe Illustrator 15.0.2, SVG Export Plug-In . SVG Version: 6.00 Build 0)  -->
<!DOCTYPE svg PUBLIC "-//W3C//DTD SVG 1.1//EN" "http://www.w3.org/Graphics/SVG/1.1/DTD/svg11.dtd">
<svg version="1.1" xmlns="http://www.w3.org/2000/svg" xmlns:xlink="http://www.w3.org/1999/xlink" x="0px" y="0px" width="80px"
	 height="30px" viewBox="0 0 80 30" style="enable-background:new 0 0 80 30;" xml:space="preserve">
<g id="level3Logo">
	<g>
		<rect style="fill:none;" width="80" height="30"/>
		<g>
			<path style="fill:#EE3B29;" d="M70.945,6.281c1.214,0.552,5.727,3.285,5.727,9.723c0,1.809-0.615,6.526-5.727,9.282V24.67
				c2.139-1.302,3.242-2.867,3.242-8.864c0-6.724-1.412-7.695-3.242-8.929V6.281z"/>
			<path style="fill:#020303;" d="M77.837,10.391c-0.671,0-1.147-0.502-1.147-1.165c0-0.702,0.529-1.166,1.147-1.166
				c0.611,0,1.142,0.465,1.142,1.166C78.979,9.928,78.448,10.391,77.837,10.391 M77.837,8.262c-0.507,0-0.899,0.396-0.899,0.963
				c0,0.53,0.344,0.963,0.899,0.963c0.498,0,0.892-0.392,0.892-0.963C78.729,8.658,78.335,8.262,77.837,8.262 M77.605,9.892h-0.211
				V8.601h0.488c0.312,0,0.471,0.109,0.471,0.371c0,0.233-0.143,0.33-0.336,0.352l0.361,0.568h-0.24L77.807,9.34h-0.201V9.892z
				 M77.842,9.16c0.159,0,0.299-0.016,0.299-0.203c0-0.156-0.151-0.175-0.281-0.175h-0.254V9.16H77.842z"/>
			<path style="fill:#020303;" d="M64.904,14.387h0.468c0.853,0,2.414-0.081,2.414-1.951c0-0.528-0.244-1.848-1.806-1.848
				c-1.946,0-1.946,1.848-1.946,2.356h-2.646c0-2.702,1.525-4.63,4.774-4.63c1.926,0,4.458,0.975,4.458,4.02
				c0,1.463-0.911,2.378-1.73,2.744v0.04c0.51,0.142,2.174,0.896,2.174,3.345c0,2.711-2.012,4.639-4.916,4.639
				c-1.362,0-5.018-0.305-5.018-4.801h2.782l-0.021,0.021c0,0.769,0.203,2.507,2.113,2.507c1.137,0,2.135-0.77,2.135-2.367
				c0-1.961-1.912-2.041-3.235-2.041L64.904,14.387L64.904,14.387z"/>
			<path style="fill:#EE3B29;" d="M61.3,6.877c-1.829,1.235-3.241,2.204-3.241,8.929c0,5.997,1.103,7.562,3.241,8.864v0.617
				c-5.108-2.757-5.725-7.475-5.725-9.283c0-6.438,4.512-9.172,5.725-9.722V6.877z"/>
			<rect x="48.615" y="8.234" style="fill:#020303;" width="4.205" height="14.611"/>
			<path style="fill:#020303;" d="M39.763,16.357c0-1.138,0.709-1.849,1.967-1.849c0.996,0,1.867,0.873,1.867,1.849H39.763z
				 M47.818,18.496c0.061-3.846-2.313-6.563-6.25-6.563c-3.404,0-6.013,2.23-6.013,5.716c0,3.536,2.629,5.485,6.033,5.485
				c2.475,0,5.154-0.873,5.885-3.512h-4.039c-0.304,0.639-0.912,0.941-1.582,0.941c-1.116,0-2.089-0.823-2.089-2.067L47.818,18.496
				L47.818,18.496z"/>
			<polygon style="fill:#020303;" points="24.196,12.223 28.416,12.223 30.283,18.93 32.13,12.223 36.189,12.223 32.597,22.848 
				27.889,22.848 			"/>
			<path style="fill:#020303;" d="M16.963,16.357c0-1.138,0.711-1.849,1.969-1.849c0.994,0,1.866,0.873,1.866,1.849H16.963z
				 M25.02,18.496c0.06-3.846-2.314-6.563-6.25-6.563c-3.404,0-6.012,2.23-6.012,5.716c0,3.536,2.629,5.485,6.031,5.485
				c2.476,0,5.154-0.873,5.886-3.512h-4.037c-0.306,0.639-0.914,0.941-1.584,0.941c-1.116,0-2.09-0.823-2.09-2.067L25.02,18.496
				L25.02,18.496z"/>
			<polygon style="fill:#020303;" points="1.021,8.234 1.021,22.848 12.381,22.848 12.381,19.438 5.806,19.438 5.806,8.234 			"/>
		</g>
	</g>
</g>
<g id="Layer_1">
</g>
</svg>
