<?xml version="1.0" encoding="utf-8"?>
<!-- Generator: Adobe Illustrator 18.0.0, SVG Export Plug-In . SVG Version: 6.00 Build 0)  -->
<!DOCTYPE svg PUBLIC "-//W3C//DTD SVG 1.1//EN" "http://www.w3.org/Graphics/SVG/1.1/DTD/svg11.dtd">
<svg version="1.1" id="Layer_1" xmlns="http://www.w3.org/2000/svg" xmlns:xlink="http://www.w3.org/1999/xlink" x="0px" y="0px"
	 viewBox="0 0 22 20" enable-background="new 0 0 22 20" xml:space="preserve">
<path fill="#203264" d="M1.7,13c0.5,0,0.9,0.3,1.1,0.8h4.1v0.8H2.8c-0.1,0.5-0.6,0.8-1.1,0.8c-0.6,0-1.1-0.6-1.1-1.2
	C0.6,13.5,1.1,13,1.7,13z"/>
<path fill="#203264" d="M3.1,8.9c0.5,0,0.9,0.3,1.1,0.9H5h0.5v0.4v1.4h1.3v0.5H5.6H5v-0.6v-1.3H4.2c-0.1,0.5-0.6,0.8-1.1,0.8
	C2.5,11.1,2,10.6,2,10C2,9.4,2.5,8.9,3.1,8.9z"/>
<path fill="#203264" d="M3.1,17.2c0.5,0,0.9,0.3,1.1,0.8H5v-1.4v-0.4h0.6h1.3v0.5H5.5V18v0.6H5H4.2c-0.1,0.5-0.6,0.9-1.1,0.9
	c-0.6,0-1.1-0.5-1.1-1.1C2,17.7,2.5,17.2,3.1,17.2z"/>
<path fill="#9A9A9A" d="M20.3,8.3c-0.5,0-0.9,0.4-1.1,0.9h-3.8v0.5h3.8c0.1,0.5,0.6,0.8,1.1,0.8c0.6,0,1.1-0.5,1.1-1.1
	C21.4,8.8,20.9,8.3,20.3,8.3z"/>
<path fill="#9A9A9A" d="M18.9,4.1c-0.5,0-0.9,0.3-1.1,0.8H17h-0.5v0.5v1.4h-1.1v0.5h1h0.8V6.8V5.5h0.6c0.1,0.5,0.6,0.8,1.1,0.8
	c0.6,0,1.1-0.5,1.1-1.1C20,4.6,19.5,4.1,18.9,4.1z"/>
<path fill="#9A9A9A" d="M18.9,12.4c-0.5,0-0.9,0.2-1.1,0.8h-0.6v-1.4v-0.5h-0.8h-1v0.5h1.1v1.4v0.5H17h0.8c0.1,0.8,0.6,0.9,1.1,0.9
	c0.6,0,1.1-0.5,1.1-1.1C20,12.9,19.5,12.4,18.9,12.4z"/>
<path fill="#203264" d="M12.8,9.9H7.6C7,9.9,6.5,10.4,6.5,11v6.5c0,0.6,0.5,1.1,1.1,1.1h5.3c0.6,0,1.1-0.5,1.1-1.1V11
	C13.9,10.4,13.4,9.9,12.8,9.9z"/>
<path fill="#FFFFFF" d="M13,16.9c0,0.4-0.3,0.7-0.7,0.7H8.1c-0.4,0-0.7-0.3-0.7-0.7v-5.3c0-0.4,0.3-0.7,0.7-0.7h4.2
	c0.4,0,0.7,0.3,0.7,0.7L13,16.9L13,16.9z"/>
<path fill="#203264" d="M12,13.7H8.4c-0.2,0-0.4,0.2-0.4,0.4v0.3c0,0.2,0.2,0.4,0.4,0.4H12c0.2,0,0.4-0.2,0.4-0.4v-0.3
	C12.4,13.9,12.2,13.7,12,13.7z"/>
<path fill="#203264" d="M12,12.1H8.4c-0.2,0-0.4,0.2-0.4,0.4v0.3c0,0.2,0.2,0.4,0.4,0.4H12c0.2,0,0.4-0.2,0.4-0.4v-0.3
	C12.4,12.3,12.2,12.1,12,12.1z"/>
<path fill="#203264" d="M12,15.4H8.4c-0.2,0-0.4,0.2-0.4,0.4V16c0,0.2,0.2,0.4,0.4,0.4H12c0.2,0,0.4-0.2,0.4-0.4v-0.3
	C12.4,15.5,12.2,15.4,12,15.4z"/>
<g>
	<path fill="#9A9A9A" d="M8.1,0.6v0.3c0,0,0,0.2,0,0.2v8.2c0,0,0,0,0.1,0h5.3c0.6,0,1.2,0.5,1.2,1.1v6.5c0,0,0,0.1,0,0.1h0.9V1.1
		c0,0,0-0.2,0-0.2V0.6L8.1,0.6L8.1,0.6z"/>
</g>
<rect x="12.5" y="6.8" fill="#FFFFFF" width="2.1" height="0.5"/>
<rect x="9" y="4.1" fill="#FFFFFF" width="5.6" height="2.1"/>
<rect x="9" y="1.5" fill="#FFFFFF" width="5.6" height="2.1"/>
</svg>
