<?xml version="1.0" encoding="utf-8"?>
<!-- Generator: Adobe Illustrator 18.0.0, SVG Export Plug-In . SVG Version: 6.00 Build 0)  -->
<!DOCTYPE svg PUBLIC "-//W3C//DTD SVG 1.1//EN" "http://www.w3.org/Graphics/SVG/1.1/DTD/svg11.dtd">
<svg version="1.1" id="Layer_1" xmlns="http://www.w3.org/2000/svg" xmlns:xlink="http://www.w3.org/1999/xlink" x="0px" y="0px"
	 viewBox="0 0 14 14" enable-background="new 0 0 14 14" xml:space="preserve">
<path fill="#203264" d="M1.4,5.8c0.5,0,0.9,0.3,1.1,0.8h4.1v0.8H2.5C2.4,7.9,2,8.2,1.4,8.2C0.8,8.2,0.3,7.6,0.3,7
	C0.3,6.4,0.8,5.8,1.4,5.8z"/>
<path fill="#203264" d="M2.8,1.7c0.5,0,0.9,0.3,1.1,0.9h0.9h0.5V3v1.4h1.3V5H5.3H4.7V4.4V3.1H3.9C3.8,3.7,3.4,3.9,2.8,3.9
	c-0.6,0-1.1-0.5-1.1-1.1C1.7,2.2,2.2,1.7,2.8,1.7z"/>
<path fill="#203264" d="M2.8,10.1c0.5,0,0.9,0.3,1.1,0.8h0.8V9.4V9h0.6h1.3v0.5H5.3v1.3v0.6H4.7H3.9c-0.1,0.5-0.6,0.9-1.1,0.9
	c-0.6,0-1.1-0.5-1.1-1.1C1.7,10.5,2.2,10.1,2.8,10.1z"/>
<path fill="#203264" d="M12.6,2.7H7.3c-0.6,0-1.1,0.5-1.1,1.1v6.5c0,0.6,0.5,1.1,1.1,1.1h5.3c0.6,0,1.1-0.5,1.1-1.1V3.8
	C13.7,3.2,13.2,2.7,12.6,2.7z"/>
<path fill="#FFFFFF" d="M12.8,9.7c0,0.4-0.3,0.7-0.7,0.7H7.9c-0.4,0-0.7-0.3-0.7-0.7V4.4c0-0.4,0.3-0.7,0.7-0.7h4.2
	c0.4,0,0.7,0.3,0.7,0.7L12.8,9.7L12.8,9.7z"/>
<path fill="#203264" d="M11.7,6.6H8.2C8,6.6,7.8,6.8,7.8,6.9v0.3c0,0.2,0.2,0.4,0.4,0.4h3.6c0.2,0,0.4-0.2,0.4-0.4V6.9
	C12.1,6.8,11.9,6.6,11.7,6.6z"/>
<path fill="#203264" d="M11.7,5H8.2C8,5,7.8,5.1,7.8,5.3v0.3C7.8,5.9,8,6,8.2,6h3.6c0.2,0,0.4-0.2,0.4-0.4V5.3
	C12.1,5.1,11.9,5,11.7,5z"/>
<path fill="#203264" d="M11.7,8.2H8.2C8,8.2,7.8,8.4,7.8,8.6v0.3c0,0.2,0.2,0.4,0.4,0.4h3.6c0.2,0,0.4-0.2,0.4-0.4V8.6
	C12.1,8.4,11.9,8.2,11.7,8.2z"/>
</svg>
