<?xml version="1.0" encoding="utf-8"?>
<!-- Generator: Adobe Illustrator 18.0.0, SVG Export Plug-In . SVG Version: 6.00 Build 0)  -->
<!DOCTYPE svg PUBLIC "-//W3C//DTD SVG 1.1//EN" "http://www.w3.org/Graphics/SVG/1.1/DTD/svg11.dtd">
<svg version="1.1" id="Layer_1" xmlns="http://www.w3.org/2000/svg" xmlns:xlink="http://www.w3.org/1999/xlink" x="0px" y="0px"
	 viewBox="8.5 230 600 330" enable-background="new 8.5 230 600 330" xml:space="preserve">
<path fill="#213164" d="M545.7,253.2H66.3c-15.3,0-30.6,15.3-30.6,35.7v219.3c0,15.3,15.3,30.6,35.7,30.6h474.3
	c20.4,0,35.7-15.3,35.7-35.7V288.9C576.3,268.5,561,253.2,545.7,253.2z"/>
<path fill="#FFFFFF" d="M530.1,373.8C530.1,378.9,530.1,378.9,530.1,373.8H315.9l0,0v-66.3l0,0h214.2l0,0V373.8z"/>
<circle fill="#FFFFFF" cx="371" cy="455.4" r="30.6"/>
<circle fill="#FFFFFF" cx="478.1" cy="455.4" r="30.6"/>
<g id="ethernet">
	<g>
		<rect x="35.8" y="255.2" fill="none" width="281.6" height="281.6"/>
		<g>
			<path fill="#FFFFFF" d="M100.5,482.7c-9.8,0-17.9-8-17.9-17.9V327.2c0-9.8,8-17.9,17.9-17.9h152.1c9.8,0,17.9,8,17.9,17.9v137.7
				c0,9.9-8,17.9-17.9,17.9C252.6,482.7,100.5,482.7,100.5,482.7z"/>
			<path fill="#213164" d="M151.2,460.8c-1.1,0-2.1-0.9-2.1-2.1v-13.1c0-1.1-0.9-2.1-2.1-2.1h-11.8c-1.1,0-2.1-0.9-2.1-2.1v-19
				c0-1.1-0.9-2.1-2.1-2.1h-30.3c-1.1,0-2.1-0.9-2.1-2.1v-89.8c0-1.1,0.9-2.1,2.1-2.1h151.3c1.1,0,2.1,0.9,2.1,2.1v89.8
				c0,1.1-0.9,2.1-2.1,2.1h-30.3c-1.1,0-2.1,0.9-2.1,2.1v19c0,1.1-0.9,2.1-2.1,2.1h-11.7c-1.1,0-2.1,0.9-2.1,2.1v13.1
				c0,1.1-0.9,2.1-2.1,2.1H151.2z"/>
			<g>
				<rect x="232.2" y="326.5" fill="#FFFFFF" width="10.9" height="30.2"/>
				<rect x="214.7" y="326.5" fill="#FFFFFF" width="10.9" height="30.2"/>
				<rect x="197.3" y="326.5" fill="#FFFFFF" width="10.9" height="30.2"/>
				<rect x="179.8" y="326.5" fill="#FFFFFF" width="10.9" height="30.2"/>
				<rect x="162.4" y="326.5" fill="#FFFFFF" width="10.9" height="30.2"/>
				<rect x="144.9" y="326.5" fill="#FFFFFF" width="10.9" height="30.2"/>
				<rect x="127.5" y="326.5" fill="#FFFFFF" width="10.9" height="30.2"/>
				<rect x="110" y="326.5" fill="#FFFFFF" width="10.9" height="30.2"/>
			</g>
		</g>
	</g>
</g>
<g id="Layer_1_1_">
</g>
</svg>
