<?xml version="1.0" encoding="utf-8"?>
<!-- Generator: Adobe Illustrator 18.0.0, SVG Export Plug-In . SVG Version: 6.00 Build 0)  -->
<!DOCTYPE svg PUBLIC "-//W3C//DTD SVG 1.1//EN" "http://www.w3.org/Graphics/SVG/1.1/DTD/svg11.dtd">
<svg version="1.1" id="Layer_1" xmlns="http://www.w3.org/2000/svg" xmlns:xlink="http://www.w3.org/1999/xlink" x="0px" y="0px"
	 viewBox="143.5 95 330 600" enable-background="new 143.5 95 330 600" xml:space="preserve">
<path fill="#213164" d="M165.7,158.9v479.4c0,15.3,15.3,30.6,35.7,30.6h219.3c15.3,0,30.6-15.3,30.6-35.7V158.9
	c0-20.4-15.3-35.7-35.7-35.7H201.4C181,128.2,165.7,143.5,165.7,158.9z"/>
<path fill="#FFFFFF" d="M286.3,174.4C291.4,174.4,291.4,174.4,286.3,174.4v214.2l0,0H220l0,0V174.4l0,0H286.3z"/>
<circle fill="#FFFFFF" cx="367.9" cy="333.5" r="30.6"/>
<circle fill="#FFFFFF" cx="367.9" cy="226.4" r="30.6"/>
<g id="ethernet">
	<g>
		<rect x="167.8" y="387.2" fill="none" width="281.6" height="281.6"/>
		<g>
			<path fill="#FFFFFF" d="M395.2,604.1c0,9.8-8,17.9-17.9,17.9H239.7c-9.8,0-17.9-8-17.9-17.9V451.9c0-9.8,8-17.9,17.9-17.9h137.7
				c9.9,0,17.9,8,17.9,17.9C395.2,451.9,395.2,604.1,395.2,604.1z"/>
			<path fill="#213164" d="M373.4,553.4c0,1.1-0.9,2.1-2.1,2.1h-13.1c-1.1,0-2.1,0.9-2.1,2.1v11.8c0,1.1-0.9,2.1-2.1,2.1h-19
				c-1.1,0-2.1,0.9-2.1,2.1v30.3c0,1.1-0.9,2.1-2.1,2.1h-89.8c-1.1,0-2.1-0.9-2.1-2.1V452.3c0-1.1,0.9-2.1,2.1-2.1H331
				c1.1,0,2.1,0.9,2.1,2.1v30.3c0,1.1,0.9,2.1,2.1,2.1h19c1.1,0,2.1,0.9,2.1,2.1v11.7c0,1.1,0.9,2.1,2.1,2.1h13.1
				c1.1,0,2.1,0.9,2.1,2.1V553.4z"/>
			<g>
				<rect x="239.1" y="461.4" fill="#FFFFFF" width="30.2" height="10.9"/>
				<rect x="239.1" y="478.9" fill="#FFFFFF" width="30.2" height="10.9"/>
				<rect x="239.1" y="496.4" fill="#FFFFFF" width="30.2" height="10.9"/>
				<rect x="239.1" y="513.8" fill="#FFFFFF" width="30.2" height="10.9"/>
				<rect x="239.1" y="531.3" fill="#FFFFFF" width="30.2" height="10.9"/>
				<rect x="239.1" y="548.7" fill="#FFFFFF" width="30.2" height="10.9"/>
				<rect x="239.1" y="566.2" fill="#FFFFFF" width="30.2" height="10.9"/>
				<rect x="239.1" y="583.6" fill="#FFFFFF" width="30.2" height="10.9"/>
			</g>
		</g>
	</g>
</g>
<g id="Layer_1_1_">
</g>
</svg>
