<?xml version="1.0" encoding="iso-8859-1"?>
<!-- Generator: Adobe Illustrator 15.0.2, SVG Export Plug-In . SVG Version: 6.00 Build 0)  -->
<!DOCTYPE svg PUBLIC "-//W3C//DTD SVG 1.1//EN" "http://www.w3.org/Graphics/SVG/1.1/DTD/svg11.dtd">
<svg version="1.1" xmlns="http://www.w3.org/2000/svg" xmlns:xlink="http://www.w3.org/1999/xlink" x="0px" y="0px"
	 width="77.958px" height="77.957px" viewBox="0 0 77.958 77.957" style="enable-background:new 0 0 77.958 77.957;"
	 xml:space="preserve">
<g id="phone">
	<g>
		<rect style="fill:none;" width="77.957" height="77.957"/>
		<g>
			<path style="fill:#213164;" d="M21.147,6.05c-5.59,0-10.116,4.533-10.116,10.122v45.619c0,5.594,4.526,10.118,10.116,10.118
				c5.585,0,10.115-4.524,10.115-10.118V16.172C31.263,10.583,26.732,6.05,21.147,6.05z"/>
			<path style="fill:#FFFFFF;" d="M21.231,68.673c-3.548,0-6.428-2.875-6.428-6.43V15.295c0-2.175,1.088-4.099,2.745-5.26v50.672
				c0,3.614,2.408,6.664,5.707,7.631C22.62,68.553,21.943,68.673,21.231,68.673z"/>
			<path style="fill:#213164;" d="M8.591,12.749h-6.46C0.955,12.749,0,13.707,0,14.891v49.694c0,1.177,0.955,2.14,2.131,2.14h6.46
				V12.749z"/>
			<path style="fill:#213164;" d="M75.812,12.749H34.488v53.976h41.324c1.181,0,2.146-0.963,2.146-2.14V14.891
				C77.957,13.707,76.991,12.749,75.812,12.749z"/>
			<rect x="42.57" y="18.684" style="fill:#FFFFFF;" width="27.782" height="7.009"/>
			<g>
				<circle style="fill:#FFFFFF;" cx="66.578" cy="37.278" r="3.506"/>
				<path style="fill:#FFFFFF;" d="M70.085,46.311c0,1.939-1.572,3.508-3.507,3.508c-1.937,0-3.508-1.568-3.508-3.508
					c0-1.937,1.571-3.5,3.508-3.5C68.513,42.811,70.085,44.374,70.085,46.311z"/>
				<circle style="fill:#FFFFFF;" cx="46.345" cy="55.349" r="3.508"/>
				<path style="fill:#FFFFFF;" d="M46.345,49.818c-1.936,0-3.506-1.567-3.506-3.508c0-1.936,1.57-3.5,3.506-3.5
					c1.937,0,3.507,1.564,3.507,3.5C49.853,48.25,48.28,49.818,46.345,49.818z"/>
				<circle style="fill:#FFFFFF;" cx="46.345" cy="37.278" r="3.506"/>
				<circle style="fill:#FFFFFF;" cx="56.461" cy="55.349" r="3.508"/>
				<path style="fill:#FFFFFF;" d="M56.461,49.818c-1.937,0-3.508-1.567-3.508-3.508c0-1.936,1.571-3.5,3.508-3.5
					c1.935,0,3.505,1.564,3.505,3.5C59.966,48.25,58.396,49.818,56.461,49.818z"/>
				<path style="fill:#FFFFFF;" d="M56.461,40.784c-1.937,0-3.508-1.572-3.508-3.508s1.571-3.504,3.508-3.504
					c1.935,0,3.505,1.568,3.505,3.504S58.396,40.784,56.461,40.784z"/>
				<circle style="fill:#FFFFFF;" cx="66.578" cy="55.349" r="3.508"/>
			</g>
		</g>
	</g>
</g>
<g id="Layer_1">
</g>
</svg>
