<?xml version="1.0" encoding="iso-8859-1"?>
<!-- Generator: Adobe Illustrator 15.0.2, SVG Export Plug-In . SVG Version: 6.00 Build 0)  -->
<!DOCTYPE svg PUBLIC "-//W3C//DTD SVG 1.1//EN" "http://www.w3.org/Graphics/SVG/1.1/DTD/svg11.dtd">
<svg version="1.1" xmlns="http://www.w3.org/2000/svg" xmlns:xlink="http://www.w3.org/1999/xlink" x="0px" y="0px"
	 width="77.958px" height="77.958px" viewBox="0 0 77.958 77.958" style="enable-background:new 0 0 77.958 77.958;"
	 xml:space="preserve">
<g id="pop">
	<g>
		<rect y="0.001" style="fill:none;" width="77.958" height="77.957"/>
		<g>
			<polygon style="fill:#9A9A9A;" points="70.02,72.791 70.02,71.641 70.023,71.641 70.023,23.095 61.223,23.095 61.223,13.245 
				55.274,13.245 55.274,7.208 22.792,7.208 22.792,13.245 16.734,13.245 16.734,23.095 7.934,23.095 7.934,71.641 7.939,71.641 
				7.939,72.791 4.411,74.033 4.411,77.958 73.546,77.958 73.546,74.033 			"/>
			<rect x="40.384" y="28.549" style="fill:#FFFFFF;" width="23.923" height="11.28"/>
			<rect x="40.384" y="41.316" style="fill:#FFFFFF;" width="23.923" height="11.279"/>
			<rect x="13.644" y="28.549" style="fill:#FFFFFF;" width="23.923" height="11.28"/>
			<rect x="13.644" y="41.316" style="fill:#FFFFFF;" width="23.923" height="11.279"/>
			<circle style="fill:#FFFFFF;" cx="38.979" cy="13.065" r="13.065"/>
			<circle style="fill:#6B6B6B;" cx="38.979" cy="13.065" r="11.557"/>
			<g>
				<path style="fill:#FFFFFF;" d="M39.761,11.71V6.366l1.058,1.058c0.314,0.314,0.828,0.314,1.144,0l0,0
					c0.313-0.314,0.313-0.828,0-1.143l-2.433-2.433c-0.143-0.146-0.343-0.232-0.548-0.24c-0.016,0-0.032,0-0.047,0l0,0
					c-0.203,0.004-0.408,0.091-0.553,0.235l-2.438,2.438c-0.312,0.314-0.312,0.829,0,1.143l0,0c0.315,0.314,0.829,0.314,1.146,0
					l1.058-1.059v5.344L39.761,11.71L39.761,11.71z"/>
				<path style="fill:#FFFFFF;" d="M49.01,12.218h-5.347l1.061-1.058c0.312-0.314,0.313-0.829,0-1.143l0,0
					c-0.315-0.314-0.829-0.314-1.145,0l-2.433,2.432c-0.146,0.143-0.232,0.343-0.24,0.549c0,0.016,0,0.031,0,0.047l0,0
					c0.004,0.204,0.09,0.408,0.235,0.553l2.438,2.438c0.314,0.314,0.828,0.314,1.145,0l0,0c0.313-0.314,0.313-0.829,0-1.143
					l-1.061-1.058h5.347V12.218L49.01,12.218z"/>
				<path style="fill:#FFFFFF;" d="M39.761,14.421v5.344l1.058-1.058c0.314-0.314,0.828-0.314,1.144,0l0,0
					c0.313,0.314,0.313,0.828,0,1.143l-2.433,2.433c-0.143,0.146-0.343,0.232-0.548,0.24c-0.016,0.001-0.032,0.001-0.047,0l0,0
					c-0.203-0.004-0.408-0.091-0.553-0.235l-2.438-2.438c-0.312-0.314-0.312-0.829,0-1.143l0,0c0.315-0.314,0.829-0.314,1.146,0
					l1.058,1.059v-5.344L39.761,14.421L39.761,14.421z"/>
				<path style="fill:#FFFFFF;" d="M28.947,12.218h5.344l-1.058-1.058c-0.314-0.314-0.314-0.829,0-1.143l0,0
					c0.315-0.314,0.828-0.314,1.143,0l2.435,2.432c0.145,0.143,0.231,0.343,0.239,0.549c0.001,0.016,0.001,0.031,0.001,0.047H37.05
					c-0.005,0.204-0.092,0.408-0.235,0.553l-2.438,2.438c-0.314,0.314-0.828,0.314-1.145,0l0,0c-0.314-0.314-0.314-0.829,0-1.143
					l1.061-1.058h-5.347L28.947,12.218L28.947,12.218z"/>
			</g>
			
				<linearGradient id="SVGID_1_" gradientUnits="userSpaceOnUse" x1="400.7861" y1="-215.7266" x2="409.1162" y2="-215.7266" gradientTransform="matrix(1 0 0 1 -366 283)">
				<stop  offset="0" style="stop-color:#FFFFFF"/>
				<stop  offset="1" style="stop-color:#F3F2F2"/>
			</linearGradient>
			<polygon style="fill:url(#SVGID_1_);" points="43.116,73.27 34.786,73.27 34.786,66.968 34.786,61.277 43.116,61.277 
				43.116,66.968 			"/>
		</g>
	</g>
</g>
<g id="Layer_1">
</g>
</svg>
