<?xml version="1.0" encoding="utf-8"?>
<!-- Generator: Adobe Illustrator 18.0.0, SVG Export Plug-In . SVG Version: 6.00 Build 0)  -->
<!DOCTYPE svg PUBLIC "-//W3C//DTD SVG 1.1//EN" "http://www.w3.org/Graphics/SVG/1.1/DTD/svg11.dtd">
<svg version="1.1" id="Layer_1" xmlns="http://www.w3.org/2000/svg" xmlns:xlink="http://www.w3.org/1999/xlink" x="0px" y="0px"
	 viewBox="0 0 18 21" enable-background="new 0 0 18 21" xml:space="preserve">
<path fill="#9A9A9A" d="M17.6,0.4c0-0.1-0.1-0.3-0.3-0.3c0,0,0,0,0,0c0,0-16.4,0-16.4,0c0,0-0.1,0-0.1,0c0,0,0,0,0,0
	c-0.1,0-0.3,0.1-0.3,0.3c0,0,0,0,0,0c0,0,0,20.1,0,20.1c0,0.1,0.1,0.4,0.3,0.4c0,0,16.5,0,16.6,0c0.1,0,0.3-0.3,0.3-0.5
	C17.6,20.5,17.6,0.4,17.6,0.4z"/>
<rect x="1.3" y="1.2" fill="#FFFFFF" width="15.5" height="19"/>
<path fill="#9A9A9A" d="M14.6,2.5H3.4v0.4c0,0,0,0.2,0,0.2v15.7h11.2V3.1c0,0,0-0.2,0-0.2V2.5z"/>
<rect x="4.7" y="3.8" fill="#FFFFFF" width="8.5" height="2.7"/>
<rect x="12.2" y="8.4" fill="#FFFFFF" width="1.1" height="0.5"/>
<rect x="15.4" y="8.4" fill="#9A9A9A" width="0.5" height="4"/>
<rect x="4.7" y="16.6" fill="#FFFFFF" width="8.5" height="0.5"/>
<rect x="10.6" y="8.4" fill="#FFFFFF" width="1.1" height="0.5"/>
<rect x="9" y="8.4" fill="#FFFFFF" width="1.1" height="0.5"/>
</svg>
