<?xml version="1.0" encoding="utf-8"?>
<!-- Generator: Adobe Illustrator 18.0.0, SVG Export Plug-In . SVG Version: 6.00 Build 0)  -->
<!DOCTYPE svg PUBLIC "-//W3C//DTD SVG 1.1//EN" "http://www.w3.org/Graphics/SVG/1.1/DTD/svg11.dtd">
<svg version="1.1" id="Layer_1" xmlns="http://www.w3.org/2000/svg" xmlns:xlink="http://www.w3.org/1999/xlink" x="0px" y="0px"
	 viewBox="0 0 612 792" enable-background="new 0 0 612 792" xml:space="preserve">
<g id="Layer_1_1_">
</g>
<g>
	<path fill="#949492" d="M590.2,106.6c3.3,0,6,2.7,6,6v567.7c0,3.3-2.7,6-6,6H22.6c-3.3,0-6-2.7-6-6V112.6c0-3.3,2.7-6,6-6H590.2
		 M590.2,102.6H22.6c-5.5,0-10,4.5-10,10v567.7c0,5.5,4.5,10,10,10h567.7c5.5,0,10-4.5,10-10V112.6
		C600.2,107.1,595.7,102.6,590.2,102.6L590.2,102.6z"/>
</g>
</svg>
