<?xml version="1.0" encoding="iso-8859-1"?>
<!-- Generator: Adobe Illustrator 15.0.2, SVG Export Plug-In . SVG Version: 6.00 Build 0)  -->
<!DOCTYPE svg PUBLIC "-//W3C//DTD SVG 1.1//EN" "http://www.w3.org/Graphics/SVG/1.1/DTD/svg11.dtd">
<svg version="1.1" xmlns="http://www.w3.org/2000/svg" xmlns:xlink="http://www.w3.org/1999/xlink" x="0px" y="0px"
	 width="77.957px" height="77.957px" viewBox="0 0 77.957 77.957" style="enable-background:new 0 0 77.957 77.957;"
	 xml:space="preserve">
<g id="remoteOffice">
	<g>
		<rect style="fill:none;" width="77.957" height="77.957"/>
		<g>
			<polygon style="fill:#3EA1DA;" points="70.266,31.383 70.266,21.254 64.553,21.254 64.553,25.671 56.512,17.63 56.516,17.625 
				52.719,13.828 38.196,28.35 11.963,28.35 0,40.312 3.443,40.312 3.443,56.115 73.859,56.115 73.859,43.174 77.957,39.074 			"/>
			<polygon style="fill:#FFFFFF;" points="31.51,53.476 29.791,53.476 29.791,41.935 20.275,41.935 20.275,53.476 18.397,53.476 
				18.397,41.935 8.882,41.935 8.882,53.476 7.237,53.476 7.237,40.312 31.51,40.312 			"/>
			<path style="fill:#FFFFFF;" d="M70.065,53.476H58.229V37.612c0-3.224-2.614-5.838-5.838-5.838c-3.225,0-5.838,2.614-5.838,5.838
				v15.863h-11.25V38.838l17.41-17.41l17.352,17.351L70.065,53.476L70.065,53.476L70.065,53.476z"/>
			<path style="fill:#FFFFFF;" d="M73.859,56.115v-6.521c-0.588-0.284-1.139-0.496-1.561-0.638
				c-1.101-0.386-1.731-0.652-2.086-0.839c0.082-0.122,0.166-0.244,0.248-0.364c1.027-1.516,2.09-3.079,2.09-6.199
				c0-4.281-2.957-7.508-6.879-7.508s-6.879,3.228-6.879,7.508c0,2.171,0.586,4.066,1.79,5.791l0.021,0.033l0.059,0.073
				c0.194,0.249,0.355,0.471,0.48,0.646c-0.584,0.301-1.613,0.678-2.176,0.883c-2.172,0.793-3.697,1.789-4.567,2.973
				c-0.655,0.895-0.987,1.854-0.987,2.853v1.062v0.248H73.859L73.859,56.115z"/>
			<path style="fill:#213164;" d="M65.672,35.576c3.108,0,5.344,2.521,5.344,5.977c0,3.25-1.273,4.389-2.504,6.368
				c-0.11,0.178-0.092,0.392-0.03,0.619c0.182,0.682,1.552,1.249,3.327,1.866c1.211,0.408,2.942,1.203,3.895,2.454
				c0.424,0.558,0.693,1.202,0.693,1.944v1.062v9.898c-3.356,0.577-6.965,0.896-10.725,0.896c-3.762,0-7.371-0.317-10.726-0.896
				v-9.898v-1.062c0-0.742,0.276-1.381,0.69-1.944c1.06-1.441,3.359-2.259,3.857-2.439c1.783-0.652,3.18-1.194,3.363-1.881
				c0.061-0.229,0.043-0.425-0.031-0.619c-0.145-0.384-0.959-1.417-0.96-1.419c-0.833-1.184-1.539-2.746-1.539-4.949
				C60.325,38.056,62.695,35.576,65.672,35.576"/>
		</g>
	</g>
</g>
<g id="Layer_1">
</g>
</svg>
