<?xml version="1.0" encoding="iso-8859-1"?>
<!-- Generator: Adobe Illustrator 15.0.2, SVG Export Plug-In . SVG Version: 6.00 Build 0)  -->
<!DOCTYPE svg PUBLIC "-//W3C//DTD SVG 1.1//EN" "http://www.w3.org/Graphics/SVG/1.1/DTD/svg11.dtd">
<svg version="1.1" xmlns="http://www.w3.org/2000/svg" xmlns:xlink="http://www.w3.org/1999/xlink" x="0px" y="0px"
	 width="77.958px" height="77.957px" viewBox="0 0 77.958 77.957" style="enable-background:new 0 0 77.958 77.957;"
	 xml:space="preserve">
<g id="router">
	<g>
		<rect y="0.001" style="fill:none;" width="77.957" height="77.955"/>
		<g>
			<circle style="fill:#213164;" cx="38.979" cy="38.979" r="38.979"/>
			<path style="fill:#FFFFFF;" d="M67.231,38.889c-0.021-0.659-0.302-1.297-0.765-1.755l-7.781-7.777
				c-1.006-1.005-2.648-1.005-3.654,0s-1.006,2.651,0,3.655l3.383,3.382H41.562V19.543l3.384,3.384
				c1.003,1.004,2.647,1.005,3.653-0.001c1.004-1.005,1.004-2.649,0-3.654l-7.777-7.78c-0.458-0.465-1.096-0.743-1.753-0.767
				c-0.051-0.002-0.102-0.002-0.151-0.002v0.001c-0.651,0.013-1.304,0.29-1.768,0.752l-7.796,7.796
				c-1.003,1.004-1.003,2.649,0,3.655c1.006,1.005,2.651,1.005,3.657,0l3.383-3.387v16.854H19.54l3.386-3.382
				c1.003-1.004,1.006-2.649,0-3.655c-1.006-1.005-2.651-1.005-3.654,0l-7.781,7.777c-0.467,0.458-0.744,1.096-0.768,1.755
				c0,0.05,0,0.1,0,0.148c0.012,0.651,0.289,1.306,0.753,1.769l7.796,7.796c1.003,1.004,2.648,1.004,3.654-0.001
				s1.006-2.649,0-3.655l-3.386-3.384h16.854v16.854l-3.383-3.385c-1.006-1.005-2.651-1.005-3.657,0
				c-1.003,1.005-1.003,2.65,0,3.655l7.796,7.796c0.464,0.462,1.118,0.738,1.768,0.752c0.048,0.001,0.099,0.001,0.151-0.001
				c0.657-0.021,1.295-0.301,1.753-0.766l7.777-7.78c1.004-1.005,1.004-2.648,0-3.654c-1.006-1.006-2.65-1.005-3.653-0.001
				l-3.384,3.387V41.563h16.854l-3.386,3.384c-1.006,1.005-1.006,2.649,0,3.655c1.006,1.005,2.65,1.005,3.654,0.001l7.796-7.796
				c0.461-0.462,0.737-1.115,0.75-1.769h0.003C67.235,38.988,67.235,38.938,67.231,38.889z"/>
		</g>
	</g>
</g>
<g id="Layer_1">
</g>
</svg>
