<?xml version="1.0" encoding="iso-8859-1"?>
<!-- Generator: Adobe Illustrator 15.0.2, SVG Export Plug-In . SVG Version: 6.00 Build 0)  -->
<!DOCTYPE svg PUBLIC "-//W3C//DTD SVG 1.1//EN" "http://www.w3.org/Graphics/SVG/1.1/DTD/svg11.dtd">
<svg version="1.1" xmlns="http://www.w3.org/2000/svg" xmlns:xlink="http://www.w3.org/1999/xlink" x="0px" y="0px"
	 width="77.958px" height="78.035px" viewBox="0 0 77.958 78.035" style="enable-background:new 0 0 77.958 78.035;"
	 xml:space="preserve">
<g id="secure">
	<g>
		<rect style="fill:none;" width="77.958" height="77.957"/>
		<g>
			<path style="fill:#213164;" d="M26.821,25.218v-6.115c0-6.909,5.592-12.528,12.5-12.528c6.908,0,12.5,5.619,12.5,12.528v6.297
				c3,1.026,5,2.354,7,3.935v-10.23c0-10.49-8.51-19.024-18.999-19.024c-10.491,0-19.001,8.533-19.001,19.024v9.906
				C23.821,27.478,23.821,26.199,26.821,25.218z"/>
			<g>
				<path style="fill:#213164;" d="M38.98,27.172c-14.156,0-25.633,11.389-25.633,25.434s11.477,25.43,25.633,25.43
					c14.156,0,25.631-11.385,25.631-25.43S53.136,27.172,38.98,27.172z M38.98,75.13c-12.541,0-22.705-10.086-22.705-22.524
					c0-12.441,10.164-22.528,22.705-22.528c12.54,0,22.705,10.087,22.705,22.528C61.686,65.044,51.518,75.13,38.98,75.13z"/>
				<path style="fill:#3EA1DA;" d="M38.979,73.032c11.355,0,20.589-9.164,20.589-20.428c0-11.267-9.235-20.432-20.589-20.432
					s-20.59,9.165-20.59,20.432C18.389,63.868,27.626,73.032,38.979,73.032z"/>
				<path style="fill:#213164;" d="M38.979,34.093c10.287,0,18.657,8.306,18.657,18.513c0,10.206-8.37,18.511-18.657,18.511
					c-10.287,0-18.658-8.305-18.658-18.511C20.321,42.397,28.692,34.093,38.979,34.093z"/>
				<path style="fill:#FFFFFF;" d="M36.968,63.232c-0.664,0-1.203-0.538-1.203-1.202v-8.937c0-0.184-0.126-0.492-0.257-0.644
					c-0.343-0.264-2.412-1.966-2.412-4.594c0-3.244,2.639-5.883,5.883-5.883c3.245,0,5.884,2.639,5.884,5.883
					c0,2.51-2.088,4.326-2.406,4.589c-0.131,0.145-0.262,0.466-0.262,0.648v8.937c0,0.664-0.539,1.202-1.203,1.202H36.968
					L36.968,63.232z"/>
			</g>
		</g>
	</g>
</g>
<g id="Layer_1">
</g>
</svg>
