<?xml version="1.0" encoding="iso-8859-1"?>
<!-- Generator: Adobe Illustrator 15.0.2, SVG Export Plug-In . SVG Version: 6.00 Build 0)  -->
<!DOCTYPE svg PUBLIC "-//W3C//DTD SVG 1.1//EN" "http://www.w3.org/Graphics/SVG/1.1/DTD/svg11.dtd">
<svg version="1.1" xmlns="http://www.w3.org/2000/svg" xmlns:xlink="http://www.w3.org/1999/xlink" x="0px" y="0px"
	 width="77.958px" height="77.957px" viewBox="0 0 77.958 77.957" style="enable-background:new 0 0 77.958 77.957;"
	 xml:space="preserve">
<g id="switch">
	<g>
		<rect style="fill:none;" width="77.958" height="77.957"/>
		<g>
			<path style="fill:#009995;" d="M6.269,77.957c-2.416,0-4.487-2.005-4.487-4.467c0-15.074,0-53.957,0-68.991
				c0-2.48,2.072-4.494,4.487-4.494c21.825-0.007,43.596-0.007,65.394,0c2.47,0,4.515,2.014,4.515,4.494c0,15.034,0,53.916,0,68.991
				c0,2.462-2.045,4.467-4.515,4.467C49.865,77.95,28.094,77.95,6.269,77.957L6.269,77.957z"/>
			<path style="fill:#FFFFFF;" d="M29.708,62.98V27.656l4.2,4.202c1.245,1.246,3.287,1.247,4.536-0.001l0,0
				c1.245-1.248,1.245-3.288,0-4.536l-9.656-9.659c-0.568-0.578-1.361-0.923-2.176-0.952c-0.064-0.002-0.127-0.002-0.187-0.002
				v0.001c-0.808,0.016-1.619,0.36-2.195,0.934l-9.678,9.679c-1.245,1.246-1.245,3.289,0,4.537l0,0c1.249,1.247,3.291,1.247,4.54,0
				l4.2-4.202v35.325L29.708,62.98L29.708,62.98z"/>
			<path style="fill:#FFFFFF;" d="M54.672,17.822v35.325l4.2-4.202c1.245-1.247,3.287-1.248,4.536,0.001l0,0
				c1.244,1.248,1.244,3.288,0,4.536l-9.656,9.657c-0.568,0.578-1.361,0.925-2.176,0.951c-0.064,0.003-0.127,0.003-0.188,0.002l0,0
				c-0.808-0.017-1.619-0.358-2.195-0.933l-9.677-9.678c-1.245-1.247-1.245-3.289,0-4.537l0,0c1.25-1.248,3.291-1.248,4.541,0
				l4.199,4.203V17.823L54.672,17.822L54.672,17.822L54.672,17.822z"/>
		</g>
	</g>
</g>
<g id="Layer_1">
</g>
</svg>
