<?xml version="1.0" encoding="utf-8"?>
<!-- Generator: Adobe Illustrator 18.0.0, SVG Export Plug-In . SVG Version: 6.00 Build 0)  -->
<!DOCTYPE svg PUBLIC "-//W3C//DTD SVG 1.1//EN" "http://www.w3.org/Graphics/SVG/1.1/DTD/svg11.dtd">
<svg version="1.1" id="Layer_1" xmlns="http://www.w3.org/2000/svg" xmlns:xlink="http://www.w3.org/1999/xlink" x="0px" y="0px"
	 viewBox="0 0 78 78" enable-background="new 0 0 78 78" xml:space="preserve">
<g id="switch">
	<g>
		<rect x="0" y="0" fill="none" width="78" height="78"/>
		<g>
			<path fill="#009995" d="M0,6.3c0-2.4,2-4.5,4.5-4.5c15.1,0,54,0,69,0c2.5,0,4.5,2.1,4.5,4.5c0,21.8,0,43.6,0,65.4
				c0,2.5-2,4.5-4.5,4.5c-15,0-53.9,0-69,0c-2.5,0-4.5-2-4.5-4.5C0,49.9,0,28.1,0,6.3L0,6.3z"/>
			<path fill="#FFFFFF" d="M15,29.7h35.3l-4.2,4.2c-1.2,1.2-1.2,3.3,0,4.5l0,0c1.2,1.2,3.3,1.2,4.5,0l9.7-9.7c0.6-0.6,0.9-1.4,1-2.2
				c0-0.1,0-0.1,0-0.2h0c0-0.8-0.4-1.6-0.9-2.2l-9.7-9.7c-1.2-1.2-3.3-1.2-4.5,0l0,0c-1.2,1.2-1.2,3.3,0,4.5l4.2,4.2H15L15,29.7
				L15,29.7z"/>
			<path fill="#FFFFFF" d="M60.1,54.7H24.8l4.2,4.2c1.2,1.2,1.2,3.3,0,4.5l0,0c-1.2,1.2-3.3,1.2-4.5,0l-9.7-9.7
				c-0.6-0.6-0.9-1.4-1-2.2c0-0.1,0-0.1,0-0.2l0,0c0-0.8,0.4-1.6,0.9-2.2l9.7-9.7c1.2-1.2,3.3-1.2,4.5,0l0,0c1.2,1.3,1.2,3.3,0,4.5
				l-4.2,4.2h35.3L60.1,54.7L60.1,54.7L60.1,54.7z"/>
		</g>
	</g>
</g>
<g id="Layer_1_1_">
</g>
</svg>
