<?xml version="1.0" encoding="iso-8859-1"?>
<!-- Generator: Adobe Illustrator 15.0.2, SVG Export Plug-In . SVG Version: 6.00 Build 0)  -->
<!DOCTYPE svg PUBLIC "-//W3C//DTD SVG 1.1//EN" "http://www.w3.org/Graphics/SVG/1.1/DTD/svg11.dtd">
<svg version="1.1" xmlns="http://www.w3.org/2000/svg" xmlns:xlink="http://www.w3.org/1999/xlink" x="0px" y="0px"
	 width="77.957px" height="77.957px" viewBox="0 0 77.957 77.957" style="enable-background:new 0 0 77.957 77.957;"
	 xml:space="preserve">
<g id="titleFancy">
	<g>
		<rect style="fill:none;" width="77.957" height="77.957"/>
		<g>
			<polygon style="fill:#213164;" points="0,16.264 0,61.693 77.957,61.693 77.957,16.264 			"/>
			<path style="fill:#FFFFFF;" d="M3.785,20.871c10.22-0.005,60.166-0.005,70.389,0c0,12.068,0,24.141,0,36.221
				c-10.222-0.004-60.169-0.004-70.389,0C3.785,45.012,3.785,32.939,3.785,20.871L3.785,20.871z"/>
			<g>
				<path style="fill:#EE3B29;" d="M25.883,23.624c0.316,0.145,1.499,0.86,1.499,2.546c0,0.473-0.161,1.709-1.499,2.43v-0.162
					c0.56-0.341,0.849-0.75,0.849-2.32c0-1.76-0.37-2.015-0.849-2.338V23.624z"/>
				<path style="fill:#020303;" d="M27.687,24.701c-0.176,0-0.301-0.131-0.301-0.305c0-0.184,0.139-0.305,0.301-0.305
					c0.16,0,0.299,0.122,0.299,0.305C27.985,24.579,27.847,24.701,27.687,24.701 M27.687,24.143c-0.133,0-0.235,0.104-0.235,0.252
					c0,0.139,0.09,0.252,0.235,0.252c0.13,0,0.231-0.103,0.231-0.252C27.92,24.247,27.817,24.143,27.687,24.143 M27.626,24.57H27.57
					v-0.338h0.128c0.082,0,0.123,0.029,0.123,0.097c0,0.061-0.037,0.086-0.088,0.092l0.095,0.149h-0.062l-0.087-0.145h-0.054V24.57z
					 M27.688,24.378c0.042,0,0.078-0.004,0.078-0.053c0-0.041-0.04-0.046-0.073-0.046h-0.067v0.099H27.688L27.688,24.378z"/>
				<path style="fill:#020303;" d="M24.302,25.747h0.122c0.223,0,0.632-0.021,0.632-0.511c0-0.138-0.064-0.484-0.475-0.484
					c-0.51,0-0.51,0.484-0.51,0.617h-0.693c0-0.707,0.399-1.212,1.25-1.212c0.506,0,1.167,0.255,1.167,1.053
					c0,0.383-0.237,0.623-0.451,0.719v0.011c0.133,0.037,0.567,0.234,0.567,0.876c0,0.71-0.525,1.215-1.287,1.215
					c-0.355,0-1.312-0.08-1.312-1.257h0.728l-0.005,0.006c0,0.201,0.053,0.656,0.554,0.656c0.3,0,0.561-0.201,0.561-0.62
					c0-0.513-0.5-0.535-0.847-0.535V25.747L24.302,25.747z"/>
				<path style="fill:#EE3B29;" d="M23.356,23.78c-0.479,0.323-0.848,0.577-0.848,2.338c0,1.57,0.289,1.98,0.848,2.32V28.6
					c-1.338-0.722-1.499-1.957-1.499-2.43c0-1.685,1.181-2.401,1.499-2.545V23.78z"/>
				<rect x="20.035" y="24.136" style="fill:#020303;" width="1.103" height="3.826"/>
				<path style="fill:#020303;" d="M17.719,26.262c0-0.298,0.186-0.484,0.515-0.484c0.261,0,0.489,0.229,0.489,0.484H17.719z
					 M19.827,26.823c0.018-1.007-0.604-1.718-1.636-1.718c-0.891,0-1.574,0.584-1.574,1.496c0,0.926,0.688,1.436,1.579,1.436
					c0.648,0,1.35-0.228,1.541-0.919h-1.057c-0.08,0.167-0.239,0.246-0.414,0.246c-0.292,0-0.547-0.216-0.547-0.541H19.827z"/>
				<polygon style="fill:#020303;" points="13.643,25.18 14.747,25.18 15.236,26.936 15.72,25.18 16.782,25.18 15.843,27.962 
					14.609,27.962 				"/>
				<path style="fill:#020303;" d="M11.749,26.262c0-0.298,0.188-0.484,0.518-0.484c0.26,0,0.487,0.229,0.487,0.484H11.749z
					 M13.858,26.823c0.016-1.007-0.606-1.718-1.636-1.718c-0.893,0-1.574,0.584-1.574,1.496c0,0.926,0.688,1.436,1.579,1.436
					c0.646,0,1.35-0.228,1.541-0.919H12.71c-0.078,0.167-0.237,0.246-0.415,0.246c-0.292,0-0.547-0.216-0.547-0.541H13.858z"/>
				<polygon style="fill:#020303;" points="7.574,24.136 7.574,27.962 10.55,27.962 10.55,27.069 8.827,27.069 8.827,24.136 				"/>
			</g>
			<rect x="51.994" y="25.315" style="fill:#213164;" width="18.822" height="1.467"/>
			<rect x="45.737" y="25.315" style="fill:#213164;" width="3.581" height="1.467"/>
			<rect x="45.737" y="52.079" style="fill:#213164;" width="7.161" height="1.468"/>
			<rect x="25.06" y="52.079" style="fill:#213164;" width="18.822" height="1.468"/>
		</g>
		<path style="fill:#213164;" d="M15.684,33.383v12.388H62.39V33.383H15.684z M61.517,44.899h-44.96v-2.904h44.96V44.899z
			 M61.517,41.029h-44.96v-2.904h44.96V41.029z M16.557,37.252v-2.996h44.96v2.997L16.557,37.252L16.557,37.252z"/>
	</g>
</g>
<g id="Layer_1">
</g>
</svg>
