<?xml version="1.0" encoding="iso-8859-1"?>
<!-- Generator: Adobe Illustrator 15.0.2, SVG Export Plug-In . SVG Version: 6.00 Build 0)  -->
<!DOCTYPE svg PUBLIC "-//W3C//DTD SVG 1.1//EN" "http://www.w3.org/Graphics/SVG/1.1/DTD/svg11.dtd">
<svg version="1.1" xmlns="http://www.w3.org/2000/svg" xmlns:xlink="http://www.w3.org/1999/xlink" x="0px" y="0px"
	 width="77.958px" height="77.957px" viewBox="0 0 77.958 77.957" style="enable-background:new 0 0 77.958 77.957;"
	 xml:space="preserve">
<g id="titleSimple">
	<g>
		<rect style="fill:none;" width="77.958" height="77.957"/>
		<g>
			<polygon style="fill:#213164;" points="0,16.263 0,61.693 77.958,61.693 77.958,16.263 			"/>
			<path style="fill:#FFFFFF;" d="M3.785,20.868c10.22-0.002,60.167-0.002,70.388,0c0,5.423,0,10.847,0,16.274
				c-10.221-0.002-60.167-0.002-70.388,0C3.785,31.716,3.785,26.291,3.785,20.868L3.785,20.868z"/>
			<path style="fill:#FFFFFF;" d="M3.785,38.31c5.025-0.003,29.583-0.003,34.608,0c0,6.224,0,12.45,0,18.678
				c-5.025-0.002-29.583-0.002-34.608,0C3.785,50.76,3.785,44.533,3.785,38.31L3.785,38.31z"/>
			<path style="fill:#FFFFFF;" d="M39.565,38.411c5.025-0.003,29.583-0.003,34.608,0c0,6.224,0,12.45,0,18.679
				c-5.025-0.002-29.583-0.002-34.608,0C39.565,50.861,39.565,44.635,39.565,38.411L39.565,38.411z"/>
			<g>
				<polygon style="fill:#213164;" points="19.756,25.498 22.566,25.498 22.566,34.385 24.667,34.385 24.667,25.498 27.479,25.498 
					27.479,23.624 19.756,23.624 				"/>
				<rect x="29.186" y="23.624" style="fill:#213164;" width="2.101" height="10.761"/>
				<polygon style="fill:#213164;" points="32.993,25.498 35.804,25.498 35.804,34.385 37.905,34.385 37.905,25.498 40.717,25.498 
					40.717,23.624 32.993,23.624 				"/>
				<polygon style="fill:#213164;" points="44.525,23.624 42.424,23.624 42.424,34.385 49.406,34.385 49.406,32.511 44.525,32.511 
									"/>
				<polygon style="fill:#213164;" points="58.203,25.498 58.203,23.624 51.113,23.624 51.113,34.385 58.203,34.385 58.203,32.511 
					53.214,32.511 53.214,29.896 57.462,29.896 57.462,28.022 53.214,28.022 53.214,25.498 				"/>
			</g>
		</g>
	</g>
</g>
<g id="Layer_1">
</g>
</svg>
