<?xml version="1.0" encoding="utf-8"?>
<!-- Generator: Adobe Illustrator 18.0.0, SVG Export Plug-In . SVG Version: 6.00 Build 0)  -->
<!DOCTYPE svg PUBLIC "-//W3C//DTD SVG 1.1//EN" "http://www.w3.org/Graphics/SVG/1.1/DTD/svg11.dtd">
<svg version="1.1" id="Layer_1" xmlns="http://www.w3.org/2000/svg" xmlns:xlink="http://www.w3.org/1999/xlink" x="0px" y="0px"
	 viewBox="0 0 612 792" enable-background="new 0 0 612 792" xml:space="preserve">
<path fill="#213164" d="M545.7,253.2H66.3c-15.3,0-30.6,15.3-30.6,35.7v219.3c0,15.3,15.3,30.6,35.7,30.6h474.3
	c20.4,0,35.7-15.3,35.7-35.7V288.9C576.3,268.5,561,253.2,545.7,253.2z"/>
<path fill="#FFFFFF" d="M413.1,385.8C413.1,390.9,413.1,390.9,413.1,385.8H198.9l0,0v-66.3l0,0h214.2l0,0V385.8z"/>
<g>
	<circle fill="#FFFFFF" cx="204" cy="467.4" r="30.6"/>
	<circle fill="#FFFFFF" cx="306" cy="467.4" r="30.6"/>
	<circle fill="#FFFFFF" cx="413.1" cy="467.4" r="30.6"/>
</g>
<path fill="#FFFFFF" d="M581.4,297.3C581.4,298.2,581.4,298.2,581.4,297.3H35.7l0,0v-10.8l0,0h545.7l0,0V297.3z"/>
<g>
	<path fill="#213164" d="M153.3,272.3c0,5,4,9,9,9h287.4c5,0,9-4,9-9v-63.1c0-5-4-9-9-9H162.3c-5,0-9,4-9,9V272.3z"/>
</g>
<path fill="#FFFFFF" d="M413.1,254.2C413.1,256.1,413.1,256.1,413.1,254.2H198.9l0,0v-24.8l0,0h214.2l0,0V254.2z"/>
</svg>
