<?xml version="1.0" encoding="utf-8"?>
<!-- Generator: Adobe Illustrator 12.0.0, SVG Export Plug-In . SVG Version: 6.00 Build 51448)  -->
<!DOCTYPE svg PUBLIC "-//W3C//DTD SVG 1.1//EN" "http://www.w3.org/Graphics/SVG/1.1/DTD/svg11.dtd" [
	<!ENTITY ns_svg "http://www.w3.org/2000/svg">
	<!ENTITY ns_xlink "http://www.w3.org/1999/xlink">
]>
<svg  version="1.1" id="Layer_1" xmlns="&ns_svg;" xmlns:xlink="&ns_xlink;" width="32" height="32" viewBox="0 0 32 32"
	 overflow="visible" enable-background="new 0 0 32 32" xml:space="preserve">
<g id="unassignedSmall">
	<g opacity="0.5">
		<polygon fill="#9A9A9A" points="19.288,0.042 19.288,3.766 15.618,3.766 15.618,1.732 3.883,1.732 3.883,3.766 2.059,3.766 
			2.059,28.473 0.062,28.473 0.062,32 32,32 32,28.473 30.004,28.473 30.004,0.042 		"/>
		<g>
			<ellipse fill="#FFFFFF" cx="16.031" cy="16.11" rx="10.729" ry="10.736"/>
			<ellipse fill="#6B6B6B" cx="16.031" cy="16.11" rx="9.49" ry="9.496"/>
			<g>
				<g>
					<path fill="#FFFFFF" d="M19.063,14.999l-1.328,1.762c-0.18,0.233-0.323,0.611-0.323,0.917v0.377h-2.335v-0.539
						c0-0.771,0.216-1.258,0.683-1.869l1.329-1.708c0.287-0.377,0.521-0.809,0.521-1.204c0-0.845-0.558-1.474-1.455-1.474
						c-0.952,0-1.437,0.665-1.437,1.492h-2.335c0-2.229,1.688-3.596,3.771-3.596c2.03,0,3.79,1.312,3.79,3.596
						C19.943,13.651,19.566,14.334,19.063,14.999z M15.005,22.063v-2.391h2.479v2.391H15.005z"/>
				</g>
			</g>
		</g>
		<rect fill="none" width="31.938" height="31.957"/>
	</g>
</g>
<g id="Layer_1_1_" opacity="0.5">
</g>
</svg>
