<?xml version="1.0" encoding="iso-8859-1"?>
<!-- Generator: Adobe Illustrator 15.0.2, SVG Export Plug-In . SVG Version: 6.00 Build 0)  -->
<!DOCTYPE svg PUBLIC "-//W3C//DTD SVG 1.1//EN" "http://www.w3.org/Graphics/SVG/1.1/DTD/svg11.dtd">
<svg version="1.1" xmlns="http://www.w3.org/2000/svg" xmlns:xlink="http://www.w3.org/1999/xlink" x="0px" y="0px"
	 width="77.958px" height="77.957px" viewBox="0 0 77.958 77.957" style="enable-background:new 0 0 77.958 77.957;"
	 xml:space="preserve">
<g id="unsecure">
	<g>
		<g>
			<path style="fill:#213164;" d="M33.44,19.146v10.551c1.827-1.418,3.832-2.616,5.98-3.557v-6.993C39.42,8.587,30.841,0,20.282,0
				C9.726,0,1.147,8.588,1.147,19.146v10.551h7.176V19.146c0-6.953,5.606-12.608,12.558-12.608
				C27.833,6.538,33.44,12.192,33.44,19.146z"/>
			<g>
				<path style="fill:#213164;" d="M51.016,26.769c-14.248,0-25.797,11.46-25.797,25.595s11.55,25.593,25.797,25.593
					c14.246,0,25.796-11.458,25.796-25.593C76.812,38.229,65.262,26.769,51.016,26.769z M51.016,75.034
					c-12.622,0-22.851-10.151-22.851-22.671c0-12.521,10.229-22.673,22.851-22.673c12.618,0,22.851,10.15,22.851,22.673
					C73.865,64.883,63.634,75.034,51.016,75.034z"/>
				<path style="fill:#3EA1DA;" d="M51.014,72.922c11.428,0,20.723-9.223,20.723-20.559c0-11.338-9.295-20.562-20.723-20.562
					c-11.426,0-20.723,9.226-20.723,20.562C30.292,63.7,39.588,72.922,51.014,72.922z"/>
				<path style="fill:#213164;" d="M51.014,33.734c10.354,0,18.777,8.355,18.777,18.629c0,10.271-8.424,18.629-18.777,18.629
					c-10.353,0-18.777-8.358-18.777-18.629C32.237,42.091,40.661,33.734,51.014,33.734z"/>
				<path style="fill:#FFFFFF;" d="M48.99,63.061c-0.668,0-1.211-0.542-1.211-1.21v-8.993c0-0.187-0.127-0.497-0.26-0.648
					c-0.344-0.266-2.428-1.978-2.428-4.624c0-3.265,2.656-5.921,5.922-5.921s5.922,2.656,5.922,5.921
					c0,2.526-2.103,4.354-2.424,4.618c-0.132,0.146-0.264,0.469-0.264,0.654v8.993c0,0.668-0.543,1.21-1.211,1.21H48.99z"/>
			</g>
		</g>
		<rect style="fill:none;" width="77.958" height="77.957"/>
	</g>
</g>
<g id="Layer_1">
</g>
</svg>
