<?xml version="1.0" encoding="iso-8859-1"?>
<!-- Generator: Adobe Illustrator 15.0.2, SVG Export Plug-In . SVG Version: 6.00 Build 0)  -->
<!DOCTYPE svg PUBLIC "-//W3C//DTD SVG 1.1//EN" "http://www.w3.org/Graphics/SVG/1.1/DTD/svg11.dtd">
<svg version="1.1" xmlns="http://www.w3.org/2000/svg" xmlns:xlink="http://www.w3.org/1999/xlink" x="0px" y="0px"
	 width="77.959px" height="77.957px" viewBox="0 0 77.959 77.957" style="enable-background:new 0 0 77.959 77.957;"
	 xml:space="preserve">
<g id="voice">
	<g>
		<rect style="fill:none;" width="77.958" height="77.957"/>
		<g>
			<path style="fill:#009995;" d="M72.706,61.395c0,0,11.409-12.821,0.598-25.825c-11.514-13.85-26.386-5.097-26.386-5.097
				s14.768,0.207,22.121,9.053C76.389,48.366,72.706,61.395,72.706,61.395z"/>
			<path style="fill:#009995;" d="M61.797,63.611c0,0,8.585-9.648,0.45-19.433c-8.664-10.424-19.854-3.836-19.854-3.836
				s11.111,0.154,16.645,6.812C64.568,53.809,61.797,63.611,61.797,63.611z"/>
			<path style="fill:#009995;" d="M0.538,19.222c6.924,18.302,16.529,35.63,29.62,51.694c2.909,3.573,8.209,4.162,11.847,1.319
				c3.183-2.485,6.361-4.972,9.544-7.458c1.68-1.313,1.983-3.728,0.676-5.402l-7.513-9.649c-0.659-0.854-1.541-1.351-2.621-1.481
				c-1.075-0.13-2.051,0.143-2.906,0.805l-6.048,4.728c-6.313-8.929-11.66-18.399-16.146-28.354l7.105-2.681
				c1.015-0.383,1.75-1.073,2.189-2.057c0.438-0.981,0.454-1.987,0.056-2.985L21.814,6.372c-0.785-1.966-3.037-2.95-5.033-2.196
				C13.003,5.603,9.226,7.026,5.453,8.451C1.108,10.088-1.092,14.913,0.538,19.222z"/>
		</g>
	</g>
</g>
<g id="Layer_1">
</g>
</svg>
