<?xml version="1.0" encoding="iso-8859-1"?>
<!-- Generator: Adobe Illustrator 15.0.2, SVG Export Plug-In . SVG Version: 6.00 Build 0)  -->
<!DOCTYPE svg PUBLIC "-//W3C//DTD SVG 1.1//EN" "http://www.w3.org/Graphics/SVG/1.1/DTD/svg11.dtd">
<svg version="1.1" xmlns="http://www.w3.org/2000/svg" xmlns:xlink="http://www.w3.org/1999/xlink" x="0px" y="0px"
	 width="77.958px" height="77.957px" viewBox="0 0 77.958 77.957" style="enable-background:new 0 0 77.958 77.957;"
	 xml:space="preserve">
<g id="vpn">
	<g>
		<rect style="fill:none;" width="77.958" height="77.957"/>
		<g>
			<path style="fill:#213164;" d="M13.557,34.039L24.49,34.03c-0.04-0.33-0.073-0.659-0.073-0.989v-5.836
				c-0.013-7.563,5.371-13.724,12.007-13.729l5.081-0.003c6.616-0.003,12.007,6.145,12.021,13.707v5.832
				c0,0.333-0.014,0.66-0.041,0.99l10.94-0.01c0-0.329,0.007-0.663,0-0.992v-5.835C64.425,12.701,54.158,0.987,41.492,1
				l-5.082,0.007C23.765,1.016,13.517,12.75,13.53,27.212l0.014,5.839C13.544,33.373,13.557,33.709,13.557,34.039z"/>
			<path style="fill:#213164;" d="M65.865,37.194l-53.8,0.046v32.001c0,4.814,3.954,8.725,8.764,8.715l36.344-0.028
				c4.823,0,8.731-3.915,8.719-8.732L65.865,37.194z"/>
			<path style="fill:#FFFFFF;" d="M42.645,57.708v9.897c0,1.672-1.357,3.042-3.036,3.042h-1.258c-1.666,0-3.035-1.37-3.035-3.042
				v-9.897c-1.618-1.146-2.666-3.028-2.666-5.158c0-3.491,2.838-6.323,6.331-6.323c3.493,0,6.332,2.832,6.332,6.323
				C45.311,54.679,44.261,56.561,42.645,57.708z"/>
		</g>
	</g>
</g>
<g id="Layer_1">
</g>
</svg>
