<?xml version="1.0" encoding="iso-8859-1"?>
<!-- Generator: Adobe Illustrator 15.0.2, SVG Export Plug-In . SVG Version: 6.00 Build 0)  -->
<!DOCTYPE svg PUBLIC "-//W3C//DTD SVG 1.1//EN" "http://www.w3.org/Graphics/SVG/1.1/DTD/svg11.dtd">
<svg version="1.1" xmlns="http://www.w3.org/2000/svg" xmlns:xlink="http://www.w3.org/1999/xlink" x="0px" y="0px" width="77.96px"
	 height="77.957px" viewBox="0 0 77.96 77.957" style="enable-background:new 0 0 77.96 77.957;" xml:space="preserve">
<g id="vpnDia">
	<g>
		<rect x="0.002" style="fill:none;" width="77.958" height="77.957"/>
		<rect x="0.002" style="fill:none;" width="77.958" height="77.957"/>
		<g>
			<path style="fill:#213164;" d="M11.831,33.812c0.709-11.356,10.104-20.204,21.531-20.204c7.502,0,14.3,3.759,18.261,10.075
				c1.515-0.707,3.197-1.08,4.886-1.08c6.32,0,11.479,5.061,11.632,11.385c5.884,2.225,9.817,7.902,9.817,14.22
				c0,8.389-6.825,15.21-15.215,15.21H14.967c-3.992,0-7.75-1.559-10.58-4.39C1.556,56.197-0.002,52.438,0,48.446
				C0.002,41.387,4.958,35.283,11.831,33.812z"/>
			<path style="fill:#FFFFFF;" d="M29.455,38.224l4.097-0.004c-0.015-0.125-0.027-0.247-0.027-0.37v-2.188
				c-0.005-2.835,2.015-5.143,4.499-5.145l1.904-0.001c2.479-0.001,4.499,2.303,4.504,5.136v2.186c0,0.125-0.005,0.248-0.015,0.372
				l4.099-0.004c0-0.123,0.003-0.248,0-0.372v-2.187c0-5.42-3.847-9.812-8.593-9.807l-1.904,0.003
				c-4.739,0.005-8.579,4.4-8.574,9.82l0.007,2.188C29.45,37.974,29.455,38.1,29.455,38.224z"/>
			<path style="fill:#FFFFFF;" d="M49.056,39.78l-20.16,0.017l0.017,11.991c0,1.806,1.467,3.271,3.27,3.268l13.619-0.013
				c1.808,0,3.272-1.467,3.267-3.271L49.056,39.78z M40.354,47.468v3.709c0,0.625-0.509,1.14-1.137,1.14h-0.472
				c-0.624,0-1.139-0.513-1.139-1.14v-3.709c-0.604-0.432-0.997-1.137-0.997-1.935c0-1.309,1.062-2.37,2.37-2.37
				c1.31,0,2.372,1.062,2.372,2.37C41.353,46.331,40.96,47.037,40.354,47.468z"/>
		</g>
	</g>
</g>
<g id="Layer_1">
</g>
</svg>
