<?xml version="1.0" encoding="iso-8859-1"?>
<!-- Generator: Adobe Illustrator 15.0.2, SVG Export Plug-In . SVG Version: 6.00 Build 0)  -->
<!DOCTYPE svg PUBLIC "-//W3C//DTD SVG 1.1//EN" "http://www.w3.org/Graphics/SVG/1.1/DTD/svg11.dtd">
<svg version="1.1" xmlns="http://www.w3.org/2000/svg" xmlns:xlink="http://www.w3.org/1999/xlink" x="0px" y="0px"
	 width="77.957px" height="49.81px" viewBox="0 0 77.957 49.81" style="enable-background:new 0 0 77.957 49.81;"
	 xml:space="preserve">
<g id="vpnDiaVoice">
	<g>
		<path style="fill:#213164;" d="M11.83,20.204C12.539,8.848,21.934,0,33.361,0c7.502,0,14.3,3.759,18.261,10.075
			c1.515-0.707,3.197-1.08,4.886-1.08c6.32,0,11.479,5.061,11.633,11.385c5.884,2.225,9.816,7.902,9.816,14.22
			c0,8.389-6.824,15.21-15.215,15.21H14.967c-3.992,0-7.75-1.559-10.58-4.39C1.556,42.589-0.002,38.83,0,34.838
			C0,27.778,4.956,21.675,11.83,20.204z"/>
		<path style="fill:#FFFFFF;" d="M16.567,28.103l4.097-0.004c-0.015-0.124-0.027-0.247-0.027-0.37v-2.187
			c-0.005-2.835,2.013-5.145,4.499-5.146l1.904-0.001c2.479-0.001,4.499,2.305,4.504,5.138v2.186c0,0.125-0.005,0.248-0.015,0.372
			l4.099-0.004c0-0.123,0.003-0.248,0-0.372v-2.188c0-5.42-3.847-9.81-8.593-9.805l-1.904,0.003c-4.739,0.003-8.579,4.4-8.574,9.82
			l0.005,2.188C16.562,27.854,16.567,27.979,16.567,28.103z"/>
		<path style="fill:#FFFFFF;" d="M36.168,29.66l-20.16,0.017l0.015,11.991c0,1.804,1.467,3.269,3.27,3.266l13.619-0.011
			c1.808,0,3.272-1.467,3.267-3.271L36.168,29.66z M27.466,37.347v3.709c0,0.626-0.509,1.142-1.137,1.142h-0.472
			c-0.624,0-1.137-0.515-1.137-1.142v-3.709c-0.606-0.43-0.999-1.135-0.999-1.933c0-1.311,1.063-2.37,2.372-2.37
			s2.372,1.061,2.372,2.37C28.465,36.212,28.072,36.917,27.466,37.347z"/>
		<path style="fill:#FFFFFF;" d="M69.833,38.913c0,0,5.503-6.185,0.288-12.454c-5.553-6.679-12.725-2.458-12.725-2.458
			s7.121,0.1,10.668,4.366C71.609,32.63,69.833,38.913,69.833,38.913z"/>
		<path style="fill:#FFFFFF;" d="M64.572,39.981c0,0,4.141-4.651,0.217-9.372c-4.178-5.024-9.574-1.85-9.574-1.85
			s5.358,0.075,8.026,3.285S64.572,39.981,64.572,39.981z"/>
		<path style="fill:#FFFFFF;" d="M35.03,18.575c3.339,8.825,7.972,17.183,14.284,24.93c1.402,1.723,3.959,2.007,5.713,0.636
			c1.535-1.197,3.068-2.396,4.604-3.596c0.81-0.633,0.955-1.797,0.325-2.605l-3.623-4.652c-0.317-0.411-0.743-0.65-1.264-0.714
			c-0.519-0.063-0.989,0.066-1.401,0.388l-2.916,2.279c-3.045-4.308-5.623-8.873-7.787-13.676l3.426-1.293
			c0.49-0.185,0.845-0.518,1.057-0.99c0.211-0.475,0.219-0.958,0.027-1.44l-2.184-5.462c-0.379-0.948-1.465-1.423-2.427-1.061
			c-1.822,0.688-3.643,1.375-5.463,2.062C35.305,14.171,34.244,16.498,35.03,18.575z"/>
	</g>
</g>
<g id="Layer_1">
</g>
</svg>
