<?xml version="1.0" encoding="iso-8859-1"?>
<!-- Generator: Adobe Illustrator 15.0.2, SVG Export Plug-In . SVG Version: 6.00 Build 0)  -->
<!DOCTYPE svg PUBLIC "-//W3C//DTD SVG 1.1//EN" "http://www.w3.org/Graphics/SVG/1.1/DTD/svg11.dtd">
<svg version="1.1" xmlns="http://www.w3.org/2000/svg" xmlns:xlink="http://www.w3.org/1999/xlink" x="0px" y="0px"
	 width="77.958px" height="77.957px" viewBox="0 0 77.958 77.957" style="enable-background:new 0 0 77.958 77.957;"
	 xml:space="preserve">
<g id="vpnVoice">
	<g>
		<rect style="fill:none;" width="77.958" height="77.957"/>
		<g>
			<path style="fill:#213164;" d="M0.772,38.979l5.667-0.005c-0.021-0.171-0.038-0.342-0.038-0.512v-3.025
				c-0.007-3.921,2.784-7.113,6.226-7.117l2.634-0.002c3.429-0.002,6.224,3.187,6.229,7.105v3.021c0,0.172-0.007,0.343-0.021,0.516
				l5.67-0.007c0-0.171,0.003-0.343,0-0.514v-3.025c0-7.497-5.322-13.567-11.887-13.562l-2.635,0.004
				C6.062,21.859,0.752,27.943,0.759,35.439l0.007,3.026C0.766,38.634,0.772,38.808,0.772,38.979z"/>
			<path style="fill:#213164;" d="M27.887,41.133L0,41.155l0.02,16.587c0,2.495,2.029,4.522,4.523,4.519l18.838-0.016
				c2.501,0,4.524-2.028,4.519-4.525L27.887,41.133z"/>
			<path style="fill:#FFFFFF;" d="M15.85,51.766v5.13c0,0.867-0.703,1.577-1.573,1.577h-0.65c-0.863,0-1.573-0.71-1.573-1.577v-5.13
				c-0.839-0.595-1.382-1.571-1.382-2.674c0-1.812,1.471-3.278,3.28-3.278c1.812,0,3.282,1.468,3.282,3.278
				C17.231,50.194,16.688,51.171,15.85,51.766z"/>
			<path style="fill:#009995;" d="M74.454,53.932c0,0,7.609-8.553,0.397-17.229c-7.681-9.237-17.601-3.398-17.601-3.398
				s9.85,0.138,14.756,6.039C76.91,45.24,74.454,53.932,74.454,53.932z"/>
			<path style="fill:#009995;" d="M67.177,55.41c0,0,5.727-6.436,0.3-12.964c-5.78-6.952-13.245-2.559-13.245-2.559
				s7.412,0.104,11.104,4.544C69.025,48.87,67.177,55.41,67.177,55.41z"/>
			<path style="fill:#009995;" d="M26.312,25.799c4.619,12.209,11.026,23.768,19.759,34.483c1.94,2.385,5.478,2.777,7.903,0.881
				c2.123-1.657,4.243-3.316,6.367-4.976c1.12-0.876,1.323-2.483,0.45-3.604l-5.013-6.438c-0.438-0.566-1.026-0.898-1.747-0.988
				c-0.718-0.087-1.367,0.096-1.938,0.537l-4.034,3.152c-4.211-5.956-7.778-12.274-10.77-18.914l4.738-1.789
				c0.679-0.256,1.167-0.716,1.46-1.372c0.292-0.655,0.305-1.325,0.037-1.991l-3.02-7.556c-0.524-1.312-2.026-1.968-3.357-1.465
				c-2.52,0.95-5.04,1.898-7.557,2.852C26.692,19.707,25.225,22.926,26.312,25.799z"/>
		</g>
	</g>
</g>
<g id="Layer_1">
</g>
</svg>
