<?xml version="1.0" encoding="utf-8"?>
<!-- Generator: Adobe Illustrator 12.0.0, SVG Export Plug-In . SVG Version: 6.00 Build 51448)  -->
<!DOCTYPE svg PUBLIC "-//W3C//DTD SVG 1.1//EN" "http://www.w3.org/Graphics/SVG/1.1/DTD/svg11.dtd" [
	<!ENTITY ns_svg "http://www.w3.org/2000/svg">
	<!ENTITY ns_xlink "http://www.w3.org/1999/xlink">
]>
<svg  version="1.1" id="Layer_1" xmlns="&ns_svg;" xmlns:xlink="&ns_xlink;" width="47.446" height="30.781"
	 viewBox="0 0 47.446 30.781" overflow="visible" enable-background="new 0 0 47.446 30.781" xml:space="preserve">
<path fill="#CDCBCB" d="M46.547,19.556c0.136-0.292-0.039-0.56-0.512-0.669l-4.944-1.148V7.68l-8.683,6.389l0.007,2.658
	l-0.022-0.002l-0.003-2.656L6.44,7.104l0.003,9.426l-5.25,3.669c-0.342,0.239-0.44,0.508-0.31,0.718
	c-0.069,0.259,0.11,0.495,0.529,0.61l30.365,8.359c0.648,0.18,1.62-0.003,2.16-0.406l12.336-9.185
	C46.617,20.04,46.701,19.762,46.547,19.556 M41.021,7.605L15.008,0.827L6.465,7.054l25.941,6.942L41.021,7.605z"/>
<path fill="#D9D7C5" d="M31.558,30.683L1.189,22.324c-0.273-0.078-0.531-0.195-0.757-0.406c-0.221-0.204-0.395-0.542-0.392-0.886
	C0.014,20.932,0,20.83,0,20.728c0.015-0.584,0.363-0.952,0.719-1.206l4.897-3.423L5.614,7.104c0-0.14,0.035-0.278,0.101-0.397
	c0.058-0.125,0.148-0.236,0.264-0.32l8.542-6.229c0.201-0.146,0.455-0.194,0.696-0.131l26.013,6.778l-0.016,0.057l0.016-0.057
	c0.173,0.045,0.323,0.144,0.432,0.277c0.161,0.154,0.257,0.369,0.257,0.598v9.401l4.302,1.001c0.277,0.065,0.543,0.172,0.78,0.379
	c0.235,0.199,0.424,0.551,0.419,0.907c0,0.041-0.004,0.08-0.008,0.12c0.023,0.092,0.036,0.188,0.035,0.284
	c-0.014,0.563-0.339,0.928-0.681,1.186l-12.337,9.188c-0.61,0.438-1.355,0.626-2.094,0.636
	C32.076,30.78,31.816,30.754,31.558,30.683 M33.442,28.817l12.285-9.146c0-0.002-0.001-0.004-0.001-0.006l-4.823-1.121
	c-0.374-0.088-0.64-0.42-0.64-0.804V9.314l-7.028,5.17l0.007,2.239c0.002,0.232-0.095,0.451-0.265,0.609
	c-0.171,0.158-0.397,0.236-0.631,0.217l-0.022-0.002c-0.428-0.036-0.759-0.394-0.76-0.822l-0.001-2.024L7.267,8.181L7.27,16.53
	c0,0.271-0.132,0.522-0.354,0.679l-5.11,3.57l30.189,8.311c0.079,0.022,0.199,0.039,0.34,0.037
	C32.729,29.137,33.255,28.97,33.442,28.817 M47.294,19.907l-0.747-0.351l-0.288,0.216l0.288-0.216L47.294,19.907z M8.35,6.703
	l23.884,6.392l6.907-5.125L15.178,1.725L8.35,6.703z"/>
<path fill="#969688" d="M9.281,14.715l-7.368,5.327c-0.908,0.657-0.767,1.438,0.313,1.735l28.793,7.926
	c1.08,0.298,2.701-0.006,3.6-0.676l11.028-8.212c0.9-0.669,0.742-1.425-0.351-1.679l-5.457-1.267"/>
<path fill="#F4F6EB" d="M9.367,14.541l-7.478,5.226c-0.919,0.643-0.786,1.41,0.295,1.705l28.807,7.881
	c1.08,0.296,2.699-0.013,3.598-0.683l11.034-8.252c0.896-0.67,0.737-1.427-0.354-1.681l-5.458-1.269"/>
<polygon fill="#9A8F57" points="32.479,27.183 41.118,20.694 41.118,7.714 32.435,14.102 "/>
<polygon fill="#AFA67A" points="32.435,14.031 6.493,7.088 15.036,0.861 41.05,7.64 "/>
<polygon fill="#878686" points="7.627,22.959 9.972,21.211 10.232,21.281 7.888,23.032 "/>
<polygon fill="#878686" points="12.803,24.367 15.147,22.618 15.408,22.687 13.064,24.438 "/>
<polygon fill="#878686" points="17.998,25.786 20.341,24.037 20.602,24.104 18.258,25.855 "/>
<polygon fill="#878686" points="23.203,27.187 25.548,25.438 25.808,25.507 23.464,27.258 "/>
<polygon fill="#878686" points="28.39,28.606 30.734,26.856 30.994,26.924 28.649,28.675 "/>
<polygon fill="#878686" points="40.833,20.872 41.052,20.713 44.107,21.539 43.89,21.694 "/>
<polygon fill="#878686" points="37.6,23.282 37.818,23.125 40.875,23.949 40.657,24.104 "/>
<polygon fill="#878686" points="34.351,25.735 34.568,25.579 37.625,26.402 37.408,26.558 "/>
<polygon fill="#878686" points="4.747,17.793 4.966,17.636 8.021,18.458 7.804,18.617 "/>
<polygon fill="#AFA67A" points="6.472,20.127 32.435,27.156 32.418,14.102 6.469,7.138 "/>
<polygon fill="#DCDCCF" points="9.504,20.808 7.08,20.165 7.08,12.339 9.504,12.982 "/>
<polygon fill="#DCDCCF" points="12.281,21.516 9.856,20.872 9.856,13.046 12.281,13.69 "/>
<polygon fill="#DCDCCF" points="15.057,22.224 12.631,21.582 12.631,13.756 15.057,14.398 "/>
<polygon fill="#DCDCCF" points="17.833,23.028 15.407,22.384 15.407,14.558 17.833,15.202 "/>
<polygon fill="#DCDCCF" points="20.608,23.771 18.184,23.126 18.184,15.301 20.608,15.945 "/>
<polygon fill="#DCDCCF" points="23.384,24.508 20.959,23.864 20.959,16.039 23.384,16.682 "/>
<polygon fill="#DCDCCF" points="26.159,25.278 23.734,24.633 23.734,16.807 26.159,17.451 "/>
<polygon fill="#DCDCCF" points="28.937,26.045 26.511,25.403 26.511,17.576 28.937,18.22 "/>
<polygon fill="#DCDCCF" points="31.712,26.798 29.286,26.154 29.286,18.328 31.712,18.972 "/>
<polygon fill="#BBBDAC" points="38.03,22.848 35.921,24.389 35.921,16.563 38.03,15.022 "/>
<polygon fill="#BBBDAC" points="40.675,20.934 38.567,22.475 38.567,14.65 40.675,13.108 "/>
<polygon fill="#BBBDAC" points="35.332,24.918 33.223,26.459 33.223,18.634 35.332,17.092 "/>
<line fill="none" stroke="#9A8F57" stroke-width="0.6" x1="7.159" y1="11.332" x2="31.763" y2="17.94"/>
<line fill="none" stroke="#D9D7C5" stroke-width="0.6" x1="7.159" y1="11.064" x2="31.763" y2="17.673"/>
<line fill="none" stroke="#9A8F57" stroke-width="0.6" x1="7.159" y1="10.695" x2="31.763" y2="17.303"/>
<line fill="none" stroke="#D9D7C5" stroke-width="0.6" x1="7.159" y1="10.427" x2="31.763" y2="17.036"/>
<polygon fill="#D9D7C5" points="32.048,13.525 8.752,7.332 15.29,2.662 38.651,8.706 "/>
<polygon fill="#9A8F57" points="15.214,2.544 15.214,1.344 7.774,6.912 8.831,7.2 "/>
<polygon fill="#9A8F57" points="19.61,9.094 22.593,6.855 22.593,3.368 19.595,5.573 "/>
<polygon fill="#D9D7C5" points="19.595,5.548 14.467,4.114 17.415,1.965 22.568,3.342 "/>
<polygon fill="#AFA67A" points="14.479,7.64 19.595,9.084 19.589,5.573 14.478,4.149 "/>
<polygon fill="#9A8F57" points="31.021,12.161 34.003,9.921 34.003,6.435 31.005,8.639 "/>
<polygon fill="#D9D7C5" points="31.005,8.614 25.876,7.18 28.825,5.032 33.978,6.409 "/>
<polygon fill="#AFA67A" points="25.889,10.706 31.005,12.151 31,8.639 25.889,7.217 "/>
<line fill="none" stroke="#AFA67A" stroke-width="0.6" x1="7.072" y1="13.983" x2="31.873" y2="20.591"/>
<line fill="none" stroke="#9A8F57" stroke-width="0.6" x1="32.865" y1="20.481" x2="41.021" y2="14.474"/>
</svg>
