<?xml version="1.0" encoding="utf-8"?>
<!-- Generator: Adobe Illustrator 12.0.0, SVG Export Plug-In . SVG Version: 6.00 Build 51448)  -->
<!DOCTYPE svg PUBLIC "-//W3C//DTD SVG 1.1//EN" "http://www.w3.org/Graphics/SVG/1.1/DTD/svg11.dtd" [
	<!ENTITY ns_svg "http://www.w3.org/2000/svg">
	<!ENTITY ns_xlink "http://www.w3.org/1999/xlink">
]>
<svg  version="1.1" id="Layer_1" xmlns="&ns_svg;" xmlns:xlink="&ns_xlink;" width="27.225" height="34.366"
	 viewBox="0 0 27.225 34.366" overflow="visible" enable-background="new 0 0 27.225 34.366" xml:space="preserve">
<path fill="#FFFFFF" d="M8.08,7.625l0.001,4.949L6.563,13.68l0.02,0.059l0.001,10.633l-3.047,2.244L3.53,26.615l-0.237,0.171
	l0.01,0.002l-2.018,1.487c-0.365,0.269-0.467,0.568-0.322,0.804c-0.074,0.285,0.124,0.545,0.58,0.67l13.258,3.644
	c0.707,0.192,1.766-0.004,2.354-0.438l8.791-6.498c0.376-0.278,0.467-0.58,0.299-0.805c0.15-0.314-0.04-0.605-0.557-0.725
	l-5.576-1.297V12.435l-0.041-0.043l-1.294-0.346V6.594L18.744,6.56l-1.396-0.373V2.256l-0.024-0.025L12.344,0.9l-2.85,2.077
	l0.011,0.035l0.001,3.516l-1.441,1.05L8.08,7.625z"/>
<path fill="#D9D7C5" d="M14.561,34.258L1.303,30.616c-0.3-0.085-0.583-0.215-0.83-0.448c-0.242-0.224-0.426-0.588-0.425-0.96
	c-0.032-0.113-0.049-0.23-0.048-0.35c0.013-0.612,0.37-1.023,0.751-1.308l1.909-1.405c0.032-0.033,0.068-0.063,0.107-0.09
	l0.237-0.172c0.026-0.019,0.053-0.035,0.081-0.053l2.599-1.916L5.683,13.861c-0.072-0.342,0.062-0.699,0.35-0.909l1.148-0.837
	L7.18,7.742c-0.063-0.337,0.074-0.686,0.355-0.89l1.07-0.781L8.604,3.115C8.555,2.787,8.689,2.45,8.963,2.25l2.849-2.077
	c0.218-0.159,0.501-0.212,0.763-0.143l4.981,1.331c0.155,0.042,0.299,0.127,0.412,0.243l0.024,0.025
	c0.162,0.167,0.255,0.393,0.255,0.627l-0.001,3.24l0.729,0.194c0.16,0.043,0.302,0.127,0.416,0.247l0.033,0.034
	c0.162,0.169,0.25,0.39,0.25,0.623v4.761l0.627,0.167c0.16,0.044,0.305,0.129,0.42,0.25l0.041,0.043
	c0.157,0.167,0.248,0.39,0.248,0.62L21.01,22.914l4.881,1.136c0.301,0.07,0.588,0.186,0.847,0.41
	c0.257,0.217,0.463,0.598,0.456,0.987c0,0.044-0.004,0.088-0.008,0.131c0.026,0.1,0.041,0.204,0.039,0.31
	c-0.016,0.614-0.373,1.01-0.746,1.293l-8.791,6.497c-0.666,0.474-1.475,0.677-2.276,0.688
	C15.129,34.365,14.846,34.334,14.561,34.258 M16.62,32.229l8.731-6.455V25.77l-5.444-1.265c-0.407-0.095-0.696-0.459-0.696-0.876
	V13.094l-0.667-0.178c-0.396-0.106-0.669-0.462-0.669-0.87V7.259l-0.76-0.203c-0.395-0.106-0.668-0.462-0.668-0.87V2.929
	L12.526,1.88l-2.123,1.547l0.001,3.1c0,0.289-0.136,0.557-0.369,0.727l-1.056,0.77l0.001,4.548c0,0.289-0.135,0.558-0.369,0.728
	l-1.128,0.823V24.37c0,0.286-0.135,0.555-0.366,0.724L4.07,27.339c-0.029,0.022-0.06,0.041-0.092,0.06l-0.052,0.039
	c-0.029,0.026-0.058,0.052-0.089,0.074l-1.91,1.408l13.111,3.602c0.086,0.025,0.22,0.043,0.373,0.041
	C15.842,32.575,16.415,32.395,16.62,32.229 M8.08,7.625L8.095,7.62L8.08,7.625z"/>
<path fill="#969688" d="M10.026,22.173l-7.949,5.873c-0.981,0.726-0.822,1.583,0.355,1.905l11.547,3.173
	c1.177,0.323,2.942-0.007,3.924-0.731l7.362-5.441c0.98-0.725,0.813-1.545-0.377-1.82l-5.942-1.381"/>
<path fill="#F4F6EB" d="M9.976,21.865l-7.942,5.854c-0.983,0.724-0.823,1.576,0.355,1.896l11.56,3.131
	c1.176,0.319,2.943-0.017,3.922-0.744l7.369-5.481c0.979-0.728,0.807-1.549-0.383-1.825l-5.941-1.382"/>
<polygon fill="#878686" points="5.47,30.384 8.023,28.481 8.306,28.555 5.754,30.46 "/>
<polygon fill="#878686" points="11.116,31.928 13.669,30.024 13.953,30.1 11.4,32.006 "/>
<polygon fill="#878686" points="19.145,25.866 21.697,23.961 21.98,24.038 19.428,25.943 "/>
<polygon fill="#878686" points="19.434,27.483 19.672,27.312 22.998,28.208 22.762,28.379 "/>
<polygon fill="#878686" points="15.896,30.154 16.133,29.983 19.461,30.879 19.225,31.049 "/>
<polygon fill="#878686" points="3.326,26.754 3.563,26.583 6.891,27.48 6.653,27.65 "/>
<polygon fill="#93A57C" points="15.098,31.09 20.07,27.356 20.07,12.782 15.074,16.458 "/>
<polygon fill="#8C9F76" points="15.071,16.417 6.522,14.026 11.438,10.443 20.028,12.739 "/>
<polygon fill="#98AA81" points="6.543,28.665 15.073,31.075 15.063,16.458 6.541,14.085 "/>
<polygon fill="#93A57C" points="18.735,12.56 18.735,6.94 14.783,9.847 14.803,15.513 "/>
<polygon fill="#8C9F76" points="14.783,9.815 8.023,7.925 11.909,5.092 18.702,6.908 "/>
<polygon fill="#98AA81" points="14.783,15.499 14.776,9.847 8.039,7.972 8.04,13.595 "/>
<polygon fill="#93A57C" points="17.306,6.723 17.306,2.603 14.41,4.734 14.424,8.888 "/>
<polygon fill="#8C9F76" points="14.409,4.71 9.452,3.325 12.302,1.248 17.282,2.579 "/>
<polygon fill="#98AA81" points="14.409,8.879 14.403,4.734 9.463,3.359 9.464,7.482 "/>
<polygon fill="#ACBE94" points="9.12,18.766 7.178,18.25 7.178,15.058 9.12,15.574 "/>
<polygon fill="#ACBE94" points="11.691,19.435 9.749,18.926 9.749,15.735 11.691,16.244 "/>
<polygon fill="#ACBE94" points="14.38,20.176 12.438,19.654 12.438,16.462 14.38,16.986 "/>
<polygon fill="#ACBE94" points="9.12,22.324 7.178,21.807 7.178,18.617 9.12,19.133 "/>
<polygon fill="#ACBE94" points="11.691,22.994 9.749,22.486 9.749,19.293 11.691,19.801 "/>
<polygon fill="#ACBE94" points="14.38,23.735 12.438,23.212 12.438,20.02 14.38,20.543 "/>
<polygon fill="#ACBE94" points="9.12,25.815 7.178,25.299 7.178,22.108 9.12,22.624 "/>
<polygon fill="#ACBE94" points="11.691,26.485 9.749,25.977 9.749,22.785 11.691,23.293 "/>
<polygon fill="#ACBE94" points="14.38,27.226 12.438,26.704 12.438,23.511 14.38,24.036 "/>
<polygon fill="#ACBE94" points="10.04,11.484 8.437,11.059 8.437,8.425 10.04,8.851 "/>
<polygon fill="#ACBE94" points="12.215,12.072 10.612,11.653 10.612,9.02 12.215,9.439 "/>
<polygon fill="#ACBE94" points="14.379,12.649 12.776,12.216 12.776,9.583 14.379,10.016 "/>
<polygon fill="#ACBE94" points="10.04,13.79 8.437,13.365 8.437,11.452 10.04,11.877 "/>
<polygon fill="#ACBE94" points="12.215,14.378 10.612,13.959 10.612,12.046 12.215,12.465 "/>
<polygon fill="#ACBE94" points="14.379,14.955 12.776,14.522 12.776,12.61 14.379,13.042 "/>
<polygon fill="#ACBE94" points="11.662,7.311 10.058,6.891 10.058,4.258 11.662,4.678 "/>
<polygon fill="#ACBE94" points="13.825,7.886 12.222,7.455 12.222,4.822 13.825,5.253 "/>
<polygon fill="#84966D" points="15.804,7.253 14.798,7.998 14.798,5.364 15.804,4.621 "/>
<polygon fill="#84966D" points="17.063,6.348 16.058,7.092 16.058,4.458 17.063,3.714 "/>
<polygon fill="#84966D" points="16.108,11.952 15.103,12.695 15.103,10.062 16.108,9.319 "/>
<polygon fill="#84966D" points="17.368,11.067 16.362,11.812 16.362,9.177 17.368,8.435 "/>
<polygon fill="#84966D" points="18.584,10.193 17.577,10.937 17.577,8.303 18.584,7.56 "/>
<polygon fill="#84966D" points="16.698,19.341 15.446,20.267 15.446,16.991 16.698,16.066 "/>
<polygon fill="#84966D" points="18.266,18.243 17.014,19.167 17.014,15.892 18.266,14.966 "/>
<polygon fill="#84966D" points="19.777,17.155 18.525,18.079 18.525,14.804 19.777,13.878 "/>
<polygon fill="#84966D" points="16.698,22.899 15.446,23.823 15.446,20.548 16.698,19.624 "/>
<polygon fill="#84966D" points="18.266,21.799 17.014,22.725 17.014,19.449 18.266,18.524 "/>
<polygon fill="#84966D" points="19.777,20.711 18.525,21.637 18.525,18.362 19.777,17.436 "/>
<polygon fill="#84966D" points="16.698,26.43 15.446,27.356 15.446,24.081 16.698,23.155 "/>
<polygon fill="#84966D" points="18.266,25.332 17.014,26.256 17.014,22.981 18.266,22.055 "/>
<polygon fill="#84966D" points="19.777,24.243 18.525,25.169 18.525,21.893 19.777,20.968 "/>
<polygon fill="#84966D" points="16.108,14.156 15.103,14.9 15.103,13.086 16.108,12.342 "/>
<polygon fill="#84966D" points="17.368,13.272 16.362,14.016 16.362,12.202 17.368,11.458 "/>
<polygon fill="#84966D" points="18.584,12.398 17.577,13.142 17.577,11.328 18.584,10.584 "/>
<path fill="#ACBE94" d="M9.125,27.377c0-0.602-0.436-1.152-0.972-1.232c-0.514-0.076-0.93,0.311-0.966,0.871l-0.009-0.004v1.835
	l1.942,0.546v-1.865l-0.009-0.002C9.118,27.477,9.125,27.429,9.125,27.377"/>
<path fill="#ACBE94" d="M11.683,28.196c0.002-0.027,0.008-0.055,0.008-0.082c0-0.602-0.436-1.152-0.973-1.23
	c-0.495-0.073-0.899,0.282-0.96,0.809l-0.01-0.002v0.109c0,0.01-0.002,0.019-0.002,0.027c0,0.01,0.002,0.018,0.002,0.028v1.714
	l1.944,0.55v-1.921L11.683,28.196z"/>
<path fill="#ACBE94" d="M14.355,28.881c0.003-0.034,0.01-0.066,0.01-0.104c0-0.6-0.436-1.151-0.973-1.23
	c-0.496-0.073-0.902,0.285-0.96,0.816l-0.009-0.002v0.1c-0.001,0.01-0.003,0.02-0.003,0.029c0,0.012,0.002,0.021,0.003,0.033v1.746
	l1.944,0.553v-1.938L14.355,28.881z"/>
<path fill="#84966D" d="M16.698,28.078v-0.006v-0.152l-0.011,0.007c-0.045-0.471-0.303-0.688-0.615-0.482
	c-0.336,0.219-0.605,0.837-0.623,1.398l-0.003,0.004v0.043v0.006v0.007v1.913l1.252-0.924v-1.808V28.078z"/>
<path fill="#84966D" d="M18.273,26.918c0-0.045-0.004-0.086-0.008-0.128v-0.078l-0.006,0.004c-0.058-0.437-0.31-0.629-0.613-0.432
	c-0.323,0.212-0.587,0.797-0.619,1.343l-0.014,0.011v1.998l1.252-0.925v-1.654C18.27,27.011,18.273,26.964,18.273,26.918"/>
<path fill="#84966D" d="M19.771,25.843c-0.022-0.522-0.291-0.774-0.622-0.56c-0.346,0.226-0.626,0.875-0.626,1.453
	c0,0.011,0.002,0.021,0.003,0.031v1.748l1.252-0.934v-1.743L19.771,25.843z"/>
</svg>
