<?xml version="1.0" encoding="utf-8"?>
<!-- Generator: Adobe Illustrator 12.0.0, SVG Export Plug-In . SVG Version: 6.00 Build 51448)  -->
<!DOCTYPE svg PUBLIC "-//W3C//DTD SVG 1.1//EN" "http://www.w3.org/Graphics/SVG/1.1/DTD/svg11.dtd" [
	<!ENTITY ns_svg "http://www.w3.org/2000/svg">
	<!ENTITY ns_xlink "http://www.w3.org/1999/xlink">
]>
<svg  version="1.1" id="Layer_1" xmlns="&ns_svg;" xmlns:xlink="&ns_xlink;" width="46.604" height="44.035"
	 viewBox="0 0 46.604 44.035" overflow="visible" enable-background="new 0 0 46.604 44.035" xml:space="preserve">
<path fill="#FFFFFF" d="M7.039,11.899H7.012l0.004,17.828l-5.717,3.995c-0.372,0.26-0.48,0.553-0.34,0.785
	c-0.073,0.281,0.123,0.539,0.576,0.668l28.011,7.882c0.705,0.198,1.763,0.003,2.35-0.435l13.43-9.998
	c0.375-0.281,0.467-0.582,0.299-0.808c0.148-0.317-0.043-0.608-0.557-0.728l-5.384-1.25V11.323 M39.608,11.242L27.719,8.086V2.441
	c0-0.199-0.161-0.359-0.36-0.359S27,2.242,27,2.441v0.412L22.324,1.65V1.26c0-0.199-0.16-0.36-0.359-0.36
	c-0.2,0-0.361,0.161-0.361,0.36v0.619l-2.016,1.503V3.059c0-0.2-0.161-0.36-0.36-0.36s-0.36,0.16-0.36,0.36v2.678L16.34,5.065
	l-9.301,6.78v0.054l32.477-0.573L39.608,11.242z M19.588,5.929V4.564l1.629,0.419L19.855,6L19.588,5.929z M21.604,6.462
	l-0.861-0.228l0.861-0.642V6.462z M21.604,4.339l-1.558-0.4l1.558-1.162V4.339z M24.185,7.147l-1.861-0.493V5.269l1.861,0.479V7.147
	z M24.546,4.21c-0.199,0-0.361,0.16-0.361,0.359v0.375l-1.861-0.479V2.394l4.216,1.086l-1.635,1.219V4.569
	C24.906,4.371,24.744,4.21,24.546,4.21 M24.906,7.339V5.873l1.635,0.421l-1.463,1.092L24.906,7.339z M27,7.896l-1.033-0.275L27,6.85
	V7.896z M27,5.668L25.371,5.25L27,4.036V5.668z"/>
<path fill="#D8D6C4" d="M29.303,43.924L1.29,36.041c-0.298-0.084-0.578-0.217-0.821-0.447c-0.242-0.224-0.427-0.588-0.425-0.961
	C0.015,34.524-0.001,34.411,0,34.299c0.016-0.633,0.393-1.039,0.784-1.314l5.331-3.727L6.112,11.899
	c0-0.153,0.039-0.298,0.107-0.424c0.063-0.141,0.162-0.264,0.29-0.357l9.3-6.78c0.219-0.159,0.5-0.213,0.761-0.143l1.398,0.371
	V3.058c0.001-0.694,0.565-1.259,1.26-1.26c0.256,0.001,0.496,0.078,0.696,0.211l0.78-0.581V1.261c0.001-0.695,0.564-1.26,1.26-1.261
	c0.588,0.001,1.078,0.401,1.219,0.942l3.126,0.804c0.228-0.339,0.612-0.563,1.05-0.563c0.693,0,1.26,0.56,1.26,1.258v4.953
	l11.222,2.978l-0.019,0.062l0.019-0.062c0.185,0.049,0.347,0.155,0.464,0.299c0.172,0.163,0.281,0.396,0.281,0.652l-0.002,17.801
	l4.685,1.088c0.302,0.072,0.593,0.188,0.851,0.413c0.256,0.219,0.461,0.6,0.453,0.988c0,0.044-0.002,0.088-0.007,0.131
	c0.026,0.1,0.04,0.205,0.039,0.309c-0.015,0.613-0.368,1.01-0.741,1.293l-13.431,10c-0.662,0.476-1.467,0.679-2.267,0.689
	C29.876,44.034,29.588,44.004,29.303,43.924 M31.358,41.9l13.374-9.957c0-0.002-0.001-0.006-0.001-0.008l-5.251-1.221
	c-0.406-0.094-0.695-0.457-0.695-0.875V12.239L7.912,12.784l0.004,16.942c0,0.295-0.143,0.568-0.385,0.738l-5.573,3.895l27.831,7.83
	c0.088,0.027,0.225,0.045,0.377,0.045C30.593,42.245,31.158,42.066,31.358,41.9 M9.795,10.95l23.636-0.417l-5.943-1.577
	c-0.127-0.034-0.24-0.094-0.338-0.174c-0.126,0.022-0.256,0.016-0.383-0.017L25.734,8.49c-0.158-0.042-0.3-0.127-0.41-0.24
	c-0.154,0.043-0.32,0.046-0.478,0.005l-0.172-0.047l0.101-0.382l-0.101,0.382c-0.127-0.033-0.242-0.093-0.339-0.173
	c-0.127,0.021-0.256,0.016-0.382-0.018l-1.86-0.493C21.966,7.49,21.851,7.43,21.754,7.35c-0.125,0.021-0.255,0.016-0.381-0.018
	l-0.862-0.228c-0.158-0.043-0.299-0.128-0.412-0.241c-0.153,0.044-0.318,0.047-0.476,0.006l-0.265-0.072l0.101-0.382l-0.101,0.382
	c-0.128-0.033-0.243-0.093-0.34-0.173c-0.126,0.021-0.255,0.016-0.381-0.018l-2.114-0.561L9.795,10.95z M25.111,7.339h-0.022H25.111
	z M19.896,5.928h-0.023H19.896z M19.802,5.928h-0.055H19.802z M24.544,4.569V4.216V4.569z M23.224,3.767l0.292,0.075
	c0.044-0.062,0.095-0.121,0.148-0.174l-0.44-0.113V3.767z"/>
<path fill="#969687" d="M9.934,27.734l-8.022,5.801c-0.989,0.716-0.837,1.57,0.338,1.902l26.303,7.399
	c1.174,0.331,2.937,0.005,3.916-0.724l12.006-8.94c0.979-0.729,0.808-1.551-0.381-1.827l-5.942-1.381"/>
<path fill="#F3F6EA" d="M10.027,27.545l-8.141,5.689c-1,0.699-0.857,1.539,0.319,1.867l26.315,7.353
	c1.176,0.329,2.938-0.001,3.914-0.731l12.012-8.982c0.978-0.73,0.806-1.555-0.383-1.831l-5.942-1.382"/>
<polygon fill="#A1987A" points="30.136,39.745 39.544,32.68 39.544,11.343 30.091,18.298 "/>
<polygon fill="#E3E1D1" points="30.089,18.22 6.9,11.866 16.2,5.086 39.468,11.262 "/>
<polygon fill="#868585" points="8.134,36.711 10.686,34.808 10.97,34.883 8.418,36.787 "/>
<polygon fill="#868585" points="14.372,38.583 16.923,36.68 17.208,36.754 14.656,38.659 "/>
<polygon fill="#868585" points="20.039,40.109 22.591,38.206 22.875,38.281 20.323,40.186 "/>
<polygon fill="#868585" points="25.686,41.653 28.238,39.75 28.522,39.824 25.97,41.73 "/>
<polygon fill="#868585" points="39.234,33.233 39.47,33.063 42.798,33.959 42.562,34.129 "/>
<polygon fill="#868585" points="35.712,35.858 35.951,35.687 39.279,36.582 39.041,36.754 "/>
<polygon fill="#868585" points="32.175,38.529 32.414,38.358 35.741,39.254 35.503,39.426 "/>
<polygon fill="#B0AE99" points="6.876,33.266 30.091,39.715 30.072,18.298 6.872,11.92 "/>
<polygon fill="#C6BDA2" points="29.667,17.669 9.358,12.131 16.478,7.046 36.859,12.422 "/>
<polygon fill="#BEB28E" points="16.395,6.918 16.395,5.612 8.11,11.76 9.304,12.085 "/>
<polygon fill="#BEB28E" points="24.541,14.825 28.343,11.971 28.343,11.377 24.522,14.188 "/>
<polygon fill="#E3E1D1" points="24.523,14.156 17.985,12.329 21.743,9.59 28.312,11.344 "/>
<polygon fill="#D4CDB4" points="18.001,12.972 24.522,14.813 24.514,14.187 17.999,12.374 "/>
<polygon fill="#E2E2D2" points="7.291,18.351 14.434,20.271 14.428,16.837 7.29,14.94 "/>
<polygon fill="#C6BDA2" points="7.591,18.436 7.292,18.348 7.292,14.938 7.591,15.026 "/>
<polygon fill="#C6BDA2" points="14.42,19.933 14.414,20.255 7.31,18.357 7.463,18.088 "/>
<polygon fill="#E2E2D2" points="14.766,20.358 21.909,22.279 21.902,18.846 14.765,16.948 "/>
<polygon fill="#C6BDA2" points="15.065,20.444 14.767,20.356 14.767,16.946 15.065,17.034 "/>
<polygon fill="#C6BDA2" points="21.894,21.941 21.888,22.263 14.784,20.367 14.937,20.096 "/>
<polygon fill="#E2E2D2" points="22.297,22.387 29.44,24.307 29.434,20.873 22.296,18.977 "/>
<polygon fill="#C6BDA2" points="22.597,22.472 22.298,22.384 22.298,18.974 22.597,19.062 "/>
<polygon fill="#C6BDA2" points="29.425,23.969 29.419,24.291 22.316,22.394 22.469,22.124 "/>
<polygon fill="#E2E2D2" points="7.291,22.753 14.434,24.674 14.428,21.24 7.29,19.343 "/>
<polygon fill="#C6BDA2" points="7.591,22.839 7.292,22.751 7.292,19.342 7.591,19.43 "/>
<polygon fill="#C6BDA2" points="14.42,24.336 14.414,24.658 7.31,22.762 7.463,22.491 "/>
<polygon fill="#E2E2D2" points="14.766,24.762 21.909,26.683 21.902,23.248 14.765,21.352 "/>
<polygon fill="#C6BDA2" points="15.065,24.848 14.767,24.76 14.767,21.35 15.065,21.438 "/>
<polygon fill="#C6BDA2" points="21.894,26.344 21.888,26.666 14.784,24.77 14.937,24.5 "/>
<polygon fill="#E2E2D2" points="22.297,26.79 29.44,28.71 29.434,25.275 22.296,23.38 "/>
<polygon fill="#C6BDA2" points="22.597,26.876 22.298,26.788 22.298,23.378 22.597,23.466 "/>
<polygon fill="#C6BDA2" points="29.425,28.373 29.419,28.694 22.316,26.797 22.469,26.526 "/>
<polygon fill="#E2E2D2" points="7.291,27.137 14.434,29.057 14.428,25.623 7.29,23.727 "/>
<polygon fill="#C6BDA2" points="7.591,27.223 7.292,27.135 7.292,23.725 7.591,23.813 "/>
<polygon fill="#C6BDA2" points="14.42,28.719 14.414,29.041 7.31,27.146 7.463,26.875 "/>
<polygon fill="#E2E2D2" points="14.766,29.146 21.909,31.064 21.902,27.632 14.765,25.736 "/>
<polygon fill="#C6BDA2" points="15.065,29.231 14.767,29.144 14.767,25.733 15.065,25.821 "/>
<polygon fill="#C6BDA2" points="21.894,30.729 21.888,31.05 14.784,29.152 14.937,28.883 "/>
<polygon fill="#E2E2D2" points="22.297,31.174 29.44,33.094 29.434,29.66 22.296,27.764 "/>
<polygon fill="#C6BDA2" points="22.597,31.259 22.298,31.171 22.298,27.762 22.597,27.85 "/>
<polygon fill="#C6BDA2" points="29.425,32.756 29.419,33.078 22.316,31.182 22.469,30.911 "/>
<polygon fill="#E2E2D2" points="7.291,33.428 14.434,35.349 14.428,30.113 7.29,28.218 "/>
<polygon fill="#C6BDA2" points="7.591,33.514 7.292,33.426 7.292,28.215 7.591,28.303 "/>
<polygon fill="#E2E2D2" points="14.766,35.437 21.909,37.43 21.902,32.123 14.765,30.227 "/>
<polygon fill="#C6BDA2" points="15.065,35.522 14.767,35.435 14.767,30.225 15.065,30.313 "/>
<polygon fill="#E2E2D2" points="22.297,37.529 29.44,39.521 29.434,34.15 22.296,32.254 "/>
<polygon fill="#C6BDA2" points="22.597,37.604 22.298,37.516 22.298,32.251 22.597,32.339 "/>
<polygon fill="#CFCDB8" points="34.699,21.439 31.087,24.146 31.09,20.71 34.699,18.029 "/>
<polygon fill="#C6BDA2" points="34.462,21.6 34.697,21.438 34.697,18.028 34.462,18.19 "/>
<polygon fill="#C6BDA2" points="31.077,23.836 31.08,24.154 34.689,21.456 34.613,21.259 "/>
<polygon fill="#CFCDB8" points="38.779,18.372 35.167,21.08 35.17,17.643 38.779,14.962 "/>
<polygon fill="#C6BDA2" points="38.542,18.55 38.778,18.371 38.778,14.961 38.542,15.141 "/>
<polygon fill="#C6BDA2" points="35.173,20.77 35.177,21.088 38.769,18.422 38.692,18.226 "/>
<polygon fill="#CFCDB8" points="34.699,26.119 31.087,28.827 31.09,25.391 34.699,22.709 "/>
<polygon fill="#C6BDA2" points="34.462,26.28 34.697,26.117 34.697,22.707 34.462,22.87 "/>
<polygon fill="#C6BDA2" points="31.077,28.517 31.08,28.836 34.689,26.136 34.613,25.938 "/>
<polygon fill="#CFCDB8" points="38.779,23.053 35.167,25.76 35.17,22.323 38.779,19.642 "/>
<polygon fill="#C6BDA2" points="38.542,23.23 38.778,23.051 38.778,19.641 38.542,19.82 "/>
<polygon fill="#C6BDA2" points="35.173,25.449 35.177,25.768 38.769,23.102 38.692,22.906 "/>
<polygon fill="#CFCDB8" points="34.699,30.559 31.087,33.268 31.09,29.83 34.699,27.149 "/>
<polygon fill="#C6BDA2" points="34.462,30.721 34.697,30.559 34.697,27.148 34.462,27.311 "/>
<polygon fill="#C6BDA2" points="31.077,32.957 31.08,33.275 34.689,30.576 34.613,30.379 "/>
<polygon fill="#CFCDB8" points="38.779,27.492 35.167,30.2 35.17,26.764 38.779,24.082 "/>
<polygon fill="#C6BDA2" points="38.542,27.67 38.778,27.491 38.778,24.082 38.542,24.26 "/>
<polygon fill="#C6BDA2" points="35.173,29.89 35.177,30.209 38.769,27.543 38.692,27.346 "/>
<line fill="none" stroke="#999999" stroke-width="1.2" stroke-linecap="round" x1="19.088" y1="12.043" x2="19.088" y2="3.079"/>
<line fill="none" stroke="#999999" stroke-width="1.2" stroke-linecap="round" x1="21.825" y1="10.246" x2="21.825" y2="1.281"/>
<line fill="none" stroke="#999999" stroke-width="1.2" stroke-linecap="round" x1="24.406" y1="13.555" x2="24.406" y2="4.59"/>
<line fill="none" stroke="#999999" stroke-width="1.2" stroke-linecap="round" x1="27.218" y1="11.427" x2="27.218" y2="2.462"/>
<polygon fill="none" stroke="#999999" stroke-width="1.2" stroke-linecap="round" stroke-linejoin="round" points="19.088,9.646 
	24.353,11 27.218,8.863 21.956,7.508 "/>
<polygon fill="none" stroke="#999999" stroke-width="1.2" stroke-linecap="round" stroke-linejoin="round" points="19.088,6.935 
	24.353,8.29 27.218,6.153 21.956,4.798 "/>
<polygon fill="none" stroke="#999999" stroke-width="1.2" stroke-linecap="round" stroke-linejoin="round" points="19.088,4.12 
	24.353,5.475 27.218,3.339 21.956,1.983 "/>
<polygon fill="#C6BDA2" points="18.555,36.51 18.257,36.422 18.257,31.172 18.555,31.26 "/>
<polygon fill="#D4CDB4" points="18.261,36.406 18.094,36.371 18.094,31.039 18.261,31.117 "/>
<polygon fill="#C6BDA2" points="26.027,38.584 25.728,38.496 25.728,33.246 26.027,33.334 "/>
<polygon fill="#D4CDB4" points="25.733,38.48 25.566,38.447 25.566,33.113 25.733,33.191 "/>
<polygon fill="#C6BDA2" points="11.049,34.438 10.75,34.35 10.75,29.1 11.049,29.188 "/>
<polygon fill="#D4CDB4" points="10.755,34.334 10.588,34.301 10.588,28.968 10.755,29.046 "/>
</svg>
