<?xml version="1.0" encoding="utf-8"?>
<!-- Generator: Adobe Illustrator 15.0.2, SVG Export Plug-In . SVG Version: 6.00 Build 0)  -->
<!DOCTYPE svg PUBLIC "-//W3C//DTD SVG 1.1//EN" "http://www.w3.org/Graphics/SVG/1.1/DTD/svg11.dtd">
<svg version="1.1" xmlns="http://www.w3.org/2000/svg" xmlns:xlink="http://www.w3.org/1999/xlink" x="0px" y="0px" width="50px"
	 height="50px" viewBox="0 0 50 50" enable-background="new 0 0 50 50" xml:space="preserve">

<g id="Layer_5" display="none"><g display="inline"><path fill="#D9D7C6" d="M29.652,33.578l-18.896-5.117c-0.392-0.106-0.664-0.463-0.664-0.868l0,0l-0.005-4.772c0-0.144,0.034-0.286,0.099-0.413l0,0l0.027-0.054c0.064-0.127,0.155-0.232,0.271-0.316l0,0l9.3-6.779c0.218-0.159,0.495-0.212,0.757-0.145l0,0l19.068,4.878c0.16,0.042,0.314,0.132,0.428,0.253l0,0l0.076,0.081c0.158,0.167,0.246,0.387,0.246,0.617l0,0v4.764c0,0.282-0.135,0.549-0.359,0.719l0,0l-9.408,7.066c-0.16,0.119-0.352,0.181-0.541,0.181l0,0C29.914,33.672,29.777,33.64,29.652,33.578L29.652,33.578z M11.891,26.903l17.99,4.871l8.678-6.519v-3.68L20.5,16.963l-8.614,6.28L11.891,26.903L11.891,26.903z"/>
<path fill="#FFFFFF" d="M29.986,27.897 M30.006,27.897 M30.004,27.82 M10.987,22.818l0.004,4.773l19.015,5.149l0.045,0.03l9.408-7.066v-4.763l-0.076-0.081l-19.069-4.876l-9.3,6.779L10.987,22.818z"/>
<linearGradient id="SVGID_12_" gradientUnits="userSpaceOnUse" x1="4.2808" y1="33.7197" x2="32.9092" y2="23.1358">
<stop  offset="0" style="stop-color:#9BA1A3"/>
<stop  offset="0.2747" style="stop-color:#D1D2D3"/>
<stop  offset="0.9157" style="stop-color:#888E94"/>
</linearGradient>
<polygon fill="url(#SVGID_12_)" points="10.991,27.539 30.006,32.686 29.986,27.843 10.987,22.765 		"/>
<polygon fill="#8D949A" points="30.051,32.717 39.459,25.651 39.459,20.889 30.006,27.843 		"/>
<linearGradient id="SVGID_13_" gradientUnits="userSpaceOnUse" x1="11.0142" y1="21.8481" x2="39.3828" y2="21.8481">
<stop  offset="0" style="stop-color:#FFFFFF"/>
<stop  offset="1" style="stop-color:#7F858C"/>
</linearGradient>
<polygon fill="url(#SVGID_13_)" points="30.004,27.766 11.014,22.711 20.314,15.931 39.383,20.807 		"/>
<polygon fill="#E6E6E6" points="33.348,21.743 27.99,25.688 25.833,25.119 31.191,21.175 		"/>
<polygon fill="#E6E6E6" points="29.219,21.38 33.695,20.328 33.879,22.635 		"/>
<polygon fill="#8F969C" points="25.307,18.334 19.95,22.279 17.792,21.71 23.15,17.766 		"/>
<polygon fill="#8F969C" points="17.288,21.03 17.308,23.082 21.948,22.284 		"/></g></g></svg>
