<?xml version="1.0" encoding="utf-8"?>
<!-- Generator: Adobe Illustrator 12.0.0, SVG Export Plug-In . SVG Version: 6.00 Build 51448)  -->
<!DOCTYPE svg PUBLIC "-//W3C//DTD SVG 1.1//EN" "http://www.w3.org/Graphics/SVG/1.1/DTD/svg11.dtd" [
	<!ENTITY ns_svg "http://www.w3.org/2000/svg">
	<!ENTITY ns_xlink "http://www.w3.org/1999/xlink">
]>
<svg  version="1.1" id="Layer_1" xmlns="&ns_svg;" xmlns:xlink="&ns_xlink;" width="32.141" height="22.734"
	 viewBox="0 0 32.141 22.734" overflow="visible" enable-background="new 0 0 32.141 22.734" xml:space="preserve">
<path fill="#FFFFFF" d="M6.282,6.469l0.016,5.591l-1.441,1.062l-0.023-0.006l-0.225,0.164l0.026,0.006l-3.367,2.482
	c-0.349,0.256-0.444,0.541-0.306,0.764c-0.069,0.27,0.117,0.514,0.55,0.633l16.811,4.601c0.67,0.183,1.676-0.005,2.233-0.419
	l10.325-7.658c0.356-0.266,0.443-0.551,0.284-0.764c0.143-0.301-0.04-0.577-0.527-0.689l-4.508-1.049V4.692l-0.102-0.09"/>
<path fill="#D9D7C5" d="M18.083,22.633l-16.81-4.602c-0.29-0.082-0.566-0.207-0.806-0.434c-0.236-0.217-0.418-0.572-0.421-0.936
	c-0.03-0.111-0.048-0.227-0.047-0.34c0.015-0.606,0.366-1.006,0.733-1.279l1.865-1.376l-0.053-0.015l2.107-1.516l0.018,0.004
	l0.725-0.536L5.38,6.016L13.444,0l13.25,3.988l0.335,0.297v6.186l3.811,0.885c0.292,0.069,0.573,0.181,0.824,0.402
	c0.252,0.213,0.453,0.588,0.446,0.971c0.001,0.041-0.001,0.082-0.005,0.123c0.023,0.096,0.036,0.194,0.035,0.293
	c-0.017,0.606-0.365,0.994-0.725,1.266L21.09,22.069c-0.642,0.46-1.419,0.653-2.191,0.665
	C18.627,22.732,18.356,22.707,18.083,22.633 M20.021,20.622l10.149-7.528l-0.041-0.055L25.229,11.9V5.035L13.532,2.051l-6.35,4.871
	l0.015,5.135l-0.899,0.002l0.899-0.002l0.001,0.457l-2.157,1.588l-3.06,2.256l16.577,4.539c0.076,0.021,0.198,0.039,0.34,0.037
	C19.298,20.945,19.836,20.773,20.021,20.622"/>
<path fill="#969688" d="M9.403,10.02L1.841,15.58c-0.934,0.686-0.783,1.498,0.334,1.804l15.185,4.155
	c1.117,0.307,2.793-0.008,3.723-0.699l8.973-6.653c0.93-0.69,0.769-1.47-0.36-1.731l-5.641-1.312"/>
<path fill="#F4F6EB" d="M9.43,9.637l-7.634,5.628c-0.933,0.687-0.78,1.497,0.338,1.8l15.195,4.114
	c1.118,0.302,2.793-0.017,3.722-0.709l8.979-6.692c0.929-0.693,0.766-1.475-0.363-1.736l-5.641-1.311"/>
<polygon fill="#878686" points="6.494,18.229 8.917,16.42 9.187,16.492 6.764,18.301 "/>
<polygon fill="#878686" points="12.916,20.004 15.34,18.195 15.609,18.268 13.187,20.076 "/>
<polygon fill="#878686" points="24.161,14.9 24.389,14.738 27.546,15.588 27.321,15.752 "/>
<polygon fill="#878686" points="20.804,17.437 21.029,17.273 24.188,18.125 23.962,18.287 "/>
<polygon fill="#878686" points="4.458,13.275 4.685,13.113 7.843,13.963 7.617,14.127 "/>
<polygon fill="#AB9983" points="18.493,19.257 26.011,13.637 26.011,4.828 18.485,10.379 "/>
<polygon fill="#C7B299" points="6.179,15.928 18.465,19.238 18.451,10.379 6.177,7.114 "/>
<polygon fill="#F0E6DF" points="6.153,7.468 13.752,1.677 25.987,5.183 18.429,10.734 "/>
</svg>
