<?xml version="1.0" encoding="utf-8"?>
<!-- Generator: Adobe Illustrator 12.0.0, SVG Export Plug-In . SVG Version: 6.00 Build 51448)  -->
<!DOCTYPE svg PUBLIC "-//W3C//DTD SVG 1.1//EN" "http://www.w3.org/Graphics/SVG/1.1/DTD/svg11.dtd" [
	<!ENTITY ns_svg "http://www.w3.org/2000/svg">
	<!ENTITY ns_xlink "http://www.w3.org/1999/xlink">
]>
<svg  version="1.1" id="Layer_1" xmlns="&ns_svg;" xmlns:xlink="&ns_xlink;" width="27.225" height="34.366"
	 viewBox="0 0 27.225 34.366" overflow="visible" enable-background="new 0 0 27.225 34.366" xml:space="preserve">
<path fill="#FFFFFF" d="M8.081,7.625l0.001,4.949L6.564,13.68l0.019,0.059l0.001,10.633l-3.047,2.244l-0.007-0.001l-0.238,0.171
	l0.011,0.002l-2.017,1.487c-0.366,0.269-0.467,0.568-0.323,0.804c-0.073,0.285,0.124,0.545,0.58,0.67l13.259,3.644
	c0.705,0.192,1.764-0.004,2.354-0.438l8.79-6.498c0.377-0.278,0.468-0.58,0.3-0.805c0.15-0.314-0.041-0.605-0.557-0.725
	l-5.577-1.297V12.435l-0.041-0.043l-1.293-0.346V6.594L18.745,6.56l-1.396-0.373V2.256l-0.024-0.025L12.345,0.9l-2.85,2.077
	l0.01,0.035l0.002,3.516l-1.441,1.05L8.081,7.625z"/>
<path fill="#D9D7C5" d="M14.562,34.258L1.303,30.616c-0.299-0.085-0.583-0.215-0.829-0.448c-0.242-0.224-0.426-0.588-0.426-0.96
	c-0.031-0.113-0.049-0.23-0.048-0.35c0.014-0.612,0.371-1.023,0.752-1.308l1.909-1.405c0.032-0.033,0.068-0.063,0.106-0.09
	l0.237-0.172c0.027-0.019,0.054-0.035,0.081-0.053l2.6-1.916L5.683,13.861c-0.071-0.342,0.063-0.699,0.351-0.909l1.148-0.837
	L7.18,7.742c-0.061-0.337,0.074-0.686,0.356-0.89l1.07-0.781L8.605,3.115C8.555,2.787,8.69,2.45,8.964,2.25l2.849-2.077
	c0.218-0.159,0.501-0.212,0.763-0.143l4.98,1.331c0.156,0.042,0.301,0.127,0.414,0.243l0.023,0.025
	c0.162,0.167,0.254,0.393,0.254,0.627v3.24l0.729,0.194c0.161,0.043,0.302,0.127,0.417,0.247l0.032,0.034
	c0.161,0.169,0.251,0.39,0.251,0.623v4.761l0.626,0.167c0.159,0.044,0.305,0.129,0.42,0.25l0.041,0.043
	c0.157,0.167,0.247,0.39,0.247,0.62v10.479l4.88,1.136c0.302,0.07,0.589,0.186,0.847,0.41c0.258,0.217,0.463,0.598,0.456,0.987
	c0,0.044-0.003,0.088-0.007,0.131c0.025,0.1,0.039,0.204,0.038,0.31c-0.015,0.614-0.373,1.01-0.745,1.293l-8.792,6.497
	c-0.665,0.474-1.474,0.677-2.276,0.688C15.128,34.365,14.846,34.334,14.562,34.258 M16.621,32.229l8.731-6.455V25.77l-5.444-1.265
	c-0.408-0.095-0.695-0.459-0.695-0.876V13.094l-0.668-0.178c-0.395-0.106-0.668-0.462-0.668-0.87V7.259l-0.76-0.203
	c-0.395-0.106-0.668-0.462-0.668-0.87V2.929L12.527,1.88l-2.123,1.547l0.002,3.1c0,0.289-0.137,0.557-0.37,0.727L8.98,8.024
	l0.001,4.548c0,0.289-0.136,0.558-0.369,0.728l-1.129,0.823L7.484,24.37c0,0.286-0.136,0.555-0.366,0.724l-3.047,2.246
	c-0.029,0.022-0.06,0.041-0.092,0.06l-0.053,0.039c-0.028,0.026-0.057,0.052-0.089,0.074l-1.91,1.408l13.111,3.602
	c0.086,0.025,0.22,0.043,0.373,0.041C15.841,32.575,16.416,32.395,16.621,32.229 M8.081,7.625L8.096,7.62L8.081,7.625z"/>
<path fill="#969688" d="M10.027,22.173l-7.949,5.873c-0.982,0.726-0.822,1.583,0.355,1.905l11.547,3.173
	c1.175,0.323,2.943-0.007,3.923-0.731l7.361-5.441c0.982-0.725,0.813-1.545-0.377-1.82l-5.941-1.381"/>
<path fill="#F4F6EB" d="M9.976,21.865l-7.942,5.854c-0.982,0.724-0.822,1.576,0.356,1.896l11.559,3.131
	c1.177,0.319,2.943-0.017,3.921-0.744l7.369-5.481c0.979-0.728,0.807-1.549-0.382-1.825l-5.942-1.382"/>
<polygon fill="#878686" points="5.471,30.384 8.022,28.481 8.307,28.555 5.755,30.46 "/>
<polygon fill="#878686" points="11.117,31.928 13.669,30.024 13.953,30.1 11.401,32.006 "/>
<polygon fill="#878686" points="19.145,25.866 21.698,23.961 21.981,24.038 19.429,25.943 "/>
<polygon fill="#878686" points="19.435,27.483 19.672,27.312 23,28.208 22.763,28.379 "/>
<polygon fill="#878686" points="15.897,30.154 16.134,29.983 19.462,30.879 19.225,31.049 "/>
<polygon fill="#878686" points="3.327,26.754 3.565,26.583 6.892,27.48 6.655,27.65 "/>
<polygon fill="#CB9284" points="15.098,31.09 20.07,27.356 20.07,12.782 15.074,16.458 "/>
<polygon fill="#C38B7D" points="15.072,16.417 6.523,14.026 11.438,10.443 20.029,12.739 "/>
<polygon fill="#CE9588" points="6.544,28.665 15.074,31.075 15.063,16.458 6.542,14.085 "/>
<polygon fill="#CB9284" points="18.736,12.56 18.736,6.94 14.784,9.847 14.804,15.513 "/>
<polygon fill="#C38B7D" points="14.785,9.815 8.024,7.925 11.91,5.092 18.703,6.908 "/>
<polygon fill="#CE9588" points="14.785,15.499 14.777,9.847 8.039,7.972 8.041,13.595 "/>
<polygon fill="#CB9284" points="17.306,6.723 17.306,2.603 14.411,4.734 14.425,8.888 "/>
<polygon fill="#C38B7D" points="14.41,4.71 9.453,3.325 12.303,1.248 17.283,2.579 "/>
<polygon fill="#CE9588" points="14.41,8.879 14.404,4.734 9.463,3.359 9.465,7.482 "/>
<polygon fill="#E2AA9C" points="9.121,18.766 7.178,18.25 7.178,15.058 9.121,15.574 "/>
<polygon fill="#E2AA9C" points="11.692,19.435 9.749,18.926 9.749,15.735 11.692,16.244 "/>
<polygon fill="#E2AA9C" points="14.38,20.176 12.438,19.654 12.438,16.462 14.38,16.986 "/>
<polygon fill="#E2AA9C" points="9.121,22.324 7.178,21.807 7.178,18.617 9.121,19.133 "/>
<polygon fill="#E2AA9C" points="11.692,22.994 9.749,22.486 9.749,19.293 11.692,19.801 "/>
<polygon fill="#E2AA9C" points="14.38,23.735 12.438,23.212 12.438,20.02 14.38,20.543 "/>
<polygon fill="#E2AA9C" points="9.121,25.815 7.178,25.299 7.178,22.108 9.121,22.624 "/>
<polygon fill="#E2AA9C" points="11.692,26.485 9.749,25.977 9.749,22.785 11.692,23.293 "/>
<polygon fill="#E2AA9C" points="14.38,27.226 12.438,26.704 12.438,23.511 14.38,24.036 "/>
<polygon fill="#E2AA9C" points="10.041,11.484 8.438,11.059 8.438,8.425 10.041,8.851 "/>
<polygon fill="#E2AA9C" points="12.216,12.072 10.613,11.653 10.613,9.02 12.216,9.439 "/>
<polygon fill="#E2AA9C" points="14.38,12.649 12.777,12.216 12.777,9.583 14.38,10.016 "/>
<polygon fill="#E2AA9C" points="10.041,13.79 8.438,13.365 8.438,11.452 10.041,11.877 "/>
<polygon fill="#E2AA9C" points="12.216,14.378 10.613,13.959 10.613,12.046 12.216,12.465 "/>
<polygon fill="#E2AA9C" points="14.38,14.955 12.777,14.522 12.777,12.61 14.38,13.042 "/>
<polygon fill="#E2AA9C" points="11.663,7.311 10.06,6.891 10.06,4.258 11.663,4.678 "/>
<polygon fill="#E2AA9C" points="13.826,7.886 12.223,7.455 12.223,4.822 13.826,5.253 "/>
<polygon fill="#B98274" points="15.804,7.253 14.798,7.998 14.798,5.364 15.804,4.621 "/>
<polygon fill="#B98274" points="17.064,6.348 16.058,7.092 16.058,4.458 17.064,3.714 "/>
<polygon fill="#B98274" points="16.109,11.952 15.103,12.695 15.103,10.062 16.109,9.319 "/>
<polygon fill="#B98274" points="17.369,11.067 16.363,11.812 16.363,9.177 17.369,8.435 "/>
<polygon fill="#B98274" points="18.584,10.193 17.578,10.937 17.578,8.303 18.584,7.56 "/>
<polygon fill="#B98274" points="16.699,19.341 15.447,20.267 15.447,16.991 16.699,16.066 "/>
<polygon fill="#B98274" points="18.266,18.243 17.014,19.167 17.014,15.892 18.266,14.966 "/>
<polygon fill="#B98274" points="19.778,17.155 18.526,18.079 18.526,14.804 19.778,13.878 "/>
<polygon fill="#B98274" points="16.699,22.899 15.447,23.823 15.447,20.548 16.699,19.624 "/>
<polygon fill="#B98274" points="18.266,21.799 17.014,22.725 17.014,19.449 18.266,18.524 "/>
<polygon fill="#B98274" points="19.778,20.711 18.526,21.637 18.526,18.362 19.778,17.436 "/>
<polygon fill="#B98274" points="16.699,26.43 15.447,27.356 15.447,24.081 16.699,23.155 "/>
<polygon fill="#B98274" points="18.266,25.332 17.014,26.256 17.014,22.981 18.266,22.055 "/>
<polygon fill="#B98274" points="19.778,24.243 18.526,25.169 18.526,21.893 19.778,20.968 "/>
<polygon fill="#B98274" points="16.109,14.156 15.103,14.9 15.103,13.086 16.109,12.342 "/>
<polygon fill="#B98274" points="17.369,13.272 16.363,14.016 16.363,12.202 17.369,11.458 "/>
<polygon fill="#B98274" points="18.584,12.398 17.578,13.142 17.578,11.328 18.584,10.584 "/>
<path fill="#E2AA9C" d="M9.125,27.377c0-0.602-0.435-1.152-0.972-1.232c-0.513-0.076-0.93,0.311-0.965,0.871l-0.01-0.004v1.835
	l1.943,0.546v-1.865l-0.01-0.002C9.119,27.477,9.125,27.429,9.125,27.377"/>
<path fill="#E2AA9C" d="M11.683,28.196c0.002-0.027,0.007-0.055,0.007-0.082c0-0.602-0.435-1.152-0.971-1.23
	c-0.495-0.073-0.9,0.282-0.96,0.809l-0.01-0.002v0.109c-0.001,0.01-0.003,0.019-0.003,0.027c0,0.01,0.002,0.018,0.003,0.028v1.714
	l1.943,0.55v-1.921L11.683,28.196z"/>
<path fill="#E2AA9C" d="M14.357,28.881c0.002-0.034,0.009-0.066,0.009-0.104c0-0.6-0.435-1.151-0.972-1.23
	c-0.497-0.073-0.902,0.285-0.96,0.816l-0.009-0.002v0.1c-0.001,0.01-0.003,0.02-0.003,0.029c0,0.012,0.002,0.021,0.003,0.033v1.746
	l1.942,0.553v-1.938L14.357,28.881z"/>
<path fill="#B98274" d="M16.699,28.078v-0.006v-0.152l-0.01,0.007c-0.045-0.471-0.303-0.688-0.616-0.482
	c-0.336,0.219-0.606,0.837-0.623,1.398l-0.003,0.004v0.043v0.006v0.007v1.913l1.252-0.924v-1.808V28.078z"/>
<path fill="#B98274" d="M18.274,26.918c0-0.045-0.004-0.086-0.008-0.128v-0.078l-0.005,0.004c-0.059-0.437-0.311-0.629-0.613-0.432
	c-0.324,0.212-0.588,0.797-0.62,1.343l-0.015,0.011v1.998l1.253-0.925v-1.654C18.27,27.011,18.274,26.964,18.274,26.918"/>
<path fill="#B98274" d="M19.771,25.843c-0.022-0.522-0.291-0.774-0.621-0.56c-0.346,0.226-0.627,0.875-0.627,1.453
	c0,0.011,0.002,0.021,0.002,0.031v1.748l1.252-0.934v-1.743L19.771,25.843z"/>
</svg>
