<?xml version="1.0" encoding="utf-8"?>
<!-- Generator: Adobe Illustrator 15.0.2, SVG Export Plug-In . SVG Version: 6.00 Build 0)  -->
<!DOCTYPE svg PUBLIC "-//W3C//DTD SVG 1.1//EN" "http://www.w3.org/Graphics/SVG/1.1/DTD/svg11.dtd">
<svg version="1.1" xmlns="http://www.w3.org/2000/svg" xmlns:xlink="http://www.w3.org/1999/xlink" x="0px" y="0px" width="50px"
	 height="50px" viewBox="0 0 50 50" enable-background="new 0 0 50 50" xml:space="preserve">
<g id="Layer_1" display="none">
	<g display="inline">
		<g>
			<path fill="#FFFFFF" d="M41.58,21.786c-0.35-4.021-7.328-7.23-15.892-7.23c-8.6,0-15.602,3.237-15.895,7.282
				c-0.157,1.585-0.014,4.849-0.014,5.436c0,4.167,7.123,7.546,15.908,7.546c8.787,0,15.91-3.379,15.91-7.546
				C41.598,26.685,41.795,22.849,41.58,21.786z"/>
			<path fill="#D9D7C6" d="M10.206,30.944c-0.936-1.044-1.532-2.306-1.53-3.671l0,0c0.001-0.32-0.061-1.856-0.061-3.313l0,0
				c0.001-0.81,0.018-1.599,0.08-2.231l0,0h0c0.104-1.313,0.746-2.502,1.696-3.496l0,0c0.962-1.007,2.247-1.853,3.772-2.555l0,0
				c3.051-1.398,7.083-2.223,11.524-2.227l0,0c6.631,0.027,12.352,1.791,15.259,4.742l0,0c0.951,0.982,1.604,2.156,1.729,3.457l0,0
				c0.094,0.549,0.103,1.229,0.107,2.022l0,0c0,1.495-0.086,3.293-0.084,3.601l0,0c0.002,1.365-0.594,2.627-1.529,3.671l0,0
				c-0.939,1.051-2.224,1.931-3.76,2.661l0,0c-3.074,1.455-7.187,2.313-11.722,2.316l0,0C18.884,35.893,13.036,34.047,10.206,30.944
				L10.206,30.944z M39.523,29.476c0.674-0.761,0.969-1.485,0.97-2.202l0,0c0.003-0.457,0.083-2.154,0.083-3.601l0,0
				c0.004-0.763-0.034-1.489-0.078-1.669l0,0l1.082-0.218l1.099-0.096l-1.099,0.096l-1.082,0.218l-0.018-0.123
				c-0.061-0.694-0.408-1.415-1.121-2.154l0,0c-0.707-0.734-1.768-1.453-3.104-2.061l0,0c-2.672-1.223-6.426-2.011-10.567-2.009l0,0
				c-6.24-0.026-11.602,1.841-13.7,4.098l0,0c-0.705,0.744-1.044,1.466-1.096,2.162l0,0l-0.001,0.03
				c-0.05,0.489-0.07,1.242-0.07,2.013l0,0c0,1.419,0.06,2.872,0.061,3.313l0,0c0.002,0.717,0.296,1.441,0.97,2.202l0,0
				c0.671,0.756,1.717,1.501,3.06,2.136l0,0c2.682,1.277,6.525,2.107,10.776,2.105l0,0C32.062,33.746,37.522,31.79,39.523,29.476
				L39.523,29.476z"/>
		</g>
		<linearGradient id="SVGID_1_" gradientUnits="userSpaceOnUse" x1="9.665" y1="26.9746" x2="41.627" y2="26.9746">
			<stop  offset="0" style="stop-color:#FFFFFF"/>
			<stop  offset="1" style="stop-color:#7F858C"/>
		</linearGradient>
		<path fill="url(#SVGID_1_)" d="M41.463,21.536c0.314,0.593,0.08,5.062,0.08,5.702c0,4.167-7.123,7.546-15.909,7.546
			c-8.786,0-15.908-3.379-15.908-7.546c0-0.728-0.221-5.559,0.184-6.223c1.914-3.148,8.471-1.324,15.725-1.324
			C33.072,19.691,39.723,18.264,41.463,21.536z"/>
		<linearGradient id="SVGID_2_" gradientUnits="userSpaceOnUse" x1="9.7256" y1="22.0654" x2="41.543" y2="22.0654">
			<stop  offset="0" style="stop-color:#FFFFFF"/>
			<stop  offset="1" style="stop-color:#7F858C"/>
		</linearGradient>
		<ellipse fill="url(#SVGID_2_)" cx="25.634" cy="22.065" rx="15.909" ry="7.546"/>
		<g>
			<linearGradient id="SVGID_3_" gradientUnits="userSpaceOnUse" x1="9.9263" y1="22.228" x2="41.502" y2="22.228">
				<stop  offset="0" style="stop-color:#DBDBDB"/>
				<stop  offset="1" style="stop-color:#7F858C"/>
			</linearGradient>
			<ellipse fill="url(#SVGID_3_)" cx="25.714" cy="22.229" rx="15.788" ry="7.385"/>
			<path fill="#CCCCCC" d="M9.563,22.228c0.113-4.522,7.372-7.71,16.15-7.747l0,0c8.778,0.037,16.037,3.225,16.149,7.747l0,0
				c-0.112,4.521-7.371,7.712-16.149,7.749l0,0C16.936,29.939,9.676,26.749,9.563,22.228L9.563,22.228z M14.704,17.335
				c-2.808,1.31-4.43,3.085-4.416,4.893l0,0c-0.015,1.807,1.608,3.583,4.416,4.894l0,0c2.793,1.309,6.697,2.131,11.01,2.129l0,0
				c4.313,0.002,8.217-0.82,11.01-2.129l0,0c2.808-1.311,4.431-3.087,4.415-4.894l0,0c0.016-1.807-1.607-3.583-4.415-4.893l0,0
				c-2.793-1.31-6.696-2.132-11.01-2.13l0,0c-0.006,0-0.011,0-0.016,0l0,0C21.391,15.205,17.493,16.027,14.704,17.335L14.704,17.335
				z"/>
		</g>
		<g>
			<polygon fill="#F3F3F3" points="36.504,24.771 35.047,21.494 33.387,22.709 28.997,21.531 31.371,19.783 33.544,20.369 
				33.232,16.436 25.599,18.229 27.713,18.799 25.335,20.549 21.281,19.461 22.732,18.397 16.645,18.905 17.596,22.159 
				19.326,20.893 23.389,21.982 19.936,24.524 17.909,23.979 17.945,27.488 25.877,26.124 23.595,25.51 27.049,22.966 
				31.434,24.141 29.911,25.256 			"/>
			<path fill="#8F969C" d="M17.768,27.699c-0.062-0.051-0.099-0.129-0.099-0.209l0,0l-0.037-3.509
				c-0.002-0.086,0.039-0.168,0.106-0.221l0,0c0.067-0.051,0.157-0.072,0.241-0.049l0,0l1.898,0.511l2.884-2.124l-3.383-0.906
				l-1.622,1.188c-0.072,0.053-0.166,0.068-0.25,0.039l0,0c-0.085-0.029-0.151-0.098-0.176-0.184l0,0l-0.953-3.254
				c-0.022-0.08-0.008-0.164,0.039-0.233l0,0c0.045-0.067,0.121-0.11,0.204-0.119l0,0l6.088-0.507
				c0.123-0.01,0.237,0.063,0.28,0.178l0,0c0.043,0.117,0.004,0.245-0.096,0.319l0,0l-0.988,0.724l3.373,0.904l1.809-1.332
				l-1.561-0.421c-0.123-0.033-0.207-0.146-0.205-0.272l0,0c0.002-0.125,0.09-0.233,0.212-0.262l0,0l7.634-1.794
				c0.077-0.018,0.159-0.002,0.226,0.045l0,0c0.064,0.049,0.105,0.121,0.111,0.203l0,0l0.312,3.934
				c0.009,0.088-0.028,0.176-0.099,0.233l0,0c-0.066,0.057-0.161,0.078-0.247,0.053l0,0l-2.044-0.55l-1.806,1.33l3.708,0.994
				l1.553-1.137c0.068-0.049,0.154-0.065,0.235-0.043l0,0c0.08,0.021,0.147,0.078,0.181,0.153l0,0l1.456,3.277l-0.251,0.113
				l0.251-0.113c0.036,0.082,0.03,0.178-0.017,0.254l0,0c-0.045,0.078-0.127,0.126-0.215,0.133l0,0l-6.593,0.487
				c-0.122,0.008-0.235-0.065-0.278-0.18l0,0c-0.043-0.116-0.004-0.245,0.096-0.319l0,0l1.059-0.775l-3.701-0.99l-2.888,2.125
				l1.731,0.464c0.126,0.035,0.21,0.149,0.204,0.28l0,0c-0.006,0.129-0.102,0.237-0.229,0.258l0,0l-7.933,1.364
				c-0.016,0.003-0.032,0.005-0.047,0.005l0,0C17.88,27.764,17.819,27.74,17.768,27.699L17.768,27.699z M18.216,27.162l6.378-1.1
				l-1.072-0.288c-0.102-0.027-0.18-0.111-0.198-0.215l0,0c-0.021-0.104,0.022-0.211,0.106-0.272l0,0l3.455-2.545
				c0.068-0.049,0.154-0.065,0.235-0.045l0,0l4.384,1.176c0.102,0.026,0.18,0.11,0.2,0.215l0,0c0.019,0.104-0.022,0.21-0.108,0.274
				l0,0l-0.748,0.546l5.244-0.387l-1.16-2.604l-1.383,1.012c-0.066,0.049-0.152,0.065-0.234,0.043l0,0l-4.391-1.176
				c-0.102-0.029-0.18-0.113-0.197-0.217l0,0c-0.021-0.104,0.021-0.21,0.105-0.272l0,0l2.375-1.749
				c0.068-0.049,0.156-0.065,0.235-0.043l0,0L33.238,20l-0.256-3.224l-6.257,1.471l1.06,0.284c0.1,0.029,0.18,0.113,0.198,0.217l0,0
				c0.019,0.103-0.022,0.209-0.108,0.272l0,0l-2.377,1.751c-0.067,0.049-0.153,0.066-0.235,0.043l0,0l-4.054-1.088
				c-0.102-0.027-0.18-0.11-0.201-0.215l0,0c-0.018-0.104,0.022-0.211,0.108-0.274l0,0l0.663-0.484l-4.776,0.399l0.747,2.553
				l1.414-1.035c0.067-0.049,0.153-0.065,0.233-0.043l0,0l4.064,1.09c0.103,0.026,0.178,0.11,0.199,0.215l0,0
				c0.021,0.104-0.022,0.21-0.108,0.272l0,0L20.1,24.746c-0.067,0.049-0.155,0.065-0.235,0.045l0,0l-1.678-0.452L18.216,27.162
				L18.216,27.162z"/>
		</g>
	</g>
</g>
<g id="Layer_2" display="none">
	<g display="inline">
		<path fill="#D9D7C6" d="M34.342,34.828l-28.147-7.62c-0.392-0.105-0.665-0.463-0.665-0.867l0,0l-0.005-4.773
			c0-0.143,0.034-0.286,0.099-0.412l0,0l0.028-0.055c0.065-0.127,0.155-0.232,0.271-0.316l0,0l9.3-6.779
			c0.217-0.159,0.496-0.212,0.757-0.145l0,0l28.321,7.381c0.16,0.043,0.312,0.133,0.428,0.254l0,0l0.076,0.08
			c0.156,0.168,0.244,0.389,0.244,0.618l0,0v4.763c0,0.283-0.133,0.55-0.359,0.721l0,0l-9.408,7.064
			c-0.16,0.121-0.35,0.181-0.541,0.181l0,0C34.605,34.922,34.469,34.891,34.342,34.828L34.342,34.828z M7.329,25.651l27.242,7.374
			l8.678-6.519v-3.68l-27.309-7.116L7.325,21.99L7.329,25.651L7.329,25.651z"/>
		<path fill="#FFFFFF" d="M34.676,29.147 M34.695,29.147 M34.693,29.071 M6.425,21.565l0.004,4.775l28.266,7.651l0.047,0.03
			l9.406-7.066v-4.763l-0.074-0.081l-28.322-7.379l-9.3,6.779L6.425,21.565z"/>
		<linearGradient id="SVGID_4_" gradientUnits="userSpaceOnUse" x1="-2.8057" y1="36.3633" x2="38.4453" y2="21.1128">
			<stop  offset="0" style="stop-color:#9BA1A3"/>
			<stop  offset="0.2747" style="stop-color:#D1D2D3"/>
			<stop  offset="0.9157" style="stop-color:#888E94"/>
		</linearGradient>
		<polygon fill="url(#SVGID_4_)" points="6.429,26.286 34.695,33.938 34.676,29.093 6.425,21.513 		"/>
		<polygon fill="#8D949A" points="34.742,33.968 44.148,26.903 44.148,22.14 34.695,29.093 		"/>
		<linearGradient id="SVGID_5_" gradientUnits="userSpaceOnUse" x1="6.4526" y1="21.8467" x2="44.0742" y2="21.8467">
			<stop  offset="0" style="stop-color:#FFFFFF"/>
			<stop  offset="1" style="stop-color:#7F858C"/>
		</linearGradient>
		<polygon fill="url(#SVGID_5_)" points="34.693,29.016 6.453,21.458 15.752,14.678 44.074,22.058 		"/>
		<g>
			<polygon fill="#7D7F81" points="28.289,28.763 31.779,29.704 31.779,30.946 28.311,30.026 			"/>
			<polygon fill="#7D7F81" points="28.566,29.534 31.33,30.278 31.33,31.263 28.584,30.533 			"/>
			<polygon fill="#7D7F81" points="29.25,30.622 30.561,30.976 30.561,31.524 29.26,31.181 			"/>
		</g>
		<g>
			<polygon fill="#7D7F81" points="22.951,27.321 26.441,28.263 26.441,29.505 22.973,28.585 			"/>
			<polygon fill="#7D7F81" points="23.23,28.093 25.992,28.837 25.992,29.821 23.247,29.092 			"/>
			<polygon fill="#7D7F81" points="23.914,29.181 25.223,29.534 25.223,30.083 23.923,29.739 			"/>
		</g>
		<g>
			<polygon fill="#7D7F81" points="17.633,26.044 21.124,26.985 21.124,28.228 17.655,27.308 			"/>
			<polygon fill="#7D7F81" points="17.911,26.815 20.674,27.56 20.674,28.544 17.928,27.814 			"/>
			<polygon fill="#7D7F81" points="18.595,27.903 19.905,28.257 19.905,28.806 18.604,28.462 			"/>
		</g>
		<g>
			<polygon fill="#7D7F81" points="12.458,24.645 15.948,25.587 15.948,26.829 12.479,25.907 			"/>
			<polygon fill="#7D7F81" points="12.736,25.415 15.499,26.161 15.499,27.144 12.752,26.415 			"/>
			<polygon fill="#7D7F81" points="13.419,26.505 14.729,26.858 14.729,27.407 13.429,27.064 			"/>
		</g>
		<g>
			<g>
				<g>
					
						<ellipse transform="matrix(0.9994 -0.0343 0.0343 0.9994 -0.8349 0.2924)" fill="#EDEDED" cx="8.11" cy="24.498" rx="0.712" ry="0.902"/>
				</g>
				<g>
					<radialGradient id="SVGID_6_" cx="8.4551" cy="25.0801" r="1.1832" gradientUnits="userSpaceOnUse">
						<stop  offset="0.1868" style="stop-color:#B0D1A1"/>
						<stop  offset="1" style="stop-color:#FFFFFF"/>
					</radialGradient>
					<path fill="url(#SVGID_6_)" d="M8.822,24.474c0.018,0.498-0.289,0.912-0.682,0.926s-0.726-0.379-0.742-0.877
						c-0.018-0.498,0.288-0.912,0.681-0.927C8.473,23.583,8.806,23.976,8.822,24.474z"/>
				</g>
			</g>
			<path fill="#EDEDED" d="M8.121,25.552c-0.497-0.006-0.861-0.477-0.877-1.025l0,0c0-0.01,0-0.026,0-0.047l0,0
				c-0.002-0.538,0.335-1.017,0.822-1.039l0,0c0,0,0.008-0.002,0.031-0.002l0,0c0.497,0.006,0.861,0.479,0.879,1.029l0,0
				l-0.153,0.006h0.153c0,0.012,0,0.024,0,0.039l0,0c0,0.538-0.337,1.015-0.834,1.039l0,0H8.121L8.121,25.552z M7.55,24.48
				c0,0.006,0.002,0.019,0.002,0.037l0,0c0.014,0.429,0.296,0.734,0.568,0.728l0,0c0,0,0.021,0,0.014,0l0,0
				c0.27-0.004,0.532-0.313,0.532-0.732l0,0c0-0.013,0-0.024,0-0.035l0,0c-0.015-0.434-0.297-0.738-0.571-0.73l0,0
				c0,0-0.004,0-0.012,0l0,0C7.812,23.752,7.552,24.059,7.55,24.48L7.55,24.48z"/>
		</g>
	</g>
</g>
<g id="Layer_3" display="none">
	<g display="inline">
		<polygon fill="none" stroke="#E1DFD7" stroke-width="3.2" stroke-linecap="round" stroke-linejoin="round" points="37.902,16.645 
			16.664,10.785 13.416,13.215 13.416,33.092 34.734,38.902 34.736,38.902 37.982,36.473 		"/>
		<g>
			<g>
				<polygon fill="#D5AD9E" points="13.416,13.215 16.664,10.785 37.902,16.645 34.654,19.074 				"/>
			</g>
			<g>
				<polygon fill="#B68F80" points="34.654,19.074 34.734,38.902 13.416,33.092 13.416,13.215 				"/>
			</g>
			<g>
				<polygon fill="#9A786B" points="34.654,19.074 37.902,16.645 37.982,36.473 34.736,38.902 				"/>
			</g>
			<g>
				<g>
					
						<line fill="none" stroke="#FDDCCF" stroke-width="0.4" stroke-linecap="round" x1="34.654" y1="22.914" x2="37.902" y2="20.484"/>
				</g>
				<g>
					
						<line fill="none" stroke="#FDDCCF" stroke-width="0.4" stroke-linecap="round" x1="34.654" y1="31.234" x2="37.902" y2="28.805"/>
				</g>
				<g>
					
						<line fill="none" stroke="#FDDCCF" stroke-width="0.4" stroke-linecap="round" x1="34.654" y1="27.074" x2="37.902" y2="24.645"/>
				</g>
				<g>
					
						<line fill="none" stroke="#FDDCCF" stroke-width="0.4" stroke-linecap="round" x1="34.654" y1="35.395" x2="37.902" y2="32.965"/>
				</g>
			</g>
			<g>
				<g>
					<g>
						
							<line fill="none" stroke="#FDDCCF" stroke-width="0.4" stroke-linecap="round" x1="13.416" y1="17.055" x2="34.654" y2="22.914"/>
					</g>
					<g>
						
							<line fill="none" stroke="#FDDCCF" stroke-width="0.4" stroke-linecap="round" x1="13.416" y1="21.215" x2="34.654" y2="27.074"/>
					</g>
					<g>
						
							<line fill="none" stroke="#FDDCCF" stroke-width="0.4" stroke-linecap="round" x1="13.416" y1="25.375" x2="34.654" y2="31.234"/>
					</g>
					<g>
						
							<line fill="none" stroke="#FDDCCF" stroke-width="0.4" stroke-linecap="round" x1="13.416" y1="29.535" x2="34.654" y2="35.395"/>
					</g>
				</g>
				<g>
					
						<line fill="none" stroke="#FDDCCF" stroke-width="0.4" stroke-linecap="round" x1="19.483" y1="22.889" x2="19.483" y2="27.049"/>
					
						<line fill="none" stroke="#FDDCCF" stroke-width="0.4" stroke-linecap="round" x1="19.483" y1="34.574" x2="19.483" y2="31.209"/>
					
						<line fill="none" stroke="#FDDCCF" stroke-width="0.4" stroke-linecap="round" x1="19.483" y1="14.873" x2="19.483" y2="18.729"/>
					
						<line fill="none" stroke="#FDDCCF" stroke-width="0.4" stroke-linecap="round" x1="22.518" y1="19.566" x2="22.518" y2="23.727"/>
					
						<line fill="none" stroke="#FDDCCF" stroke-width="0.4" stroke-linecap="round" x1="22.518" y1="32.047" x2="22.518" y2="27.887"/>
					
						<line fill="none" stroke="#FDDCCF" stroke-width="0.4" stroke-linecap="round" x1="25.552" y1="36.254" x2="25.552" y2="32.883"/>
					
						<line fill="none" stroke="#FDDCCF" stroke-width="0.4" stroke-linecap="round" x1="25.552" y1="24.564" x2="25.552" y2="28.723"/>
					
						<line fill="none" stroke="#FDDCCF" stroke-width="0.4" stroke-linecap="round" x1="25.552" y1="16.553" x2="25.552" y2="20.404"/>
					
						<line fill="none" stroke="#FDDCCF" stroke-width="0.4" stroke-linecap="round" x1="28.586" y1="33.721" x2="28.586" y2="29.561"/>
					<line fill="none" stroke="#FDDCCF" stroke-width="0.4" stroke-linecap="round" x1="28.586" y1="21.24" x2="28.586" y2="25.4"/>
					
						<line fill="none" stroke="#FDDCCF" stroke-width="0.4" stroke-linecap="round" x1="31.619" y1="18.254" x2="31.619" y2="22.076"/>
					
						<line fill="none" stroke="#FDDCCF" stroke-width="0.4" stroke-linecap="round" x1="31.619" y1="38.113" x2="31.619" y2="34.557"/>
					
						<line fill="none" stroke="#FDDCCF" stroke-width="0.4" stroke-linecap="round" x1="31.619" y1="30.396" x2="31.619" y2="26.236"/>
					
						<line fill="none" stroke="#FDDCCF" stroke-width="0.4" stroke-linecap="round" x1="16.45" y1="30.371" x2="16.45" y2="26.211"/>
					
						<line fill="none" stroke="#FDDCCF" stroke-width="0.4" stroke-linecap="round" x1="16.45" y1="17.893" x2="16.45" y2="22.051"/>
				</g>
			</g>
			<g>
				<polyline fill="none" stroke="#FFF3EF" stroke-width="0.8" stroke-linecap="round" points="37.586,16.961 34.654,19.074 
					14.055,13.352 				"/>
			</g>
			
				<line fill="none" stroke="#FFF3EF" stroke-width="0.8" stroke-linecap="round" x1="34.654" y1="19.074" x2="34.662" y2="38.094"/>
		</g>
	</g>
</g>
<g id="Layer_4" display="none">
	<g display="inline">
		<linearGradient id="SVGID_7_" gradientUnits="userSpaceOnUse" x1="56.6992" y1="18.791" x2="56.6992" y2="18.791">
			<stop  offset="0" style="stop-color:#FFFFFF"/>
			<stop  offset="1" style="stop-color:#739680"/>
		</linearGradient>
		
			<polygon fill="url(#SVGID_7_)" stroke="#010101" stroke-width="0.3933" stroke-linecap="round" stroke-linejoin="round" stroke-miterlimit="10" points="
			56.699,18.791 56.699,18.791 56.699,18.791 		"/>
		<linearGradient id="SVGID_8_" gradientUnits="userSpaceOnUse" x1="56.6992" y1="31.082" x2="56.6992" y2="31.082">
			<stop  offset="0" style="stop-color:#FFFFFF"/>
			<stop  offset="1" style="stop-color:#739680"/>
		</linearGradient>
		
			<polygon fill="url(#SVGID_8_)" stroke="#010101" stroke-width="0.3933" stroke-linecap="round" stroke-linejoin="round" stroke-miterlimit="10" points="
			56.699,31.082 56.699,31.082 56.699,31.082 		"/>
		<linearGradient id="SVGID_9_" gradientUnits="userSpaceOnUse" x1="-7.8379" y1="31.082" x2="-7.8379" y2="18.7915">
			<stop  offset="0" style="stop-color:#FFFFFF"/>
			<stop  offset="1" style="stop-color:#80838B"/>
		</linearGradient>
		<path fill="url(#SVGID_9_)" d="M-7.838,18.791c-1.344,0-2.458,2.753-2.458,6.129c0,3.409,1.115,6.162,2.458,6.162
			c1.376,0,2.458-2.753,2.458-6.162C-5.379,21.544-6.461,18.791-7.838,18.791z"/>
		<linearGradient id="SVGID_10_" gradientUnits="userSpaceOnUse" x1="56.6982" y1="31.082" x2="56.6982" y2="18.7915">
			<stop  offset="0" style="stop-color:#FFFFFF"/>
			<stop  offset="1" style="stop-color:#80838B"/>
		</linearGradient>
		<path fill="url(#SVGID_10_)" d="M56.699,18.791c-1.377,0-2.459,2.753-2.459,6.129c0,3.409,1.082,6.162,2.459,6.162
			c1.344,0,2.457-2.753,2.457-6.162C59.156,21.544,58.043,18.791,56.699,18.791z"/>
		<polygon fill="#FFFFFF" points="56.699,18.791 56.699,18.791 56.699,18.791 		"/>
		<polygon fill="#FFFFFF" points="56.699,31.082 56.699,31.082 56.699,31.082 		"/>
		<g>
			<g>
				<g>
					<line fill="none" stroke="#04A052" stroke-width="1.0926" x1="-14.575" y1="23.162" x2="64.741" y2="23.162"/>
					<path fill="#04A052" d="M68.038,23.162c-1.552,0.576-3.476,1.558-4.669,2.598l0.939-2.598l-0.939-2.598
						C64.562,21.604,66.486,22.586,68.038,23.162z"/>
				</g>
			</g>
			<g>
				<g>
					<line fill="none" stroke="#04A052" stroke-width="1.0926" x1="66.346" y1="28.078" x2="-13.671" y2="28.078"/>
					<path fill="#04A052" d="M-16.968,28.078c1.551-0.575,3.476-1.557,4.669-2.598l-0.939,2.598l0.939,2.598
						C-13.492,29.637-15.417,28.654-16.968,28.078z"/>
				</g>
			</g>
		</g>
		<linearGradient id="SVGID_11_" gradientUnits="userSpaceOnUse" x1="24.4302" y1="18.791" x2="24.4302" y2="31.0825">
			<stop  offset="0" style="stop-color:#FFFFFF"/>
			<stop  offset="1" style="stop-color:#739680"/>
		</linearGradient>
		<path fill="url(#SVGID_11_)" d="M54.24,24.92c0-3.376,1.082-6.129,2.459-6.129H-7.838c1.376,0,2.458,2.753,2.458,6.129
			c0,3.409-1.082,6.162-2.458,6.162h64.537C55.322,31.082,54.24,28.329,54.24,24.92z"/>
	</g>
</g>
<g id="Layer_5" display="none">
	<g display="inline">
		<path fill="#D9D7C6" d="M29.652,33.578l-18.896-5.117c-0.392-0.106-0.664-0.463-0.664-0.868l0,0l-0.005-4.772
			c0-0.144,0.034-0.286,0.099-0.413l0,0l0.027-0.054c0.064-0.127,0.155-0.232,0.271-0.316l0,0l9.3-6.779
			c0.218-0.159,0.495-0.212,0.757-0.145l0,0l19.068,4.878c0.16,0.042,0.314,0.132,0.428,0.253l0,0l0.076,0.081
			c0.158,0.167,0.246,0.387,0.246,0.617l0,0v4.764c0,0.282-0.135,0.549-0.359,0.719l0,0l-9.408,7.066
			c-0.16,0.119-0.352,0.181-0.541,0.181l0,0C29.914,33.672,29.777,33.64,29.652,33.578L29.652,33.578z M11.891,26.903l17.99,4.871
			l8.678-6.519v-3.68L20.5,16.963l-8.614,6.28L11.891,26.903L11.891,26.903z"/>
		<path fill="#FFFFFF" d="M29.986,27.897 M30.006,27.897 M30.004,27.82 M10.987,22.818l0.004,4.773l19.015,5.149l0.045,0.03
			l9.408-7.066v-4.763l-0.076-0.081l-19.069-4.876l-9.3,6.779L10.987,22.818z"/>
		<linearGradient id="SVGID_12_" gradientUnits="userSpaceOnUse" x1="4.2808" y1="33.7197" x2="32.9092" y2="23.1358">
			<stop  offset="0" style="stop-color:#9BA1A3"/>
			<stop  offset="0.2747" style="stop-color:#D1D2D3"/>
			<stop  offset="0.9157" style="stop-color:#888E94"/>
		</linearGradient>
		<polygon fill="url(#SVGID_12_)" points="10.991,27.539 30.006,32.686 29.986,27.843 10.987,22.765 		"/>
		<polygon fill="#8D949A" points="30.051,32.717 39.459,25.651 39.459,20.889 30.006,27.843 		"/>
		<linearGradient id="SVGID_13_" gradientUnits="userSpaceOnUse" x1="11.0142" y1="21.8481" x2="39.3828" y2="21.8481">
			<stop  offset="0" style="stop-color:#FFFFFF"/>
			<stop  offset="1" style="stop-color:#7F858C"/>
		</linearGradient>
		<polygon fill="url(#SVGID_13_)" points="30.004,27.766 11.014,22.711 20.314,15.931 39.383,20.807 		"/>
		<polygon fill="#E6E6E6" points="33.348,21.743 27.99,25.688 25.833,25.119 31.191,21.175 		"/>
		<polygon fill="#E6E6E6" points="29.219,21.38 33.695,20.328 33.879,22.635 		"/>
		<polygon fill="#8F969C" points="25.307,18.334 19.95,22.279 17.792,21.71 23.15,17.766 		"/>
		<polygon fill="#8F969C" points="17.288,21.03 17.308,23.082 21.948,22.284 		"/>
	</g>
</g>
<g id="Layer_6">
	<g>
		
			<linearGradient id="SVGID_14_" gradientUnits="userSpaceOnUse" x1="92.3252" y1="288.1572" x2="92.3252" y2="293.6358" gradientTransform="matrix(-1 0 0 -1 116.6973 324.4141)">
			<stop  offset="0" style="stop-color:#B8B8B8"/>
			<stop  offset="1" style="stop-color:#FFFFFF"/>
		</linearGradient>
		<path fill="url(#SVGID_14_)" d="M8.715,22.033c-0.497,0-0.746,0.256-0.842,0.395c-0.39,0.565-0.618,1.248-0.618,1.985
			c0,1.938,1.572,3.511,3.511,3.511c0.636,0,1.23-0.171,1.745-0.467c-0.018,0.109-0.028,0.222-0.028,0.338
			c0,1.157,0.938,2.096,2.095,2.096c0.26,0,0.507-0.051,0.737-0.137c0.618,3.217,3.444,5.646,6.84,5.646
			c0.456,0,0.899-0.045,1.33-0.127c1.039,1.434,2.726,2.367,4.632,2.367c3.159,0,5.722-2.562,5.722-5.721
			c0-0.035-0.003-0.07-0.004-0.104c0.729,0.387,1.561,0.607,2.443,0.607c2.877,0,5.211-2.333,5.211-5.212
			c0-2.682-2.027-4.889-4.633-5.178H8.715z"/>
		<path fill="#D8D6C5" d="M36.884,21.487l0.034,0.003c2.879,0.318,5.116,2.758,5.117,5.723l0,0c-0.001,3.18-2.578,5.756-5.758,5.758
			l0,0c-0.678,0-1.329-0.118-1.934-0.334l0,0c-0.356,3.124-3.009,5.551-6.229,5.551l0,0c-1.961,0-3.717-0.904-4.865-2.319l0,0
			c-0.356,0.053-0.723,0.081-1.095,0.081l0,0c-3.465-0.002-6.378-2.344-7.249-5.533l0,0c-0.107,0.014-0.217,0.021-0.329,0.021l0,0
			c-1.292,0-2.367-0.928-2.597-2.152l0,0c-0.383,0.121-0.792,0.188-1.214,0.188l0,0c-2.24-0.002-4.058-1.818-4.058-4.06l0,0
			c-0.002-0.851,0.266-1.643,0.714-2.294l0,0c0.154-0.238,0.586-0.632,1.272-0.632l0,0c0.007,0,0.013,0,0.02,0l0,0v0.548v0.545
			c-0.295,0.007-0.354,0.123-0.392,0.158l0,0c-0.329,0.479-0.521,1.053-0.521,1.675l0,0c0.004,1.638,1.328,2.964,2.965,2.965l0,0
			c0.536,0,1.036-0.144,1.474-0.394l0,0l0.995-0.572l-0.185,1.133c-0.013,0.09-0.021,0.172-0.021,0.25l0,0
			c0.003,0.855,0.693,1.548,1.548,1.55l0,0c0.19-0.002,0.372-0.037,0.546-0.104l0,0l0.606-0.228l0.122,0.637
			c0.569,2.964,3.173,5.207,6.303,5.205l0,0c0.418,0,0.827-0.041,1.225-0.118l0,0l0.341-0.065l0.204,0.28
			c0.942,1.3,2.467,2.142,4.189,2.142l0,0c2.859-0.004,5.17-2.317,5.176-5.174l0,0c0-0.008-0.001-0.037-0.003-0.09l0,0l-0.024-0.938
			l0.827,0.441c0.653,0.345,1.395,0.543,2.187,0.543l0,0c2.574-0.004,4.66-2.09,4.664-4.664l0,0
			c0.002-2.396-1.807-4.367-4.129-4.633l0,0H8.715v-0.545v-0.548"/>
		
			<linearGradient id="SVGID_15_" gradientUnits="userSpaceOnUse" x1="-211.3472" y1="162.2441" x2="-223.3638" y2="162.2441" gradientTransform="matrix(1 0 0 1 250.5264 -144.8652)">
			<stop  offset="0" style="stop-color:#B8B8B8"/>
			<stop  offset="1" style="stop-color:#FFFFFF"/>
		</linearGradient>
		<path fill="url(#SVGID_15_)" d="M40.754,25.182c0.497,0,0.746-0.256,0.842-0.395c0.391-0.565,0.618-1.248,0.618-1.985
			c0-1.938-1.571-3.512-3.512-3.512c-0.636,0-1.229,0.172-1.744,0.468c0.018-0.109,0.028-0.223,0.028-0.338
			c0-1.158-0.938-2.096-2.095-2.096c-0.26,0-0.507,0.05-0.737,0.137c-0.617-3.217-3.443-5.647-6.84-5.647
			c-0.455,0-0.898,0.046-1.329,0.128c-1.039-1.434-2.726-2.367-4.632-2.367c-3.159,0-5.721,2.562-5.721,5.721
			c0,0.035,0.003,0.07,0.003,0.104c-0.729-0.388-1.56-0.608-2.443-0.608c-2.878,0-5.211,2.334-5.211,5.212
			c0,2.683,2.027,4.89,4.632,5.179H40.754z"/>
		<path fill="#D8D6C5" d="M12.585,25.728l-0.034-0.003c-2.879-0.318-5.116-2.758-5.118-5.723l0,0
			c0.002-3.18,2.579-5.756,5.759-5.758l0,0c0.678,0,1.329,0.118,1.934,0.334l0,0c0.356-3.124,3.008-5.551,6.228-5.551l0,0
			c1.962,0,3.717,0.904,4.865,2.318l0,0c0.356-0.052,0.723-0.08,1.096-0.08l0,0c3.464,0.002,6.378,2.344,7.248,5.533l0,0
			c0.107-0.014,0.217-0.021,0.329-0.021l0,0c1.292,0,2.367,0.928,2.597,2.152l0,0c0.383-0.121,0.791-0.188,1.214-0.188l0,0
			c2.241,0.002,4.058,1.818,4.058,4.06l0,0c0.002,0.851-0.265,1.643-0.713,2.294l0,0c-0.154,0.238-0.586,0.632-1.272,0.632l0,0
			c-0.008,0-0.014,0-0.021,0l0,0V25.18v-0.545c0.296-0.007,0.355-0.123,0.393-0.158l0,0c0.328-0.479,0.521-1.053,0.521-1.675l0,0
			c-0.004-1.638-1.328-2.964-2.966-2.965l0,0c-0.536,0-1.036,0.144-1.474,0.394l0,0l-0.995,0.572l0.185-1.133
			c0.014-0.09,0.021-0.172,0.021-0.25l0,0c-0.003-0.855-0.693-1.549-1.548-1.551l0,0c-0.19,0.002-0.372,0.038-0.546,0.104l0,0
			l-0.606,0.229l-0.122-0.638c-0.569-2.963-3.174-5.206-6.303-5.203l0,0c-0.419,0-0.827,0.04-1.226,0.117l0,0l-0.341,0.065
			l-0.204-0.28c-0.943-1.3-2.467-2.142-4.19-2.142l0,0c-2.858,0.004-5.17,2.316-5.176,5.174l0,0c0,0.008,0.002,0.037,0.004,0.09l0,0
			l0.024,0.938l-0.827-0.441c-0.654-0.345-1.396-0.543-2.187-0.543l0,0c-2.575,0.004-4.661,2.09-4.665,4.664l0,0
			c-0.002,2.396,1.807,4.367,4.129,4.633l0,0h28.097v0.545v0.548"/>
		<g>
			<g>
				<linearGradient id="SVGID_16_" gradientUnits="userSpaceOnUse" x1="7.021" y1="23.1655" x2="30.2905" y2="23.1655">
					<stop  offset="0" style="stop-color:#CCCCCC"/>
					<stop  offset="1" style="stop-color:#FFFFFF"/>
				</linearGradient>
				<path fill="url(#SVGID_16_)" stroke="#FFFFFF" stroke-width="0.9303" d="M40.798,25.285c0-1.706-1.384-3.09-3.091-3.09
					c-0.077,0-0.149,0.017-0.225,0.022c-0.203-2.026-1.895-3.615-3.975-3.615c-0.562,0-1.097,0.118-1.583,0.326
					c-0.374-2.641-2.638-4.673-5.381-4.673c-0.35,0-0.69,0.036-1.021,0.099c-0.447-1.588-1.89-2.759-3.621-2.759
					c-1.821,0-3.339,1.289-3.696,3.003c-1.496,0.246-2.787,1.097-3.607,2.299c-0.583-0.367-1.267-0.587-2.006-0.587
					c-2.086,0-3.777,1.69-3.777,3.777c0,0.566,0.133,1.099,0.357,1.581c-0.712,0.575-1.176,1.444-1.176,2.431
					c0,1.732,1.404,3.137,3.137,3.137c1.107,0,2.075-0.576,2.633-1.442c0.427,2.579,2.662,4.548,5.362,4.548
					c0.201,0,0.399-0.013,0.595-0.034c0.475,2.521,2.686,4.429,5.344,4.429c2.323,0,4.303-1.459,5.083-3.509
					c0.076,0.004,0.148,0.022,0.227,0.022c1.132,0,2.149-0.472,2.88-1.224c0.479,0.306,1.044,0.488,1.655,0.488
					c1.377,0,2.531-0.907,2.931-2.151C39.484,28.292,40.798,26.946,40.798,25.285z"/>
			</g>
		</g>
	</g>
</g>
</svg>
